<svg id="domain-services" xmlns="http://www.w3.org/2000/svg" xmlns:xlink="http://www.w3.org/1999/xlink" width="2880" height="2867" viewBox="0 0 2880 2867">
  <defs>
    <linearGradient id="linear-gradient" x1="1.091" y1="1.163" x2="0.386" y2="0.408" gradientUnits="objectBoundingBox">
      <stop offset="0" stop-color="#b37cff"/>
      <stop offset="1" stop-color="#f895e7"/>
    </linearGradient>
    <linearGradient id="linear-gradient-2" x1="0.48" y1="0.45" x2="0.276" y2="-0.053" gradientUnits="objectBoundingBox">
      <stop offset="0" stop-color="#53d8ff"/>
      <stop offset="1" stop-color="#3840f7"/>
    </linearGradient>
    <linearGradient id="linear-gradient-3" y1="0.5" x2="1" y2="0.5" gradientUnits="objectBoundingBox">
      <stop offset="0" stop-color="#2b3582"/>
      <stop offset="1" stop-color="#150e42"/>
    </linearGradient>
    <linearGradient id="linear-gradient-4" x1="0.524" y1="0.081" x2="0.451" y2="1.282" gradientUnits="objectBoundingBox">
      <stop offset="0" stop-color="#a737d5"/>
      <stop offset="1" stop-color="#ef497a"/>
    </linearGradient>
    <linearGradient id="linear-gradient-5" x1="0.504" y1="0.262" x2="0.394" y2="1.808" xlink:href="#linear-gradient-2"/>
    <linearGradient id="linear-gradient-6" x1="1.482" y1="-3.333" x2="-0.948" y2="5.987" xlink:href="#linear-gradient-2"/>
    <linearGradient id="linear-gradient-7" x1="395.609" y1="0.954" x2="397.771" y2="-0.303" gradientUnits="objectBoundingBox">
      <stop offset="0" stop-color="#cb236d"/>
      <stop offset="1" stop-color="#4c246d"/>
    </linearGradient>
    <linearGradient id="linear-gradient-8" x1="45.709" y1="0.077" x2="45.961" y2="-21.302" xlink:href="#linear-gradient-7"/>
    <linearGradient id="linear-gradient-9" x1="34.168" y1="4.039" x2="34.364" y2="-0.315" gradientUnits="objectBoundingBox">
      <stop offset="0" stop-color="#fdf53f"/>
      <stop offset="1" stop-color="#d93c65"/>
    </linearGradient>
    <linearGradient id="linear-gradient-10" x1="10.332" y1="1.779" x2="9.922" y2="2.897" xlink:href="#linear-gradient-3"/>
    <linearGradient id="linear-gradient-11" x1="24.817" y1="4.163" x2="25.945" y2="4.163" gradientUnits="objectBoundingBox">
      <stop offset="0" stop-color="#f9b776"/>
      <stop offset="1" stop-color="#f47960"/>
    </linearGradient>
    <linearGradient id="linear-gradient-12" x1="-0.001" y1="1.291" x2="0.669" y2="-0.065" xlink:href="#linear-gradient-7"/>
    <linearGradient id="linear-gradient-13" x1="8.926" y1="3.27" x2="7.684" y2="6.742" xlink:href="#linear-gradient-3"/>
    <linearGradient id="linear-gradient-14" x1="8.143" y1="5.781" x2="9.076" y2="5.781" xlink:href="#linear-gradient-2"/>
    <linearGradient id="linear-gradient-15" x1="20.002" y1="4.305" x2="20.904" y2="4.305" xlink:href="#linear-gradient-11"/>
    <linearGradient id="linear-gradient-16" x1="0.162" y1="1.229" x2="0.701" y2="0.141" xlink:href="#linear-gradient-7"/>
    <linearGradient id="linear-gradient-17" x1="0.278" y1="-1.488" x2="0.76" y2="3.324" xlink:href="#linear-gradient-9"/>
    <linearGradient id="linear-gradient-18" x1="8.403" y1="2.643" x2="9.396" y2="2.643" xlink:href="#linear-gradient-11"/>
    <linearGradient id="linear-gradient-19" x1="0.539" y1="0.184" x2="0.305" y2="1.999" xlink:href="#linear-gradient-9"/>
    <linearGradient id="linear-gradient-20" x1="9.24" y1="2.105" x2="10.359" y2="2.105" xlink:href="#linear-gradient-11"/>
    <linearGradient id="linear-gradient-21" x1="0.549" y1="0.269" x2="0.153" y2="2.769" xlink:href="#linear-gradient-9"/>
    <linearGradient id="linear-gradient-22" x1="1.152" y1="-4" x2="-0.038" y2="4.738" xlink:href="#linear-gradient-11"/>
    <linearGradient id="linear-gradient-23" x1="-8.595" y1="-15.032" x2="-9.994" y2="-13.696" xlink:href="#linear-gradient-11"/>
    <linearGradient id="linear-gradient-24" x1="-6.305" y1="-21.221" x2="-5.298" y2="-21.221" xlink:href="#linear-gradient-3"/>
    <linearGradient id="linear-gradient-25" x1="-37.431" y1="-45.622" x2="-34.149" y2="-47.956" xlink:href="#linear-gradient-11"/>
    <linearGradient id="linear-gradient-26" x1="-0.265" y1="-23.947" x2="0.561" y2="2.454" xlink:href="#linear-gradient-2"/>
    <linearGradient id="linear-gradient-27" x1="0.067" y1="-1.268" x2="0.697" y2="1.368" xlink:href="#linear-gradient-2"/>
    <linearGradient id="linear-gradient-28" x1="44.124" y1="0.5" x2="45.124" y2="0.5" gradientUnits="objectBoundingBox">
      <stop offset="0" stop-color="#9cfffb"/>
      <stop offset="1" stop-color="#9bfffa"/>
    </linearGradient>
    <linearGradient id="linear-gradient-32" x1="10.403" y1="0.5" x2="11.403" y2="0.5" xlink:href="#linear-gradient-28"/>
    <linearGradient id="linear-gradient-33" x1="0.143" y1="-0.646" x2="1.217" y2="2.77" xlink:href="#linear-gradient-2"/>
    <linearGradient id="linear-gradient-34" x1="0.143" y1="-0.646" x2="1.217" y2="2.77" gradientUnits="objectBoundingBox">
      <stop offset="0" stop-color="#fdf53f"/>
      <stop offset="0.664" stop-color="#e57a58"/>
      <stop offset="1" stop-color="#d93c65"/>
    </linearGradient>
    <linearGradient id="linear-gradient-37" x1="0.259" y1="-0.277" x2="1.333" y2="3.138" xlink:href="#linear-gradient-34"/>
    <linearGradient id="linear-gradient-38" x1="-7.63" y1="0.538" x2="-7.306" y2="0.203" xlink:href="#linear-gradient-11"/>
    <linearGradient id="linear-gradient-39" x1="-26.066" y1="-27.293" x2="-26.256" y2="-23.573" xlink:href="#linear-gradient-3"/>
    <linearGradient id="linear-gradient-40" x1="25.397" y1="0.225" x2="28.801" y2="-1.251" xlink:href="#linear-gradient-11"/>
    <linearGradient id="linear-gradient-41" x1="-23.744" y1="-30.82" x2="-23.965" y2="-27.711" xlink:href="#linear-gradient-3"/>
    <linearGradient id="linear-gradient-42" x1="-16.536" y1="1.724" x2="-15.797" y2="-0.477" xlink:href="#linear-gradient-7"/>
    <linearGradient id="linear-gradient-43" x1="-14.893" y1="-0.083" x2="-15.817" y2="1.093" xlink:href="#linear-gradient-3"/>
    <linearGradient id="linear-gradient-44" x1="-36.644" y1="-0.845" x2="-36.988" y2="1.374" xlink:href="#linear-gradient-11"/>
    <linearGradient id="linear-gradient-45" x1="-25.386" y1="0.715" x2="-23.39" y2="0.016" xlink:href="#linear-gradient-4"/>
    <linearGradient id="linear-gradient-46" x1="-71.776" y1="-1.551" x2="-71.592" y2="-2.631" xlink:href="#linear-gradient-11"/>
    <linearGradient id="linear-gradient-47" x1="-75.251" y1="3.914" x2="-73.684" y2="1.638" xlink:href="#linear-gradient-11"/>
    <linearGradient id="linear-gradient-48" x1="-40.569" y1="-0.355" x2="-43.092" y2="5.255" xlink:href="#linear-gradient-3"/>
    <linearGradient id="linear-gradient-49" x1="-309.059" y1="13.053" x2="-302.653" y2="5.607" xlink:href="#linear-gradient-11"/>
    <linearGradient id="linear-gradient-50" x1="-25.223" y1="0.5" x2="-24.223" y2="0.5" xlink:href="#linear-gradient-11"/>
    <linearGradient id="linear-gradient-51" x1="-38.606" y1="4.003" x2="-39.021" y2="4.413" xlink:href="#linear-gradient-3"/>
    <linearGradient id="linear-gradient-52" x1="-70.365" y1="0.707" x2="-64.949" y2="-0.143" xlink:href="#linear-gradient-4"/>
    <linearGradient id="linear-gradient-53" x1="-129.722" y1="-0.446" x2="-130.374" y2="1.215" xlink:href="#linear-gradient-11"/>
    <linearGradient id="linear-gradient-54" x1="0.775" y1="-2.099" x2="0.393" y2="1.837" xlink:href="#linear-gradient-11"/>
    <linearGradient id="linear-gradient-55" x1="1.136" y1="-0.486" x2="0.125" y2="1.068" xlink:href="#linear-gradient-11"/>
    <linearGradient id="linear-gradient-56" x1="-3.008" y1="0.464" x2="-1.929" y2="1.365" xlink:href="#linear-gradient-11"/>
    <linearGradient id="linear-gradient-57" x1="0.861" y1="-0.306" x2="0.129" y2="1.943" xlink:href="#linear-gradient-3"/>
    <linearGradient id="linear-gradient-58" x1="0.412" y1="0.299" x2="0.789" y2="1.317" xlink:href="#linear-gradient-11"/>
    <linearGradient id="linear-gradient-59" x1="1.319" y1="-0.775" x2="0.874" y2="0.022" xlink:href="#linear-gradient-2"/>
    <linearGradient id="linear-gradient-60" x1="0.41" y1="0.378" x2="0.786" y2="1.148" xlink:href="#linear-gradient-11"/>
    <linearGradient id="linear-gradient-61" x1="1.681" y1="4.242" x2="2.081" y2="5.134" xlink:href="#linear-gradient-11"/>
    <linearGradient id="linear-gradient-62" x1="-6.69" y1="-2.741" x2="-6.183" y2="-1.716" xlink:href="#linear-gradient-11"/>
    <linearGradient id="linear-gradient-63" x1="-3.518" y1="-2.681" x2="-3.337" y2="-1.41" xlink:href="#linear-gradient-3"/>
    <linearGradient id="linear-gradient-64" x1="-26.262" y1="-9.777" x2="-25.706" y2="-8.696" xlink:href="#linear-gradient-11"/>
    <linearGradient id="linear-gradient-65" x1="0.456" y1="0.406" x2="0.702" y2="1.953" xlink:href="#linear-gradient-11"/>
    <linearGradient id="linear-gradient-66" x1="0.234" y1="0.129" x2="1.383" y2="1.355" xlink:href="#linear-gradient-9"/>
    <linearGradient id="linear-gradient-67" x1="0.418" y1="-0.313" x2="0.548" y2="1.422" xlink:href="#linear-gradient-2"/>
    <linearGradient id="linear-gradient-68" x1="0.42" y1="-0.291" x2="0.599" y2="2.09" xlink:href="#linear-gradient-3"/>
    <linearGradient id="linear-gradient-69" x1="-0.079" y1="-6.122" x2="0.595" y2="1.59" xlink:href="#linear-gradient-9"/>
    <linearGradient id="linear-gradient-70" x1="2.883" y1="-0.265" x2="0.996" y2="1.58" xlink:href="#linear-gradient-3"/>
    <linearGradient id="linear-gradient-71" x1="3.472" y1="-0.288" x2="1.435" y2="1.5" xlink:href="#linear-gradient-2"/>
    <linearGradient id="linear-gradient-72" x1="-1.517" y1="409.058" x2="-2.447" y2="413.338" gradientUnits="objectBoundingBox">
      <stop offset="0" stop-color="#8d55d1"/>
      <stop offset="0.996" stop-color="#1c2873"/>
    </linearGradient>
    <linearGradient id="linear-gradient-73" x1="0.988" y1="1.807" x2="2.476" y2="5.433" xlink:href="#linear-gradient-11"/>
    <linearGradient id="linear-gradient-74" x1="-0.279" y1="-8.824" x2="0.801" y2="4.109" xlink:href="#linear-gradient-9"/>
    <linearGradient id="linear-gradient-75" x1="0" y1="0.5" x2="1" y2="0.5" xlink:href="#linear-gradient-11"/>
  </defs>
  <g id="Background">
    <g id="Group_1392" data-name="Group 1392">
      <g id="Group_1391" data-name="Group 1391">
        <rect id="Rectangle_448" data-name="Rectangle 448" width="2880" height="2867" fill="none"/>
      </g>
    </g>
  </g>
  <g id="Illustration" transform="translate(44 47)">
    <g id="Group_1434" data-name="Group 1434">
      <path id="Path_3841" data-name="Path 3841" d="M2908.692,2840.267c-72.482,74.712-137.337,118.631-186.992,151.786-484.274,323.354-1037.853,230.156-1209.006,198.3-276.134-51.4-509.229-87.651-709.5-268.587C348.12,2510.625,370.254,1652.951,717.986,1121.66c41.231-63,388.437-577.663,943.214-650.185,13.569-1.774,23.693-2.784,32.561-3.723,85.823-9.087,617.649-57.044,1051.3,306.269,62.075,52.006,161.972,145.813,254.608,288.883C3338.392,1586.032,3339.465,2396.243,2908.692,2840.267Z" transform="translate(-459.072 -460.681)" opacity="0.3" fill="url(#linear-gradient)"/>
      <g id="Group_1400" data-name="Group 1400" transform="translate(27.087 174.931)">
        <path id="Path_3842" data-name="Path 3842" d="M2397.372,1563.495c-21.456,488.738-466.508,866.164-994.053,843.005s-937.811-438.133-916.355-926.872,466.508-866.164,994.053-843.005S2418.828,1074.757,2397.372,1563.495Z" transform="translate(-486.159 -635.611)" fill="url(#linear-gradient-2)"/>
        <ellipse id="Ellipse_40" data-name="Ellipse 40" cx="750.261" cy="708.757" rx="750.261" ry="708.757" transform="translate(154.001 113.286)" fill="#fff" opacity="0.19"/>
        <g id="Group_1399" data-name="Group 1399" transform="translate(86.299 22.959)" opacity="0.68">
          <g id="Group_1393" data-name="Group 1393" transform="translate(623.947 4.816)">
            <path id="Path_3843" data-name="Path 3843" d="M1687,1525.845s.061,14.641-.31,42.127c-.393,27.473-1.255,67.775-3.931,119s-7.213,113.393-16.018,184.327c-8.858,70.888-21.427,150.725-43.039,236.123-10.9,42.642-24.04,86.716-41.734,130.905a555.861,555.861,0,0,1-31.094,65.631c-12.189,21.383-26.3,42.494-44.865,60.361-9.292,8.856-19.831,16.837-31.9,22.39a74.861,74.861,0,0,1-39.213,6.8c-13.527-1.318-26.413-6.67-37.646-14.048-11.293-7.391-21.153-16.7-30.012-26.788-17.694-20.285-31.653-43.6-43.905-67.8a673.114,673.114,0,0,1-31.908-75.559c-18.529-51.927-32.77-106.166-44.594-161.518-11.773-55.379-21.014-111.957-28.311-169.217-14.544-114.543-21.441-231.81-22.113-349.07-.1-58.627,1.888-117.237,5.047-175.54,3.246-58.3,8.051-116.287,14.651-173.619,6.63-57.322,15.034-114,25.9-169.538,10.907-55.51,24.126-109.964,41.6-162.187a673.741,673.741,0,0,1,30.334-76.059c11.767-24.364,25.22-47.9,42.521-68.316,8.668-10.141,18.351-19.5,29.488-26.847,11.073-7.345,23.794-12.54,37.05-13.73a79.634,79.634,0,0,1,9.876-.233,83.622,83.622,0,0,1,9.862,1.108,81.955,81.955,0,0,1,18.7,5.842c11.9,5.341,22.453,13.015,31.845,21.595,18.787,17.293,33.414,37.912,46.112,58.906a548.2,548.2,0,0,1,32.732,64.649c18.805,43.651,32.955,87.382,44.777,129.755,23.424,84.874,37.358,164.494,47.174,235.252,4.856,35.4,8.6,68.64,11.518,99.423,2.843,30.79,4.9,59.122,6.437,84.727,3.048,51.216,4.073,91.524,4.551,119C1687.041,1511.181,1687,1525.845,1687,1525.845Zm-12.7-.01s.112-14.589-.215-41.95c-.351-27.358-1.187-67.493-3.987-118.5-1.412-25.5-3.333-53.711-6.021-84.376-2.634-30.665-5.989-63.792-10.469-99.079s-10.07-72.727-17.247-111.97-15.887-80.3-27.073-122.6c-11.245-42.258-24.788-85.88-42.91-129.374a542.55,542.55,0,0,0-31.612-64.345c-12.273-20.867-26.448-41.314-44.528-58.353-9.036-8.455-19.146-15.977-30.461-21.216-11.32-5.215-23.8-7.983-36.4-6.581-12.5,1.277-24.488,6.318-35.033,13.491-10.6,7.171-19.889,16.349-28.225,26.346-16.646,20.121-29.651,43.471-40.985,67.686a667.948,667.948,0,0,0-29.143,75.71c-16.722,52.036-29.223,106.349-39.411,161.711-10.145,55.389-17.834,111.924-23.751,169.086-11.838,114.35-16.227,231.217-15.833,347.969-.328,116.726,5.561,233.55,19.069,347.667,6.779,57.047,15.5,113.412,26.735,168.562,11.286,55.117,24.983,109.106,42.9,160.673a665.267,665.267,0,0,0,30.869,74.877c11.842,23.9,25.362,46.854,42.261,66.549,8.451,9.793,17.806,18.745,28.32,25.749,10.474,7,22.231,11.95,34.45,13.242,12.221,1.357,24.553-1.246,35.586-6.447,11.076-5.211,20.96-12.783,29.754-21.321,17.6-17.211,31.231-37.912,42.983-58.981a547.67,547.67,0,0,0,30.052-64.913c17.107-43.822,29.765-87.667,40.219-130.1,10.408-42.471,18.448-83.651,25.075-122.976s11.746-76.837,15.867-112.16,7.183-68.483,9.614-99.168c2.474-30.682,4.244-58.905,5.551-84.415,2.594-51.016,3.4-91.161,3.75-118.522C1674.373,1540.447,1674.292,1525.835,1674.292,1525.835Z" transform="translate(-1196.404 -663.386)" fill="#fff"/>
          </g>
          <g id="Group_1394" data-name="Group 1394" transform="translate(179.312)">
            <path id="Path_3844" data-name="Path 3844" d="M2081.2,1525.979s-.1,4.69-.29,13.776c-.095,4.543-.214,10.184-.354,16.89s-.2,14.448-.854,23.337q-.792,13.295-1.764,29.649c-.671,10.888-2.116,22.658-3.285,35.444-1.028,12.8-3.161,26.427-5.119,41.01-1.745,14.615-4.764,29.964-7.594,46.241-.745,4.061-1.4,8.2-2.246,12.35q-1.351,6.214-2.739,12.589-2.775,12.749-5.687,26.129-3.411,13.26-6.977,27.129l-3.63,14.012q-2.1,7.007-4.25,14.163c-11.05,38.263-25.933,78.8-44.549,120.872a913.6,913.6,0,0,1-69.741,128.758,797.391,797.391,0,0,1-101.794,126.323A657.808,657.808,0,0,1,1680.807,2322.2c-6.468,4.068-13.422,7.339-20.229,10.931q-5.128,2.655-10.28,5.313l-5.156,2.665c-1.732.865-3.532,1.593-5.3,2.4q-10.646,4.719-21.375,9.476c-1.8.777-3.562,1.626-5.387,2.34l-5.517,2.052L1596.5,2361.5c-14.638,5.923-30.058,9.915-45.335,14.677-7.766,1.93-15.61,3.677-23.454,5.532-3.936.862-7.833,1.947-11.819,2.632q-5.985.988-11.992,1.986t-12.032,1.99c-4.015.682-8.034,1.386-12.115,1.678l-24.476,2.409c-4.084.521-8.21.524-12.331.675q-6.183.2-12.389.39l-12.426.393c-4.359.01-8.315-.216-12.5-.312-8.274-.321-16.548-.351-24.893-.914q-12.552-1.219-25.178-2.445l-6.318-.626-6.251-1.026q-6.257-1.028-12.53-2.062l-12.566-2.068c-4.184-.744-8.3-1.862-12.46-2.78-33.4-6.962-66.188-18.2-98.088-32.019l-11.95-5.284-5.986-2.648-5.823-3q-11.654-6.007-23.36-12.045c-15.115-8.919-30.546-17.516-45.033-27.722-7.357-4.926-14.84-9.711-21.841-15.2-7.093-5.356-14.325-10.574-21.346-16.083q-10.287-8.569-20.612-17.175l-5.152-4.323-4.941-4.566-9.9-9.151-9.916-9.167c-3.249-3.12-6.332-6.414-9.51-9.617-6.261-6.5-12.755-12.806-18.856-19.5l-18.07-20.347c-3.079-3.346-5.946-6.873-8.778-10.436l-8.579-10.629-8.592-10.649c-2.829-3.582-5.438-7.332-8.17-11-5.374-7.391-10.9-14.7-16.173-22.2-10.13-15.277-20.629-30.394-29.878-46.346-9.844-15.6-18.382-32-27.34-48.211-4.277-8.21-8.261-16.582-12.412-24.884l-6.169-12.491-5.657-12.74c-3.736-8.515-7.632-16.978-11.248-25.562q-5.147-13-10.3-26.018c-3.586-8.627-6.541-17.489-9.644-26.313l-4.637-13.245c-1.544-4.418-3.147-8.82-4.444-13.32-5.474-17.912-11.151-35.805-15.6-54.058l-3.554-13.638-1.777-6.821-1.528-6.883-6.045-27.568-1.512-6.9-1.259-6.945-2.488-13.907-2.488-13.917c-.86-4.635-1.668-9.276-2.247-13.956-2.5-18.689-5.394-37.349-6.913-56.175-4.149-37.545-5.263-75.362-5.848-113.137l.588-28.3.293-14.068c.1-4.687.509-9.449.749-14.172l1.685-28.384c.61-9.449,1.757-18.807,2.61-28.214,1.531-18.823,4.44-37.476,6.95-56.162.582-4.68,1.394-9.322,2.258-13.956l2.5-13.91,2.5-13.9,1.265-6.945,1.517-6.9,6.066-27.558,1.533-6.88,1.783-6.821,3.565-13.628c4.463-18.25,10.152-36.136,15.64-54.038,1.3-4.5,2.907-8.9,4.454-13.311l4.647-13.238c3.11-8.817,6.071-17.676,9.663-26.3q5.164-13.008,10.32-26c3.622-8.581,7.524-17.034,11.266-25.542l5.666-12.734,6.177-12.481c4.158-8.292,8.146-16.66,12.43-24.864,8.968-16.2,17.517-32.576,27.369-48.161,9.257-15.939,19.767-31.036,29.9-46.3,5.276-7.489,10.8-14.789,16.178-22.173,2.733-3.658,5.342-7.407,8.173-10.983l8.594-10.636,8.58-10.62c2.832-3.556,5.7-7.08,8.779-10.42q9.05-10.177,18.07-20.321c6.1-6.683,12.594-12.983,18.854-19.469,3.178-3.2,6.26-6.486,9.508-9.6l9.913-9.154,9.894-9.136,4.94-4.559,5.15-4.315,20.6-17.147c7.019-5.5,14.247-10.705,21.336-16.052,7-5.477,14.474-10.256,21.831-15.167,14.487-10.172,29.914-18.738,45.022-27.621l23.348-11.993,5.82-2.986,5.981-2.635,11.941-5.257c31.885-13.714,64.6-24.961,97.937-31.955,33.239-7.129,66.782-11.809,100.064-12,4.191-.1,8.223-.336,12.528-.316l12.344.4,12.306.4c4.1.154,8.179.159,12.281.682l24.5,2.429c4.089.3,8.1,1.005,12.107,1.69q6.016,1,12.012,2l11.971,1.994c3.979.683,7.87,1.773,11.8,2.637,7.829,1.86,15.66,3.61,23.411,5.544,15.252,4.759,30.629,8.792,45.257,14.666l11.055,4.092,5.511,2.042c1.823.711,3.588,1.557,5.382,2.329l21.358,9.431c1.764.8,3.563,1.526,5.294,2.386l5.152,2.653,10.275,5.29c6.8,3.579,13.753,6.834,20.219,10.887A654.878,654.878,0,0,1,1819.906,837.44a797.234,797.234,0,0,1,101.812,126.172,912.966,912.966,0,0,1,69.82,128.644c18.646,42.039,33.561,82.553,44.641,120.8q2.153,7.149,4.259,14.153,1.841,7.08,3.64,14.005,3.578,13.865,7,27.122l5.705,26.116q1.391,6.376,2.747,12.589c.853,4.149,1.508,8.286,2.256,12.347,2.841,16.27,5.871,31.616,7.627,46.228,1.968,14.579,4.112,28.211,5.149,41,1.177,12.776,2.633,24.569,3.31,35.425q.983,16.282,1.782,29.551c.661,8.83.722,16.647.875,23.4s.27,12.422.369,16.991c.2,9.145.3,13.861.3,13.861Zm-14.562-.141s-.078-4.657-.229-13.687c-.075-4.513-.169-10.121-.279-16.785s-.135-14.385-.746-23.107q-.723-13.087-1.612-29.2c-.612-10.724-2-22.376-3.092-35-.957-12.645-3.01-26.116-4.88-40.525-1.658-14.444-4.579-29.61-7.3-45.7-.718-4.015-1.342-8.1-2.164-12.209q-1.31-6.141-2.652-12.442-2.685-12.6-5.5-25.828-3.312-13.107-6.775-26.818-1.742-6.853-3.523-13.854-2.046-6.922-4.137-14a957.462,957.462,0,0,0-42.731-119.83,902.324,902.324,0,0,0-67.5-127.955,787.67,787.67,0,0,0-99.245-125.9,633.679,633.679,0,0,0-136.9-107.536c-6.375-4.056-13.228-7.312-19.937-10.9q-5.056-2.645-10.134-5.3l-5.082-2.658c-1.708-.864-3.483-1.591-5.224-2.394q-10.5-4.715-21.074-9.467c-1.771-.773-3.512-1.624-5.311-2.34l-5.44-2.052-10.914-4.118c-14.431-5.946-29.667-9.882-44.745-14.644-7.666-1.924-15.411-3.666-23.156-5.52-3.886-.862-7.734-1.949-11.671-2.632q-5.91-.993-11.841-1.99t-11.882-2c-3.966-.683-7.936-1.39-11.952-1.686l-24.113-2.437c-4.01-.526-8.122-.539-12.213-.7q-6.142-.211-12.306-.419l-12.344-.421c-3.937-.01-8.161.246-12.237.356-32.938.3-66.1,5.051-98.956,12.214-32.952,7-65.282,18.258-96.67,32.149l-11.761,5.3-5.89,2.653-5.731,3-22.979,12.05c-14.866,8.92-30.038,17.5-44.275,27.689-7.227,4.921-14.531,9.762-21.382,15.271-6.935,5.383-14,10.621-20.865,16.147l-20.126,17.222-5.028,4.33-4.82,4.574-9.65,9.161-9.667,9.171c-3.166,3.12-6.168,6.414-9.263,9.617-6.1,6.5-12.421,12.8-18.356,19.476q-8.769,10.143-17.569,20.315c-2.994,3.337-5.778,6.857-8.527,10.41l-8.328,10.6-8.34,10.613c-2.746,3.569-5.271,7.309-7.92,10.957-5.207,7.365-10.563,14.641-15.669,22.1-9.8,15.211-19.966,30.236-28.887,46.1-9.513,15.5-17.727,31.8-26.359,47.893-4.114,8.151-7.938,16.464-11.927,24.7l-5.926,12.39L855.5,1092.9c-3.577,8.446-7.312,16.834-10.769,25.346q-4.91,12.876-9.828,25.779c-3.428,8.545-6.227,17.329-9.175,26.064l-4.4,13.114c-1.466,4.372-2.992,8.728-4.213,13.182-5.121,17.745-10.685,35.382-14.9,53.425l-3.4,13.464-1.7,6.735-1.454,6.794-5.751,27.217-1.44,6.808-1.188,6.857-2.346,13.727-2.348,13.73c-.817,4.572-1.572,9.154-2.116,13.773-2.411,18.427-5.224,36.821-6.668,55.382-.809,9.263-1.917,18.528-2.481,27.791l-1.561,27.784c-.221,4.644-.61,9.236-.7,13.923l-.247,14.068-.492,27.978c.287,74.494,7.248,149.007,21.743,221.787l5.773,27.2,1.459,6.794,1.707,6.732,3.412,13.461c4.23,18.033,9.806,35.664,14.941,53.4,1.224,4.451,2.754,8.8,4.224,13.176L826,1881.5c2.954,8.728,5.76,17.506,9.2,26.044q4.927,12.9,9.847,25.766c3.463,8.505,7.205,16.886,10.788,25.326l5.427,12.632,5.934,12.38c3.995,8.23,7.824,16.536,11.944,24.681,8.643,16.08,16.867,32.357,26.389,47.847,8.929,15.847,19.109,30.852,28.909,46.051,5.108,7.453,10.466,14.72,15.674,22.078,2.65,3.645,5.176,7.381,7.923,10.944l8.342,10.6,8.329,10.587c2.749,3.55,5.534,7.063,8.528,10.4q8.8,10.162,17.57,20.285c5.935,6.673,12.259,12.963,18.354,19.453,3.1,3.2,6.1,6.487,9.262,9.6l9.664,9.158,9.648,9.145,4.818,4.569,5.026,4.32q10.078,8.613,20.118,17.194c6.858,5.513,13.923,10.741,20.855,16.116,6.847,5.5,14.145,10.331,21.371,15.238,14.237,10.151,29.405,18.7,44.264,27.584q11.509,6.014,22.967,12l5.726,2.989,5.887,2.639,11.751,5.274c31.373,13.789,63.632,25.051,96.519,32.085,4.1.927,8.149,2.055,12.269,2.812q6.2,1.051,12.377,2.1t12.344,2.1l6.159,1.049,6.183.643,24.651,2.54c8.249.6,16.59.682,24.841,1.049,4.081.111,8.38.38,12.262.36q6.141-.212,12.262-.429t12.223-.426c4.066-.164,8.135-.177,12.163-.708q12.108-1.234,24.137-2.458c4.023-.3,7.986-1.01,11.943-1.694s7.915-1.341,11.862-2.006,7.887-1.334,11.82-2c3.929-.685,7.77-1.776,11.649-2.638,7.73-1.858,15.461-3.6,23.113-5.532,15.052-4.759,30.245-8.735,44.666-14.631q5.461-2.05,10.9-4.1l5.435-2.039c1.8-.715,3.537-1.56,5.306-2.33l21.057-9.42c1.74-.8,3.513-1.524,5.22-2.383l5.079-2.648,10.128-5.28c6.7-3.569,13.555-6.811,19.927-10.852a630.845,630.845,0,0,0,136.849-107.306,787.508,787.508,0,0,0,99.263-125.749,902.005,902.005,0,0,0,67.579-127.837,956.994,956.994,0,0,0,42.822-119.758q2.094-7.07,4.147-13.992,1.785-7,3.532-13.848,3.474-13.7,6.794-26.8,2.828-13.221,5.52-25.821,1.349-6.3,2.661-12.439c.824-4.1,1.451-8.191,2.173-12.206,2.734-16.08,5.666-31.242,7.334-45.684,1.881-14.408,3.945-27.873,4.91-40.515,1.106-12.615,2.5-24.29,3.117-34.982q.9-16.038,1.631-29.1c.617-8.659.643-16.457.765-23.16s.216-12.347.294-16.89c.158-9.086.24-13.776.24-13.776Z" transform="translate(-751.77 -658.57)" fill="#fff"/>
          </g>
          <g id="Group_1395" data-name="Group 1395" transform="translate(69.252 520.234)">
            <path id="Path_3845" data-name="Path 3845" d="M642.657,1182.383l68.5-.7c43.592-.324,105.866-.783,180.594-1.334l255.323-1.1c93.411-.141,193.049-.288,292.687-.436,99.638.177,199.276.354,292.687.518,46.7.183,91.854.36,134.667.531,42.813.233,83.291.456,120.655.659,74.729.334,137,1.121,180.595,1.432l68.5.754a.643.643,0,0,1,0,1.285l-68.5.757c-43.593.311-105.866,1.095-180.595,1.429-37.364.206-77.842.426-120.655.662l-134.667.528c-93.411.167-193.049.344-292.687.518l-292.687-.433c-93.411-.406-180.594-.783-255.323-1.1-74.728-.554-137-1.013-180.594-1.334-43.592-.449-68.5-.708-68.5-.708a.957.957,0,0,1,0-1.914Z" transform="translate(-641.71 -1178.804)" fill="#fff"/>
          </g>
          <g id="Group_1396" data-name="Group 1396" transform="translate(300.44 186.462)">
            <path id="Path_3846" data-name="Path 3846" d="M873.841,848.612l48.634-.705c30.948-.325,75.161-.783,128.216-1.334,26.528-.184,55.266-.38,85.662-.59,30.4-.18,62.45-.518,95.61-.515,66.319-.141,137.059-.288,207.8-.436,70.74.177,141.48.354,207.8.518,33.16.029,65.213.275,95.61.531,30.4.233,59.134.456,85.661.659,53.055.334,97.268,1.121,128.217,1.432l48.633.754a.643.643,0,0,1,0,1.285l-48.633.757c-30.949.311-75.162,1.095-128.217,1.429-26.527.206-55.266.426-85.661.662-30.4.256-62.45.5-95.61.528-66.319.167-137.059.341-207.8.518l-207.8-.433c-33.16,0-65.214-.338-95.61-.515-30.4-.21-59.134-.41-85.662-.59-53.055-.554-97.268-1.013-128.216-1.334-30.949-.449-48.634-.708-48.634-.708a.957.957,0,0,1,0-1.913Z" transform="translate(-872.898 -845.032)" fill="#fff"/>
          </g>
          <g id="Group_1397" data-name="Group 1397" transform="translate(0 854.003)">
            <path id="Path_3847" data-name="Path 3847" d="M573.406,1516.153s27.074-.255,74.453-.7c47.378-.324,115.063-.783,196.283-1.334l277.5-1.1c101.526-.141,209.82-.288,318.115-.436,108.294.177,216.589.354,318.115.518,50.763.184,99.834.361,146.366.531,46.533.233,90.527.456,131.138.659,81.221.593,148.905,1.085,196.284,1.432l74.452.754a.643.643,0,0,1,0,1.285l-74.452.757c-47.379.344-115.063.839-196.284,1.429-40.611.206-84.6.426-131.138.662l-146.366.528c-101.526.167-209.82.344-318.115.518l-318.115-.432c-101.526-.406-196.284-.783-277.505-1.1-81.22-.554-148.905-1.013-196.283-1.334-47.379-.449-74.453-.708-74.453-.708a.957.957,0,0,1,0-1.914Z" transform="translate(-572.458 -1512.573)" fill="#fff"/>
          </g>
          <g id="Group_1398" data-name="Group 1398" transform="translate(69.252 1187.774)">
            <path id="Path_3848" data-name="Path 3848" d="M642.657,1849.923l68.5-.7c43.592-.325,105.866-.783,180.594-1.334l255.323-1.1c93.411-.141,193.049-.288,292.687-.436,99.638.177,199.276.354,292.687.518,46.7.184,91.854.361,134.667.531,42.813.233,83.291.456,120.655.659,74.729.334,137,1.121,180.595,1.432,43.592.478,68.5.754,68.5.754a.643.643,0,0,1,0,1.285l-68.5.757c-43.593.311-105.866,1.095-180.595,1.429-37.364.206-77.842.426-120.655.662l-134.667.528c-93.411.167-193.049.344-292.687.518l-292.687-.433c-93.411-.406-180.594-.783-255.323-1.1-74.728-.554-137-1.013-180.594-1.334-43.592-.449-68.5-.708-68.5-.708a.957.957,0,0,1,0-1.914Z" transform="translate(-641.71 -1846.344)" fill="#fff"/>
          </g>
          <path id="Path_3849" data-name="Path 3849" d="M2034.2,2188.007H902.356a3.356,3.356,0,1,1,0-6.712H2034.2a3.356,3.356,0,0,1,0,6.712Z" transform="translate(-572.458 -658.57)" fill="#fff"/>
        </g>
      </g>
      <g id="Group_1401" data-name="Group 1401" transform="translate(252.862 995.815)">
        <path id="Path_3850" data-name="Path 3850" d="M711.934,1594.913V2836.3c0,102.12,73.423,185.63,165.531,188.262,409.1,11.692,1839.912,40.042,2229.343,33.68,66.933-1.094,121.155-60.458,123.086-134.62,7.509-288.39,19.705-981.872-25.428-1303.829-9.5-67.8-61.141-118.5-123.017-120.694-342.77-12.153-1859.53-50.744-2248.78-41.056C765.539,1459.712,711.934,1520.49,711.934,1594.913Z" transform="translate(-711.934 -1456.496)" fill="url(#linear-gradient-3)"/>
        <path id="Path_3851" data-name="Path 3851" d="M782.214,1588.871v1179.4c0,59.624,43.183,108.206,96.973,109.1l2171.6,29.736c53.328.884,97.042-46.669,97.24-105.781l3.633-1168.862c.142-42.267-30.24-76.9-68.364-77.926L859.98,1504.751C817.34,1503.6,782.214,1541.6,782.214,1588.871Z" transform="translate(-711.934 -1456.496)" fill="url(#linear-gradient-4)"/>
        <path id="Path_3852" data-name="Path 3852" d="M862.254,1629.087V2697.312c0,54,40.56,98.006,91.083,98.814l2039.689,26.933c50.089.8,91.147-42.27,91.334-95.81l3.412-1058.681c.134-38.282-28.4-69.649-64.211-70.581L935.3,1552.9C895.247,1551.855,862.254,1586.27,862.254,1629.087Z" transform="translate(-711.934 -1456.496)" fill="#fff" opacity="0.12"/>
        <path id="Path_3853" data-name="Path 3853" d="M3164.373,2955.12h-.059L782.156,2910.133a3.019,3.019,0,0,1-2.96-3.075,3.074,3.074,0,0,1,3.074-2.959l2382.158,44.987a3.017,3.017,0,0,1-.055,6.034Z" transform="translate(-711.934 -1456.496)" fill="#fff" opacity="0.65"/>
      </g>
      <g id="Group_1404" data-name="Group 1404" transform="translate(613.735 1472.724)">
        <path id="Path_3854" data-name="Path 3854" d="M1225.987,2379.792c-72.406-.78-133.675-58.394-139.488-131.164l-13.227-165.3c-3.15-39.423,9.807-78.053,35.549-105.982a127.9,127.9,0,0,1,94.845-41.567L2494.26,1933.4c40.417,0,75.715,16.145,99.663,45.467,24.5,30,33.751,70.787,25.374,111.908l-35.326,173.37c-14.684,72.059-84.867,128.512-159.768,128.512C2424.2,2392.664,1225.987,2379.792,1225.987,2379.792Z" transform="translate(-1072.807 -1933.405)" fill="url(#linear-gradient-5)"/>
        <path id="Path_3855" data-name="Path 3855" d="M2494.322,1966.969l-1290.593,2.373c-58.54.108-101.83,50.861-97,111.308l13.227,165.307c4.427,55.415,51.942,99.689,106.392,100.276l1196.6,12.862c59.108.635,116.336-43.74,128.135-101.646l35.326-173.368C2599.335,2020.642,2558.276,1966.851,2494.322,1966.969Z" transform="translate(-1072.807 -1933.405)" fill="url(#linear-gradient-6)"/>
        <g id="Group_1403" data-name="Group 1403" transform="translate(143.298 67.243)">
          <g id="Group_1402" data-name="Group 1402" transform="translate(0 50.54)">
            <path id="Path_3856" data-name="Path 3856" d="M1503.377,2086.131,1443.813,2268.1h-.234c-2.814,8.912-9.849,15.244-17.588,17.119h-.235c-.234,0-.7.236-.939.236h-.469c-.234,0-.469.233-.7.233h-5.629c-.234,0-.469-.233-.7-.233h-.469c-.234,0-.7-.236-.937-.236h-.234c-7.739-1.875-14.774-8.207-17.822-17.119l-37.521-114.671L1322.807,2268.1c-2.814,8.912-9.849,15.244-17.588,17.119h-.235c-.47,0-.7.236-.939.236h-.469c-.234,0-.469.233-.7.233h-5.63c-.234,0-.469-.233-.7-.233h-.469c-.469,0-.7-.236-.937-.236h-.235c-7.974-1.875-14.774-8.207-17.824-17.119l-59.563-181.973v-.469a27.968,27.968,0,0,1-1.408-8.676c0-10.787,6.332-20.872,16.18-24.389a19.711,19.711,0,0,1,7.27-1.174c10.084,0,19.7,7.034,22.983,18.056.234.469,20.636,62.613,37.521,114.2,16.883-51.59,37.284-113.733,37.284-114.2a26.19,26.19,0,0,1,14.54-16.414l.234-.236c.234,0,.47-.233.7-.233h.234c.234,0,.234-.236.469-.236h.469a.867.867,0,0,1,.7-.232l.236-.236c.469,0,.7,0,.937-.232h.234c.469,0,.7,0,.937-.236h1.407c.469,0,.7,0,.937-.236h2.111a.857.857,0,0,0,.7.236h1.407a2.1,2.1,0,0,0,1.172.236,1.8,1.8,0,0,0,.939.232c.235,0,.235,0,.235.236.469,0,.7,0,.938.232h.469a.823.823,0,0,0,.47.236h.235c.234,0,.469.233.7.233l.235.236a26.185,26.185,0,0,1,14.54,16.414c0,.469,20.4,62.613,37.286,114.2,16.885-51.59,37.286-113.733,37.286-114.2,3.517-11.023,13.132-18.056,23.215-18.056a19.691,19.691,0,0,1,7.27,1.174c9.849,3.517,16.18,13.6,16.18,24.389a28.027,28.027,0,0,1-1.406,8.676v.469Z" transform="translate(-1216.104 -2051.188)" fill="#fff"/>
            <path id="Path_3857" data-name="Path 3857" d="M1803.8,2086.131,1744.232,2268.1H1744c-2.814,8.912-9.849,15.244-17.588,17.119h-.234c-.234,0-.7.236-.939.236h-.469c-.234,0-.469.233-.7.233h-5.629c-.235,0-.469-.233-.7-.233h-.469c-.234,0-.7-.236-.937-.236h-.235c-7.738-1.875-14.774-8.207-17.822-17.119l-37.521-114.671L1623.226,2268.1c-2.814,8.912-9.849,15.244-17.588,17.119h-.234c-.47,0-.7.236-.939.236H1604c-.234,0-.469.233-.7.233h-5.63c-.235,0-.469-.233-.7-.233h-.469c-.469,0-.7-.236-.937-.236h-.236c-7.973-1.875-14.772-8.207-17.822-17.119l-59.563-181.973v-.469a27.968,27.968,0,0,1-1.408-8.676c0-10.787,6.332-20.872,16.18-24.389a19.708,19.708,0,0,1,7.27-1.174c10.084,0,19.7,7.034,22.983,18.056.235.469,20.636,62.613,37.521,114.2,16.883-51.59,37.285-113.733,37.285-114.2a26.191,26.191,0,0,1,14.539-16.414l.235-.236c.234,0,.47-.233.7-.233h.234c.234,0,.234-.236.469-.236h.469a.867.867,0,0,1,.7-.232l.235-.236c.47,0,.7,0,.939-.232h.235c.469,0,.7,0,.937-.236h1.407c.469,0,.7,0,.938-.236h2.111a.857.857,0,0,0,.7.236h1.407a2.1,2.1,0,0,0,1.172.236,1.794,1.794,0,0,0,.939.232c.234,0,.234,0,.234.236.469,0,.7,0,.937.232h.469a.823.823,0,0,0,.47.236h.234c.235,0,.469.233.7.233l.234.236a26.185,26.185,0,0,1,14.54,16.414c0,.469,20.4,62.613,37.286,114.2,16.885-51.59,37.286-113.733,37.286-114.2,3.517-11.023,13.132-18.056,23.215-18.056a19.691,19.691,0,0,1,7.27,1.174c9.849,3.517,16.18,13.6,16.18,24.389a28.027,28.027,0,0,1-1.406,8.676v.469Z" transform="translate(-1216.104 -2051.188)" fill="#fff"/>
            <path id="Path_3858" data-name="Path 3858" d="M2104.215,2086.131,2044.651,2268.1h-.234c-2.814,8.912-9.849,15.244-17.588,17.119h-.234c-.234,0-.7.236-.939.236h-.469c-.235,0-.469.233-.7.233h-5.628c-.234,0-.469-.233-.7-.233h-.469c-.234,0-.7-.236-.938-.236h-.234c-7.739-1.875-14.774-8.207-17.822-17.119l-37.52-114.671L1923.648,2268.1c-2.814,8.912-9.849,15.244-17.588,17.119h-.234c-.47,0-.7.236-.939.236h-.469c-.235,0-.469.233-.7.233h-5.631c-.234,0-.469-.233-.7-.233h-.469c-.469,0-.7-.236-.937-.236h-.234c-7.975-1.875-14.774-8.207-17.824-17.119l-59.563-181.973v-.469a27.968,27.968,0,0,1-1.408-8.676c0-10.787,6.333-20.872,16.18-24.389a19.711,19.711,0,0,1,7.27-1.174c10.083,0,19.7,7.034,22.982,18.056.234.469,20.636,62.613,37.521,114.2,16.883-51.59,37.285-113.733,37.285-114.2a26.191,26.191,0,0,1,14.539-16.414l.234-.236c.235,0,.471-.233.7-.233h.234c.235,0,.235-.236.469-.236h.469a.867.867,0,0,1,.7-.232l.236-.236c.469,0,.7,0,.937-.232h.234c.469,0,.7,0,.937-.236h1.409c.469,0,.7,0,.937-.236h2.111a.856.856,0,0,0,.7.236h1.408a2.1,2.1,0,0,0,1.172.236,1.794,1.794,0,0,0,.939.232c.234,0,.234,0,.234.236.469,0,.7,0,.937.232h.469a.823.823,0,0,0,.47.236h.234c.234,0,.469.233.7.233l.234.236a26.18,26.18,0,0,1,14.539,16.414c0,.469,20.4,62.613,37.286,114.2,16.885-51.59,37.286-113.733,37.286-114.2,3.517-11.023,13.132-18.056,23.215-18.056a19.691,19.691,0,0,1,7.27,1.174c9.849,3.517,16.18,13.6,16.18,24.389a28.027,28.027,0,0,1-1.406,8.676v.469Z" transform="translate(-1216.104 -2051.188)" fill="#fff"/>
          </g>
          <path id="Path_3859" data-name="Path 3859" d="M2167.99,2289.289a10.069,10.069,0,0,1-10.069,10.069h0a10.069,10.069,0,0,1-10.069-10.069V2010.717a10.069,10.069,0,0,1,10.069-10.069h0a10.069,10.069,0,0,1,10.069,10.069Z" transform="translate(-1216.104 -2000.648)" fill="#fff"/>
        </g>
        <path id="Path_3860" data-name="Path 3860" d="M2700.423,2521.127l-150.19-183.233a5.437,5.437,0,0,1,2.936-8.733l132.658-31.836a13.787,13.787,0,0,0,4.147-25.061l-378.5-239.212a13.786,13.786,0,0,0-20.966,13.9L2369.2,2522.15a13.786,13.786,0,0,0,25.444,4.8l73.432-123.26a5.435,5.435,0,0,1,8.957-.561l139.873,179.4a24.729,24.729,0,0,0,33.41,5.246l44.889-30.523a24.734,24.734,0,0,0,5.22-36.13Z" transform="translate(-1072.807 -1933.405)" fill="#fff"/>
      </g>
      <g id="Group_1411" data-name="Group 1411" transform="translate(16.627 1785.626)">
        <g id="Group_1405" data-name="Group 1405" transform="translate(452.303 575.087)">
          <rect id="Rectangle_449" data-name="Rectangle 449" width="26.49" height="286.471" transform="translate(136.891 68.217)" fill="url(#linear-gradient-7)"/>
          <path id="Path_3861" data-name="Path 3861" d="M1194.144,3181.6H962.133v-8.97a8.273,8.273,0,0,1,8.273-8.273h214.821a8.917,8.917,0,0,1,8.917,8.917Z" transform="translate(-928.002 -2821.393)" fill="url(#linear-gradient-8)"/>
          <path id="Path_3862" data-name="Path 3862" d="M1238.019,2879.043a30.364,30.364,0,0,1-30.275,30.275H958.277A30.364,30.364,0,0,1,928,2879.043v-27.375a30.364,30.364,0,0,1,30.275-30.275h249.467a30.364,30.364,0,0,1,30.275,30.275Z" transform="translate(-928.002 -2821.393)" fill="url(#linear-gradient-9)"/>
        </g>
        <g id="Group_1407" data-name="Group 1407" transform="translate(209.929)">
          <path id="Path_3863" data-name="Path 3863" d="M843.318,3089.082s-85.638,36.886-80.732,75.489c0,0,88.525-16.977,104.367-42.28s7.113-39.959,7.113-39.959Z" transform="translate(-685.628 -2246.306)" fill="url(#linear-gradient-10)"/>
          <path id="Path_3864" data-name="Path 3864" d="M864.293,3046.924l4.348,37.585a12.431,12.431,0,0,1-7.866,13.2,32.486,32.486,0,0,1-10.851,1.657,14.478,14.478,0,0,1-14.064-10.558l-8.424-30.4Z" transform="translate(-685.628 -2246.306)" fill="url(#linear-gradient-11)"/>
          <path id="Path_3865" data-name="Path 3865" d="M1051.374,2758.7s-157.515-7.289-235.893,38.419,3.974,265.082,3.974,265.082,20.475,4.4,49.955-11.353c0,0-42.073-160.591,31.008-188.53,82.161-31.41,167.142-23.768,167.142-23.768l-15.744-74.888Z" transform="translate(-685.628 -2246.306)" fill="url(#linear-gradient-12)"/>
          <path id="Path_3866" data-name="Path 3866" d="M779.8,3147.631c17.909-3.925,71.022-25.931,79.089-25.636s19.5,12.382,19.5,12.382,1.968,6.606-3.8,16.092c-13.686,10.671-43.164,30.264-77.438,32.409-25.211,1.579-40.38-8.452-49.057-18.183A70.125,70.125,0,0,1,779.8,3147.631Z" transform="translate(-685.628 -2246.306)" fill="url(#linear-gradient-13)"/>
          <path id="Path_3867" data-name="Path 3867" d="M797.143,3182.878c34.274-2.145,63.752-21.738,77.438-32.409-3.9,6.409-11.326,14.132-25.293,22.024-34.635,19.569-91.88,16.715-103.228,12.311-9.094-3.529-6.283-12.022,2.026-20.109C756.763,3174.425,771.932,3184.457,797.143,3182.878Z" transform="translate(-685.628 -2246.306)" fill="url(#linear-gradient-14)"/>
          <path id="Path_3868" data-name="Path 3868" d="M897.187,3114.7c-1.173,4.436-13.718,17.759-20.97,25.187a14.277,14.277,0,0,1-13.271,3.992,36.707,36.707,0,0,1-9.5-3.333,9.263,9.263,0,0,1-3.584-12.6l18.343-33.359Z" transform="translate(-685.628 -2246.306)" fill="url(#linear-gradient-15)"/>
          <path id="Path_3869" data-name="Path 3869" d="M1207.474,2745.493s13.749,97.539-26.005,117.476-126.947,32.989-156.979,83.578-83.971,149.885-133.056,178.415c0,0-28.033-9.116-36.226-22.9,0,0,58.263-153.162,82.57-190.391,21.049-32.239,51.829-78.687,95.559-98.775,12.518-5.75,13.5-19.031,11.3-32.629l-4.013-24.763Z" transform="translate(-685.628 -2246.306)" fill="url(#linear-gradient-16)"/>
          <path id="Path_3870" data-name="Path 3870" d="M839.03,2634.924c55.733,15.91,80.679-140.943,80.455-144.757l85.451,99.91s-50.915,89.591-127.8,99.127c-19.452,2.412-36-.953-49.876-7.311A79.88,79.88,0,0,0,839.03,2634.924Z" transform="translate(-685.628 -2246.306)" fill="url(#linear-gradient-17)"/>
          <path id="Path_3871" data-name="Path 3871" d="M735.819,2583.585c24.291-9.982,44.9,9.938,44.9,9.938,24.07,24.637,43.159,37.074,58.314,41.4a79.876,79.876,0,0,1-11.768,46.969c-30.029-13.757-47.535-41.569-54.745-55.447a10.427,10.427,0,0,0-13.751-4.661c-5.15,2.49-10.455,6.287-10.788,11.446-.655,10.174-12.761,10.774-12.833,7.016s9.376-23.851,9.376-23.851-27.91,17.9-38.774,24.751-20.118-4.453-20.118-4.453S711.529,2593.568,735.819,2583.585Z" transform="translate(-685.628 -2246.306)" fill="url(#linear-gradient-18)"/>
          <path id="Path_3872" data-name="Path 3872" d="M1186,2425.624s-74.9-51.095-255.781,41.313c0,0-18.628,23.614-9.9,50.234s116.125,170.692,120.3,238.327c0,0,73.417,43.217,168.721.373C1209.34,2755.871,1241.3,2577.279,1186,2425.624Z" transform="translate(-685.628 -2246.306)" fill="url(#linear-gradient-19)"/>
          <path id="Path_3873" data-name="Path 3873" d="M1011.717,2345.6l47.927,72.7a16.49,16.49,0,0,1-1.708,17.78c-8.151,10.211-25.165,23.937-54.2,15.091a25.434,25.434,0,0,1-17.331-18.446l-15.342-64.736Z" transform="translate(-685.628 -2246.306)" fill="url(#linear-gradient-20)"/>
          <path id="Path_3874" data-name="Path 3874" d="M1241.467,2628.145c5.069-35.255-88.091-103.586-88.091-103.586l32.629-98.935s177.771,126.864,140.386,230.467c-5.36,14.852-13.353,25.672-23.1,33.341C1284.464,2650.823,1258.935,2634.778,1241.467,2628.145Z" transform="translate(-685.628 -2246.306)" fill="url(#linear-gradient-21)"/>
          <path id="Path_3875" data-name="Path 3875" d="M1111.5,2637.928s105.384,29.434,127.248-2.645a16.714,16.714,0,0,0,2.722-7.138c17.468,6.633,43,22.678,61.823,61.287-50.036,39.363-146.51-4.762-172.723-17.989a18.511,18.511,0,0,0-13.881-1.162c-9.323,2.909-25.479,7.427-34.48,6.933-13.169-.724-27.3,46.865-49.715,34.818C1032.491,2712.031,1042.677,2630.726,1111.5,2637.928Z" transform="translate(-685.628 -2246.306)" fill="url(#linear-gradient-22)"/>
          <g id="Group_1406" data-name="Group 1406" transform="translate(188.054)">
            <path id="Path_3876" data-name="Path 3876" d="M902.329,2299.579c-.07,1.24,21.746,76.723,32.888,115.181a20.441,20.441,0,0,0,27.543,13.157l8.639-3.617c11.807-4.943,32.44-20.175,33.591-32.923l-3.921-91.175S903.891,2271.7,902.329,2299.579Z" transform="translate(-873.682 -2246.306)" fill="url(#linear-gradient-23)"/>
            <path id="Path_3877" data-name="Path 3877" d="M1000.389,2274.927c2.248-8.537,2.4-21.278-13.741-26.878-16.4-5.692-27.454,3.753-33.22,11.149a7.8,7.8,0,0,1-9.794,2.034c-1.918-.99-4.293-1.161-6.968.849a7.677,7.677,0,0,1-11.117-2.334c-4.459-7.426-12.889-15.062-28.108-11.063-27.008,7.1-27.455,37.751-18.663,54.923s37.636,7.814,51.618-2.455c10.631-7.808,25.822-1.93,32.494,1.338a7.733,7.733,0,0,1,4.134,5.276l7.55,33.88c8.394.823,16.642,2.337,24.9,3.956-.134-2.519-.2-4.669-.152-6.26.312-11.236,13.38-19.095,19.1-22a7.656,7.656,0,0,0,3.873-4.635c2.145-7.123,4.536-23.384-16.107-28.153A7.806,7.806,0,0,1,1000.389,2274.927Z" transform="translate(-873.682 -2246.306)" fill="url(#linear-gradient-24)"/>
            <path id="Path_3878" data-name="Path 3878" d="M1003.543,2359.212s-14.035-30.578-3.13-39.322,28.407-6.232,26.633,16.965C1024.838,2365.709,1003.543,2359.212,1003.543,2359.212Z" transform="translate(-873.682 -2246.306)" fill="url(#linear-gradient-25)"/>
          </g>
        </g>
        <g id="Group_1408" data-name="Group 1408" transform="translate(16.757 235.187)">
          <path id="Path_3879" data-name="Path 3879" d="M976.933,2705.027c-.188.01-.376.014-.566.013l-246.2-.269a11.02,11.02,0,1,1,.025-22.039l246.2.269a11.02,11.02,0,0,1,.541,22.026Z" transform="translate(-492.456 -2481.493)" fill="url(#linear-gradient-26)"/>
          <path id="Path_3880" data-name="Path 3880" d="M508.845,2481.493H713.881a39.077,39.077,0,0,1,35.345,22.409l94.788,200.992h-254.8a23.749,23.749,0,0,1-22.087-15.021l-73.5-185.989A16.373,16.373,0,0,1,508.845,2481.493Z" transform="translate(-492.456 -2481.493)" fill="url(#linear-gradient-27)"/>
        </g>
        <g id="Group_1410" data-name="Group 1410" transform="translate(0 456.381)">
          <g id="Group_1409" data-name="Group 1409" transform="translate(56.044 22.021)">
            <path id="Path_3881" data-name="Path 3881" d="M542.086,3233.077a10.6,10.6,0,0,1-4.083-.819,9.9,9.9,0,0,1-5.415-13.158l216.98-488.331a10.478,10.478,0,0,1,13.592-5.243,9.9,9.9,0,0,1,5.415,13.159l-216.98,488.331A10.366,10.366,0,0,1,542.086,3233.077Z" transform="translate(-531.743 -2724.708)" fill="url(#linear-gradient-28)"/>
            <path id="Path_3882" data-name="Path 3882" d="M786.523,3233.077a10.364,10.364,0,0,1-9.509-6.061L560.035,2738.685a9.9,9.9,0,0,1,5.415-13.159,10.477,10.477,0,0,1,13.592,5.243L796.022,3219.1a9.9,9.9,0,0,1-5.416,13.158A10.6,10.6,0,0,1,786.523,3233.077Z" transform="translate(-531.743 -2724.708)" fill="url(#linear-gradient-28)"/>
            <path id="Path_3883" data-name="Path 3883" d="M1213.731,3233.077a10.6,10.6,0,0,1-4.083-.819,9.9,9.9,0,0,1-5.415-13.158l216.979-488.331a10.479,10.479,0,0,1,13.593-5.243,9.9,9.9,0,0,1,5.415,13.159l-216.98,488.331A10.366,10.366,0,0,1,1213.731,3233.077Z" transform="translate(-531.743 -2724.708)" fill="url(#linear-gradient-28)"/>
            <path id="Path_3884" data-name="Path 3884" d="M1458.166,3233.077a10.364,10.364,0,0,1-9.509-6.061l-216.979-488.331a9.9,9.9,0,0,1,5.415-13.159,10.478,10.478,0,0,1,13.593,5.243L1467.665,3219.1a9.9,9.9,0,0,1-5.415,13.158A10.6,10.6,0,0,1,1458.166,3233.077Z" transform="translate(-531.743 -2724.708)" fill="url(#linear-gradient-28)"/>
          </g>
          <path id="Path_3885" data-name="Path 3885" d="M1483.617,2715.692a11.9,11.9,0,0,0-2.055-9.031,9.392,9.392,0,0,0-7.53-3.974h-987.1a11,11,0,0,0-9.464,5.8,13.888,13.888,0,0,0-.734,12.052l10.7,25.918c2.449,5.936,7.756,9.737,13.6,9.737h966.231c5.433,0,10.1-4.313,11.134-10.285Z" transform="translate(-475.699 -2702.687)" fill="url(#linear-gradient-32)"/>
        </g>
      </g>
      <g id="Group_1413" data-name="Group 1413" transform="translate(2181.625 81.762)">
        <path id="Path_3886" data-name="Path 3886" d="M2892.891,553.95l-220.337-11.463c-18-.936-32.353,13.092-31.844,31.223l5.7,202.631c.465,16.559,14.792,29.21,31.8,28.37l209.225-10.335c14.183-.7,25.894-13.275,26.313-28.178l5.1-181.508C2919.3,568.524,2907.756,554.722,2892.891,553.95Z" transform="translate(-2640.697 -542.443)" fill="url(#linear-gradient-33)"/>
        <g id="Group_1412" data-name="Group 1412" transform="translate(52.394 47.437)">
          <path id="Path_3887" data-name="Path 3887" d="M2776.082,755.862a82.991,82.991,0,1,1,82.991-82.991A83.085,83.085,0,0,1,2776.082,755.862Zm0-152.075a69.083,69.083,0,1,0,69.083,69.083A69.162,69.162,0,0,0,2776.082,603.787Z" transform="translate(-2693.091 -589.88)" fill="#fff"/>
          <path id="Path_3888" data-name="Path 3888" d="M2750.083,704.831V645.167a8.224,8.224,0,0,1,12.422-7.073l50.275,29.832a8.225,8.225,0,0,1,0,14.147l-50.275,29.833A8.226,8.226,0,0,1,2750.083,704.831Z" transform="translate(-2693.091 -589.88)" fill="#fff" fill-rule="evenodd"/>
        </g>
      </g>
      <g id="Group_1417" data-name="Group 1417" transform="translate(64.865 1691.731)">
        <path id="Path_3889" data-name="Path 3889" d="M734.924,2162.039l-184.335-9.59a25.042,25.042,0,0,0-26.641,26.121l4.765,169.523c.39,13.854,12.375,24.437,26.6,23.734l175.039-8.646c11.865-.586,21.663-11.106,22.013-23.575l4.269-151.851C757.017,2174.232,747.36,2162.686,734.924,2162.039Z" transform="translate(-523.937 -2152.412)" fill="url(#linear-gradient-34)"/>
        <g id="Group_1416" data-name="Group 1416" transform="translate(8.329 44.076)">
          <path id="Path_3890" data-name="Path 3890" d="M701.724,2319.5H603.407a8.391,8.391,0,0,1-8.055-6.037l-27.868-95.392-28.265-4.92a8.39,8.39,0,1,1,2.878-16.532l33.414,5.815a8.392,8.392,0,0,1,6.616,5.913l27.57,94.373h85.051l12.607-67.939a8.39,8.39,0,1,1,16.5,3.062l-13.881,74.8A8.39,8.39,0,0,1,701.724,2319.5Z" transform="translate(-532.266 -2196.488)" fill="#fff"/>
          <path id="Path_3891" data-name="Path 3891" d="M711.361,2242.3h-130.9a8.391,8.391,0,0,1,0-16.782h130.9a8.391,8.391,0,0,1,0,16.782Z" transform="translate(-532.266 -2196.488)" fill="#fff"/>
          <g id="Group_1414" data-name="Group 1414" transform="translate(85.118 30.709)">
            <path id="Path_3892" data-name="Path 3892" d="M625.775,2307.749a8.39,8.39,0,0,1-8.391-8.391v-63.77a8.391,8.391,0,1,1,16.782,0v63.77A8.391,8.391,0,0,1,625.775,2307.749Z" transform="translate(-617.384 -2227.197)" fill="#fff"/>
            <path id="Path_3893" data-name="Path 3893" d="M672.763,2307.749a8.391,8.391,0,0,1-8.391-8.391v-63.77a8.391,8.391,0,1,1,16.782,0v63.77A8.391,8.391,0,0,1,672.763,2307.749Z" transform="translate(-617.384 -2227.197)" fill="#fff"/>
          </g>
          <path id="Path_3894" data-name="Path 3894" d="M704.648,2275.864H593.891a8.391,8.391,0,0,1,0-16.782H704.648a8.391,8.391,0,0,1,0,16.782Z" transform="translate(-532.266 -2196.488)" fill="#fff"/>
          <g id="Group_1415" data-name="Group 1415" transform="translate(75.479 128.108)">
            <path id="Path_3895" data-name="Path 3895" d="M630.988,2336.217a11.621,11.621,0,1,1-11.622-11.621A11.621,11.621,0,0,1,630.988,2336.217Z" transform="translate(-607.745 -2324.596)" fill="#fff"/>
            <path id="Path_3896" data-name="Path 3896" d="M701.821,2336.217A11.621,11.621,0,1,1,690.2,2324.6,11.621,11.621,0,0,1,701.821,2336.217Z" transform="translate(-607.745 -2324.596)" fill="#fff"/>
          </g>
        </g>
      </g>
      <g id="Group_1419" data-name="Group 1419" transform="translate(2435.659 1634.262)">
        <path id="Path_3897" data-name="Path 3897" d="M3107.192,2104.637l-185.624-9.657a25.216,25.216,0,0,0-26.826,26.3l4.8,170.707c.392,13.95,12.461,24.608,26.788,23.9l176.262-8.706c11.948-.59,21.814-11.184,22.167-23.74l4.3-152.912C3129.439,2116.916,3119.715,2105.288,3107.192,2104.637Z" transform="translate(-2894.731 -2094.943)" fill="url(#linear-gradient-33)"/>
        <g id="Group_1418" data-name="Group 1418" transform="translate(31.779 39.957)">
          <path id="Path_3898" data-name="Path 3898" d="M3077.44,2269.151H2946.751a20.266,20.266,0,0,1-20.241-20.243v-93.766a20.266,20.266,0,0,1,20.241-20.242H3077.44a20.266,20.266,0,0,1,20.241,20.242v93.766A20.265,20.265,0,0,1,3077.44,2269.151Zm-130.689-117.47a3.465,3.465,0,0,0-3.459,3.461v93.766a3.465,3.465,0,0,0,3.459,3.461H3077.44a3.465,3.465,0,0,0,3.46-3.461v-93.766a3.465,3.465,0,0,0-3.46-3.461Z" transform="translate(-2926.51 -2134.9)" fill="#fff"/>
          <path id="Path_3899" data-name="Path 3899" d="M3010.865,2211.108a8.374,8.374,0,0,1-4.854-1.547l-72.875-51.678a8.391,8.391,0,1,1,9.708-13.688l68.017,48.234,67.109-47.67a8.391,8.391,0,0,1,9.718,13.681l-71.965,51.118A8.379,8.379,0,0,1,3010.865,2211.108Z" transform="translate(-2926.51 -2134.9)" fill="#fff"/>
          <path id="Path_3900" data-name="Path 3900" d="M2939.365,2270.121l-2.609-16.575,1.234,8.3-7.062-4.523c1.5-2.432,27.686-48.233,44.923-78.427a8.39,8.39,0,0,1,14.573,8.318s-11.242,19.692-22.508,39.391c-5.634,9.853-11.273,19.7-15.516,27.1C2943.351,2269.463,2943.351,2269.463,2939.365,2270.121Z" transform="translate(-2926.51 -2134.9)" fill="#fff"/>
          <path id="Path_3901" data-name="Path 3901" d="M3081.962,2270.128c-4.007-.649-4.007-.649-13.065-16.427-4.243-7.391-9.882-17.243-15.516-27.1-11.265-19.7-22.508-39.391-22.508-39.391a8.39,8.39,0,0,1,14.573-8.318c17.24,30.2,43.43,76,44.923,78.43l-7.063,4.52Z" transform="translate(-2926.51 -2134.9)" fill="#fff"/>
        </g>
      </g>
      <g id="Group_1420" data-name="Group 1420" transform="translate(2471.862 333.506)">
        <path id="Path_3902" data-name="Path 3902" d="M3143.4,803.881l-185.624-9.657a25.217,25.217,0,0,0-26.827,26.3l4.8,170.708c.393,13.95,12.461,24.608,26.788,23.9l176.262-8.707c11.948-.59,21.815-11.184,22.167-23.739l4.3-152.912C3165.643,816.16,3155.919,804.533,3143.4,803.881Z" transform="translate(-2930.934 -794.187)" fill="url(#linear-gradient-34)"/>
        <path id="Path_3903" data-name="Path 3903" d="M3061.383,835.869a4.747,4.747,0,0,0-6.316,4.489v85.173a40.155,40.155,0,0,0-25.464-8.623c-19.625,0-35.534,12.727-35.534,28.427s15.909,28.427,35.534,28.427,35.534-12.727,35.534-28.427c0-.136-.023-.268-.026-.4h.026V860.259c14.076,2.133,23.64,12.822,29.238,21.553a4.216,4.216,0,0,0,7.758-2.537C3100.732,852.886,3073.891,840.313,3061.383,835.869Z" transform="translate(-2930.934 -794.187)" fill="#fff"/>
      </g>
      <g id="Group_1422" data-name="Group 1422" transform="translate(201.298 659.908)">
        <path id="Path_3904" data-name="Path 3904" d="M907.159,1376.111a40.259,40.259,0,1,1-11.787-55.7A40.307,40.307,0,0,1,907.159,1376.111Zm-54.094-35.2a24.279,24.279,0,1,0,33.593-7.109A24.308,24.308,0,0,0,853.065,1340.913Z" transform="translate(-660.37 -1120.589)" fill="#fff"/>
        <g id="Group_1421" data-name="Group 1421">
          <path id="Path_3905" data-name="Path 3905" d="M801.428,1307.313a85.98,85.98,0,0,1,118.828-25.145,83.3,83.3,0,0,1,7.031,5.124,5.859,5.859,0,0,0,9.07-2.034l5.254-11.494a5.887,5.887,0,0,0-1.83-7.129q-3.12-2.376-6.453-4.555a109.979,109.979,0,0,0-151.989,32.162,108.271,108.271,0,0,0-6.67,11.823,5.876,5.876,0,0,0,2.928,7.972l11.311,4.894a5.813,5.813,0,0,0,7.542-2.791A82.15,82.15,0,0,1,801.428,1307.313Z" transform="translate(-660.37 -1120.589)" fill="#fff"/>
          <path id="Path_3906" data-name="Path 3906" d="M749.531,1273.544c44.45-68.311,136.183-87.722,204.494-43.272l.058.037a5.805,5.805,0,0,0,8.48-2.4l5.153-11.276c-.812-2.812-1.336-4.623-2.148-7.436-79.22-50.38-184.8-27.6-236.125,51.274a170.253,170.253,0,0,0-11.73,21.228,5.809,5.809,0,0,0,3.019,7.733l11.283,4.88a5.8,5.8,0,0,0,7.569-2.817A146.286,146.286,0,0,1,749.531,1273.544Z" transform="translate(-660.37 -1120.589)" fill="#fff"/>
          <path id="Path_3907" data-name="Path 3907" d="M697.634,1239.775c61.428-94.4,186.494-122.946,282.516-66.093a5.86,5.86,0,0,0,8.358-2.547l5.112-11.188a5.859,5.859,0,0,0-2.325-7.482c-106.856-62.528-245.525-30.613-313.751,74.238a232.192,232.192,0,0,0-16.659,30.4,5.845,5.845,0,0,0,3.039,7.75l11.268,4.874a5.842,5.842,0,0,0,7.636-2.988A208.423,208.423,0,0,1,697.634,1239.775Z" transform="translate(-660.37 -1120.589)" fill="#fff"/>
        </g>
      </g>
      <g id="Group_1423" data-name="Group 1423" transform="translate(2276.723 1372.911)">
        <path id="Path_3908" data-name="Path 3908" d="M2950.3,1843.379l-187.41-9.75a25.46,25.46,0,0,0-27.085,26.557l4.845,172.35c.4,14.085,12.581,24.845,27.045,24.13l177.958-8.79c12.063-.6,22.024-11.291,22.381-23.967l4.34-154.383C2972.762,1855.776,2962.944,1844.037,2950.3,1843.379Z" transform="translate(-2735.795 -1833.591)" fill="url(#linear-gradient-37)"/>
        <path id="Path_3909" data-name="Path 3909" d="M2925.744,1863.041h-132.49c-12.272,0-27.846,8.922-27.846,21.582v73.69c0,12.145,15.7,22.2,27.846,22.2h91.136c3.139,0,5.2,5.827,5.2,8.966v10.888c0,4.484,4.289,6.144,6.5,6.884a8.632,8.632,0,0,0,4.976,1.851,6.275,6.275,0,0,0,4.775-2.166l19.825-23.144c12.385-.269,17.624-13.331,17.624-25.476v-73.69C2943.292,1872.569,2937.8,1863.041,2925.744,1863.041Zm4.123,95.271c0,5.7.474,12.129-4.123,12.129h-4.952l-24.489,23.28v-16.005c0-3.139,2.985-7.275-.154-7.275h-102.9c-5.642,0-17.777-6.486-17.777-12.129v-70.654c0-8.232,12.08-7.837,17.777-7.837h132.49c5.6,0,4.123-.806,4.123,4.8Z" transform="translate(-2735.795 -1833.591)" fill="#fff"/>
        <path id="Path_3910" data-name="Path 3910" d="M2916.442,1899.96a3.355,3.355,0,0,1-3.356,3.356H2792.26a3.356,3.356,0,0,1-3.356-3.356h0a3.356,3.356,0,0,1,3.356-3.356h120.826a3.355,3.355,0,0,1,3.356,3.356Z" transform="translate(-2735.795 -1833.591)" fill="#fff"/>
        <path id="Path_3911" data-name="Path 3911" d="M2916.442,1920.1a3.355,3.355,0,0,1-3.356,3.356H2792.26a3.356,3.356,0,0,1-3.356-3.356h0a3.356,3.356,0,0,1,3.356-3.356h120.826a3.356,3.356,0,0,1,3.356,3.356Z" transform="translate(-2735.795 -1833.591)" fill="#fff"/>
        <path id="Path_3912" data-name="Path 3912" d="M2916.442,1950.3a3.355,3.355,0,0,1-3.356,3.356H2792.26a3.356,3.356,0,0,1-3.356-3.356h0a3.356,3.356,0,0,1,3.356-3.356h120.826a3.356,3.356,0,0,1,3.356,3.356Z" transform="translate(-2735.795 -1833.591)" fill="#fff"/>
      </g>
      <g id="Group_1428" data-name="Group 1428" transform="translate(1656.32 367.35)">
        <path id="Path_3913" data-name="Path 3913" d="M2141.158,1761.15c.427-.164,229.763-401.787,260.754-439.583a24.022,24.022,0,0,1,21.447-8.622l64.011,7.628,75.2,162.686L2437.289,1410.3c12.4,85.736-148.544,213.15-203.74,259.642a12.677,12.677,0,0,0-1,18.465l22.034,23.068c-36.176,36.67-77.922,60.216-125.038,71.107Z" transform="translate(-2115.392 -828.031)" fill="url(#linear-gradient-38)"/>
        <path id="Path_3914" data-name="Path 3914" d="M2241.836,1699.022s14.064,4.544,18.826,17.069c2.278,5.993-.178,12.781-5.39,16.515-23.157,16.591-99.545,70.156-134.795,80.647a3.988,3.988,0,0,1-4.989-4.7c1.809-8.189,7.66-24.542,26.511-48.481l-1.691,3.42a4.9,4.9,0,0,0,6.779,6.462C2170.665,1756.647,2218.688,1727.516,2241.836,1699.022Z" transform="translate(-2115.392 -828.031)" fill="url(#linear-gradient-39)"/>
        <path id="Path_3915" data-name="Path 3915" d="M2230.487,1859.72c.385-.247,34.792-83.147,35.178-83.393,31.547-192.078,108.519-356.578,131.218-399.864a24.028,24.028,0,0,1,19.259-12.784l64.23-5.483,106.568,144.1-137.454-46.1c29.491,81.453-102.334,238.8-146.979,295.5a12.679,12.679,0,0,0,2.755,18.286l26.249,18.132c-28.009,43.232-64.125,74.74-108.061,94.939Z" transform="translate(-2115.392 -828.031)" fill="url(#linear-gradient-40)"/>
        <path id="Path_3916" data-name="Path 3916" d="M2316.507,1778.505s14.692,1.6,21.89,12.905c3.444,5.408,2.413,12.552-1.935,17.264-19.321,20.934-83.288,88.849-115.685,106.257a3.988,3.988,0,0,1-5.837-3.591c.114-8.386,2.535-25.585,16.152-52.843l-.964,3.693a4.9,4.9,0,0,0,7.948,4.957C2258.471,1849.34,2299.6,1811.094,2316.507,1778.505Z" transform="translate(-2115.392 -828.031)" fill="url(#linear-gradient-41)"/>
        <g id="Group_1424" data-name="Group 1424" transform="translate(307.967 484.914)">
          <path id="Path_3917" data-name="Path 3917" d="M2781.028,1327.848s58.1,86.424,62.874,125.847-16.067,53.056-76.884,58.083c-180.98,14.961-270.2-39.279-270.2-39.279,13.555-37.625,29.934-116.634-73.463-159.554,0,0,85.372,13.675,111.692,3.462S2781.028,1327.848,2781.028,1327.848Z" transform="translate(-2423.359 -1312.945)" fill="url(#linear-gradient-42)"/>
        </g>
        <g id="Group_1427" data-name="Group 1427" transform="translate(230.557)">
          <path id="Path_3918" data-name="Path 3918" d="M2452.981,867.253c1,7.58,132.9,374.668,132.9,374.668l201.874,31.64a88.077,88.077,0,0,0,93.65-50.192h0a177.186,177.186,0,0,0-87-235.092l-29.8-13.687c-44.456-20.42-88.033-55.671-126.331-92.7a184.783,184.783,0,0,0-119.329-51.283h0Z" transform="translate(-2345.949 -828.031)" fill="url(#linear-gradient-43)"/>
          <path id="Path_3919" data-name="Path 3919" d="M2846.384,1190.668a1.122,1.122,0,0,1-.7-2c21.044-16.726,19.131-48.247,17.332-61.023a151.768,151.768,0,0,0-29.091-70.118c-27.809-36.827-70.479-58.778-111.744-80.007l-8.54-4.4c-42.268-21.855-89.343-48.951-113-94.091a1.121,1.121,0,1,1,1.986-1.042c23.36,44.563,70.085,71.442,112.047,93.14l8.536,4.4c41.49,21.344,84.392,43.415,112.508,80.653a154.011,154.011,0,0,1,29.523,71.154c1.854,13.16,3.794,45.648-18.158,63.094A1.1,1.1,0,0,1,2846.384,1190.668Z" transform="translate(-2345.949 -828.031)" fill="#fff"/>
          <path id="Path_3920" data-name="Path 3920" d="M2825.14,1151.022h-.074a1.123,1.123,0,0,1-1.047-1.193c1.7-26.621-2.106-49.686-11.3-68.555-16.637-34.15-51.808-56.008-80.59-71.236-5.8-3.071-11.67-6.067-17.547-9.069-26.7-13.632-54.3-27.732-75.824-49.089a1.121,1.121,0,1,1,1.579-1.593c21.272,21.111,48.72,35.13,75.266,48.686,5.887,3.006,11.765,6.008,17.575,9.079,29.084,15.388,64.638,37.506,81.557,72.239,9.366,19.223,13.241,42.668,11.521,69.682A1.119,1.119,0,0,1,2825.14,1151.022Z" transform="translate(-2345.949 -828.031)" fill="#fff"/>
          <path id="Path_3921" data-name="Path 3921" d="M2396.575,1149.962s69,82.631,138.475,15.526l26.844,62.251s-101.459,78.562-178.418-45.046Z" transform="translate(-2345.949 -828.031)" fill="url(#linear-gradient-44)"/>
          <path id="Path_3922" data-name="Path 3922" d="M2623.888,1316.407s-67.662-64.43-100.97-107.1a90.546,90.546,0,0,1-15.331-81.489c15.206-51.231,42.23-104.293,44.7-112.551,3.778-12.658,79.646-12.131,79.646-12.131s71.433,11.1,72,132.132a158.11,158.11,0,0,0,23.161,81.665c17.243,28.218,34.02,70.577,53.941,110.92Z" transform="translate(-2345.949 -828.031)" fill="url(#linear-gradient-45)"/>
          <path id="Path_3923" data-name="Path 3923" d="M2579.785,911.912l50.991,94.821c-3.366,20.7-55.5,21.282-63.552,8.922a12.206,12.206,0,0,1-1.6-4.182l-30.5-63.356c-1.311-6.179,15.626-26.995,21.2-29.962l20.268-10.788C2584.4,903.212,2551.83,902.885,2579.785,911.912Z" transform="translate(-2345.949 -828.031)" fill="url(#linear-gradient-46)"/>
          <g id="Group_1425" data-name="Group 1425" transform="translate(95.454)">
            <path id="Path_3924" data-name="Path 3924" d="M2476.587,889.658s-5.756,32.035,19.423,72.766,50.253,38.893,62.991,24.367,28-38.719,21.055-79.344S2485.284,848.8,2476.587,889.658Z" transform="translate(-2441.403 -828.031)" fill="url(#linear-gradient-47)"/>
            <path id="Path_3925" data-name="Path 3925" d="M2549.574,911.862s-40.772-53.552-72.073-6.868l.528,16.127s-40.705-1.9-36.291-39.42,37.646-63.148,83.717-50.33,72.99,27.417,78.192,59.4-20.914,26.76-20.914,26.76-9.977-22.07-22.023-23.578-7.693,15.951-7.693,15.951Z" transform="translate(-2441.403 -828.031)" fill="url(#linear-gradient-48)"/>
            <path id="Path_3926" data-name="Path 3926" d="M2558.93,910.433s-21.119-27.405-1.9-33.094,18.506,26.854,17.254,38.96Z" transform="translate(-2441.403 -828.031)" fill="url(#linear-gradient-49)"/>
          </g>
          <path id="Path_3927" data-name="Path 3927" d="M2716.282,1243.3s-145.515-20.263-193.415-65.087c0,0-23.181-21.9-39.918-24.562-9.015-1.434-19.185-2.392-26.651-2.97a3.363,3.363,0,0,0-2.2,6.1c5.392,3.788,12.457,7.866,18.584,8.5,11.842,1.228-.782,9.906,12.113,32.58s31.316,14.123,31.316,14.123,96.4,83.059,188.508,82.363C2704.616,1294.343,2727.335,1286.892,2716.282,1243.3Z" transform="translate(-2345.949 -828.031)" fill="url(#linear-gradient-50)"/>
          <g id="Group_1426" data-name="Group 1426" transform="translate(0 258.269)">
            <path id="Path_3928" data-name="Path 3928" d="M2351.215,1093.092l50.287-6.626c6-.994,12.185,2.519,15.89,9.019l33.079,73.118c6.228,10.925,1.8,25.418-8.279,27.089l-40.381,5.179c-3.863.641-7.834-1.8-10.015-6.15l-44.738-89.3C2344.472,1100.266,2346.634,1093.852,2351.215,1093.092Z" transform="translate(-2345.949 -1086.3)" fill="url(#linear-gradient-51)"/>
          </g>
          <path id="Path_3929" data-name="Path 3929" d="M2683.628,1044.778s137.04,202.98,20.988,249.565l-20.988-56.621s13.873-31.354-27-110.048a67.209,67.209,0,0,1-7.5-33.678C2650.513,1059.964,2656.638,996.776,2683.628,1044.778Z" transform="translate(-2345.949 -828.031)" fill="url(#linear-gradient-52)"/>
          <path id="Path_3930" data-name="Path 3930" d="M2683.635,1240.173a2.441,2.441,0,0,0,2.238-1.458c.588-1.324,13.88-33.338-27.063-112.174a2.457,2.457,0,0,0-4.361,2.265c39.627,76.3,27.059,107.629,26.927,107.936a2.463,2.463,0,0,0,1.276,3.226A2.5,2.5,0,0,0,2683.635,1240.173Z" transform="translate(-2345.949 -828.031)" fill="#fff" opacity="0.43"/>
          <path id="Path_3931" data-name="Path 3931" d="M2385.523,1191.717s-33.811-49.2-29.883-55.263,33.567-14.737,40.526-16.784S2416.224,1162.243,2385.523,1191.717Z" transform="translate(-2345.949 -828.031)" fill="url(#linear-gradient-53)"/>
        </g>
      </g>
      <g id="Group_1433" data-name="Group 1433" transform="translate(1872.608 1923.906)">
        <g id="Group_1432" data-name="Group 1432">
          <path id="Path_3932" data-name="Path 3932" d="M2908.987,2910.43c13.571,2.7,90.909,48.72,90.909-3.9v-58.772S2905.087,2909.655,2908.987,2910.43Z" transform="translate(-2331.68 -2384.587)" fill="url(#linear-gradient-54)"/>
          <path id="Path_3933" data-name="Path 3933" d="M2957.388,2811.65S2923.4,2754.294,2919.15,2698s2.656-80.933-3.718-97.292-37.352-78.491-38.768-59.817,9.913,38.147,9.913,38.147-19.652,15.634-16.286,33.635,10.267,19.827,10.267,19.827,1.062,38.946,2.833,38.946-31.157,195.437,5.665,199.686S2955.617,2901.58,2957.388,2811.65Z" transform="translate(-2331.68 -2384.587)" fill="url(#linear-gradient-55)"/>
          <path id="Path_3934" data-name="Path 3934" d="M2860.257,2598.827c-.343-2.588-24.148-54.368-19.885-60.255s8.566-11.14,15.249,6.317,14.654,64.95,12.086,65.234S2861.487,2608.107,2860.257,2598.827Z" transform="translate(-2331.68 -2384.587)" fill="url(#linear-gradient-56)"/>
          <path id="Path_3935" data-name="Path 3935" d="M2637.514,3162.957s-17.971-14.914-41.865-12.74c-16.659,2.918-36.2,17.651-48.8,28.583a6.7,6.7,0,0,0-1.855,7.6,7.044,7.044,0,0,0,6.7,4.326c31.241-.647,92.359-2.5,92.359-7.109C2644.052,3177.431,2637.514,3162.957,2637.514,3162.957Z" transform="translate(-2331.68 -2384.587)" fill="url(#linear-gradient-57)"/>
          <path id="Path_3936" data-name="Path 3936" d="M2649.894,3136.669l-14.339,27.085s-32.4,2.655-31.334-10.091,9.028-28.147,9.028-28.147Z" transform="translate(-2331.68 -2384.587)" fill="url(#linear-gradient-58)"/>
          <path id="Path_3937" data-name="Path 3937" d="M3016.038,3155.111c-22.466-122.656-38.829-201.423-38.829-201.423s-248.982-160.626-274.474-121.326-98.541,307.494-98.541,307.494l48.707,13.277s93.116-126.126,101.614-233.8c23.973,78.534,46.314,266.207,230.755,271.591a30.391,30.391,0,0,0,30.768-35.809Z" transform="translate(-2331.68 -2384.587)" fill="url(#linear-gradient-59)"/>
          <path id="Path_3938" data-name="Path 3938" d="M2477.824,3152.071l-29.74,28.147-23.368-23.367,30.8-35.583Z" transform="translate(-2331.68 -2384.587)" fill="url(#linear-gradient-60)"/>
          <path id="Path_3939" data-name="Path 3939" d="M3081.542,2581.7l58.21,74.852a10.635,10.635,0,0,1,1.061,11.7c-7.541,12.959-29.43,41.613-75.724,42.015-5.294.046-10.345-3.326-12.957-8.472l-36.182-71.282Z" transform="translate(-2331.68 -2384.587)" fill="url(#linear-gradient-61)"/>
          <g id="Group_1429" data-name="Group 1429" transform="translate(560.199)">
            <path id="Path_3940" data-name="Path 3940" d="M2942.885,2484.193s-14.839,85.441,8.4,120.721,90.5,36.166,131.087-18.722l-7.041-118.607Z" transform="translate(-2891.88 -2384.587)" fill="url(#linear-gradient-62)"/>
            <path id="Path_3941" data-name="Path 3941" d="M3048.3,2540.983a4.25,4.25,0,0,1-4.208-4.943c1.31-7.906,3.315-23.744.883-35.761,0,0,6.465-9.747-28.854-3.3s-88.2,15.6-110.205-7.178c-21.458-22.205-25.221-100.193,39.14-65.125a4.249,4.249,0,0,0,6.181-2.676c2.856-11.692,12.5-37.6,41.834-37.413,27.452.172,37.441,15.825,40.861,24.428a4.224,4.224,0,0,0,6.327,1.938c10.612-7.321,37.578-21.485,63.138,1.311,21.053,18.777,19.973,35.142,16.515,44.437a4.237,4.237,0,0,0,4.5,5.705c8.643-1.028,21.324,1.09,28.21,19.364,9.52,25.263-19.013,35.256-27.36,37.595a4.254,4.254,0,0,0-2.914,2.744c-3.446,10.419-18.19,56.991-49.333,75.286-2.7,1.584-7.768-1.812-8.031-4.928l-4.012-47.561a4.269,4.269,0,0,0-4.249-3.911Z" transform="translate(-2891.88 -2384.587)" fill="url(#linear-gradient-63)"/>
            <path id="Path_3942" data-name="Path 3942" d="M3043.365,2546.217s24.887-40.231,36.592-20.761-18.961,44.048-39.563,43.953Z" transform="translate(-2891.88 -2384.587)" fill="url(#linear-gradient-64)"/>
          </g>
          <path id="Path_3943" data-name="Path 3943" d="M2986.939,2787.221s-113.462,47.8-134.705,23.367-9.559-161.423-9.559-161.423l-47.8-12.77s-58.773,241.817,41.07,277.931c72.482,26.217,210.66-59.127,210.66-59.127Z" transform="translate(-2331.68 -2384.587)" fill="url(#linear-gradient-65)"/>
          <path id="Path_3944" data-name="Path 3944" d="M3093.631,2621.878c-18.294,4.022-38.345,21.493-54.031,38.255a134.633,134.633,0,0,0-34.378,68.965q-.219,1.262-.436,2.529c-39.487,43.278-74.266,71.3-97.663,81.655,41.07,58.332,63.292,80.491,63.292,80.491s4.736-1.019,12.679-3.07c-7.719,69.6-11.9,123.5-11.9,123.5s80.224,79.629,177.38,102.288c88.484-65.146,102.018-251.508,102.018-251.508C3257.522,2643.94,3155.433,2608.291,3093.631,2621.878Z" transform="translate(-2331.68 -2384.587)" fill="url(#linear-gradient-66)"/>
          <path id="Path_3945" data-name="Path 3945" d="M3148.576,3116.489s-39.831,118.43-236.425,52.045c-95.323-32.188-228.8-218.8-228.8-218.8s-32.927,90.283-205,211.369l-38.237-34.343s174.193-300.236,263.414-269.08S3175.837,3039.659,3148.576,3116.489Z" transform="translate(-2331.68 -2384.587)" fill="url(#linear-gradient-67)"/>
          <path id="Path_3946" data-name="Path 3946" d="M2462.586,3166.492c-7.272.082-37.87-13.359-37.87-13.359l-28.5,7.612c-24.841-3.822-46.176,4.637-60.553,13.234a8.2,8.2,0,0,0,4.078,15.227c28.131.466,74.325.936,97.723-.465C2472.514,3186.645,2477.824,3187.653,2462.586,3166.492Z" transform="translate(-2331.68 -2384.587)" fill="url(#linear-gradient-68)"/>
          <path id="Path_3947" data-name="Path 3947" d="M3022.317,2880.3a1.257,1.257,0,0,1-.3-2.477,275.724,275.724,0,0,0,62.844-26.14c29.8-17.038,67.673-47.125,78.86-93.712a1.257,1.257,0,1,1,2.444.586c-11.4,47.481-49.859,78.053-80.112,95.339a278.216,278.216,0,0,1-63.436,26.366A1.162,1.162,0,0,1,3022.317,2880.3Z" transform="translate(-2331.68 -2384.587)" fill="url(#linear-gradient-69)"/>
          <g id="Group_1431" data-name="Group 1431" transform="translate(437.423 120.247)">
            <g id="Group_1430" data-name="Group 1430">
              <path id="Path_3948" data-name="Path 3948" d="M2769.623,2525.7a7.6,7.6,0,0,1,5.653-10.225l55.371-10.565a4.3,4.3,0,0,1,4.914,2.95l42.591,137.3a2.324,2.324,0,0,1-1.551,2.914l-46.289,13.894a7.6,7.6,0,0,1-9.261-4.514Z" transform="translate(-2769.103 -2504.833)" fill="url(#linear-gradient-70)"/>
              <path id="Path_3949" data-name="Path 3949" d="M2787.088,2527.059a4.3,4.3,0,0,1,3.314-5.742l36.757-6.2a4.3,4.3,0,0,1,4.825,2.97l36.168,116.969a2.323,2.323,0,0,1-1.676,2.946l-32.934,7.922a2.322,2.322,0,0,1-2.72-1.448Z" transform="translate(-2769.103 -2504.833)" fill="url(#linear-gradient-71)"/>
              <path id="Path_3950" data-name="Path 3950" d="M2804.816,2515.734c.091.431.829.64,1.648.467l12.084-2.548c.819-.173,1.41-.662,1.319-1.092l-.088-.418c-.091-.43-.829-.639-1.648-.467l-12.084,2.549c-.819.172-1.41.661-1.319,1.092Z" transform="translate(-2769.103 -2504.833)" fill="url(#linear-gradient-72)"/>
            </g>
          </g>
          <path id="Path_3951" data-name="Path 3951" d="M2794.262,2639.031c-.712-6.088-21.159-44.857-13.193-59.727s11.152-40.362,18.853-33.193-1.859,32.13,1.593,39.565,16.711,26.327,18.446,41.045,11.56,35.7-9.152,38.617S2794.262,2639.031,2794.262,2639.031Z" transform="translate(-2331.68 -2384.587)" fill="url(#linear-gradient-73)"/>
          <path id="Path_3952" data-name="Path 3952" d="M3013.149,2726.872a1.255,1.255,0,0,1-1.034-1.966c2.344-3.418,57.768-83.529,89.685-70.018a1.257,1.257,0,1,1-.981,2.314c-30.039-12.747-86.071,68.3-86.633,69.124A1.255,1.255,0,0,1,3013.149,2726.872Z" transform="translate(-2331.68 -2384.587)" fill="url(#linear-gradient-74)"/>
          <path id="Path_3953" data-name="Path 3953" d="M2888.614,2651.99a1.253,1.253,0,0,1-1.02-.522c-9.7-13.442-3.576-28.774-.962-35.32.324-.813.686-1.719.806-2.144-1.185-2.655-5.814-16.251-4.4-24.728.327-1.955,1.341-2.553,2.134-2.709,4.361-.851,13.839,13.544,17.7,19.78a1.256,1.256,0,1,1-2.136,1.322c-6.294-10.166-13.133-18.637-15.032-18.637h-.021a6.031,6.031,0,0,0-.165.657c-1.352,8.113,3.576,22.172,4.278,23.424.445.778.125,1.582-.827,3.966-2.46,6.164-8.222,20.6.667,32.92a1.257,1.257,0,0,1-1.019,1.991Zm-1.005-37.635v0Z" transform="translate(-2331.68 -2384.587)" fill="url(#linear-gradient-75)"/>
        </g>
        <path id="Path_3954" data-name="Path 3954" d="M2913.647,2484.8a2.231,2.231,0,0,1-1.926-1.1c-9.846-16.85-12.948-31.177-9.223-42.586a25.9,25.9,0,0,1,13-15.385,2.228,2.228,0,0,1,1.788,4.081h0a21.429,21.429,0,0,0-10.58,12.786c-3.261,10.131-.277,23.206,8.868,38.856a2.228,2.228,0,0,1-1.923,3.352Z" transform="translate(-2331.68 -2384.587)" fill="#fff"/>
      </g>
    </g>
  </g>
</svg>
