<svg id="Layer_1" data-name="Layer 1" xmlns="http://www.w3.org/2000/svg" viewBox="0 0 256 265"><path d="M136.523,14.307c5.367.946,10.737,1.9,15.8,4.017,23.114,9.658,36.6,26.976,40.615,51.605,2.212,13.56-.527,26.4-6.43,38.688q-16.818,35.006-33.557,70.05c-1.86,3.886-1.852,3.89,2.514,3.89q23.632,0,47.263,0c4.845,0,6.058.907,7.429,5.474q8.018,26.7,16.039,53.4c.089.294.175.59.281.878,1.862,5.066-.267,8.4-6.145,8.383q-94.179-.186-188.361-.065c-2.052,0-4.031-.046-5.394-1.9a5.086,5.086,0,0,1-.563-5.233q11.473-28.669,22.933-57.345c1.1-2.754,3.294-3.61,6.081-3.6,11.681.028,23.362.01,35.044.01,4.918,0,9.837.009,14.755,0,2.56-.007,2.607-.087,1.51-2.379q-10.843-22.662-21.7-45.32c-4.508-9.426-9.1-18.812-13.479-28.3C55.711,73.062,70.071,34.57,103.629,19.382a71.6,71.6,0,0,1,18.6-5.075Zm-7.3,190.6c.442-.739.74-1.159.958-1.617Q154.091,153.282,178,103.274a55.591,55.591,0,0,0,4.479-35.693c-5.9-29.8-35.881-49.153-65.293-42.214A54.9,54.9,0,0,0,77.857,96.623c2.165,6.347,5.405,12.219,8.277,18.248q19.422,40.785,38.953,81.517C126.4,199.141,127.753,201.878,129.224,204.906ZM75.9,192.5c.522.822.73,1.229,1.009,1.578q17.631,22.054,35.252,44.117a2.7,2.7,0,0,0,3.557.94c7.216-2.63,14.466-5.165,21.709-7.72q33.027-11.65,66.068-23.262c1.536-.538,2.089-1.129,1.524-2.8-1.177-3.49-2.235-7.027-3.192-10.584a2.654,2.654,0,0,0-3.043-2.3q-25.011.1-50.023,0a3.322,3.322,0,0,0-3.488,2.252c-3.578,7.655-7.285,15.249-10.91,22.882-1.052,2.215-2.4,3.942-5.124,3.947-2.751,0-4.036-1.78-5.083-3.986-3.653-7.705-7.385-15.372-11-23.092a2.984,2.984,0,0,0-3.158-2c-7.068.086-14.138.037-21.207.037Zm25.441,48.184c-1.246-1.6-2.075-2.689-2.93-3.758Q81.369,215.61,64.313,194.3c-2.563-3.2-6.879-2.576-8.379,1.169Q47.458,216.634,38.99,237.8c-1.149,2.874-1.142,2.886,1.886,2.886q28.794,0,57.589,0Zm40.791-.342.089.338q35.5,0,70.992.019c1.9,0,2.2-.687,1.667-2.4-1.958-6.306-3.877-12.627-5.663-18.984-.568-2.021-1.405-2.225-3.267-1.558-13.664,4.9-27.365,9.688-41.052,14.519Q153.516,236.3,142.136,240.344Z"/><path d="M129.051,105.319a28.384,28.384,0,0,1-28.084-28.107c0-15.456,13.061-28.493,28.422-28.366a28.237,28.237,0,0,1-.338,56.473Zm-17.9-28.067a18.167,18.167,0,1,0,17.934-18.22A17.769,17.769,0,0,0,111.151,77.252Z"/></svg>