<svg id="Layer_1" data-name="Layer 1" xmlns="http://www.w3.org/2000/svg" viewBox="0 0 256 265"><defs><style>.cls-1{fill:#c39b34;}</style></defs><path class="cls-1" d="M25.74,132.33q0-47.43,0-94.85c0-6.44,4-10.55,10.48-10.55q55.66,0,111.35,0h39.09c6.5,0,10.62,4.11,10.62,10.6q0,41.64,0,83.3c0,1.5-.34,2.05-1.89,1.85a18.35,18.35,0,0,0-3.63,0c-.88.06-1.16-.24-1.13-1.1.05-1.37-.06-2.75,0-4.12.08-1.16-.3-1.48-1.47-1.47-7.53,0-15.06,0-22.6,0H34.51c-2.54,0-2.18-.31-2.18,2.17q0,54.29,0,108.55c0,3.82.94,4.74,4.79,4.74h148.8c3.85,0,4.77-.91,4.77-4.75,0-5.67,0-11.33,0-17,0-1.17.32-1.53,1.48-1.42a30.78,30.78,0,0,0,4,0c.79,0,1.21.08,1.2,1,0,6.55.1,13.09-.08,19.63-.14,5.11-4.61,9.09-9.9,9.1-10.28,0-20.57,0-30.85,0H36.55c-6.82,0-10.82-4-10.82-10.89q0-47.42,0-94.85Zm85.77-22.93q38.6,0,77.19,0c1.5,0,2-.25,2-1.93-.07-23.14,0-46.28,0-69.43,0-3.57-1-4.56-4.64-4.56H37c-3.62,0-4.62,1-4.63,4.58q0,34.71,0,69.43c0,1.48.34,1.91,1.87,1.91Q72.85,109.37,111.51,109.4Z"/><path class="cls-1" d="M157.69,165.55a36.3,36.3,0,1,1,36.36,36.23A36.3,36.3,0,0,1,157.69,165.55Zm36.23-29.75a29.69,29.69,0,1,0,29.75,29.63A29.77,29.77,0,0,0,193.92,135.8Z"/><path class="cls-1" d="M163,135.8a63,63,0,0,0-4.87,6.18c-.46.7-1.2.4-1.82.4q-30.09,0-60.18,0H42.88c-2.73,0-4.45-1.78-3.87-4a3.19,3.19,0,0,1,2.73-2.52,7.45,7.45,0,0,1,1.16-.05H163Z"/><path class="cls-1" d="M154.28,149c-.66,2.09-1.28,4-1.84,5.95a.82.82,0,0,1-1,.65h-108c-3,0-4.54-1.08-4.56-3.27s1.51-3.32,4.5-3.32H154.28Z"/><path class="cls-1" d="M154.29,182H42.92c-2.51,0-4-1.28-4-3.35s1.5-3.24,3.92-3.25H54.06q48.14,0,96.27,0c1.44,0,2.16.29,2.45,1.8A46.61,46.61,0,0,0,154.29,182Z"/><path class="cls-1" d="M91.88,188.59H140a11.33,11.33,0,0,1,1.65,0,3.29,3.29,0,0,1,0,6.51,11.33,11.33,0,0,1-1.65,0H43.21c-.38,0-.77,0-1.15,0a3.28,3.28,0,0,1-3.13-3.38,3.23,3.23,0,0,1,3.15-3.18c1.59-.06,3.18,0,4.78,0Z"/><path class="cls-1" d="M141.13,211.68H102.9a15.14,15.14,0,0,1-1.65,0,3.29,3.29,0,0,1,.07-6.55,14.62,14.62,0,0,1,1.48,0q36.58,0,73.18,0c2.72,0,5,1.56,7.57,2,.5.1.5.67.53,1.11a3.3,3.3,0,0,1-2.9,3.43,14.92,14.92,0,0,1-1.64,0Z"/><path class="cls-1" d="M62.18,122.6h19c2.5,0,4,1.31,4,3.38s-1.52,3.21-4,3.21H42.89c-2.5,0-4-1.31-4-3.38s1.51-3.21,4-3.22Z"/><path class="cls-1" d="M62,168.79H42.89c-2.5,0-4-1.3-4-3.38s1.51-3.22,4-3.22H81.14c2.5,0,4,1.3,4,3.38s-1.52,3.21-4,3.22Z"/><path class="cls-1" d="M160.88,224.87H141.42a3.31,3.31,0,0,1-3.43-2.51,3.34,3.34,0,0,1,1.59-3.66,3.7,3.7,0,0,1,1.91-.43q19.53,0,39.08,0a3.26,3.26,0,0,1,3.51,3.32,3.29,3.29,0,0,1-3.58,3.26C174,224.89,167.42,224.87,160.88,224.87Z"/><path class="cls-1" d="M75,66.5a17.23,17.23,0,0,1,8,2.8c5.7,4,8.42,9.58,8.66,16.4.15,4.39,0,8.79,0,13.19,0,2.43-1.25,3.9-3.27,3.91s-3.32-1.46-3.33-3.86c0-4.39,0-8.79,0-13.19a13.6,13.6,0,0,0-3.17-8.66,10.33,10.33,0,0,0-8.32-4c-5.17,0-10.34,0-15.5,0-6.55,0-11.09,3.83-12.27,10.32a20.69,20.69,0,0,0-.29,3.77c0,4,0,8,0,12a3.3,3.3,0,1,1-6.58,0c0-4.62-.11-9.24,0-13.85.22-7.84,5.27-17.51,16.82-19-3.9-3.61-5.79-8-5.21-13.18a14.35,14.35,0,0,1,5.07-9.52,14.82,14.82,0,0,1,19.84.41C81.8,50.07,81.66,57.69,75,66.5ZM73.55,55a8.24,8.24,0,1,0-8.2,8.19A8.24,8.24,0,0,0,73.55,55Z"/><path class="cls-1" d="M141.37,69.81h37.76c.49,0,1,0,1.48,0a3.29,3.29,0,1,1,0,6.58c-5.22,0-10.44,0-15.67,0H101.62A3.24,3.24,0,0,1,98.33,73a3.2,3.2,0,0,1,3.3-3.19c4.39,0,8.79,0,13.19,0Z"/><path class="cls-1" d="M161,96.21h19.12c2.51,0,4,1.3,4,3.37s-1.51,3.22-4,3.22q-19.12,0-38.25,0c-2.5,0-4-1.3-4-3.37s1.51-3.22,4-3.22Z"/><path class="cls-1" d="M161.16,83h19c2.5,0,4,1.3,4,3.38s-1.51,3.21-4,3.21q-19.12,0-38.25,0c-2.51,0-4-1.3-4-3.37s1.51-3.21,4-3.22Z"/><path class="cls-1" d="M182.72,161.5a3.21,3.21,0,0,1,2.4,1.32c1,1.27,2.15,2.5,3.15,3.81.56.74,1,.75,1.68.18,4.27-3.36,8.57-6.68,12.86-10a4.32,4.32,0,0,1,2.47-1.21,3.16,3.16,0,0,1,3.27,2,3.08,3.08,0,0,1-1,3.84c-1.64,1.37-3.37,2.64-5.06,3.95-3.81,3-7.61,5.94-11.44,8.89-2.15,1.66-3.79,1.47-5.53-.62-1.9-2.27-3.8-4.54-5.66-6.85a3.07,3.07,0,0,1-.31-3.69A3.15,3.15,0,0,1,182.72,161.5Z"/></svg>