<svg id="Layer_1" data-name="Layer 1" xmlns="http://www.w3.org/2000/svg" viewBox="0 0 256 265"><path d="M116.37,238.69a4.4,4.4,0,0,1-2.49-5c.48-3-.82-5.09-3-7.18-10.27-10.06-20.38-20.29-30.55-30.46-5-5-6.76-10.82-4.46-17.61,3.4-10.05,16.5-13.84,24.75-7.2a48.53,48.53,0,0,1,3.67,3.36c3,3,6,6.06,9.06,9.08.74-.47.45-1.09.45-1.58,0-16.59,0-33.19.06-49.78,0-1.49-.54-1.95-1.83-2.39-18.85-6.36-30.86-19.33-35.65-38.49-7.33-29.33,12.37-59,42.26-64.33A53,53,0,0,1,180,69c3.26,16.75-.94,31.75-11.85,44.89A50.94,50.94,0,0,1,143.82,130a2.07,2.07,0,0,0-1.72,2.47c.09,2.89,0,5.79,0,8.64.74.33,1.17-.15,1.65-.35a13.45,13.45,0,0,1,14.82,2.62c1,.89,1.53.86,2.51,0,5.56-5,13.09-5,18.78,0,.75.66,1.24,1.09,2.21.2,4.52-4.14,9.75-5.15,15.34-2.68s8.41,7.25,8.44,13.37c.07,19.57,0,39.14,0,58.71a7.47,7.47,0,0,1-1.21,4.12,15.75,15.75,0,0,0-2.43,10.24c.18,2.19-.07,4.42.06,6.63a4.55,4.55,0,0,1-2.57,4.75Zm4.55-87q0,20,0,40c0,1.78-.37,3.35-2.15,4.12s-3.29,0-4.61-1.36c-4.47-4.53-9-9-13.49-13.5a51.09,51.09,0,0,0-4.19-4,8.88,8.88,0,0,0-14.25,5c-.9,3.69.54,6.58,3.11,9.13q16.74,16.69,33.46,33.42c1.41,1.4,2.38,2.9,2.09,4.93-.27,1.84.42,2.27,2.24,2.26,23.09-.07,46.18,0,69.27,0,2.81,0,2.93,0,2.78-2.89-.27-5.26,0-10.35,3.19-14.86a4.34,4.34,0,0,0,.44-2.61q0-9.24,0-18.46,0-18.88,0-37.75a9.15,9.15,0,0,0-1.19-5.17,7.06,7.06,0,0,0-7.38-3.06,6.61,6.61,0,0,0-5.48,6.2c-.18,5.81-.11,11.62-.13,17.42,0,4.5,0,4.41-4.6,4.54-2,.06-2.61-.42-2.56-2.49.15-5.94,0-11.89.06-17.83,0-2.46-.52-4.69-2.51-6.31a6.71,6.71,0,0,0-7.37-1.09c-3,1.34-4.27,3.82-4.29,7,0,5.26,0,10.51,0,15.77,0,5,0,4.89-5,5-1.77,0-2.18-.56-2.16-2.24.1-6.08,0-12.17,0-18.25a8,8,0,0,0-1.22-4.73,7.07,7.07,0,0,0-12.91,4c-.09,5.39,0,10.79,0,16.18,0,5,0,4.95-5.1,5-1.74,0-2-.61-2-2.14.06-9.47,0-18.94,0-28.42,0-10.92,0-21.84,0-32.77,0-4.51-3.11-7.58-7.36-7.43-3.92.13-6.73,3.18-6.74,7.44C120.91,125,120.93,138.36,120.92,151.7Zm-30-45.5a5.77,5.77,0,0,0,.41-.72,38.36,38.36,0,0,1,19.41-21.92c1.65-.83.81-1.47.21-2.3a21.12,21.12,0,0,1,10.21-32.59c8.89-3.06,18.48.1,24.21,8A20.9,20.9,0,0,1,145,81.22c-.95,1.28-.93,1.79.57,2.52a37.25,37.25,0,0,1,12.62,10.2A42.19,42.19,0,0,1,165,106.25c12.12-15.28,13.32-41.89-5-59.9C142.74,29.29,114.4,29,96.47,45.94,77.69,63.68,78.68,90.48,90.93,106.2Zm51.16,9.49h0c0,1.8.08,3.6,0,5.39-.09,1.57.16,2.08,1.88,1.42a50.78,50.78,0,0,0,14-8.29,2.57,2.57,0,0,0,1-3c-2.89-11-9.56-18.6-20.19-22.73a3.71,3.71,0,0,0-3,0,20.61,20.61,0,0,1-15.75,0,2.86,2.86,0,0,0-2.18-.25c-11.22,4.16-18.26,12-21,23.68a1.76,1.76,0,0,0,.66,2,47.4,47.4,0,0,0,14.89,8.8c1.39.51,1.47,0,1.46-1.12,0-3.66-.12-7.33.06-11a14.09,14.09,0,0,1,28.14,0C142.17,112.23,142.09,114,142.09,115.69Zm0-46.88c-.06-7.9-6.58-14.41-14.26-14.22a14.14,14.14,0,1,0,14.26,14.22Z"/><path d="M21.78,111.74c1-3.6,1.87-7.2,4-10.37a26.31,26.31,0,0,1,9.35-8.53c-2.47-2.62-4.59-5.29-5.55-8.73a17.87,17.87,0,0,1,7.23-19.45c6.12-4,14.64-3.82,20.22.5,6.38,5,8.87,13,6.18,20.15A16.18,16.18,0,0,1,59,91.67c-.9.84-.86,1.27.23,2,8.19,5.12,12.08,12.61,12.08,22.2,0,2.91,0,5.81,0,8.71,0,3.11-1.2,4.38-4.22,4.38-13.69,0-27.38,0-41.07,0a4.23,4.23,0,0,1-4.25-2.68Zm24.77,10.1c5.32,0,10.65,0,16,0,1.37,0,1.81-.44,1.74-1.78-.12-2.27,0-4.56-.17-6.83A17.57,17.57,0,0,0,50.15,97.49,17.84,17.84,0,0,0,31.25,106c-2.55,4.45-2.38,9.26-2.43,14.09,0,1.39.43,1.75,1.77,1.73C35.91,121.8,41.23,121.84,46.55,121.84ZM57.12,79.28a10.59,10.59,0,0,0-10.61-10.5A10.6,10.6,0,1,0,46.72,90,10.56,10.56,0,0,0,57.12,79.28Z"/><path d="M220.85,89.27a25.78,25.78,0,0,1,10.33,10.24,23.92,23.92,0,0,1,3,10.88c.1,3.66.09,7.33,0,11,0,2.61-1.37,4-4,4q-20.83.06-41.67,0c-1.89,0-3.62-.84-3.69-2.89-.2-6.4-.93-12.85,1.14-19.11a23.63,23.63,0,0,1,10.49-13.15c1.34-.81,1.32-1.28.28-2.36-5.26-5.53-6.46-12-3.52-18.94s8.52-10.66,16.07-10.7,13,3.68,16.25,10.48a17,17,0,0,1-3.12,18.86C222,88.09,221.49,88.59,220.85,89.27Zm-11.43,29.08c5.39,0,10.78,0,16.17,0,1.12,0,1.62-.25,1.56-1.49-.13-2.75.07-5.51-.31-8.27A17.86,17.86,0,0,0,213,93.92a18.05,18.05,0,0,0-18.68,8.24c-2.71,4.55-2.52,9.49-2.56,14.46,0,1.35.39,1.78,1.76,1.76C198.79,118.31,204.1,118.35,209.42,118.35Zm0-53.09a10.59,10.59,0,1,0,0,21.17,10.59,10.59,0,0,0,0-21.17Z"/></svg>