<svg id="Layer_1" data-name="Layer 1" xmlns="http://www.w3.org/2000/svg" viewBox="0 0 256 265"><path d="M49.094,141.013c0-18.933-.028-37.865.012-56.8.027-12.675,7.808-20.851,20.509-21.045,4.436-.068,6.957-.9,8.263-5.72,1.8-6.636,8.437-10.77,15.3-10.741,6.718.029,12.954,3.881,14.892,10.5,1.444,4.932,4.025,6.133,8.719,5.924,7.368-.329,14.762-.168,22.143-.058,3.009.045,4.632-.72,5.581-4.013,2.322-8.06,8.135-12.272,15.745-12.246,7.594.026,13.509,4.417,15.674,12.331.823,3.011,2.188,4.078,5.08,3.906,1.751-.1,3.516-.043,5.272.015,12.663.418,20.584,8.449,20.6,21.067q.061,57.587.009,115.174c-.014,12.536-8.181,20.732-20.849,20.758q-58.006.115-116.015,0c-12.958-.027-20.9-8.185-20.923-21.2Q49.045,169.939,49.094,141.013Zm79.062-27.066c-20.043,0-40.086.074-60.128-.063-3.929-.027-5.67.936-5.643,5.271.163,26.124.043,52.249.117,78.374.019,6.911,1.853,8.6,8.882,8.6q56.436.037,112.872,0c7.561,0,9.236-1.652,9.251-9.333.05-25.774-.069-51.549.1-77.322.031-4.494-1.631-5.641-5.856-5.606C167.89,114.038,148.023,113.947,128.156,113.947Zm-.691-13.884c18.274,0,36.548.034,54.822-.011,12.83-.032,11.161,1.2,11.225-11.251.057-11.04-1.422-12.289-12.563-11.839-2.917.118-4.208.972-4.885,4.058-1.78,8.112-7.91,12.915-15.66,12.972-8.066.059-14.2-4.659-16.1-13.093-.71-3.153-2.142-3.951-4.992-3.924-8.258.079-16.518.114-24.775-.019-3.133-.05-4.69,1.077-5.6,4.168-2.492,8.448-8.072,12.8-15.811,12.863-7.947.061-13.494-4.322-16.091-13.165-.761-2.594-1.837-3.746-4.635-3.87-7.626-.34-9.8,1.539-9.925,9.215-.041,2.452.217,4.932-.058,7.354-.572,5.053,1.463,6.7,6.54,6.635C88.455,99.921,107.961,100.061,127.465,100.063ZM155.5,70.344h-.064c0,2.441-.188,4.9.05,7.32.269,2.748,1.906,4.553,4.809,4.574a4.259,4.259,0,0,0,4.489-4.261,133.9,133.9,0,0,0-.022-15.152,4.433,4.433,0,0,0-4.411-4.416c-3-.082-4.425,2.044-4.781,4.624A53.972,53.972,0,0,0,155.5,70.344Zm-66.836.163h-.041c0,2.435-.049,4.871.013,7.3.067,2.649,1.443,4.378,4.128,4.443a4.285,4.285,0,0,0,4.776-4.45c.157-5.037.155-10.089-.046-15.125a4.4,4.4,0,0,0-8.8,0C88.551,65.284,88.663,67.9,88.663,70.507Z"/><path d="M113.292,168.266a8.47,8.47,0,1,1,.641-16.927A8.679,8.679,0,0,1,122,160.074,9,9,0,0,1,113.292,168.266Z"/><path d="M150.9,160.034a8.556,8.556,0,0,1-8.532,8.219c-4.326-.056-8.443-4.206-8.408-8.474a8.472,8.472,0,1,1,16.94.255Z"/><path d="M171.55,151.332a8.692,8.692,0,0,1,8.511,8.3c.114,4.268-3.915,8.47-8.259,8.613a8.458,8.458,0,1,1-.252-16.912Z"/><path d="M84.431,168.231a8.908,8.908,0,0,1-8.508-8.352,8.475,8.475,0,1,1,16.948.066A8.5,8.5,0,0,1,84.431,168.231Z"/><path d="M113.185,125.993a8.485,8.485,0,0,1,8.841,8.416,8.57,8.57,0,0,1-8.48,8.249,8.335,8.335,0,0,1-.361-16.665Z"/><path d="M142.666,126a8.328,8.328,0,1,1-8.631,8A8.369,8.369,0,0,1,142.666,126Z"/><path d="M163.1,134.193a8.483,8.483,0,0,1,16.958.483,8.544,8.544,0,0,1-8.727,7.961A8.451,8.451,0,0,1,163.1,134.193Z"/><path d="M84.445,193.733c-4.224.022-8.45-4.124-8.545-8.383-.1-4.423,4.341-8.773,8.827-8.648a8.52,8.52,0,0,1-.282,17.031Z"/><path d="M142.673,176.717a8.5,8.5,0,0,1-.073,16.991c-4.6.012-8.82-4.279-8.632-8.77A9.125,9.125,0,0,1,142.673,176.717Z"/><path d="M171.439,176.717c4.323.015,8.5,4.047,8.613,8.314.118,4.436-4.309,8.855-8.724,8.708a8.515,8.515,0,0,1,.111-17.022Z"/><path d="M122,185.183c.02,4.239-4.057,8.38-8.386,8.516a8.488,8.488,0,1,1-.061-16.976C117.882,176.824,121.982,180.93,122,185.183Z"/></svg>