<svg id="Layer_1" data-name="Layer 1" xmlns="http://www.w3.org/2000/svg" viewBox="0 0 256 265"><path d="M229.245,180.478c-.252.809-.5,1.618-.756,2.426a15.55,15.55,0,0,1-14.615,11.024c-14.564.091-29.13.046-43.695.038-2.736,0-4.514-1.553-4.558-3.866-.044-2.35,1.83-4.042,4.625-4.046,13.84-.018,27.684-.189,41.519.073,6.276.119,9.67-3.9,9.64-9.729-.163-32.228-.077-64.456-.078-96.684,0-6.2-3.014-9.211-9.2-9.211q-84.129,0-168.258,0c-6.19,0-9.194,3.008-9.194,9.213q0,48.539,0,97.079c0,6.209,3.012,9.249,9.161,9.25q44.289,0,88.578.005a8.556,8.556,0,0,1,2.744.213,3.856,3.856,0,0,1,2.778,4.243,3.809,3.809,0,0,1-3.5,3.427,17.554,17.554,0,0,1-1.778.04q-44.586,0-89.171-.005c-8.8,0-15.17-5.245-16.547-13.591a19.469,19.469,0,0,1-.172-3.151q-.012-48.936,0-97.871c0-10.056,6.656-16.773,16.687-16.775q84.524-.019,169.049,0c8.66,0,14.333,4.505,16.47,12.978a2.344,2.344,0,0,0,.28.513Z"/><path d="M45.349,126.831q0-16.61,0-33.22c0-5.9,3.089-9,9.025-9.008q28.572-.019,57.146,0c5.774,0,8.912,3.175,8.914,8.942q.01,33.318,0,66.637c0,5.852-3.15,9.031-9.048,9.038q-28.474.035-56.948,0c-6.028-.007-9.089-3.135-9.091-9.173Q45.346,143.442,45.349,126.831Zm21.643,8.2c-6.9-11.268-2.366-21.462,3.472-26.3a19.436,19.436,0,0,1,23.981-.658c8.243,6.158,9.724,15.072,4.385,27.009a23.649,23.649,0,0,1,13.584,4.79c.059-.571.1-.766.1-.962,0-14.894-.025-29.787.045-44.68.008-1.741-.862-1.692-2.069-1.691q-27.579.022-55.158-.024c-1.605,0-2.111.353-2.1,2.046.071,14.5.037,29,.056,43.494,0,.533-.286,1.173.361,1.669a26.14,26.14,0,0,1,6.207-3.37A30.337,30.337,0,0,1,66.992,135.027Zm15.765,26.245h25.477c4.4,0,4.4,0,4.278-4.37-.212-7.794-5.825-13.686-13.611-13.811-10.662-.171-21.33-.132-31.993-.01a13.608,13.608,0,0,0-13.076,9.882c-.63,2.121-.481,4.3-.6,6.46-.081,1.493.4,1.891,1.874,1.881C64.324,161.239,73.54,161.271,82.757,161.272Zm.094-26.2a11.448,11.448,0,0,0,11.518-11.361,11.472,11.472,0,1,0-22.944-.06A11.383,11.383,0,0,0,82.851,135.076Z"/><path d="M172.094,124.319q15.915,0,31.83.008c3.17.006,5.11,2.379,4.282,5.135-.54,1.8-2.084,2.762-4.509,2.763q-20.265.011-40.529,0c-7.644,0-15.289.016-22.933-.009-3.1-.01-4.972-2.2-4.322-4.945.451-1.9,2.033-2.951,4.549-2.953Q156.278,124.312,172.094,124.319Z"/><path d="M171.946,111.339q-15.813,0-31.628,0c-2.316,0-3.811-.957-4.348-2.684a3.872,3.872,0,0,1,2.668-4.981,8.01,8.01,0,0,1,2.145-.229q31.332-.018,62.664-.006c2.777,0,4.427,1.088,4.833,3.127.524,2.629-1.241,4.738-4.112,4.762-5.469.046-10.938.016-16.407.017Z"/><path d="M182.318,145.209c7.438,0,14.875-.029,22.312.016,3.162.019,5.089,2.808,3.863,5.5-.887,1.953-2.595,2.4-4.578,2.4q-15.9-.033-31.79-.011c-4.015,0-8.03.024-12.044-.014a3.867,3.867,0,0,1-3.967-2.675,3.8,3.8,0,0,1,1.155-4.3,4.567,4.567,0,0,1,3.33-.927Q171.457,145.219,182.318,145.209Z"/><path d="M155.729,190.011a3.844,3.844,0,0,1-3.986,3.94,3.972,3.972,0,0,1-3.89-3.894,4.067,4.067,0,0,1,4.04-3.988A3.945,3.945,0,0,1,155.729,190.011Z"/></svg>