<svg id="Layer_1" data-name="Layer 1" xmlns="http://www.w3.org/2000/svg" viewBox="0 0 256 265"><defs><style>.cls-1{fill:#c39b34;}</style></defs><path class="cls-1" d="M169.27,84.46c.17,2.13-1,3.82-2.28,5.42-2.09,2.5-4.15,5-6.29,7.5a2.61,2.61,0,0,0-.33,3.48,73.85,73.85,0,0,1,7,17.17,3.33,3.33,0,0,1-.92,3.72c-8,7.81-11.76,17.46-12.37,28.49-.1,1.68.08,2.75,2.19,2.91,3.24.24,6.46.9,9.7,1.22,1.52.14,1.73.69,1.36,2A63.5,63.5,0,0,1,161,172c-1.11,1.89-1.5,3.3.32,5.1a87,87,0,0,1,6,7.13c3.07,3.76,2.89,7.7-.53,11.18s-7.12,7.19-10.7,10.77c-3.41,3.41-7.14,3.62-10.9.55-2.66-2.16-5.28-4.38-7.83-6.68-1.06-.95-1.94-1.21-3.22-.41a63.56,63.56,0,0,1-16.87,7.1c-1.73.47-2.29,1.48-2.39,3.16-.23,3.66-.49,7.33-1,11a6.85,6.85,0,0,1-7.15,6.35c-5.71.09-11.43.08-17.15,0-3.64,0-6.45-2.82-6.84-6.7-.37-3.57-.74-7.14-.94-10.72a2.77,2.77,0,0,0-2.33-2.93,61.88,61.88,0,0,1-16.85-7.1,2.2,2.2,0,0,0-3,.28c-2.69,2.37-5.45,4.67-8.23,7-3.32,2.73-7,2.71-10.15-.31q-6.15-6-12-12.26c-2.74-2.95-2.65-6.76,0-10q3.39-4.18,6.9-8.28a2.14,2.14,0,0,0,.24-2.83,69.73,69.73,0,0,1-7.2-17.62,2.3,2.3,0,0,0-2.38-2c-3.58-.22-7.15-.61-10.72-.94-4.13-.38-6.78-3.09-6.83-7.23q-.12-8.56,0-17.14c.06-4.19,2.5-6.8,6.73-7.29,3.41-.38,6.82-.73,10.23-.91a2.87,2.87,0,0,0,3.1-2.44,64.15,64.15,0,0,1,7-16.93A2.39,2.39,0,0,0,36,97.59c-2.16-2.45-4.16-5-6.25-7.55-3.52-4.25-3.4-8,.43-11.94q5.16-5.23,10.36-10.42c3.52-3.51,7.35-3.66,11.1-.51,2.51,2.1,5.05,4.15,7.51,6.29,1.2,1,2.27,1.33,3.72.44A63.09,63.09,0,0,1,79.56,67a2.69,2.69,0,0,0,2.29-2.9c.18-3.59.56-7.16.93-10.73.42-4.07,3-6.58,7.11-6.65q8.58-.13,17.15,0a6.81,6.81,0,0,1,6.83,6.13c.46,3.64.78,7.3,1,11,.1,1.82.75,2.8,2.58,3.26a61.45,61.45,0,0,1,16.2,6.77,2.77,2.77,0,0,0,3.73-.25c2.5-2.22,5.12-4.32,7.68-6.46,3.77-3.14,7.44-3,10.88.4,3.64,3.63,7.23,7.32,10.85,11A7.54,7.54,0,0,1,169.27,84.46ZM147.05,137a48.84,48.84,0,1,0-48.74,49A48.79,48.79,0,0,0,147.05,137Z"/><path class="cls-1" d="M202.1,205.08c-2.69,0-5.39-.09-8.08,0-2.15.09-2.73-.83-2.86-2.88-.93-14.3,4.53-25.54,15.8-34.21,3.55-2.74,6.8-5.86,10.28-8.68,4.94-4,7.33-9.11,5.89-15.34-1.51-6.57-6.16-10.62-12.55-12.1-13.25-3.08-24.52,2-28.71,15.89-1.16,3.84-1.14,3.78-5.26,3.22-4.61-.63-9.22-1.17-13.84-1.68-3.61-.4-4.09-.91-3.39-4.46,3.26-16.37,13.47-26.42,29.23-30.49,13.48-3.48,27-2.73,39.46,4.08,9.61,5.24,16.23,13.08,18.22,24.17,1.67,9.3-1,17.43-7.14,24.48-5.33,6.12-11.63,11.21-17.69,16.54-3.7,3.26-7.41,6.56-7.93,11.91-.23,2.35-.28,4.73-.31,7.09,0,1.76-.79,2.49-2.54,2.44C207.82,205,205,205.08,202.1,205.08Z"/><path class="cls-1" d="M203.07,214.23c3.26,0,6.52.06,9.78,0,1.5,0,2,.54,2,2q-.08,9.78,0,19.56c0,1.67-.62,2.32-2.3,2.3q-9.78-.07-19.56,0c-1.46,0-2-.47-2-2q.11-9.65,0-19.31c0-1.88.62-2.65,2.54-2.59C196.71,214.3,199.89,214.23,203.07,214.23Z"/><path class="cls-1" d="M106,127.12c0,9.3-.06,18.61,0,27.92,0,2.31-.69,3.23-3.07,3.12-3.18-.16-6.37-.14-9.55,0-2.24.1-2.95-.73-2.94-3,.08-16.65,0-33.3,0-50,0-2.12.1-4.25,0-6.36s.58-2.8,2.64-2.73q5,.2,10,0c2.13-.08,2.87.68,2.85,2.82C106,108.34,106,117.73,106,127.12Z"/><path class="cls-1" d="M98.18,178.29c-2,0-3.91,0-5.87,0-1.24,0-1.77-.42-1.76-1.7q.08-5.88,0-11.76c0-1.51.73-2,2.11-2,3.75,0,7.51,0,11.26,0,1.41,0,2.11.58,2.1,2,0,3.75,0,7.51,0,11.26,0,1.57-.67,2.2-2.22,2.15-1.88-.07-3.76,0-5.64,0Z"/></svg>