<svg id="Layer_1" data-name="Layer 1" xmlns="http://www.w3.org/2000/svg" viewBox="0 0 256 265"><path d="M123.78,250.24H24.61c-5.56,0-7.42-1.87-7.42-7.43V63.65c0-5.15,1.2-6.62,6.27-7.53L124.8,37.92c1.07-.2,2.13-.5,3.19-.71a6.53,6.53,0,0,1,5.12,1q24.33,16.38,48.72,32.69a7.36,7.36,0,0,1,3.66,6.78c-.12,8.11,0,16.22-.06,24.32,0,4.73-4.32,7.44-8.17,5.28-2.14-1.19-2.9-3.12-2.9-5.48,0-6.7-.05-13.41,0-20.11a3.89,3.89,0,0,0-1.95-3.8C160.7,70.09,149,62.21,137.28,54.37c-.55-.37-1.1-1.16-1.79-.81s-.37,1.28-.37,1.94q0,80.22,0,160.43c0,7,0,14,0,21,0,1.74.48,2.29,2.25,2.24,4.13-.13,8.27-.12,12.39,0,1.71.05,2.3-.36,2.25-2.17-.13-5-.05-10-.05-15q0-47.6,0-95.19c0-5.6,1.83-7.46,7.38-7.46h63.85c5.28,0,7.21,1.91,7.21,7.16V243c0,5.26-1.94,7.2-7.18,7.2Zm.39-107.48c0-22.84,0-45.67,0-68.51,0-2-.47-2.57-2.47-2.2-12.47,2.3-25,4.51-37.44,6.76C66.53,82,48.77,85.23,31,88.34c-2.06.36-2.77,1-2.76,3.18q.12,45.24.05,90.49c0,10.83,0,21.67,0,32.5,0,1.64.46,2.14,2.12,2.05,5.68-.3,11.37-.53,17-.6,2.09,0,2.77-.62,2.71-2.78-.14-6.23-.09-12.47,0-18.7,0-3.76,1.9-6,5.23-6.29q18.62-1.68,37.24-3.26c4.61-.38,6.88,1.77,6.9,6.36,0,6.93.05,13.87,0,20.8,0,1.73.45,2.32,2.24,2.23,6.54-.31,13.08-.59,19.63-.65,2.39,0,2.93-.8,2.92-3.11C124.13,188,124.17,165.36,124.17,142.76Zm95.11,42.3c0-17.38,0-34.75,0-52.13,0-1.89-.39-2.5-2.4-2.49q-25.83.12-51.67,0c-1.89,0-2.29.57-2.29,2.35q.07,52,0,104c0,1.76.36,2.38,2.28,2.37q25.83-.12,51.66,0c2,0,2.43-.57,2.42-2.47C219.25,219.51,219.28,202.28,219.28,185.06ZM88.46,217.78c0-6.46,0-12.92,0-19.38,0-1.25-.08-2.08-1.73-1.92q-12,1.16-23.94,2.15c-1.47.12-1.73.77-1.73,2.07q.06,18.21,0,36.42c0,1.68.57,2.08,2.15,2.07,7.63-.07,15.26-.11,22.88,0,2,0,2.44-.66,2.41-2.52C88.39,230.39,88.46,224.08,88.46,217.78ZM28.28,71.84c0,1.48,0,3,0,4.44,0,1,.3,1.43,1.36,1.13.6-.17,1.24-.17,1.85-.28l48.46-8.74q21.14-3.8,42.27-7.55c1.32-.24,2.08-.68,2-2.24a64.94,64.94,0,0,1,0-7.25c.11-1.82-.67-2.08-2.2-1.78-3,.61-6.12,1.14-9.18,1.69q-39.52,7.1-79,14.18C28.29,66.42,28.27,66.35,28.28,71.84ZM111.7,239.15c3.58,0,7.16,0,10.73,0,1.34,0,1.77-.46,1.75-1.76-.05-3.65-.05-7.31,0-11,0-1.36-.35-2-1.85-1.9q-10.6.45-21.21.75c-1.38,0-1.69.64-1.67,1.86,0,3.43.06,6.85,0,10.27,0,1.32.44,1.76,1.75,1.74C104.7,239.11,108.2,239.15,111.7,239.15Zm-72.62,0c3.12,0,6.23,0,9.35,0,1.17,0,1.68-.31,1.66-1.57-.07-3-.06-6.07,0-9.11,0-1.21-.43-1.64-1.64-1.6q-9.22.35-18.45.59c-1.27,0-1.78.47-1.74,1.8.09,2.72.08,5.45,0,8.18,0,1.32.4,1.76,1.72,1.72C33,239.1,36.05,239.15,39.08,239.15Z"/><path d="M110.17,102.49c0,2.49,0,5,0,7.47a5.5,5.5,0,0,1-5.23,5.53,5.25,5.25,0,0,1-5.61-4.83c-.24-5.44-.24-10.9,0-16.33a5.25,5.25,0,0,1,5.61-4.84A5.49,5.49,0,0,1,110.15,95C110.23,97.5,110.17,100,110.17,102.49Z"/><path d="M110.17,151.13c0,2.49,0,5,0,7.47a5.5,5.5,0,0,1-5.22,5.54,5.26,5.26,0,0,1-5.62-4.82c-.24-5.44-.24-10.9,0-16.33a5.25,5.25,0,0,1,5.6-4.85,5.51,5.51,0,0,1,5.24,5.52C110.23,146.15,110.17,148.64,110.17,151.13Z"/><path d="M38.65,113.72c0-2.49,0-5,0-7.48a5.46,5.46,0,0,1,5.22-5.52,5.25,5.25,0,0,1,5.59,4.84,109.76,109.76,0,0,1,0,16.32,5.26,5.26,0,0,1-5.59,4.84,5.47,5.47,0,0,1-5.22-5.53C38.6,118.7,38.65,116.21,38.65,113.72Z"/><path d="M38.65,158.39c0-2.41,0-4.83,0-7.24a5.47,5.47,0,0,1,5.22-5.52,5.25,5.25,0,0,1,5.59,4.84,109.76,109.76,0,0,1,0,16.32,5.27,5.27,0,0,1-5.59,4.84,5.53,5.53,0,0,1-5.23-5.53c0-.16,0-.32,0-.47v-7.24Z"/><path d="M79.84,108.22c0,2.49.07,5,0,7.46a5.42,5.42,0,1,1-10.83,0q-.18-7.57,0-15.17a5.38,5.38,0,0,1,5.53-5.42,5.44,5.44,0,0,1,5.32,5.65c.08,2.48,0,5,0,7.47Z"/><path d="M79.84,155.12c0,2.41.07,4.82,0,7.23a5.43,5.43,0,0,1-5.43,5.54,5.32,5.32,0,0,1-5.4-5.31q-.18-7.7,0-15.4a5.32,5.32,0,0,1,5.4-5.3,5.43,5.43,0,0,1,5.43,5.53C79.91,150,79.84,152.55,79.84,155.12Z"/><path d="M173.46,147.33c0-1.32-.09-2.65,0-4a5.58,5.58,0,0,1,5.56-5.23,5.45,5.45,0,0,1,5.4,5.11,63.63,63.63,0,0,1,0,8.4,5.47,5.47,0,0,1-5.51,5,5.58,5.58,0,0,1-5.42-5.13c-.13-1.38,0-2.8,0-4.2Z"/><path d="M197.78,147.25c0-1.24-.07-2.5,0-3.73a5.59,5.59,0,0,1,5.42-5.38,5.49,5.49,0,0,1,5.57,5.2,67.32,67.32,0,0,1,0,8.16,5.49,5.49,0,0,1-5.61,5.16,5.59,5.59,0,0,1-5.35-5.21c-.12-1.39,0-2.8,0-4.2Z"/><path d="M184.5,177.42c0,1.24.07,2.49,0,3.73a5.5,5.5,0,0,1-11,.07c-.13-2.57-.12-5.14,0-7.71a5.51,5.51,0,0,1,11-.06C184.57,174.77,184.5,176.09,184.5,177.42Z"/><path d="M208.82,177.26c0,1.33.08,2.66,0,4a5.5,5.5,0,0,1-11-.09c-.12-2.57-.12-5.15,0-7.71a5.5,5.5,0,0,1,11,.1c.08,1.24,0,2.49,0,3.73Z"/><path d="M184.48,207.4c0,1.32.1,2.65,0,4a5.56,5.56,0,0,1-5.61,5.16,5.5,5.5,0,0,1-5.35-5.18,69.59,69.59,0,0,1,0-8.17,5.5,5.5,0,0,1,5.37-5.17,5.56,5.56,0,0,1,5.59,5.19C184.59,204.59,184.48,206,184.48,207.4Z"/><path d="M208.82,207.36c0,1.25.07,2.5,0,3.74a5.51,5.51,0,0,1-11,.05c-.12-2.56-.12-5.14,0-7.7a5.51,5.51,0,0,1,11-.06C208.9,204.71,208.82,206,208.82,207.36Z"/></svg>