<svg id="Layer_1" data-name="Layer 1" xmlns="http://www.w3.org/2000/svg" viewBox="0 0 256 265"><defs><style>.cls-1{fill:#c39b34;}</style></defs><path class="cls-1" d="M91.08,84.88a78.09,78.09,0,0,1-18-4c-5.23-1.92-10-.34-13.32,4.49-2.31,3.34-4.61,6.67-7,10-1.24,1.71-2.68,3.21-5,1.75-2.73-1.69-1.94-3.8-.55-5.84,2.7-4,5.59-7.85,8.2-11.9C60.79,71,59.91,65.9,52.23,59.7c-1.18-1-2.39-1.88-3.51-2.91a2.88,2.88,0,0,1-.55-4.07c1.2-1.83,2.77-2,4.59-.92,6.34,3.71,11.71,8.33,12.77,16.06C66,71.24,67.19,72.7,70.6,73c5.54.48,10.28,4.12,16.15,3.89,5.67-.22,10.9-.61,15.68-4.4,5.16-4.09,11.69-4.32,18.06-4.89,17.78-1.56,34.78,2.2,51.71,6.85,3.84,1.06,7.55,2,11.84.43s7.11-3.13,8-8.38c1.19-7.07,7.46-10.51,13.1-14,1.78-1.1,3.41-.67,4.57,1.13s.65,3.36-1,4.58c-1.23.9-2.51,1.71-3.74,2.61-7.81,5.75-8.87,11-3.89,19.63,2.28,4,4.75,7.8,7,11.77,1.19,2.11,3.29,4.52.13,6.6s-4.44-.89-5.76-2.9c-2.51-3.82-4.85-7.74-7.27-11.61-2-3.19-5.1-5-8.35-3.12-5.32,3.13-10.27,1.51-15.39.18-18.2-4.73-36.36-9.13-55.49-6.07-6.68,1.07-12,3.34-15.93,9-4.79,6.86-9.86,13.51-14.88,20.21-2.29,3-3.74,6.15-1.15,9.69,2.81,3.82,6.65,4.57,10.83,2.89,5.92-2.4,9.85-6.92,12.63-12.59,5.66-11.57,14.34-14.3,25.35-7.65A180.47,180.47,0,0,1,151,109.28a25.65,25.65,0,0,0,19.84,5.59c2.93-.34,7.32-2.47,8.28,2.38.86,4.38-4.15,3.33-7.5,5.92,9.4,6.4,18.45,12.58,27.53,18.72,2,1.37,3.87.42,5.62-.76,2.94-2,5.8-4.11,8.85-5.92,5.88-3.48,8.87-7.55,4-14.1-1.39-1.86-2.36-4.26.33-5.94s4,.54,5.42,2.39c8.44,11.09,10.41,11.54,22.49,5.32,2-1,4.08-2.85,6-.14,2.23,3.17-.58,4.56-2.57,6-4,2.79-8.33,6-13.22,4.86-12.31-2.94-17.26,8.52-26,12.51-2.91,1.33-.33,3.32.68,4.93,6.29,10.07,2.39,19.74-9.31,22.37-2.92.65-4.7,1.48-4.79,4.6a1.4,1.4,0,0,1-.18.74c-6.86,9.42-14.52,19.92-24.18,24.31-7.87,3.58-17.95,3-25.65,9.63-2.82,2.42-7.31.68-10.91-.9-4.41-1.94-8.94-3.6-13.31-5.62s-8.09-2.38-12.58.81c-6.32,4.49-13.31,3.24-18.3-2.89-2.61-3.22-5-4.12-9-3.65-7,.82-10.16-5.63-15.17-8.33-4.73-2.54-13.23,1.22-16.38-5-4.22-8.37-8.82-15.9-15.56-22.62-4.33-4.32-2.2-10.87,1.58-15.39,4.4-5.27,2.92-8.44-1.79-12.49-4.9-4.2-8.53-8.94-16.48-6.94-4.86,1.21-9.58-2.56-13.58-5.84-1.51-1.23-2.4-2.6-1.2-4.57,1.4-2.31,3.25-2.19,5.14-.8,7.69,5.62,14.82,6.12,21.22-2,1.13-1.43,2.68-1.15,4.11-.25a3.15,3.15,0,0,1,1.32,4c-1.59,5.08.47,8.67,4.18,12,3.2,2.92,5.76,4,9.94,1.36,6.38-4,12.8-2.84,17.91,2.63,2.44,2.61,4.38,3,7.85,2.09,10.5-2.72,19,4.22,18.23,15-.29,4,1.42,5.45,4,7.89,5.8,5.48,11.47,10.31,19.33,13.18,6.43,2.35,8.14,10.7,4.66,17.8-2.21,4.51-1.19,6.26,3.12,7.72,4.55,1.55,8.92,3.63,13.42,5.35,3.45,1.32,7.05,1.91,9.88-1.18,2.65-2.88,4.33-5.86-.86-8.25a104.08,104.08,0,0,1-10.65-5.87c-2.16-1.34-6.17-2.11-4.22-5.86,2.21-4.25,5.32-1.11,7.74.16Q151,189.84,161.55,196c4.44,2.6,8.82,3.79,11.88-1.29s.09-8.61-4.33-11.2c-7.44-4.35-14.91-8.65-22.31-13.07-2.21-1.33-5.92-2.22-3.9-6s4.8-1.26,7.05,0c8.78,5.06,17.54,10.18,26.21,15.44,4.56,2.78,9.18,4.47,12.49-1.05s.55-9.44-4.61-12.37c-9.71-5.51-19.3-11.2-28.9-16.89-2.29-1.36-5.67-2.62-3.23-6.24,2.11-3.15,4.54-.78,6.59.4q17.13,9.89,34.16,19.93c4.39,2.6,9.1,5.12,12.73-.16s-.24-9-4.45-11.89c-23.43-16.06-46.8-32.19-70.37-48-8.4-5.65-12.78-4.24-17.36,4.86A32.06,32.06,0,0,1,99,122.76c-8,4.22-14.63,3-20.36-3.82-5.49-6.51-5.17-10.64,1.19-18.84C83.51,95.35,87,90.44,91.08,84.88ZM86.57,151.8c0-3.05-1.08-5.54-4-6.73-3.88-1.59-7-.06-9.3,3.07-5.88,8-11.72,15.93-17.43,24-2.87,4-3.2,8.34,1.36,11.25,4.39,2.8,8.18,1.07,11.09-3,5.14-7.24,10.36-14.41,15.53-21.62C85.31,156.67,86.64,154.5,86.57,151.8ZM64.5,145.17a7.59,7.59,0,0,0-3.91-5.9c-2.64-1.45-5.63-1.58-7.72.64-4.48,4.75-8.86,9.68-11.55,15.75a6.67,6.67,0,0,0,1.51,7.69c2,2,4.55,2,7.07,1.38C54.1,163.64,64.65,149.56,64.5,145.17Zm10.36,41.67c-.11,2.6,1.28,4.79,4.13,6.06a6.18,6.18,0,0,0,7.62-1.64,170.36,170.36,0,0,0,10.8-14.57c1.91-2.87.93-5.89-1.44-8.27a6.2,6.2,0,0,0-6.88-1.8C84.67,168.15,74.83,181.65,74.86,186.84Zm34.26-8.47c-5.14.22-14.93,12.9-13.88,18s7,7.78,11.12,4.61A30.59,30.59,0,0,0,116,187.73C117.78,183.34,113.65,178.18,109.12,178.37Z"/></svg>