<svg id="Layer_1" data-name="Layer 1" xmlns="http://www.w3.org/2000/svg" viewBox="0 0 256 265"><path d="M130.67,19c4.509,1.262,7.7,4.374,10.9,7.567C149.411,34.4,157.382,42.1,165.249,49.9a4.49,4.49,0,0,0,3.5,1.411c9.087-.054,18.175-.045,27.262-.023,9.447.023,15.358,5.922,15.395,15.323.009,2.216.037,4.434-.015,6.649-.051,2.161-1.26,3.476-3.144,3.552a3.307,3.307,0,0,1-3.461-3.5c-.084-2.361-.008-4.728-.031-7.092-.049-5.177-3.095-8.265-8.29-8.273q-26.93-.038-53.859-.01-41,0-82.007,0c-6.563,0-9.329,2.74-9.33,9.238q0,26.929-.029,53.859a4.464,4.464,0,0,0,1.434,3.481Q81.5,153.2,110.233,181.986c1.1,1.107,1.895,1.218,3.2.44,2.595-1.55,5.263-2.985,7.949-4.375a13.652,13.652,0,0,1,12.974-.148c2.771,1.383,5.51,2.85,8.155,4.459,1.395.848,2.219.7,3.365-.456,8.419-8.506,16.913-16.939,25.385-25.393q16-15.97,32.028-31.915a4.672,4.672,0,0,0,1.5-3.68c-.062-10.49-.034-20.982-.029-31.473a10.814,10.814,0,0,1,.086-2.208,3.119,3.119,0,0,1,3.428-2.791,3.009,3.009,0,0,1,3.093,3.116c.09,1.917.1,3.844.012,5.76a3.7,3.7,0,0,0,1.281,3.094c3.785,3.631,7.465,7.371,11.249,11a15.393,15.393,0,0,1,4.9,11.673q-.048,55.964-.033,111.929c-.009,9.034-6.04,14.942-15.064,14.955q-16.845.024-33.69,0a7.879,7.879,0,0,1-1.984-.1,3.293,3.293,0,0,1,.054-6.454,9.877,9.877,0,0,1,2.207-.089q16.845-.006,33.69,0a7.845,7.845,0,0,0,6.845-3.37c1.063-1.492,1.2-2.455-.794-3.529-11.7-6.293-23.305-12.748-34.945-19.144-17.266-9.489-34.565-18.919-51.777-28.5a9.874,9.874,0,0,0-10.584,0q-43.092,23.853-86.3,47.488c-2.592,1.424-2.708,2.055-.714,4.369a8.035,8.035,0,0,0,6.515,2.694q19.284-.041,38.566-.012,40.782,0,81.564,0a12.727,12.727,0,0,1,2.212.053,3.3,3.3,0,0,1,.086,6.531,10.058,10.058,0,0,1-1.99.062q-60.064,0-120.13,0c-9.337,0-15.279-5.861-15.294-15.171q-.048-29.367-.006-58.735a10.521,10.521,0,0,1,.107-1.987,2.971,2.971,0,0,1,2.878-2.6,2.956,2.956,0,0,1,3.384,2.225,10.469,10.469,0,0,1,.266,2.848q.021,25.267.01,50.534v2.571a3.741,3.741,0,0,0,2.265-.832Q69.813,206.352,103.5,187.9c1.885-1.028,1.82-1.538.383-2.967q-33.795-33.6-67.5-67.278c-.577-.575-1.085-1.793-1.982-1.37-.788.372-.489,1.608-.491,2.46q-.039,17.841-.022,35.684c0,3.542-1.111,5.174-3.453,5.1-2.247-.066-3.194-1.565-3.194-5.089,0-11.6.077-23.2-.037-34.8a16.112,16.112,0,0,1,5.31-12.619c3.67-3.428,7.154-7.054,10.788-10.522a4.085,4.085,0,0,0,1.351-3.291c-.057-8.866-.043-17.732-.025-26.6.019-9.393,5.949-15.3,15.39-15.324,9.013-.022,18.027-.041,27.04.029a4.953,4.953,0,0,0,3.883-1.561c7.859-7.813,15.831-15.512,23.675-23.339,3.151-3.144,6.328-6.149,10.743-7.415ZM222.14,225.6v-2.372q0-51.516,0-103.03a19.648,19.648,0,0,0-.057-2.213c-.072-.626.211-1.532-.512-1.787s-1.081.616-1.523,1.057Q186,151.2,151.94,185.138c-1.447,1.438-.977,1.857.471,2.651q33.775,18.491,67.514,37.048A3.13,3.13,0,0,0,222.14,225.6ZM99.469,51.1h57.4c-.5-.565-.771-.907-1.079-1.21q-10.894-10.71-21.8-21.407c-3.941-3.846-8.059-3.8-12.027.086q-10.6,10.378-21.162,20.8C100.3,49.854,99.581,50.205,99.469,51.1ZM43.906,116.2l.554-.488v-10.65l-.594-.44c-1.513,1.689-3,3.4-4.552,5.056a.9.9,0,0,0,0,1.476C40.868,112.815,42.378,114.517,43.906,116.2Zm167.628-.405.632.508c1.531-1.737,3.057-3.478,4.6-5.205.318-.357.587-.727.186-1.133-1.706-1.726-3.438-3.426-5.415-5.388Z"/><path d="M135.051,94.4c.082-.68.1-1.2.212-1.692a3.2,3.2,0,0,1,3.622-2.813,3.052,3.052,0,0,1,2.922,3.28c.046,1.919.008,3.841,0,5.761-.018,6.649-.061,13.3-.051,19.946.007,4.423,2.921,6.093,6.822,3.949a9.258,9.258,0,0,0,3.976-4.868c7.088-16.854-5.591-30.935-18.515-33.779-14.659-3.225-29.645,6.6-32.172,21.221-2.677,15.488,7.674,29.694,23.031,31.607.807.1,1.615.183,2.422.28,2.218.266,3.52,1.671,3.339,3.6-.178,1.906-1.729,3.131-3.943,3a34.074,34.074,0,0,1-14.965-4.335,33.353,33.353,0,0,1-16.145-36.646c3.254-14.2,15.733-25.009,29.876-25.871,15.514-.946,29.029,7.672,34.17,21.879,3,8.3,1.793,16.309-2.159,23.961a13.476,13.476,0,0,1-8.96,7.045c-4.851,1.238-8.518.021-11.476-4.016-.709-.968-1.046-.989-1.983-.272-6.434,4.923-14,4.115-19.353-1.981a21.213,21.213,0,0,1-2.281-23.637C118,92.214,125.994,90.075,135.051,94.4Zm.089,14.926a12.8,12.8,0,0,0-1.046-5.177c-1.15-2.8-2.955-4.957-6.17-5.407-3.322-.465-5.9.91-7.912,3.452-3.78,4.78-3.23,13.234,1.105,17.553,3.5,3.485,8.065,3.24,11.118-.656C134.318,116.431,135.114,113.327,135.14,109.326Z"/></svg>