<svg id="Layer_1" data-name="Layer 1" xmlns="http://www.w3.org/2000/svg" viewBox="0 0 256 265"><defs><style>.cls-1{fill:#c39b34;}</style></defs><path class="cls-1" d="M125.82,99.19c-20,0-40,.09-60-.07-3.69,0-4.81,1-4.79,4.76.15,24.94.1,49.88.06,74.82,0,3.15.53,5.9,3,8.13,1.45,1.3,2.36,13.31,1.35,14.76-1.17,1.66-2.65.53-3.83.2-8.91-2.45-15.13-11.35-15.2-21.93-.1-14,0-28,0-41.92q0-34.23,0-68.46c0-16.37,8.56-25,24.72-25H180.48c15.94,0,24.7,8.68,24.71,24.52q0,54.93,0,109.85c0,11.26-5.58,19.78-14.71,22.89-3.21,1.09-5,.8-4.67-3.26.38-4.93-1.18-10.19,3.6-14.14,1.48-1.23,1.07-3.63,1.07-5.58,0-24.94-.07-49.89.08-74.83,0-3.71-1.06-4.81-4.78-4.78C165.8,99.28,145.81,99.19,125.82,99.19ZM84.75,77.92c5.48,0,11-.18,16.44,0,4.53.19,5.81-1.88,5.71-6.08-.1-3.89-.17-7-5.44-6.93-11.31.18-22.63.14-33.94,0-4.91-.06-5.18,2.91-5.24,6.64-.05,3.94.77,6.52,5.51,6.35C73.43,77.75,79.1,77.91,84.75,77.92ZM161.18,64a7.67,7.67,0,0,0-7.41,7.51,7.51,7.51,0,0,0,7.5,7.35,7.24,7.24,0,0,0,7.3-7.43A7.43,7.43,0,0,0,161.18,64ZM139.72,78.89a7.41,7.41,0,0,0,7.33-7.46,7.41,7.41,0,1,0-14.82.14A7.43,7.43,0,0,0,139.72,78.89Zm43.05-14.84a7.38,7.38,0,0,0-7.29,7.5,7.25,7.25,0,0,0,7.39,7.33,7.48,7.48,0,0,0,7.39-7.44A7.6,7.6,0,0,0,182.77,64.05Z"/><path class="cls-1" d="M113.6,227.78c-10.79,0-21.58-.13-32.37.06-4.16.07-5.57-1.47-5.54-5.6.14-21.41.1-42.82,0-64.22a11,11,0,0,1,3.43-8.53c5.95-5.81,11.85-11.67,17.64-17.64a11,11,0,0,1,8.49-3.53c13.8.07,27.6.15,41.4,0,4.7-.06,5.38,2.21,5.6,6.21.26,4.78-2.47,4.48-5.63,4.46-12.39-.05-24.78.13-37.16-.09-4.44-.08-5.91,1.53-5.82,5.87.23,11.31,1.17,10.55-10.69,10.2-5.4-.16-7,1.56-6.92,6.91.3,16.27.33,32.56,0,48.83-.12,5.61,2,6.83,7.09,6.76,18-.26,36.09,0,54.14-.18,3.44,0,5.19.56,5,4.57-.18,3.7-.72,6.09-5.23,6C135.9,227.67,124.75,227.78,113.6,227.78Z"/><path class="cls-1" d="M141.86,185.26v-1.59c0-7.39,0-7.38-7.58-7.52-1.9,0-4.14.47-5.28-1.54s.55-3.65,1.58-5.22c4.56-6.93,9.09-13.86,13.76-20.71,2.94-4.33,5-4.35,7.95-.05q7.32,10.69,14.35,21.58c2.64,4.08,1.77,5.63-3,5.93-8.86.54-8.86.54-8.87,9.53,0,.88,0,1.76,0,2.64,0,6.7-4.19,9.46-10.56,7-1.75-.66-2.31-2-2.3-3.74C141.88,189.5,141.87,187.38,141.86,185.26Z"/><path class="cls-1" d="M148.36,210.66c-7.41,0-14.82-.17-22.22.06-4.22.14-5.79-1.58-5.47-5.62.16-2.11,0-4.23,0-6.35,0-5.73,3.67-8.17,9-6.09a3.66,3.66,0,0,1,2.34,4.26c-.38,3.25,1.32,3.77,4.07,3.73q12.43-.18,24.87,0c2.67,0,4-.77,3.78-3.59-.35-4.89,3.05-4.55,6.36-4.65,3.8-.11,4.87,1.76,4.81,5.22-.27,15.38,1.84,12.8-12.74,13C158.24,210.73,153.3,210.66,148.36,210.66Z"/></svg>