<svg id="Layer_1" data-name="Layer 1" xmlns="http://www.w3.org/2000/svg" viewBox="0 0 256 265"><path d="M239.854,156.076c-.859,1.229-1.336,2.708-2.584,3.687A7.119,7.119,0,0,1,230.087,161a6.785,6.785,0,0,1-4.7-5.782,161.676,161.676,0,0,0-4.341-22.695,58.226,58.226,0,0,0-6.059-14.89c.783,4.975,1.6,9.945,2.34,14.927,2.233,15.124,4.18,30.275,4.656,45.584.074,2.4-.845,3.522-2.982,3.96a58.449,58.449,0,0,1-6.212,1.137c-1.93.181-2.625.786-2.608,2.905.113,14.855.035,29.711.073,44.567.012,4.378-1.738,7.638-5.773,9.41a9.377,9.377,0,0,1-13.134-8.785c-.062-14.637-.012-29.275-.028-43.912,0-3.235.422-2.836-2.943-2.857-3.611-.022-3.611-.006-3.611,3.5,0,14.346.037,28.692-.018,43.038-.027,6.857-6.315,11.479-12.558,9.262a8.95,8.95,0,0,1-6.261-7.688,28.427,28.427,0,0,1-.144-3.706c-.009-14.273-.058-28.547.053-42.82.016-2.1-.648-2.8-2.609-2.908a29.885,29.885,0,0,1-6.622-1.288,2.982,2.982,0,0,1-2.5-3.42,301.133,301.133,0,0,1,2.969-34.134c1.213-8.932,2.592-17.842,3.951-27.124a27.57,27.57,0,0,0-2.958,6.142c-4.022,10.079-5.938,20.652-7.331,31.351-.564,4.33-3.8,6.969-7.976,6.633a7,7,0,0,1-6.459-7.858c1.833-16.6,5.338-32.733,13.986-47.326a51.561,51.561,0,0,1,7.851-10.177,32.054,32.054,0,0,1,18.442-9.582A83.037,83.037,0,0,1,198.57,86.3c9.705,1.165,17.028,6.321,22.933,13.8,7.319,9.267,11.428,20.022,14.359,31.3a145.728,145.728,0,0,1,3.593,19.291,9.939,9.939,0,0,0,.4,1.457Z"/><path d="M40.772,105.549c-3.023,4.789-4.581,10.05-5.845,15.4a170.424,170.424,0,0,0-4,29.157c-.082,1.381-.169,2.764-.331,4.136a7.3,7.3,0,0,1-7.485,6.509,7.218,7.218,0,0,1-6.965-7.284c.114-5.459.637-10.9,1.267-16.325,1.3-11.226,3.281-22.306,7.415-32.9a52.75,52.75,0,0,1,7.808-14.063,27.094,27.094,0,0,1,6.575-6.019,14.268,14.268,0,0,1,7.988-2.44c13.252.093,26.505.015,39.758.054,3.149.009,5.678,1.7,8.062,3.518,5.5,4.188,8.87,9.949,11.6,16.132,4.6,10.419,6.74,21.469,8.238,32.675.829,6.208,1.3,12.452,1.66,18.7a7.3,7.3,0,0,1-14.12,3.151,18.732,18.732,0,0,1-.639-5.183c-.812-12.66-2.286-25.214-6.152-37.371a52.81,52.81,0,0,0-3.07-7.688c-.078-.154-.286-.242-.5-.412a5.622,5.622,0,0,0-.214,2.617q-.021,59.643-.016,119.285a18.432,18.432,0,0,1-.3,4.563,11.675,11.675,0,0,1-12.376,8.866,11.516,11.516,0,0,1-10.587-11.584c-.046-19.007-.02-38.014-.022-57.021,0-2.991,0-2.919-2.957-2.862-1.21.024-1.453.483-1.434,1.553.052,2.912.017,5.826.017,8.739,0,16.385.038,32.77-.017,49.156-.029,8.58-8.023,14.3-15.774,11.307a11.085,11.085,0,0,1-7.422-9.446,28.952,28.952,0,0,1-.159-3.705q-.011-59.314-.006-118.63Z"/><path d="M91.8,49.677A25.508,25.508,0,1,1,66.586,24.071,25.565,25.565,0,0,1,91.8,49.677Z"/><path d="M187.98,34.986a23.334,23.334,0,1,1-23.286,23.355A23.355,23.355,0,0,1,187.98,34.986Z"/></svg>