<svg id="Layer_1" data-name="Layer 1" xmlns="http://www.w3.org/2000/svg" viewBox="0 0 256 265"><path d="M136.514,244.593h.052v-.051h-.052Zm1.128-1.076h0Zm2.05-2.2v.051h-.051v.052h.051v-.1Zm0,0v0Zm.77-.769v0Zm.052,0v0Zm.051-.051h0Zm.614-.768h0Zm.1-.052v-.051h-.052Zm0-.051v0Zm.051-1.692v0Zm.359-.512v0ZM160.3,212.246l6.868,10.765h-.052v.052h-.153v.051h-.205v0h-.308v-.051h-.307v-.052h-.155v-.051h-.153v-.051h-.154v-.052h-.205v-.051h-.052v-.05h-.051V222.7h-.41v-.052H164.6V222.6h-.565v-.051h-.871V222.5h-.359v.052h-.153v.051H162.6v.051h-.1v.1h-.154v.05h-.154v.052h-.051v-.052h-.051v.052h-.052v-.052h-.205v.052h-.358v.051h-.052v.052h-.462v-.052H160.7v0h-.051v-.051h-.307v-.052h-.41v-.05h-.615V222.7h-.052v.052h-.41V222.7h-.052v.052H158.5v0h-.255v.05h-.052v.052h-.205v.051h-.052v.052h-.154v.051h-.154v.051h-.1v0h-.051v.052h-.051v.1h-.052v.052h-.051v0h-.051v.052h-.052v.051h-.1v.051h-.154v.052h-.052v.051h-.154v.051H156.7v-.051h-.052v-.051H156.6v.051h-.051v.051h-.257v.052h-.154v-.052h-.153v0h-.257v0h-.1v-.051h-.1v-.051h-.051v.051h-.052v-.051h-.1v0h-.1v0h-.052v.051h-.154v0h-.051v-.051H154.4v-.052H153.37v-.051h-.154v.051h-.1v-.051h-.052v.051h-.257v.052h-.461v.051h-.307v.051h-.1v-.051h-.051v.051h-.461v.052h-.513v.051h-.359v.052h-.358v.051h-.257v.052h-.257v.051h-.2v.051h-.257v.052h-.256v.05h-.206v.051H148.5v.052h-.2v.051h-.155v.052h-.2v.051h-.154v.052h-.154v.051h-.154v.051h-.1v.052h-.153v.051h-.154v.051h-.1v.052h-.1v.052H146.7v.051h-.1v.051h-.1v.052h-.1v.051h-.1v.051h-.1v.052h-.051v.052h-.1v.051h-.1v.051h-.1v.052h-.1l-.052.05h-.051v.051h-.154v.052h-.155v.051h-.1v.052h-.052v.2h-.051v.052h0v.051h-.051v.052h.051v.1h-.051v.155h-.051v.1h0v.052h-.051v.153h0v.052h.051v.2h-.051v.2h-.052v.052h-.051v.051h-.1v.051H144.7v.052h-.154v.051h-.1v.1H144.4v.051h-.052v.1h-.051v.052h-.052v.051h-.051v.154h-.051v.563h.1v.052h.052v.051h-.1v.1h-.051v.051h.051v.1h-.051v0h-.051v.051h-.052v.052h.052v.154h-.1v.052h-.1v.051h-.154v.05h-.052v.052h-.052v0h-.051v.051h-.051v.051h-.052v.051h-.1v0h-.052v.052h-.052v.051l-.051.052h-.154v.051h-.1v.051h-.1v.052H142.8v.051h-.153v.154h-.1v.052H142.5v.1h-.1v.051h-.1v.205h-.1v.051h-.1v.051h-.051v.051h-.051v.052h-.052v.051h-.1v.052h-.1v.051h-.1v.052h-.051v.051h-.1v.051h-.051v.052h-.052v.1h-.1v.1h0v.257h-.051v.051h-.1v.1h0v.052h-.051v.051h-.051v.051h-.052v.052h-.051v.05h-.051v.1h-.052v.051h-.052v.155H140.7v.051h-.051v.1H140.6v.154h-.051v.154H140.5v.1h-.052v.255H140.4v.206h0v.051h.051v.052h0v.051h0v.154h.052v.051h.051v.717h.051v.1h.051v.1h.051v.1h.051v.051h.052v.051h.052v.052h.051v.051h.308v.052h.154v0h.154v0h.052v.051h.051v.052h.051v.051h.052v.1h.05v.154h0v.052h.052v.1h.051v.1h.052v.1h.051v.052h-.051v.051h.051v.051h.051v.052h.052v.1h.051v.154h.051v0h.052v.051h.051v.052h-.052v0h-.051v.051h-.051v.1h0v.1h.051v0h-.051v.052h0v.051h.051v.051h-.051v0h-.052v.052h-.051v.051h.052v.051h-.052v.051h-.051v.051h.051v.257h-.051v0h0v.051h-.051v.052h-.052v.051h-.153v.155h0v.051h-.052v.205h.052v0h0v.051h-.052v.1h-.051v.052h-.051v.051h-.052v.052h-.051v.05h-.051v.052h-.052v.051h.052v.052h-.052v.051h-.051v.051h0V238h-.051v.1h.051v.051h-.051v.1h-.206v.051h-.051v.052h-.052v.051h-.051v.1h-.051v.1h-.052v.2h-.052v.153h.052v.052h.051v.052h0v.051h.052v.051h.051v.052h0v.051h.051v.051h.052v.1h.051v.051h.051v0h.052v.052h.051v.154h-.051v.1h-.1l.052.051h-.052v0h-.051v.1h-.051v.154h-.052v.051h-.051v.051h-.1v.051h-.052v0H140.7v.052h-.052v.051h.052v.051h-.052v.052h-.1v.051h0v.052H140.5v0h0v.051h-.052v0h0v0H140.4v.052h-.051v0h-.1v.051h-.1v.051h-.052v.052h-.052v.051h-.051v.155h-.1v.154h0v.1h-.051v0h-.052v.1h-.1v.1h-.051v.257h0v.205h.051V242h-.051v.052h-.1v0h-.153v.052h-.359v.051h-.257v.051h-.1v.052h-.1v.051H138.5v.1h-.051v-.052H138.4v.154h-.051v.052h-.051v.052h-.052v0h.052v.05h-.052v.051h-.051v.052h0v.1h-.1v.052h-.051v.051h0v.052h0v.051h-.051v.052h0v.051h-.1v.1h-.051v.051h-.051v.1h-.052v0h-.051v0h-.052v.052h0v.051h0v.051h-.051v.1h-.051v.051h-.051v.051h-.1v.052h0v.05h0v.052h-.051V244h-.1v.052h-.052V244h-.051v.052h-.051v.051h-.052v.051h.1v.052h-.052v0h-.052v.154h-.1v0h-.154v-.052H136.7v.052h.052v.154H136.7v.051h-.1v-.051h-.052v.1H136.5v.051h-.1v-.051h-.052v.051h.052v.052h-.052v0h-.051v0h-.051v.051h-.1v.051h.051v0h-.051v.052h-.052v.051h0v.052h-.051v-.052h-.052v.1h-.154v.05h-.154v.154h-.051v.1h0v.051h-.1v.051h-.052v.052h-.051v-.052h.051v0h0v-.154h.052v-.051h-.052v-.1h0v-.052h-.1v-.05h-.1v-.051H134.8v.051h-.051v.1H134.7v.1h-.052v.052h.052v.051h-.052v.051H134.6v.154h-.051v.051H134.5v.052h-.257v.052h0v.051h-.051v.051h-.052v-.051h-.051v.051h-.051v0h-.051v.052h-.052v0h-.051V245.8h-.1v-.051h-.052v0h-.1V246h-.1v.051h-.1v0h-.052v.051h-.051v0h-.052v-.051h0V246h-.051v-.1h-.1v-.051h-.051V245.8h-.051v-.052h-.052V245.7h0v.051H132.9v.308h-.05v.051H132.8v.051h-.052v0H132.7v.052h.051v.051H132.7v0h.051v.052H132.6v.05h-.1v-.05h-.051v0h-.052v.05h-.051v-.05h-.051v.05h-.052v-.1h-.051v.051h-.052v0h-.051v-.051h-.051v.152h-.052v0h-.051v.051h-.1v-.051h0v-.052h-.05v.1h0v-.051h-.052v-.052h-.051v.052h-.051v-.052h-.1v.052h-.1v-.052h-.051v.052h-.052v0h-.051v-.052h-.052v.052h-.051v.051h-.1v-.051h-.1v0h-.1v.051h0v.052H130.6v.154h.051v.051H130.6v.052h-.052v.051h-.051v-.051h-.051v.051h-.052v-.051h-.1v.051h.051v0h-.051v.1h-.1v.051h-.051v-.051h.051v-.1h-.1v-.051h-.052v.051h0v-.051h-.052v-.052h-.051v-.051h-.051v-.051h-.052v0h-.051v-.052h-.051v-.051h-.1v.1h-.05v0h-.051v.051h-.052v.052h-.1v-.052h.051v-.051h-.051v-.051h-.051v-.052h-.1v-.1h-.1v.052l-.052-.052v.052h-.051v.051h-.051v.052H128.8v0h-.154v-.052H128.6v.052h-.052v0h.052v-.155h-.052v-.051h-.05v0h-.051v.051h-.1v-.153h-.051v-.051h-.052v.051h-.051v-.051h-.154v.051h-.052v-.051h-.1v.051h-.051v-.051h-.051v-.154h-.052V246h-.051v.051h-.052V246h-.051v.051h-.051v-.1h-.052v-.1h.052v-.1h.051v-.1h.1v-.051h-.052v-.1h-.051v-.1h0v-.1h-.051v-.1h-.052v-.051h-.1v-.052h-.052v-.05h-.052v-.051h-.154l-.051-.052h-.1v-.051H126.7v-.052h-.2v-.051h-.256v-.052h-.513v-.051h-.052v.051h-.154v-.051h-.051v0h-.051v0h-.2v.051h-.1v-.051H125v-.051h-.2v.051h-.1v-.051h-.308v-.052h-.154v.052h-.154v-.052h-.615v0l-.051-.051v0h-.052v0h-.052v.051H123v.052h-.051v-.052H122.9v.052l-.051-.052v-.051H122.8v.051h-.923v.052h-.051v.051h-.1v-.1h-.1v.052h-.052v.051h-.051v-.051h-.051v-.052h-.1v-.051h-.051v0h-.051v.051h-.052v-.051h-.154v.051H121v-.051h-1.845v.051h-.051v0h-.563v.052h-.052v-.052h-.051v-.051h-.051v.051h0v.1h0v-.051h-.052v0h-.051c-.451-.024-.107.077-.616.051h-.051v.051h-.359v.052h-.051c-.451-.023-.108.078-.616.051h-.051v.052h-.41v.051h-.41v.052h-.41l-.052.051h-.256v.05H114.7l-.051.052h-.308l-.051.051h-.307v.051h-.308v.052h-.41v.051h-.307v.052h-.41v.051h-.257v.052h-.154l-.051.051h-.1l-.051.051h-.1l-.052.052h-.051v.051h-.1v.051h-.051v.052h-.052v.052h-.051v.051h-.051v.051h-.052V246h-.052v.1h-.051v0h-.051v.052h0v.1h-.052v.1h.052v.205h-.1v.052h-.051v-.052h-.051v0h-.051v0h.051v.052h.154v-.052h.052v-.051h.051v-.052h.051v-.051h.206l.051-.052h.1v0l.051.052h-.051l-.257.1-.052.051h-.1v.052h0v.154h.051v-.052l.052.052h.052v-.052h-.052v-.051h.052l.051.051h.051v-.051l.052.051h.051l.1-.051.051-.051.052-.052.052-.051h.051v-.052h.051l-.1.052-.051.051-.1.1h-.052v.051h-.051v.052h-.051v.051h-.154v.1h-.411v.051h-.051v.051H110.8v.052h-.052v.154H110.7v.051h-.051v.051H110.5v.052h-.051v.051h-.052v-.051h-.051v-.052h-.1v.052h-.206v.051h-.051v.2h-.051v.052h-.052v0h-.051v-.052h-.051v.052h-.153l-.051-.052v0h-.411v.052h-.257l.051.051h-.2V247.7h-.512v.051h-.256v.051h0v.052h-.206v.051h-.051v0h-.2v0h-.1v0h-.051v.052h-.1V247.9h-.052v.052h-.051V247.9h-.257v.052H106.6l-.051.051h-.255l-.052.052h-.308v.051h-.2v.051h-.051v.052h-.051v0h-.052v0h-.052v.051h-.154l-.05.051v.052h.05v.051h-.05v.052h-.051v.051h-.052v.052h-.051v.051h-.051v.051h-.052v.052h-.1v.05h-.051v.1h-.051v.051h-.1v.051h-.1v.051h-.1v.1H104.5v.051h-.1v.051h-.052v.052h-.051v.051h.051v.052h-.051v-.052h-.051v.052h-.153v.1h-.051v.052h-.1v.051h-.051v0h-.206v.1h-.051v.051h-.052v.052h-.051v.051h-.051v.1h-.052v.1h-.052v.1h.052v.1h.052v.155h-.052v.051h-.1v.052h-.306v.051h-.154v.051H102.8l-.051.052H102.7v.051h-.2v.051h-.2v.052h-.154v.1h-.256v.051h-.256v.052h-.1v.051h-.154v.051h-.051v.052h0v.052h-.052v-.052h-.1v0h-.155v-.052h-.051v-.051H100.9v0h-.051v.051H100.8v-.051h-.1v0h-.1v-.051h-.051v-.051h-.1v.051h-.052v-.051h-.051v.051h-.052v-.051h-.051v.051h-.1v-.051h-.051v-.052h-.052v.052h-.1v-.052h-.2v-.051h-.051v0h-.307v0h-.052v0h-.1v.051H99.16v0h-.051v-.051h-.052v.051H98.9v0h-.051v0H98.8v0h-.051v.052h-.1v0H98.6v.051h-.051v0h-.1v0h-.1v.052h-.051v-.052h-.206v.052h-.051v.051H97.98v.051h-.051v.052h-.051v-.052h-.206v.052h-.306v.051h-.2v.051h-.052v0h-.154v0H96.9v.051h-.256v.052h-.1v.051h-.051v0h-.05v-.051h-.206v.051h-.051v0h-.052v0h-.41v.051h-.257v.052h-.2v.051h-.051v.051H95.16v.052h-.2v.052H94.7v.051h-.1V251.8h-.154v.051h-.153v.051h-.155v.052h-.359v.051h-.1v.051h-.051v.052H93.57v.052h-.1v.051h-.051v-.051h-.051v.051h-.052v-.051h-.051v.051h-.255v.051H92.8v.052h-.2l-.051.051h-.1v.051h-.308v.052h-.2v.051h-.052v.05h-.051v.052h-.1v.052h-.1v.051h-.051v.051h-.052v-.051h-.051v.051h-.154v.052h-.1v.051h-.1v.051h-.052v.052h-.1v.051h-.1v.051h-.2v.052h-.154v.052h-.1v.051h-.1v.051h-.052v.052h-.051l-.052.051h-.1v.051h-.1V253.4c-2.119-4.913-4.136-9.861-6.3-14.763l-.41-.974-.307-.052-.155-.051h-.1l-.2-.052-.666-.1h-.1l-.052-.1-.051-.1h.051l.155-.051v-.051l.051-.052.2-.257.052-.1.153-.154.052-.153.154-.155v-.051l.1-.154-.256-.565c-5.536-13.141-11.135-26.264-16.659-39.421l-.512-1.179.256-.1q34.938-11.5,69.864-22.965l.512-.154,9.893,16.608v.051l4.254,9.639.462,1.024,2.614,5.9,2.1,4.819,1.846.922,3.332,1.692Zm-4.972,11.227h0ZM144.2,227.522v0Zm17.94,2.973h0Zm-.051.051v.051h-.052v-.051Zm-20.964.77h0Zm0,0h0Zm-.155.154h0Zm-.307.461v0Zm19.324.1v.1h.052v.051h.051v.411h.052v.255h.051v.1h.1v0h.1v.051h.1v.052h.153v0h.051v.051h.051v-.051h.052v0h.2v.051h-.052v.1h-.051v.051h-.051v0h0v.1h-.052v-.051h0v.051h-.1v-.051h0v.051h-.155v.052h-.1v0H160.4v.051h-.051v.052H160.3v.051h-.1v.051h-.051v0h-.051v.052h-.051v.051h-.1v.051h-.052v-.051h-.1v.051h-.052v-.051h0v.051h-.051v-.051h-.051v.051h-.052v.052h-.051v-.051h-.052v0h-.051v-.052h-.051v.052h-.051v.052h-.052v-.052h0v.052h-.2v-.052h-.1v-.052h-.1v0h-.052v.052h-.051v0h0v-.052h-.1v-.051H158.6v0h-.052v.051H158.5v-.051h.051v-.051H158.5v.051h0v-.051h-.051v0H158.4v.051h-.051v-.051h0v-.051H158.3v.051h-.051v-.051h-.052v.051h-.051v-.1h-.1v-.052h-.051v-.051h-.052v.051h-.051v-.153h.051v-.052h0v-.052h-.051v0l-.052-.051h.052v0h-.052v.051h-.1v-.051h.052v-.051h.051v-.052h.052v-.051h0v-.051h.154v-.052h.051v0h.052v-.052h.1V232.8h.052v-.051h0v.051h.1v-.051h.205V232.7h-.052v-.051h.052v-.05h.1v.05h.257v-.05h.205v-.052h.052V232.5h.154v-.052h.1v-.051h.1v-.052h.052v-.051h.051v-.051h.051v-.052h.052v-.051h.051v-.051h.051v-.052h.1Zm-19.426.154v0Zm25.833.769v0Zm.051.051v.052h0v-.052h0Zm-11.276.1h.1v.051h.1v.051h.1v.052h.051v.051h.052v.051h.051v.052h.1v0h.052v0h.051v.052h0v0h.051v-.052h.052v.052h.051v.051h-.051v.051h.051v.1h-.051v.051h-.052v.051h-.051v.051h-.051v.051h-.052v0h-.1v.051h-.051v.051h-.052v-.051h.052v-.051h-.052v.051h-.051v-.1h-.051v0h-.052v0h-.051v0h-.051v.05h-.052v-.05h0v-.052h.1v-.1h0v-.052h-.051v0h-.1v.052h-.051v.051h-.1v-.051h-.051v0h-.051v.051h-.051v-.051h0v-.052h-.1v.051h0v.051h-.051v-.1h0v.051h-.051v-.051h.051v-.052h-.051v-.051h.1v-.052h-.051v0h-.051v-.051h.051v-.052h.051v.052h.1v-.052h.051v-.051h.051v-.051h.051v-.051h.1v-.1h.053Zm11.584.051h.051v.051h.052v0h.051v0h.052v.1h.051v.051h.051v.051h0v.052h-.1v.052h0v.051h-.154v0h-.051v-.1H166.6v-.052H166.4v.1h-.051v-.052h.051v-.1h.1v-.051h.051v-.052h.052v-.1h.153Zm-11.892.154v.051h0v-.051h0v0Zm11.481.36v0Zm-16.914,0h.051v.051h.051v.1h0v.051h-.1v.051h0v.051h-.051v-.051h-.051v.1h0v.051h.051v.052h-.051v.052h-.052v-.052h-.051v.052h-.1v-.052h0v-.052h.052v-.051h.051v-.1h0v-.051h-.051v-.051h0v-.051h.051v-.052h0v-.051h.051v.051h.052v-.051h.051v0h.051Zm10.353.1v0h0Zm-10.3.1v.051h-.051v-.051Zm-7.689,3.127h0Zm-.05.308h0Zm-.77,1.9h0Zm.308.36v0Zm0,.1v0Zm-.052.052v0Zm-1.333,1.538v0Zm-.461.769v0Zm-1.128.614v0Zm-.051.051v0Zm-1.128,1.538h0Zm-3.229,1.59v0Zm-.77,0h0Zm.052.051v0Zm.462.051v0Zm-.411.052h0Zm-.307.052v0Zm-.359.306h0Zm0,0h0Zm-3.691.36h.051v.051h-.051V246.7h-.051v-.052h.052v.052Zm1.282.256h.052V247h-.052Z"/><path d="M173.676,135.557,172.5,139.71l-.462,1.486,13.174,4.563,7.945,1.538,11.994,2.358.82-6.408,1.026-1.128.1-.051,4.613-1.589-1.128-4.408.513-.1,1.231-.2,9.431,9.022v.565l-.1,2.358h2.255v.2h.052v.051h.051v.154h.154v.1h-.051v.051h-.052v.256h-.051v.052h-.051v.051h-.052v.051h-.052v.052h-.051v.051h-.051v.051H223.7v.051h-.051v.1H223.6v.051h-.052v.051h-.05v.051h-.052v.051H223.4v.051h-.052v.051h-.051v.052h-.052v.051h-.051v.051h-.051v.1h-.052v.051h-.051v.1h-.052v.051h-.051v.154h-.051v.1h-.052v.154h-.051v.153h-.052v.462h-.051v.051h-.051v.052h.051v.051h-.051v.257l.051.051v.154h-.1v.051h-.051v.051h-.052v.051h-.051v.051h-.051v.1l-.051.051h.2V151.7h.051v.051h.052v.36h-.052v.051h.052v.205h.051v.512h.051v.256h-.051v.052h-.051v.051h-.2v.051h-.256v.051h-.154v.051h-.051v.052h-.052v.051h-.052v.051H221.8v.1h-.1v.051h-.052v.052l-.051.051v.051h-.051v.052H221.5v.051h-.051v.05h-.052v.1h-.05v.051h-.052v.051h-.154v.051h-.051v.051h-.051v.051h-.052v.052h-.1v.051h-.1v.051h-.052l-.051.051h-.051v.051h-.052l-.051.052h-.052v.051h-.1v.051h-.052v.052h-.051v.051h-.1v.051h-.051v.051h-.052v.051h-.051v.051h-.052v.052H219.9v.051h-.052v.05H219.8v.051h-.1v.052h-.051v.051h0v.1H219.6v.1h-.052v.051h-.051v.051h-.052v.052h-.051v.051l-.052.051v.051h-.051v.051h-.051v.051h-.052v.1h-.05v.1h-.052v.051h.052v.051h0v.052h.05v.051h-.05v.256h-.052v.154h-.051v.154h-.051v.1h-.052v.1h-.051v.051l-.052.052v.1h-.051v.155h.051v.1h-.051v.052h-.051v.051h-.052V158h-.051v.052h-.052v.051h-.051v.1h-.052v.1h-.051v.052h-.051v.051h-.052v.051h-.051v.1h-.051v.154h-.052v.154h-.051v.256h-.052v.308H218v.1l.051.051v.1h.052v.1h-.052v.1h.052v-.051h0v.1h-.052v.051H218v.1h-.051v.2H217.9v.154h0v.052h0v.1h-.052v.462h0v.1H217.8v.051h-.1v.051h-.051v.153h-.052v.051h-.052v.051h-.1l-.052.052v.1h0v.051h-.1v.1h-.308v.051h-.1v.1h-.051v.051h-.2v.1h0v.051h0v.051h0v.052h-.1v.051h-.1v.1h-.052v.051h-.051v.1h-.052v.051h-.051v.051h-.051v.051h-.052v.051h-.051v.051H216v.052h-.052v.051H215.9v.1h-.409v-.051h-.1v.051h-.1v-.051h-.359v-.1h-.052v-.051h-.052v-.051h-.1v-.051h-.051v.051h-.1v-.051h-.052v-.052h-.1v-.051h-.052v-.05h-.1l-.051-.051h-.1v-.052h-.051v-.051h-.1v-.052h-.1l-.052-.051h-.82l-.051.051h-.2v.052h-.155l-.051.051h-.051v.052h-.1l-.052.051h-.1v.05h-.155v-.05H211.9v-.051h-.1v-.052h-.1v-.1h-.051v-.051h-.1v-.051h-.1v-.051h-.153v-.051h-.1v-.051h-.154V162.1h-.1v-.051h-.1V162h-.359v-.051h-.052V161.9h-.051v-.051h-.1V161.8h-.051v-.1h-.052v-.154h0v-.1h0v0h.052v.051h-.052v.051h.052v-.051h.051v-.051h-.051v-.153h-.052v-.206h.052v-.051h.051v.051h.051v-.051h.051v-.051h.052v-.205h.052v-.052h.051v-.051h.051v-.051h.052v-.308h0v-.255h.256v-.1h.052v-.1h0V159.8h.052v-.051h.051v-.154h.051v-.1h.052v-.1h.051v-.1h.051v-.358h.052v-.1h.052v-.1h.051v-.1h.05v-.052h.052v0h.1l.052-.051v-.051h.1v-.051h.1v-.1h.052v-.1h.051v-.1h.051V157.9h.052v-.1h.051v-.05h-.051V157.6h.051v-.051h-.051v-.1h-.2v.1H211.8v-.052l-.052-.051h.052v-.205h-.052v-.051H211.7v-.051h-.1v-.052h-.1v-.051h-.1v-.051h-.154v-.051h-.155v-.051h-.2v-.051h-.051v-.155h-.051v-.051h-.052v-.051h-.052v-.1h-.051v-.051h-.154v.051h-.154v.051h-.1v.051h-.052v0h-.154v.1h-.052v.051H209.9v.051h-.051v.052H209.8v0h-.205v.051h-.154v.051h-.051v.052h-.052v.1h-.051v.052h-.052v.051h-.05l-.052.051h-.052l-.051.051h-.051l-.052.051h-.051v.052h-.155v.051h-.1v.051h-.052v.052h-.1v.051h-.1v.051h-.051v.051h-.1v.051h-.153L208,157.8h-.1v.051h-.051v.051h-.1v.051h-.1l-.051.051h-.051v.052h-.052v.051h-.051v.051h-.051v.051h-.052v.1h-.051v.2h-.051v.051h.051v.1h.051v.154h-.051v.153h-.051v.1h-.052v.1h.052v.1h-.052v.051h-.052v.1h-.051v.1h.051v.051h.052v.051h-.052v.257h-.051v.154h.051v.2h-.051v.1h0v.051h-.051v.051h-.051v0h-.1v.051h-.051v.051h-.1v.1h-.051v.051h-.205v.051h-.205v.051h-.154v.051H206v.052h-.153v.051h-.1v.051h-.154v.052h-.1v.051h-.1v.051h-.1v.051h-.051l-.051.051h-.052v.051h-.1v.052h-.052v.05h-.1v.051h-.051v.051h-.052v.052h-.05v.051h-.1v.051h-.051v.051h-.051v.1h-.052v.051h-.052v.1h-.051v.051h-.051v.154h-.052v.359h-.051v.051h.051v.256h.052v.1l.051.051v.052h.051v.051h.1v.051h.2v.052h.051v0h.1v.051h.1v.1h-.052v.1h-.051v.1h-.051v.155h-.052v.051h-.05v.051h-.051V164h-.052v.051h-.052v.051h-.051v.052h-.1v.051h-.1v.051h-.1v.051h-.1v.051h-.052l-.051.051h-.051v.052h-.1v.051h-.1v.051h-.1v.052h-.051v.051h-.1v.051h-.051v.051h-.1v.051h-.1v.052h-.051v.051h-.1v.051h-.051v.051h-.1v.051h-.051v.051h-.1v.051h-.051v.052h-.051v.05h-.052v.051h-.051v.052h-.05v.051h-.052v.051h-.051v.052h-.051v.051h-.052v.051h-.052v.051h-.051v.051h-.051v.052H202.1v.051h-.051v.154H202v.051h0v.1h.051v.051H202v.1h-.052v.051H201.9v.052h-.051v.051H201.8v.05h-.052v.051h-.051v.052h-.051v.051h-.052v.1h-.051v.051h-.052v.206h-.05v.256h-.052v.1h-.051v.206h-.052v.1h.052v.205h0v.1h.051v.41h.052v.051h.05v.051h.052v.052h.1V168.5h.051v.052h.052v.308h-.052v.46h-.051v.206h-.051v.205h-.052v.257h-.051v.1h-.051v.153h-.051v.2h.051v.051h.051v.155h-.051v.154h-.051v.257h-.052v.1h-.051v.154h-.051v.2h-.052v.1h.052v.616h-.052v.1h-.051v.052h-.051v.051h-.052v.1h-.052v.051h-.051v.1h-.051v.1h-.052v.1h-.051v.2h-.051v.308h-.052v.2h-.052v.1h-.051v.051h-.051v.1h-.052v.1h-.051v.1h-.051v.1h-.051v.1h-.051v.1l-.052.051v.154h.052v.052h.051v.1l-.051.051v.154H200.2v.052l-.051.05v.1H200.1v.154h-.051v.1H200v.1h-.052v.1h-.051v.1h0v.155h-.051v.051h-.052v.052h-.051v.051h-.052v.1h-.051v.051h-.052v.153h-.051v.155h.051v.1h-.051v.154h-.051v.052h-.052v.051h-.051v.052h-.052v.051h-.051v.052h-.05v.051h-.052v.051h-.052v.052h-.051v.051h-.051v.051h-.052v.1h-.051l-.051.051v.052h-.052v.051h-.051v.051h-.052v.051l-.051.051-.052.052v.051h-.051v.051h-.051v.052l-.052.052v.051H198.4v.1h-.051v.052l-.052.051v.051l-.052.052v.1l-.051.052v.154h-.051v.769h.051v.154h.051v0h.052v-.052h.052l.1-.1h.308l.051.051h-.154v-.051h-.051c-.2.009-.1-.051-.257.1H198.3v.052h-.051v.154h.051v.1h.052v.1h.052v.051h.1v.052h.205l.052-.052h.051v-.256h.052v.154h-.052v.051h.052v.051h.051v.052h.051v.052h.1v0h-.052v.05h0v.052h-.051v0h.051v.051h.051v0h.051v-.051h.052V180.1h.1v-.05h-.05v-.155h.05v-.359h.1v-.154h-.052v0h.052v.051c.024.45-.078.106-.052.615v.051h-.051v.1h-.05v.052h-.052v.462h-.051v.052h-.051v.1h-.052v.1h-.052v.308h.052v.1h0v.257h-.052v.1h-.051v.1h.051v.052h-.051v.1h-.051v.154h-.052v.206h-.051v.2h-.051v.1l-.052.052v.154l-.051.051v.616h.051v.052h.052v.255h.051v.052h.051v.051h.1v.051h.051v.1l.052.052v.051h.1v.052h.052v.154h0v.051h.051v.2h.051v.154h.051v.1h.1v.051h.052v.1h.051v.052h.052v.154h.051v.1h.051v.051h.1v.1l.051.051h0v.206h.051v.1h.052v.1h.051v.205h.051v.153h0v.052h.052v.256h0v.052h.052v.359H200.1v.461h-.052v.154h-.051v.1h-.051v.1h-.052v.205h-.051v.154h-.051v.1h-.052v.308h-.051v.307h-.051l.051.052v.2h-.051l.051.051h-.051v.154h.051v.922h0v.052h.051v.256h.052v.1h.051v.052h.051v.051l.052.051v.154l.051.052h0v.256h.051v.154h.052v.205h.052v.1h.051v.1h.051v.1h.052v.051h.05v.1h.051v.052h.052v.051h.2v-.051h.257v.051h.051v.1h.051v.052h.052v.05h.051v.154h0v.308h-.051v.205h-.052v.2h-.051v1.231h.051v.1h.052v.1h.051v.052h.1v.051h.051v-.051h.1v.306h.052v.051h0v.052h0v.052h0v.154h0v.257h.05v.1h.051v.1h.052v.1h.051v.051h.051v.052h.052v.1h.154v.051h.154v.1h0v.051h-.1v.052h-.051v.051h-.052v.052h-.051v.051h-.1v.051h-.1v.052h-.052v.051h-.051v.052h-.153v.051h-.051v.051h0v.154h-.051v.051h-.1v0h0v.052h-.051v0h-.154v-.052h-.308v0h-.051v.052h-.409v0H200.1v.052h-.256v.051h-.206v.051h-.051v.052h-.052v.05h-.051v.051h-.051v.052h-.1v.1h-.1v.051h-.1v.052h-.154v.052h-.051v.051h-.154v.051h-.1v-.051h-.052v.051h-.256V198h-.1v-.052H198.2V198h-.052v0h-.1v0h-.462v0h-.205v-.052h-.154V198h-2.2v0h-.154v-.052H194V198h-.1v-.052h-.051v0h-.052V198h-.051v-.052h-.1V198h-.924v.051h-.768l-.051.051v0h-.461l-.051.052h-.462v.051h-.359v.051h-.41v.052h-.359v.052h-.308v.051h-.306v.051h-.257v.052h-.2v.051h-.206v.051h-.2v.052h-.2v.05h-.154v.052h-.154v.051h-.154v.052h-.205v.051h-.257v.051h-.2v.052h-.206v.051h-.154v.051h-.154v.052h-.205v.052H186.1v.051h-.2v.051h-.2v.052h-.155v.051h-.205v.051h-.257v.052h-.255v.051h-.2v.052h-.155v.051h-.205v.052h-.2v.051h-.256v.051h-.154v.052h-.205v.051h-.154V200h-.154v.051h-.1v.051h-.1l-.052.052h-.1v.052h-.1v.051h-.153v.051h-.154v.052h-.1v.051H182.1v.051H182v.052h-.154v.051h-.1v.052h-.1v.051h-.1v.052h-.051l-.051.051h-.052v.051h-.154v.052h-.1v.051h-.155v.051h-.1v.052h-.1v.051h-.154v.052h-.154v.05h-.153v.052h-.154v.051H180v.051h-.1l-.051.051h-.1v.052h-.1v.051h-.1v.052h-.1v.051h-.154v.051h-.1v.052h-.051l-.052.051h-.051v.052h-.1v.051h-.051v.051h-.1v.052h-.1V202h-.051v.052h-.1v.051h-.1v.051h-.051v.052h-.1v.051H178.2v.052h-.051v.051H178.1v.05H178v.052h-.051v.052H177.9v.051h-.1v.051h-.051v.052h-.1v.051h-.052v.051h-.051v.052h-.1v.051h-.051v.052h-.052v.051h-.051v.052h-.1v.051h-.051v.051h-.051v.052h-.052v.051h-.051v.1h-.051v.052h-.052v.051h-.051v.051h-.052v.052h-.051v.1h-.052v.052h-.051v.1h-.051v.051h-.052v.052h-.051v.052h-.052v.1h-.051v.052H176.3v.051h-.051v.051H176.2v.052h-.052v.052H176.1v.051h-.05v.051H176v.052h-.051v.051h-.052v.051h-.051v.052l-.052.051v.051h-.051v.052h-.051v.052h-.052v.05h-.051v.1h-.051v.051h-.052v.051h-.052v.052h-.051v.051h-.051v.051h-.052v.1h-.051v.052h-.051v.051h-.052v.1h-.051v.051h-.051v.1h-.052v.051h-.051v.051h-.051v.052h-.051v.1h-.052v.051h-.051v.052h-.052v.05h-.051v.051h-.051v.052h-.052v.051h-.051v.051h-.1v.052H174.3v.052h0v.1h-.051v.052H174.2v.1h-.051v.052H174.1v.1h-.052v.1h-.051v.1h-.051v.154h-.052v.154h-.051v.153h-.051v.1h-.051v.1h-.052v.1h-.051v.1h-.052v.154h-.051v.2l.051.051v.1l.052.051v.615h.051v.564h.052v.512h-.052v.1l-.051.051v.052h-.052v.1h-.051v.1h-.051v.1h-.052v.155h-.051v.1h-.052v.051h-.051v.1h-.051v.1h-.052v.155h-.051v.564h0v.052h-.052v.051h0v.36h.052v.05h0v.41h-.052v.206h-.051v.256h-.051v.257h-.052v.256h-.051v.051h-.052v.1h-.051v.051h-.051v.1h-.051v.257h-.051v.1h-.052v.052H172.5v.1h-.051v.1H172.4v.1h-.052v.05H172.3v.051h-.051v.1H172.2v.1h-.051v.052l-.051.052v.051h-.052v.1h-.051v.051h-.052v.1l-.051.051v.206l-.052.051v.154h-.051v.052l.051.05h-.051v.154h-.051v.1h-.052v.154h.052v.052h0v.051l-.052-.051v.051h-.05v.052h-.051v.051h.051v.2h-.051v.052h.051v.1h.05v.155h.052v.511h.051v.206h-.051v.1h-.1v.051h-.154v.052h-.205v.051h-.1v.052h-.051v.051h-.051v.051h-.052v.1h-.051v.1h-.052v.05h-.051v.1h-.052v.051h-.051v.052h-.1v.051H170.5v.052h-.1v.051h-.052v0H170.3v.051h-.1v.052h-.1v.051h-.1v.051h-.051v.052h-.052v.051h-.051v.051h-.051v0h-.1v.051h-.1v.052h-.051v.052h-.1v.051h-.1v.1h-.1v.052h-.051v.051h-.052v.05h-.051v.052h-.052v.1h-.051v.051h-.052v.052h0v.615h-.051v.052h-.051v.051h-.052v.051h-.051v.052h-.051v.052H168.6v0h-.051v.05H168.5v.052h-.051v.052H168.4v.1h-.05v.052h-.1v.051h-.1v.052h-.1v.1h-.051v.052h-.052v.051h-.051v.052h-.052v.051h-.205v.051h-.1v.052h-.1v.051h-.052v.052h-.051v.051h-.051v.052h-.051v.051h-.051v.051h-.052v.2h-.051v.052h0v.154h-.052v.052h.052v.1h.051v.1h.052v.154h-.052v.154l-6.869-10.765-3.331-1.692-1.845-.922-2.1-4.818-2.613-5.9-.462-1.026-4.254-9.637v-.051l-9.893-16.61.1-.306.051-.1.359-1.076.2-.667c.309-1.025.63-1.965.975-2.973l.2-.615.1-.411.1-.306c.725-2.194,1.447-4.433,2.152-6.613l.205-.616.155-.512.2-.615c1.884-5.86,3.821-11.717,5.69-17.583l.153-.41v-.051l11.02-1.538,11.585-1.692,3.588-.512,1.281-.154-.256.717m49,16.609v0Zm.1.257v0Zm-.051.154v0Zm-.82,1.385v.255h-.052v.154h-.051v.052h-.1V154.4h-.1v-.051h.051V154.3h0v-.051h.052v-.154h.051v-.051h.052v-.051h.051v-.051h.052v.051ZM209.3,157.374h.051v.051h.205v.257h.052v.153h.052v.1h-.052v.051h-.1v-.051h-.051v-.051H209.4v-.051h-.051v-.051H209.3v-.051h-.052v-.257h0v-.051h.052Zm2.358.257v.1h-.052v.153h-.051v.205h.051v.1h-.051v.1H211.5v-.411h0v.1h.052v-.153h.051v-.153h.052v-.051Zm-2.511.2v.051H209.1v0h.052v-.051h0v0Zm2.511.1v0Zm-.052.051v0Zm-.051,0h.051v.1h-.051Zm.2.051h0Zm-.052.052h.052v.154h-.052v.154h-.051v-.359h.051v.051Zm-.154.256v0Zm-.051.052v0Zm.205,0h0Zm-.257.205v0Zm-.306.2v.051h.051v.051h-.051v-.1h0Zm-1.8.614v.1H209.3v-.051h.051Zm-.051.155v0ZM200.841,176.8h.052v.051h-.052Zm1.333,19.48v.051h0v.051h-.1v-.051h.051v-.051ZM169.984,219.2v.052h0Z"/><path d="M233.134,100.391h.051v.155h.052v.051h.051v.1h.051v.1h.052v.256h.051v.1h0v.05h.052v.1h.051v.1h.052v.052h.051v.051h.051v.051h.052v.051h.051v.051h.051v.051h.1v.052H233.9v-.052h-.051v-.051h0v.051h.051v.052h.052v.051h.154v.1h-.052v.1h.052v.154h.051v.1h.051v.1h.051v.1h.052v.1h.051v.1h.051v.1h.052v.1h.051v.154h.052v.1h.051v.1h.052v.051h0v.051h.051v.051h.051v-.051h.052v.1h.1v.051h.052v.052h.154v.051h.052v-.051h.153v0h.154v.051h.052v.051h.2v.05h.051v.052h.051v.154h.052v.154h.051v.1h.051v.154h.052v.1h.052v.051h.051v.051h.051v.1h.052v.051h.051v.051h.051v0h.308v.051h.051v.051h0v.052h.051v.05h-.051v.155h.051v.2h.052v.051h.051v.1h.1v.1h.1v.051h.051v.051h.1v.052h.051l.052-.052h.051v.052l-.051-.052v.1h.051v.051h.1v-.1l.051.051h0l-.051.051v.051h.1v.051h.051v0h0v.052h.052v0h.052v0h0v.051h.1v.1h.051v.051h.052v.051h.051v-.051h.051v-.051h.052v-.051h.052v0h-.052v.051h-.052v.051h-.051v.051h0v.051h.051v.051h.052v.051h.052v.051h.051v.052h.051v.051h.1v.051h.051v.052h.052v.1h.1v.052h.052v.051h.052v.051h.051v.051h.051V107h.052v.052h.1v.051h.052v.051h.051v.052h.1v.051h.052v.051h.051v.051h.051v.051h0v.1h-.051v.052h.051v-.1h.052v-.051h.1v.051h.1v.051h.1v.051h.052v.051h.052v.051h.1v.052h.1v.051h.051v.051h.051v-.051h.257v.051h-.051v-.051h-.155v.1h.1v0h.052v.051h-.052v.052h.052v.051h.051v.051h.1v.052h.051v.1h-.051v.1h-.1v-.051h-.051v-.052h-.051v.052h-.155v-.052h-.051v.052h-.051v.051h-.052v-.051h.052v-.1h.051v-.051h.051v-.1h.052v-.051h-.1v.051h-.051v.051h-.051v.051h-.052v.051h-.051v.051h-.051v.052H239.7v.1h.154v.052h-.051v.051h-.1v.051h.2v.05h-.051v.052h-.051v.1l.051-.051h.051v-.1h.1v-.05h.205v.05h.052v.1h-.052v0h.052v-.1h0v-.05h-.052v-.051h.2v-.051h.052v-.052h.051v-.1h-.051v-.1h.051v-.1h.154v.052h.051v-.052h.051v.052h.923v.051h.052v.051h.512l.051.051h.717v.051h.205v.051h.1v0h.1v.052h.1v.051h.154v.051h.1v.05h.1v.052h.051v0h.052v0h.051v0h.051v.051h.154v.051h.051v-.051h.1v.051h.205v.052h.256v.051h0V109h-.051v.052h-.051v.051h.051v.1h-.154v0h.1v.1h-.051v.051h-.052v.051h-.051v.051h-.051v.052h-.052v.2h.052v0h.051v.051h.1v.052h.051v.05h0v.051h.154v0h.052v-.1h.051v.05h0v.051h-.051v.051h0v.1h-.1v.051h.052v-.051h.052v0h.051v.051h.1v0h.1v0h.1v-.051h.1v-.051h.1v-.052h.051v0h.051v-.051h.1v-.051H245.7v-.05h-.052l-.051-.052h-.155v0h-.1v-.051h-.052v-.051h-.051v-.1h-.051v-.1h0v-.051h-.051v-.051h-.051v-.052h-.052v-.051h-.051v-.051h-.052v-.051h-.051V109.1h-.052v-.051h.1V109h0v-.1h.1v0h-.051v-.1h.051v.051h.2v.051h.206v.051h0V109h.051v.052h.052v.051h.051v.051h-.051v.052h0v-.052H245.5v.052h.1v.051h.051v-.1H245.6v0h.1v.1h.051v-.051h.052v.051h.257v-.051h.051v-.051h-.051V109.1h.051v-.051h-.051V109h-.411v.052h.052v.051h-.1v-.051h0v-.1h-.051V108.9h.155v-.051h.154V108.8h.154v-.051h.358v.051h.052v.051h.051v.051h-.051v.206h.051v.154h.051v.2h.052v.154h.051v.1h.051v.051h.1v.051h.051v.051h.052v.051h0v.051h.051v.154h.051v.1h.052v.052h.051v.1h.052v.2h.051v.2h0v.1h.052v.255h.051v.052h.051v.2h0v.051h.052v.1h-.052v.051h-.051v.051h-.1v.1h-.051v.051h-.052v.257h-.052v.154h-.051v.1h-.051v.461h.051v.1h.051v.051h.052v.257h-.052v.154h-.051v.154h-.051v.359h.051v.051h.051v.051h.052v.051h0v.308h-.052v.052h.052v.256h.052v.154h-.052v.153h-.052v.154h-.051v.2l-.051.051h0v.155h-.052v.154h-.051v.512h0v.051h-.051v.154h.051v.051h-.051v.051h-.1v.052h-.051v.051h-.052v.051h-.1v.052h-.051v.051h-.052v.051h-.051v.051h-.051v.051h-.051v.051h-.051V117h-.052v.051h-.051v.051h-.052v.051h-.051v.051h-.052v.1h-.051v.154h.1v.051h-.052v.051h-.051v.1h-.051v.1h-.052v.051H245.7v.051h-.052v.052H245.6v.1h-.051v.052h-.1v.051h-.051v.052h-.051v.051h-.052v.051h-.051v.051h-.051v.1h-.051v.051h-.052v.1h-.051v.051h0v.1h-.051v.1h-.052v.051h-.051v.1h-.052v.051h-.051v.051h-.051v.051h-.052v.1h-.051v.1h-.052v.154h-.051v.052h-.051v.051h-.052v.051h-.051v.052h-.052v.051h-.051v.05h-.052v.051h-.051v.052h-.051v.051h-.051v.051h-.051v.1h-.052v.1h-.051v.1h-.051v.051H243.8v.2h-.052v.154H243.7v.307h.051v.051h.052v.051h0v.1h-.052v.2H243.7v.2h-.051v.154H243.6v.1h-.051v.051h-.051v.1h-.052v.051h.052l-.052.052h0v.2h-.051v.1h-.051v.1h-.052v.052h-.052v.1h-.051v.155h-.051v.1h.051v.051h.051v.052h.052v.1h.052v.206h-.052v.1h-.052v.1h-.051v.1h-.051v.051h-.052v.051h-.1v.052h-.052v.051h-.051v.051h-.1v.051h-.052v.051h-.051v.051h-.051l-.052.052h-.051v.051h-.051v.051h-.052v.052h-.052v.051h-.051v.1h-.051v.051h-.052v.052h-.051v.051h-.051v.051h-.052v.1H242v.051h-.051v.1H241.9v.051h-.05v.1H241.8v.051h-.051v.051H241.7v.1h-.051v.051h-.052v.1h-.051v.154h.051v0h-.1v.051h0v.1h.051v.052h.051v-.155h.052v0h-.052v.206h.052v.153h-.052v.051h-.051v.051h-.051v.051h-.052v.051h-.051v.051h-.052v.052h-.051v.051h-.1v.051l-.051.052v.051h-.052v.051h-.051v.051h-.052v.051h-.051v.052h-.051v.051h-.052v.1h-.051v.051h-.051v.051h-.051v.052h-.051v.051h-.052v.051h-.051v.05h-.052v.052h-.051v.051h-.052v.051h-.051v.052l-.051.051v.051h-.052v.051h-.051v.051H240.1v.052h-.052v.1H240v.052h-.051v.051H239.9v.1h-.052v.051H239.8v.1h-.051v.1h-.052v.154h-.051v.1l-.051.051v.154h-.051v.308h.051v.051h.051v.257h-.051v.154h-.051v.1h-.052v.1h-.051v.1h-.051v.052h-.052v.1h-.051v.051h-.051v.1h-.052v.051h-.051v.1h-.052v.1h-.051v.1h-.052v.154h-.051v.154h.051v.051h.052v.155h-.052v.1h-.051v.1h-.051v.051h-.052v.1h-.051v.1h-.051v.1h-.052v.051h-.052v.1h-.051v.051l-.051.051v.051h-.051v.051h-.051v.052h-.052v.051h-.051v.1h-.051v.1H238.2v.1h-.051v.154H238.1v.154h-.051v.1H238v.051h-.051v.155H237.9v.1h-.052v.051h-.051v.051h-.051v.1h-.052v.1h-.052v.051h-.051v.051h-.051v.051h-.052v.1h-.051v.051h-.05v.052h-.052v.1h-.051v.154h-.051v.2h.051v.051h-.051v.052h-.052v.051h-.052v.051h-.051v.051h-.051v.1h-.052v.051h-.051v.1h-.051v.05h-.052v.052l-.052.051v.052h-.051v.051h-.051v.051h-.052v.1h-.051v.051h-.051v.052h-.052v.1h-.051v.206h-.052v.205h.052v.051h.1v.051h.051v.051l.052.052h-.052v.153h-.051v.052h-.051v.1H236.4v.052h-.1v.051h-.051v.051h-.1v.051H236.1l-.052.051h-.1v.051h-.1v.052h-.051l-.052.051h-.051v.051h-.154v.052h-.1v.051h-.1v.051h-.1v.051h-.1v.051h-.1v.052h-.1v.051h-.1v.051h-.1v.051h-.154v.051h-.1v.051h-.1v.051H234.2v.051h-.153v.051h-.1v.051h-.154v.052h-.1v.051h-.154v.051h-.1v.052h-.1l-.051.051h-.1v.051h-.1v.051h-.1v.051h-.1v.052h-.051v.051h-.052v.051h-.1V138h-.052v.051h-.051v.051h-.052v.052h-.051v.051H232.4v.051h-.1v.052h-.051v.051H232.2v.05h-.052v.051h-.1v.052h-.051v.051h-.052v.051h-.051v.051l-.051.051h-.051v.051h-.052v.052h-.051v.051h-.1v.051h-.052v.051h-.1v.051h-.052v.052h-.051l-.051.051h-.052v.051h-.052v.052h-.051v.051h-.051v.051h-.052l-.051.051h-.051v.051h-.052v.051h-.05v.052h-.1v.051h-.052v.051h-.051v.05h-.051v.052h-.1v.051H230.4v.051h-.051v.052H230.3v.051h-.052V140H230.2l-.051.051h-.052v.051h-.051v.052h-.051v.051h-.1v.051h-.051v.051h-.052v.051h-.051v.051h-.051v.052h-.051v.051h-.052v.051h-.051v.051h-.1v.052h-.051v.051h-.051v.051h-.052v.051h-.052v.052h-.051v.05h-.051v.051h-.052v.051h-.051v.1h-.051v.051h-.052v.051h-.052v.051h-.051v.051h-.051v.052h-.052v.051h-.051v.051H228.6v.052h-.051v.051H228.5v.1h-.052v.1H228.4v.051h-.052v.051H228.3v.052h-.051V142h-.052v.1h-.051v.05h-.052v.051h-.051v.051h-.051v.1h-.052v.1h-.051v.051h-.052v.051h-.051v.1h-.051v.051h-.052v.051h-.1v.051h-.051v.052h-.051v.051h-.051v.051h-.052v.052h-.051v.051h-.052v.051h-.1v.051h-.052v.051h-.051v.051h-.1v.052h-.052v.05h-.051v.051h-.051v.051h-.052v.052H226.7v.051h-.052v.051H226.6v.051h-.051v.051H226.5v.051h-.051v.1H226.4v.052h-.051v.1h-.052v.052h-.051v.051h-.051v.051h-.052v.051h-.051v.051h-.051v.1h-.052v.051h-.052v.051h-.051v.052h-.051v.05h-.052v.1h-.051v.051h-.051v.051h-.052v.051h-.052v.1h-.051v.051h-.051v.051h-.052v.051h-.051v.052h-.05v.051h-.052v.051h-.051v.1h-.051v.051h-.052v.1h-.052v.1h-.051v.051h-.051v.1h-.052v.051h-.051v.1H224.8v.1h-.052v.052H224.7v.1h-.051v.1H224.6v.051h-.052v.1h-.051v.051h-.051v.1h-.052v.051h-.051v.1h-.051v.051h-.052v.1h-.052v.052h-.05v.05h-.051v.1h-.052v.1h-.051v.1h-.052v.359h-2.307l.1-2.358c.139-3.807.369-7.638.512-11.431l-.871-6.357,2.358,1.487,2.869,1.846,1.282-1.282.718-4.46.05-.1-.819-2.973,1.23-.975,1.179-.973-1.589-3.127-.1-1.589-.1-2.2-1.487-2.154.769-.614,2.255-1.487,1.436.462.1.666.973.308.154-.564v-.051l.206-.616-.052-1.692-1.23-1.383-.1-.154-1.282-2.051-.768-.564-.1-1.076-.051-1.179,2.152.614,1.691-1.281m1.384,2.665v0Zm.616.565v0Zm9.534,5.177h0Zm1.076.359v0Zm-.922,0h.051v.154h-.051Zm.409.565v0ZM226.184,154.45v0h.307v.05h.051l.052.051h.051v.052h.051v.41h-.051v.2h-.051v.154h-.052v.257h-.051v.255h-.051v.256h-.051v.257h.051v.205h.051v.155h.051v.1h.052v.154h.051v.051h.051v.051h.052v.051h.1v.051h.1v.052H227v.051h.052v.052h.2v.1h0v.257h-.052v.1h.052v.1h.052v.052h-.052v.255h.052v.1h.051v.051h.051v.154h.052v.1h.1v.051h.2v.051h.052v.051h0v.1h-.052v.051h-.051v.051h0v.051h-.051v.051h-.052v.052h-.051v.051h0v.051h-.051v.1h-.154v.051h-.1v.051h-.1v.051h-.052v.051h-.154v.051H226.9v-.051h-.051v.051h-.1v.051h-.1v.051h-.1v.155h-.051v.051h-.1v.051h-.1v.051h-.154v.051h-.051v.052h-.1v.051h-.1v.051h-.1v.051h-.051v.051h-.1v.052h-.052v.051h-.1v.051h-.052v.051h-.1v.052h-.1v.1h-.1v.051h-.051v.1h.051v.052h-.051v.051h-.1v.051H224.9v.051h-.052v.051H224.8v.051h-.051v.052H224.7v.1h-.051v.154h-.052v.1h-.051v.154h.051v.2h-.051v.154h-.052v.051h-.051v.051h-.051v.154h-.052v.1h-.051v.051h-.052v.052h-.051v.1h-.051v.052h-.051v.051h.051v.051h.051v.051h-.051v.155h.051v.1h-.051v.1h-.051v.1h-.051v.052h.051v.051h-.051v.154h.051v.052l-.051.051h-.052v.1h-.051v.051h-.051v.1h-.052v.051h-.052v.1h-.051v.051h-.051v.051h-.052v.256h.1v.051h-.1v.051h.052v.1h.051v0h.051v.1h0v.051h0v.052h-.051V164.8h-.051v.052h-.052v.051h-.051l-.051.051h-.1v.051h-.051v.1h-.052v.052h-.154v.051H223.1v.051h-.051v.051h-.1v.051H222.9v.051h-.1v.052h-.051v.1h-.052v.153h-.1v.1h-.052v.1h-.051v.1h-.051v.1h-.052v.205h-.1v.052h-.051v.051h-.1v.051h-.1v.1h-.153v.052h-.052v.051h-.1v.051h-.1v.051h-.154v.051h-.1v.051h-.1v.051h-.1V167H221.1v.1h-.051v.052h.051v.1H221v.1h-.052v.051H220.9v.051h-.255v0h-.052v.051h-.1v.051h-.052v.052h-.051v-.154h-.051v-.1h0v-.205h-.052v-.052h-.052v-.154h.052v-.1h.052V166.7h-.052v-.1h-.052v-.051h.1v-.154h-.052v-.052h.052v-.051h-.052v-.051h-.051v-.1h-.052v-.051h0v-.155h-.051v-.256h.051v-.2h-.051v-.052h-.051v-.051h.051v-.051h0v-.2h-.051v-.256h.051V164.8h.051V164.6h-.051v-.1h.1v-.153h.051v-.565h-.051v-.205h.051v-.154h-.051v-.1h.051v-.2h.1v-.051h.052v-.1l.051-.052v-.051h.051V162.8h.1v-.1h.051v-.154h.1v-.1h.052v-.155h.1v0H221v-.051h.052v-.051h.1v-.051h.052v-.052h.051v-.051h.1v-.051h.052v-.051h.051v-.2h-.051v-.1h.051v-.1h.052v-.051h.1v-.051h.052v-.051h.1v-.052h.052v-.1h.051v-.155h.1v-.051h.052v-.051h.051V160.9h.052v.051h.051v.051h.051v.051h.052v.1h.051v.052h.051v0h.052v-.052h.308v.052H223v-.052h.051v-.051h.05v-.1h.1v0h.051v-.051h.1v-.1h.051V160.8h.052v-.051h.051V160.6h.052v-.051h-.052V160.5h.052v-.205h.051v-.052h-.051v0h.051v-.051h.1v-.1h.051v-.1h-.051v-.154h-.052v-.308h.052v-.153h.051v-.308h0v-.307h.051v-.1h.052v-.1h.051v-.1h.051v-.1h.052v-.051h.052v-.051h.051v-.1h.05v-.1h.052v-.051h.051v-.052h.051v-.051h.052v-.1h.051v-.1h.051v-.2h.052v-.1h.052l.051-.051h.051v-.155h.052v-.051h.051v-.1h.051v-.052h.052v-.052h.051v-.05H225v-.1h.052V156.7h.052v-.051h.1V156.6h.1v-.052h.05V156.5h.051v-.051h.1v0h.051v-.1h0v-.359h-.051v-.1h.051v-.153h.052v-.1h-.1v-.051h.051v.051h.052v.051h.051v-.1h.052v-.2h-.1v-.052h0v.052h.1v-.052h0v-.051h0v-.051h.051v-.052h-.051v0h.051v-.154h.051v-.257h-.051v-.1h-.051V154.6h.051v-.051h.154V154.5h.051v-.05h.1V154.4h.051v.052h.052Zm-1.231.2v0Zm-.667,1.743v.1h-.051v.1h-.052v.051l-.05.051v.052h-.051v.051h-.052v.051h0v.051h-.1v.051h-.206v-.1h.051v-.051h.052v-.051l.052-.052v-.051h.051V156.6h.051v-.051h.052V156.5h.051v-.051h.051V156.4h.051v-.051h.1Zm2.923.82v.051h0Zm-4.2,2.768v.2h.051v.051h.05v.052h-.05v.1h-.051v.051h-.1v.051h-.051v.051H222.8v.051h-.052v-.359h.052v-.051h.051v-.2l.051-.052v-.1h.052v-.051h.051v-.051h0v.1h-.051v.051h.051v.051h-.051v.052h.051Zm-.616.667h0Zm-.051.052h0v0Zm-.257,0h0Zm.1.1v.051h0Zm-.051.051v0Zm.205.155h0Zm-2.1.973v0Zm-.461.975h.051v.051h-.051Zm.358,1.435v.051h-.052l.052-.051h0Zm.051,2.563v0Zm.154.616h0Z"/><polyline points="215.503 92.496 216.271 93.111 216.784 92.65 218.014 92.394 218.27 92.702 219.04 93.727 219.091 93.778 219.398 93.932 220.013 93.829 219.962 93.778 219.962 93.675 219.911 93.573 220.013 93.573 220.423 93.47 220.577 93.47 220.73 94.035 222.423 93.984 223.191 93.932 223.448 95.88 223.499 96.187 225.549 97.469 225.806 97.777 226.626 98.648 227.24 99.314 227.6 99.724 227.856 100.237 228.214 100.801 229.29 101.057 229.341 102.236 229.445 103.313 230.214 103.877 231.495 105.927 231.597 106.081 232.827 107.465 232.879 109.157 232.674 109.772 232.674 109.823 232.521 110.387 231.546 110.08 231.444 109.413 230.009 108.952 227.753 110.439 226.985 111.054 228.47 113.206 228.573 115.41 228.676 117 230.265 120.127 229.086 121.101 227.856 122.075 228.676 125.048 228.624 125.151 227.907 129.611 226.626 130.892 223.754 129.047 221.398 127.56 222.269 133.917 222.269 134.224 222.218 134.429 222.218 135.351 221.909 141.862 221.756 144.784 212.325 135.762 211.095 135.967 210.582 136.07 211.709 140.478 207.097 142.067 206.994 142.118 206.532 139.248 205.969 135.454 205.815 134.378 205.815 134.327 206.789 132.993 205.764 130.021 205.713 129.918 203.969 129.918 203.969 129.456 204.328 128.996 204.687 128.483 203.969 127.201 202.74 124.792 201.51 121.921 201.407 121.818 199.92 120.281 199.766 120.127 199.152 120.383 198.536 120.588 197.511 120.844 197.255 120.076 198.229 118.076 199.357 116.794 203.098 112.438 203.098 111.72 201.971 110.285 203.047 107.619 203.047 106.543 204.38 105.056 204.739 103.979 205.046 103.108 204.38 102.544 204.226 102.39 204.174 102.39 204.226 102.39 204.995 101.98 205.302 101.416 204.892 100.955 205.097 100.698 204.687 100.186 204.123 99.11 204.021 98.135 205.558 98.494 205.713 98.699 206.02 98.494 206.02 98.084 207.097 97.418 208.429 97.418 208.737 97.213 209.454 96.7 209.813 96.547 210.223 96.444 210.429 96.547 211.863 96.29 212.325 95.572 212.581 95.47 213.196 95.265 213.247 95.265 213.35 95.214 213.401 95.214 214.016 95.06 214.016 95.008 214.067 94.803 213.709 94.65 213.658 94.546 213.606 94.495 212.991 94.29 212.888 93.47 212.991 92.856 213.042 92.548 213.862 92.496 214.375 92.343 214.375 92.291 215.143 91.778 215.503 92.496"/><polyline points="209.556 86.037 209.608 86.088 209.864 86.037 210.171 86.037 210.376 86.088 210.53 86.088 210.582 86.14 210.838 86.499 210.889 86.499 210.684 86.703 210.838 87.319 211.504 87.933 212.222 88.549 212.017 89.369 212.785 90.036 212.632 90.241 212.888 91.164 213.042 91.215 213.35 91.266 213.657 91.625 213.247 91.727 213.503 92.189 213.862 92.497 213.042 92.548 212.991 92.855 212.888 93.47 212.991 94.29 213.606 94.495 213.657 94.546 213.708 94.65 214.067 94.803 214.016 95.008 214.016 95.06 213.4 95.214 213.35 95.214 213.247 95.265 213.196 95.265 212.58 95.469 212.324 95.572 211.863 96.29 210.427 96.547 210.222 96.444 209.813 96.547 209.454 96.699 208.737 97.213 208.429 97.418 207.096 97.418 206.019 98.084 206.019 98.494 205.712 98.699 205.558 98.494 204.021 98.135 204.123 99.109 204.687 100.186 205.097 100.698 204.892 100.955 205.302 101.416 204.995 101.98 204.226 102.39 204.174 102.39 204.226 102.39 204.38 102.544 205.046 103.108 204.738 103.979 204.38 105.056 203.047 106.542 203.047 107.619 201.971 110.284 203.098 111.72 203.098 112.438 199.356 116.794 198.228 118.076 197.255 120.076 197.511 120.845 198.536 120.588 199.151 120.383 199.766 120.127 199.92 120.28 201.406 121.818 201.509 121.921 202.739 124.792 203.969 127.201 204.687 128.483 204.328 128.995 203.969 129.456 203.969 129.918 205.712 129.918 205.763 130.021 206.789 132.993 205.814 134.327 205.814 134.378 205.968 135.454 206.532 139.248 206.993 142.118 205.968 143.246 205.148 149.654 193.154 147.296 185.209 145.758 172.036 141.196 172.497 139.71 173.676 135.557 173.932 134.839 173.932 134.429 175.675 117 175.675 116.692 175.726 116.538 177.161 114.898 177.213 114.693 177.264 113.617 177.52 110.181 177.52 110.131 177.469 110.08 176.803 109.208 176.905 108.644 177.11 107.619 177.264 107.003 178.34 105.978 178.75 105.619 179.724 104.748 181.98 104.543 182.391 104.543 182.391 103.672 179.827 101.314 179.468 100.955 180.493 100.237 180.903 99.109 181.006 97.674 181.057 97.572 181.057 97.161 180.442 96.802 180.903 95.982 180.903 95.931 181.006 95.777 181.365 95.06 181.263 94.957 180.801 94.341 180.801 93.829 181.518 94.188 181.518 94.085 181.468 93.419 184.132 92.702 184.132 91.625 185.26 90.856 185.722 90.856 186.593 91.523 188.336 91.523 188.387 92.138 189.874 93.162 191.155 93.676 192.232 93.881 192.487 94.136 192.949 94.239 193.718 93.881 193.82 93.676 193.871 93.47 194.691 93.522 195.05 93.624 195.87 93.778 196.178 94.136 196.383 93.984 196.64 94.085 197.716 94.188 197.921 94.136 198.792 93.932 198.741 94.65 199.1 95.008 199.613 95.008 200.381 94.341 201.048 92.702 201.15 92.138 202.022 91.625 202.227 90.804 201.868 90.548 201.971 90.241 202.381 89.831 202.637 89.78 203.201 89.164 203.201 88.908 203.406 88.806 203.508 88.498 203.406 88.036 203.559 87.114 204.687 86.754 206.071 87.216 206.481 86.191 206.43 85.269 206.481 85.269 206.839 85.217 206.839 84.961 208.634 85.012 209.043 85.012 209.095 85.935 209.403 85.986 209.556 86.037"/><path d="M207.763,76.605v.052h-.052v-.052h.052m-.308,0v.052h0v.05h.051v.051h-.257v-.051h-.05v-.05h.1v.05h.1v0h0v-.05h.051v0H207.4v-.051h.052Zm.154.052h0Zm-.051,0h-.052v0Zm-.206,0v0Zm-.306.05h.051v0Zm.358,0h0Zm-.461,0v0Zm.564,0v0Zm-.512,0v0Zm.1.051v0Zm0,0v.051h-.154v-.051H207v0h.051v0Zm-.462,0h-.051v.051h.051v0h.052v.052h-.257v-.052h.154v-.051Zm.155,0v.051h-.051v-.051h.051v0Zm.1.051h0Zm2.05.411v0h-.051v0Zm.1-.051v0l-.052.051v-.051Zm-4.665.051h.1v.051h-.052v0h-.051V77.22h0Zm.359.051h0Zm-.051,0h0Zm-10.252.41v.052h.052v.051h.1v.051h.1v.05h.154v.052h.1v.051h.1v.051h.153v.051h.051v-.051h0v.051h0v.051h.051V78.09h.052v.051h.1v.051h.1v.052h.1V78.3h.1v.051h.154V78.4h.155v.051h.2V78.5h.256v.052h.155V78.6h.154v.052h.1v.051h.206v.051h.2v.051h.256v.051h.308v.051h.359v.052h.512v.051h.616v-.051h.256v-.052h.154v-.051h.1v-.051h.1v-.051h.1v-.051h.1v-.051h.1v.051l-.052.051h.052v.154h-.052v.051h.1v.1h.051v.1h.051v.051h.052v.1h.051v.051h.051v.051h.052v.052h.051v.051h.052v.051h.1v.051h.052v.051h.1v.052h.052v.051h.1v.051h.1v.052h.051v.051h.1v.051h.051v.051h.1v.051h.1v.051h.1v.052h.1v.051h.1v.051h.154v.05h.2v.052h.359v.051h1.589v-.051h.359v-.052h.614v-.05h1.179v.05c.049.7-.137.617-.154,1.333l-.051.668.513.051.256.1-.051.051-.052.257v.1l.205.308-.051.154-.051.155-.154.615-.052.153-.052.308.052.359v.257l-.359.051h-.052l.052.922-.41,1.026-1.384-.462-1.128.359-.154.922.1.462-.1.308-.2.1v.255l-.563.616-.257.051-.411.411-.1.306.359.257-.205.82-.871.513-.1.564-.666,1.64-.769.667H199.1l-.36-.359.052-.717-.871.2-.205.051-1.077-.1-.257-.1-.2.153-.307-.358-.82-.155-.359-.1-.82-.051-.052.2-.1.2-.77.358-.461-.1-.257-.256-1.076-.2-1.281-.513-1.486-1.025-.051-.616H186.6l-.871-.666v-.768l-.41-.052-1.332-.257.409-.974-.717-.974-1.128-.974.308-.41,1.025-.41.564-.564-1.231-.974,1.128-.615,2.922-1.589,1.845-.922,2.153-.256h.1l.359.307.153.051.821-1.077,1.025-1.025.2-.307.1-.2.052-.051h.052v-.1l.051-.051.051.051v-.1l.052.052.051-.052v-.1l-.051-.051h-.052V78.4h-.051v-.052l.154-.256v-.409h.051v-.1h.052v.1Zm5.485.666h0Zm.257.052h.051v.051h-.051Zm-.052.051v0Zm.2,0V78.5h.205v.051h-.051v0h-.1v0h.051V78.5h-.154V78.45Zm-.051,0v0Zm-.205.051h.051v.051h-.051V78.5h0Z"/><path d="M168.4,49.333v.206h.052v.154h.052v.255h.051V50.1h.051v.154h.052v.205h.051v.154h.051v.1h.052v.1h.052v.154h.051v.155h.051v.1h.051v.2h.052v.154h.051v.155h.051v.1h.052V51.9h.051v.154h.051v.1h.052v.154h.052v.153h.051v.1h.051v.1h.052v.1h.051v.051h.051v.052h.052v.051l.051.051v.051l.052.051v.1h.051v.1h.052v.1h.051v.052h.051v.1h.051v.1h.052V53.8h.051v.154h.051v.205h.052v.1h.052v.154h.051v.2h.051v.257h.051v.1h.052v0h0v.257h.051v.154h.051v.1h.052v.154h.051v.1h.052V55.9h.051V56h.051v.1h.052v.1h.051v.052h.052v.1h.05v.154h.051v.1h.052v.1h.051v.1h.051v.1h.052v.1h.052v.051h.051v.1h.051v.1h.052v.1h.051v.1h.051v.1h.052v.1h.052v.1h.051v.1l.051.051v.1h.052v.1h.051v.1h.051v.1h.052v.051l.051.051v.051h.051v.1h.051v.1h.051v.052h.052v.1h.051v.051l.052.052v.051h.051v.1h.051v.051h.052v.051h.051v.1h.052v.051h.051v.1h.052v.051h.051v.1h.051v.1h.052v.051h.051v.051h.051v.1h.052V60h.051v.1h.052v.051h.051V60.2h.052v.051h.05v.1h.052v.051h.051v.051h.051v.051l.1-.051v-.051h-.051v-.051h0v.051h.051v.051l.1-.1h.052l.1-.051v0l-.1.051-.1.1h.051v.051h.052v.051h.051v.051l.052.052v.051h.051v.051h0l-.051.052-.052-.052-.051-.051v-.051h-.052V60.61h-.051v-.1h-.052v-.052l-.1.1.051.051v.051h.051v.051h.052v.052l.051.051.052.051v.052h.051v.051l.052.051v.051l.051.051v.051H174v-.051h.1v-.051h.051v-.1H174.1v-.051l.051.051v-.1l-.051-.051v-.051h-.052v-.052l.052.052v.051l.051.051v.257h-.1v.2h.051v.154h.052v.051l.1-.051.052-.051.051-.052v-.051l.052.051-.052-.051v.051H174.3v.052h-.052l-.051.051v.051h0v0h.051v-.051h0v.051H174.2v.1h.051v-.051h.052v-.052h.051v-.051H174.3v0h.051v.051H174.3v.052h-.052v.1h.052v.052h.051v.051h.052v.051h.051v.051h.051v.051h.051v.052h.051v.051h.052V62.1h.051v.052h.051V62.2h.052v.051h.052V62.3h.051v.051h.051V62.4h.052v.051h.051v.051h.051v.051h.052v.051h.051v.052h.051v.051h.052v.051h.052v.051h.051v.051h.051v.052h.052v.051h.1v.051h.052v.052h.1v.051h.051v.051H176v.051h.051v.051h.052v.1h.051v.1h.051v.1h.052v.051h.051v.1h.051v.051l.052.052v.051h.052v.051h0v.051h.051l.051.051h.051v0h-.051v.051h.051v.1h.051v.051h.051v.1h.051V64.4l.052.051V64.5h.051v.051l.051.052v.051h.052v.051h.052v.1h.051v.051h.051v.051h.052v.1h.051v.052l.051.051v.051h.052v.051l.052.051v.051l.051.052v.051l.051.051h.052v.1h.051v.051h.051v.1h.052v.051h.051v.1h.05v.051h.052v.1h.051v.1h.052v.051H178v.1h.052v.051h.051v.1h.051V66.5h.052v.1h.051v.1h.051v.051h.052v.1h.052v.052l.051.051v.051h.051v.051h.052v.1h.051v.051h.051v.051h.052v.1h.051v.051h.052v.051h.051v.1h.05v.051h.052v.1h.052v.051h.051v.1h.051v.052h.052v.051h.051v.1h.051v.051h.052v.051h.051v.052h.052v.051h.051v.051h.052v.1h.051v.1h.051v.1h.052V68.7h.051v.1h.051v.1h.052v.051h.052v.1h.051v.1H180v.051h.052v.1h.051v.051h.051v.1h.052v.051h.051v.051h.1v0h-.052v.1h.052v.051h.052v.051h.051v.1h.051v.051h.052v.052h.051v.051h.051v.051h.052v.1h.051v.051h.051v.051h.052v.051h.052v.052h.051v.051h.051v.051h.051v.052h.051V70.6h.052v.051h.051V70.7h.051v.051h.052V70.8h.051v.052h.052V70.9h.051v.051h.052V71h.051v.051h.051v.051h.052v.052h.051v.051h.051v.051h.1v.052h.052v.051h.051v.051h.052v.051h.051v.051h.051v.051h.1v.052h.051v.051h.051v.051h.052v.051h.051v.051h.1v.051h.051v.052h.051v.051h.1v.052h.051v.051h.051v.051h.1v.051h.154v.051h.051v.051h.052v.051h.05v.051h.052v.051h.051v.051h.051v.052h.052v.051h.051v.051h.051v.052h.1v.051h.051V72.8h.052v.051h.051V72.9h.1v.051h.051V73h.1v.051h.052V73.1h.051v.051h.051v.051h.052v.052h.051v.051h.051v.051h.051v.052l.051.051v.05h.052v.051h.051v.052h.052v.051h.1v.051h.051v.051h.052v.051h.051v.051h.051v.052h.052v.051h.051v.051h.1v.052l.052-.052v0l-.052.052h.052v.051h.051v.051h.051v.051h.1v.051h.05v.052h.051v.051h.1v.051h.051v.051h.1v.051h.1v.051h.052v.052h.1v.05h.1v.053h.1v.05h.052l.052.052h.1V74.9h.1v.051h.1V75h.1v.051h.1V75.1h.1v.052h.1V75.2h.1v.051h.154V75.3h.1v.051h.1v.052h.155v.051h.153v.051h.1v.052h.154v.051h.155v.051h.1v.051h.154v.051h.154v.051h.1v.052h.154v.051h.154v.051h.1v.05h.205v.052h.205v.051h.154v.051h.2l.051.052h.1v.051h.154v.051h.1v.051h.155v.051h.154v.052h.154v.051h.154v.051h.153v.051h.205v.051h.257v.051h.154v.052h.154v.051h.155v.051h.255V76.84h0v.1h.1v0h.051v.051h.1v.051h.154V77.1h.2v.051h.206V77.2h.153v.051h.154V77.3h.1v.051h.1V77.4h.154v.051h.1v.051h.154v.051h.154v-.051h.052v-.051h0v.051l-.052.051v.052h.052l.051-.052-.051.052h.051v-.052l.05.052h-.05v.051h.05v.41l-.153.257v.051h.052v.051h.051l.05.051v.1l-.05.052-.051-.052v.1l-.052-.051-.051.051v.1h-.051l-.052.052-.1.205-.1.2-.1.1-1.025,1.025-.82,1.077-.154-.051-.359-.308h-.1l-2.153.256-1.845.922-2.921,1.59-1.128.615-.718-.41-.409.564-.616.153-.257.051-.512-.306-.205-.308.052-.82-.565-.205-.922-.308.1-.2.256-.563-.051-.1-.1-.154-.256.1-.307-.206v.052l-.308.666-.154.051-.257.1.1-.615-.052-.667v-.2l-1.025,1.281-2.562-2.409-1.384.257-.615-1.436-.461-.974v-.051l-.565-.36L171,77.094l-.051-.052-.1-.564-.1-.512v-.051l-.308-.205-.257-.2-.461-.154h-.819l-.36-.308.052-.051.051-.052.358-.358-.255-.2-.1-.1h-.051l-.513-.41.154-.154.616-.564-.2-.359h-.513l-.717-3.127-.82-.513v-.256l-.565-.257.36-.256.2-.308-.513-.256v-.052l.051-.256.257-.2-.205-.924V65.61l1.024-.667.36-.922-1.025-.872h-.872l-.769-.41-.563-2.255h-.051l-.1-.462-.052-.256-.1-.257-.052-.256-.051-.1V59l-.1-.205v-.154l.154-.358.051-.154.564.1.1-.513v-.051a3.238,3.238,0,0,1-.2-1.436v-.052c.214-1.069.518-.874-.256-2l-.052-.1.257-.154.051-.257a4.3,4.3,0,0,1,.051-.974v-.358l.051-.051h.154l.41-.1h.205l.1-.051.307-.051.154-.1.1-.1h.052l.051-.1.1-.052V51.46h.563a4.077,4.077,0,0,0,.462-.308V51.1h.052c.211-.211.317-.6.462-.718l.051-.1-.051-.1h-.052l-.051-.051-.052-.051-.051-.1v-.051l-.051-.051-.052-.1-.051-.052v-.051l-.052-.051v-.052l-.051-.051v-.051l-.052-.1-.051-.052h.513l.1-.051v-.051h.256l.1-.051h.1l.1-.051v.2h.051"/><path d="M161.784,73.12l.563.717.975-.051.153-.1.155-.1.513-.411.871.565,1.384.2h.1l1.486-.052h.052l.513.411h.051l.1.1.255.206-.358.359-.051.05-.052.051.359.308h.82l.461.154.257.2.307.206v.051l.1.512.1.564.051.052.46.359.565.358v.052l.461.974.615,1.435,1.384-.256,2.563,2.409,1.024-1.28v.2l.052.667-.1.614.257-.1.154-.051.308-.666v-.052l.307.2.256-.1.1.154.051.1-.257.564-.1.205.922.308.564.2-.051.82.205.307.512.308.257-.051.615-.155.409-.564.719.41,1.229.974-.563.565-1.026.409-.308.41,1.128.974.717.974-.409.975,1.333.255.41.052v.77h-.461l-1.128.768V92.7l-2.666.718.052.666v.1l-.717-.359v.513l.46.614.1.1-.358.718-.1.154v.052l-.462.819.615.36v.409l-.051.1-.1,1.435-.411,1.128-1.024.718.359.358,2.562,2.358v.872h-.409l-2.256.206-.974.871-.41.359-1.076,1.026-.154.614-.206,1.025-.1.564.667.871.051.052v.051l-.256,3.434-.051,1.077-.052.2-1.436,1.641-.051.154V117l-1.743,17.43v.409l-1.281.154-3.589.513L157.477,137.2l-11.02,1.538.154-.461.154-.41.153-.462c.79-2.467,1.561-4.99,2.41-7.433l.2-.614.154-.513.154-.564c.337-.856.543-1.757.871-2.615l.206-.564c1.031-3.781,1.3-1.5-.616-5.126l-.256-.41c-2.763-4.673-5.486-9.359-8.252-14.046l-.257-.41-.1-.2.1.051V104.9c.048-.79.491-2.029.257-2.665l.1-.2-.1-.2-.1-.206v-.2l.1-.2.051-.2.051-.2v-.257l-.051-.205-.155-.154a6.126,6.126,0,0,1,.052-1.691l.052-.257-.1-.154.1-.2v-.2l-.052-.206v-.2l-.052-.2.052-.154.154-.154.052-.1.1-.1v-.206l-.1-.2v-.2l.051-.154.051-.154c-.122-.769.491-1.277.872-1.9l.154-.153.154-.2.1-.155c.8-1.522,1.656-3.026,2.409-4.562l.1-.154v-.1h.052l.052-.1.1-.205v.051h.052l.1.1h.052v.051h.052l.051.051.871.512,1.743.975,3.588-2.2.2-1.333.564.1.359.051v.513h.205l1.9-1.384-.052.615-.051.461.873-.614.717-.308.564-.2.307-.154.41-.052h.1l.205.1.2.1-.05.36.511.051.565-.257.256-.051h.051l.359-.1.257-.1-.616-1.179.667-.666.154-.718.153-.308-.511-1.23-.769-1.691v-.051l-.41-.871.41-.051.974-.1v-.667l-.051-.1-.462-1.281h.462l.1-.154V76.3l-.307-1.179.205-.306h.051l.2-.052.205-.462-.154-.614.051-.257.155-.256.154-.1h.051l.052.051"/><path d="M171.574,11.553v.1h-.1v0h.051v-.1h.052m.308.2h.1v.051h-.051v-.051Zm.257.462v0Zm-.923,1.845v.1h-.1v-.051h.051v-.051h.051Zm-2.614.41v.1h-.051v.205H168.5v.1h-.052v.1h.051v0h.052v.052h.051v-.052h.052v-.205h.051v0h.051v0h.052v.154h-.052v.1H168.7v.05h0v.1h.154v-.051h.051v-.153h.052v-.051h.051v.1h-.052v.05h.052v.051h-.052V15.3h.052v0h0v-.051h.1v-.051h.05v-.1h.052v-.1h.051v-.1h.051v0h.052v.1h.051v.1h0v.051h-.051v0h-.1v.1l.051.051v.051h-.051v.1h.051V15.5h-.051v.1h-.051v.051h.051v.052h.1v-.052h.051V15.6h.051v-.052h.052V15.5h.052v-.051h.051V15.4h.051v-.052h.052v.1h.051V15.5h.051v-.051h.052V15.4h.051v.051h-.051V15.5h-.052v.1h.052v.1h0v.1h0v.051h.051v.1h.1V15.91h.052v.051h.051v0h.051V15.91h.051v-.1h.051v-.051h.1v.205h-.051v.154h.051v-.052h.1v.052h.051v0h.052v-.1h.154v.051h.052v0h.205v.1h.051v-.051h.051v-.052h.1v-.051h.051v-.051h0V15.91h-.051v-.051h0v-.051h-.1v-.052h-.051v-.1h.051V15.6h-.1v-.051h-.154v-.1h-.1V15.4h-.051v-.052h.051V15.4h.1v.051h.1V15.5h.052v0h.2v-.051h-.051V15.4h.1v-.154h0v-.052h-.051v0h.051v.052h.052v0h.1V15.3h-.05V15.5h-.052v.051h0l.052.051h0v.155h.05v.051h.051v.051h-.051v.154h-.05v.1h.153v.051h.051v-.051h.051v-.052h.052v.052h.051v.154h-.051v.051h-.052v.051h-.051v0h-.051v.051h-.052v-.051h-.051v-.051h-.1v.051h-.052v.051h-.051V16.27h.051v-.1h-.257v.051h-.153v0H170.6v-.051h-.052v.051h-.1v.052H170.4v.051h-.1v.1h-.052v.052h-.05v.1h-.051v-.051h.051v-.051h-.051v-.051h.051v-.051h-.051v0h-.052v.051h-.1v-.051h-.154v.1h-.051v.051h-.051v-.051h-.052v-.051h-.1v.205h.051v.051h.051v.1h.052v.051h0v.1h-.2v-.1h-.052v-.051h-.1v.051h-.1v.1h-.052v-.051h-.1v-.052h-.051v.052h-.052v.051h-.051v.205h.051v.052h.052V17.14h.051v.052h.05v.1h.052v.052h.051V17.4h0v.051h0V17.5h-.2v.1h-.052V17.55h-.1v.1h.1V17.7h.052v.051h.051v0h.05v.051h.052v-.051h.1v.051h-.154v.052h-.05v.051h.05v.051h.052v.051h.051v.052h.051v-.052h.1V17.96h.1v-.051h0v.051h.052v.308h0v.051h.154v-.051h.052v.051h.051v.154h.051v-.051h.052v.051h.1v.051h.051v-.051h.052v0h.051v-.051h.1v-.051h-.051v-.1h.051v0h.1v-.051h-.051v-.1H170.3v-.1h.052V17.96h.051v-.051h.051v.205h.052v.051h.2v.051h.051v-.051h.052v-.051h.051v.2h0v.051h.051v-.051h.1v-.051h.051v.051h-.154v.051h-.1v.052h-.051v.1h-.051v.052h.051v.256h0v.1h.051v.1h.1v.1h0v.052h.051v.1h-.051v.051h.051V19.4h-.051v-.051h-.154v.1h-.1v-.154h.052v-.051h-.052v-.051H170.5V19.14h.051v-.051h.051v-.051h.051v-.052h0v-.154H170.6v-.1h-.052v-.052h-.256v.052h-.052v.1h-.051v.051h0v.052h-.051v.051h-.154v.051h-.051v.051h.051v.052h.052v.052h.051v.051h-.051v.1h-.052v-.052h-.051v-.051h-.154v.051h0v.052h.1V19.4h0v.051h-.052V19.5h.1v.1h-.1v.051h0v.1h.051V19.7h.052v.154h0v.1h-.052v.051h-.051v.05h.051v0h.1v.052h.051v.1h.1v-.1h.051v-.1h.05v-.051h.052v-.051h.052v.153h.051v-.051h.051v.051h.052v-.051h.1v.051h-.051v.051h0v.051h.051v.051h.052v.052h0v.051h0v.2h.1v0h.052v-.051h.052v-.051h.051v.154h0v.1h.051v.052h.052v.051h-.052v0h-.051v0h-.051v-.051h-.052v.051h-.052v.051h-.1v-.1h0v-.052h0v-.051H170.5v.051h-.154v0h-.1v-.051h-.05v-.051h-.051v.1h-.052v.052h-.051v-.1h-.1v.051h0v.052h-.051v-.1h-.052v.051h-.051v.1h-.154v-.051h-.052v-.1h-.051v-.051h-.052v-.052h-.051v0h.051v-.154h-.051v-.1h-.1v.051h-.051V20.27h.051v-.052h0v-.051h.1v-.051h-.052v-.052h0v-.05h-.1v-.1h.051v-.1h.1v0h.051v-.052h0v-.051h-.051v-.051h0v-.1h.051v-.1h-.051V19.4h-.154v.051h-.052V19.5h-.051v.051h-.051v.1h-.1V19.6h-.1v.1h-.1v.1h.051v.051h-.051v.051h0v.1h.051v-.051h.051v.153h-.051v-.052h-.051v.052h-.052v.1H168.7v.1h-.051V20.27H168.6v.051h-.051V20.27h.051v-.1h.052v-.051h0v-.205h.051v-.051h-.051v-.1H168.6v-.051h-.051v-.051h.1v-.051h.051v-.051h-.051V19.5h.1v-.052h.052V19.5h.256v-.052h-.051V19.4h.051v-.051h-.051V19.3h-.052v-.1h-.051v-.052h-.1v0h-.051v-.051H168.7v-.051h-.155v.051H168.5v.051h-.051v.1h-.052V19.2h-.051v-.052h-.051V19.2h-.052v.154h-.1V19.4h-.051v.1h-.052v.1h-.05v.052h.152v.051h.052v.051h-.154v.051h.051v.051h-.051v.052h-.051v0h-.1v.051h-.1v.051h-.1v-.051h-.155v.051h-.051v.05h-.051v.052h-.052v.1h.052v.051h.051v.051h.051v-.051h.052v.154h-.052v.1h.052v.052h-.052v.051h0v.051h.1v-.051h.051V20.58h.052v-.052h.051v-.051h.051v-.1h.052v.052l-.052.051v.051h-.051v.205h-.051v.051h-.051v.051h-.1v.1h.1v.051h.051v.051h-.1v.051h-.052v.155h0v.1h-.052V21.4h.1v.051h-.052V21.5h-.051v.154h.154V21.6h.1v-.051h0v0h.1V21.4h-.051v-.051h.051V21.3h.052v-.052h.051v-.051h.051v-.051h-.051v-.052h.051V21.04h.051v-.051h.052v-.051h.1v0h.1v-.154h.051v-.051h.052v.051h.051v.1h.052v.154H168.5v.051h-.051v.052h0v.1h0V21.3h-.1v.1h.051v.1h-.051v.1h-.051v.051h-.052v0h.052v.1h.051v-.051h.1v.051h.051v.052h0v.051h.052v.051h.051v-.051h.1V21.81h.051v-.052H168.7v-.1h.051V21.6H168.7v-.051h.051V21.5h.052V21.45h.052V21.4h.051v-.051h.051V21.4h0v.2h.052v.052h-.052v.051h.052v0h.051v-.1h.051v-.051h.051V21.5h.1v.1h.051v.051h-.051v.1h.051v.052h-.051v.051h-.051v.051h.051v.1h.051v.052h.052v-.052h.154v-.051h.1v-.051h.051v-.051h.1v-.1h.051v.154h.052v-.051h.1v-.051h.051v-.1h.052v.051h-.052v.051h.154v.051h.1v.051h.051v.052h.154v-.052h.051v-.051h.1v.1h.052v.051h-.1v0h-.1v.051h-.051v.051h-.052v.051h-.1v.052h-.052v0h-.1v.051h-.206v.154h-.051v.1h-.052v.051h0v.051h.052v.051h.051v.052h-.1v.1h0v.052h.051v.1h-.051v-.051h-.1v.051h-.051v-.051l-.051-.051h-.1v.051h.052v.051h-.154v0h-.052v.051h-.052V22.99h-.051v0h-.051v-.051h.051v-.051h0v-.052h-.051v-.051h-.052v.1h-.05v.051h-.051v0h-.052v0h-.051v.051h-.052v.052h-.051V22.99h-.1v.1H168.7v.051h.051V23.2h.1v.051H168.8V23.3h-.052v.051h.052v.1h-.154V23.5h0v.051h.051v0h.1v.051h.052v-.1h.051v-.1h.051v0h.052v-.051h.051v0h.1V23.4h0v.1h.1v0h.051v0h.155v-.051h.051V23.4h.1v.154h-.1v.154h.052v.051h-.052v.1h0l-.051.051h.051v.052h.052l-.052.051h.1v.051h-.052v.1h.052v.051h.051v.1h.051l-.051.051h-.051v-.1h-.052v-.051h-.051v.051h-.052v-.051h-.051v.2h-.052v.051h-.051v0h-.051v-.051h-.052v.051h-.051v.052h.051v.051h.052v.051h-.1v0h-.1v.1h-.052v.1h.153v.051h.052v.051h.051v0h.051v0h.1v.05h.1v-.05h.051v.05h.052v.052h-.052v.1h.052v.051h-.052v.051h-.051v.1h.051V25.5h.052v.051h.1V25.6h.154v-.052h.1v-.1h.051v0h.154V25.4h.1v0h-.052v.052h-.05V25.5h-.051v.051h-.1V25.6h-.154v.051h.052v.205h.051v.052h-.051v0h-.052v-.052h-.1v-.1h-.256v.051h-.051v.1h-.051v-.051h-.052v-.154h-.1v.051h-.051v-.051h-.1v-.051h-.051V25.6h-.052v0h-.1v.051h-.051v.051h.051v.1h-.051v.051h0v.052H168.8v.051h.1v.051h-.051v.1h.051v0h-.051v.255h0v.1h.154v0l.051-.051v.051h.051v.051h.1v.1h-.052v.1h-.05v.1h-.051v.051h-.052v.1h.052v.1h-.052v.154h0v.051h-.051v.052h-.052v.1h-.051V27.5h-.1v.051H168.7V27.5h-.2v-.051h-.1V27.5h-.1v.051h-.052V27.6h.052v.051h-.052V27.7h.155v0h.1v.051h.1V27.8h.051v.154H168.6v.051h-.1v.052h-.154v-.052h-.1v-.051h-.051v0h-.051v.051h-.052v.052h.052v.051h.051v.1h.051v-.051h.052v.051h.1v.051h-.051v.256h-.1v.051h.052v.155h.051v.05h-.051v.052h-.1v0h-.052v-.052h-.051v-.05h-.052v.1h.052v.1h0v.1h-.052v.1h-.05v.1h-.1v-.154h-.051V28.88h-.051v.154h-.1v.051h.052v.2h.051v.1h.051v.1l-.051.051V29.6h-.1v-.051h-.051v.1h.051V29.7h0v.051h-.051v.1h-.052v.1h-.052v.05h-.051v.1h-.051v.051h-.052v.052h-.051v.051h-.1v.051h-.051v.051h-.051v.051h-.052v.052h-.052v.051h-.051v.051h-.051v-.154h.051v-.051h.051v-.051h.052v-.1h.052v-.205h.051v-.05h.051v-.1h.052V29.8h-.052v-.051h-.051V29.8h-.051v.052h-.052v.051h-.052v.051h0v.05h0v.154h-.051v.052h-.051v.051h0v.051h-.1v0h-.052v.051h.052v.051h-.1v.052h-.051v.051H166.6v.051h-.051v.052H166.5v.1h-.051v.052h-.051v.1h-.1v.1h-.051v.051h-.051v.2h-.052v.1h.052v.051h.051v.051h.051v0h.1V31.5h-.052v.051h-.1v.1h.051v.1h.051v.154h-.051v.051h-.052v.051h-.1v.1h-.052v.257h-.051v.255h0v.051h.051v0h-.051v.462h.051v.1h-.1l-.051.051v.1h-.1v.1l.051.051v.1h.1v.05l-.2.1c-.492-.047-.888-.431-1.384-.41l-.41.051-.1-.512v-.1l-.051-.154-.052-.307-.052-.154-.153-.565.052-.2.05-.154.1-.512v-.154l-.153-.616-.052-.1v-.154h-.051v-.77l-.1-.1-.205-.256v-.41l.205-.308.052-.052v-.1l.256-.257v-.153l-.1-.257.2-.308.1-.051.1-.1.051-.461v-.1l-.154-.051v-.257l-.051-.1-.051-.1-.052-.051v-.2h.1l.154-.1.051-.051.154-.255.1-.205-.051-.257-.1-.205-.051-.1v-.563l-.2-.155v-.051l-.051-.1v-.1l-.1-.154v-.051l-.052-.1-.051-.051.051-.1v-.051l-.051-.1-.05-.1-.052-.1-.051-.051-.1.051h-.154l-.052.1v.1l-.051.052-.1.051-.1-.051-.052.051-.051.051v.051H162.7l-.153-.1h-.1l-.051.051-.308.051h-.051v-.1h-.052v0h.052v-.1h.051v-.2h.052v-.051h.051v-.051h.052v-.051h.051v-.051h.051v-.206h.052v-.1h.051v-.052h.05V21.7h.052v-.051h.051V21.5h.051v-.1h.1v-.051h.052v-.1h.1v-.1h.051v-.154h.051v-.154h.052v-.051h.051v-.1h.051v-.1h.052v-.052h.052v-.1h.051v-.1h.051v-.051h.052v.051h-.052v.051h.052V20.32h0v.051h-.052v.052h.2v-.052h.052V20.32h.05v-.051h.051v-.1h.052v-.051h.052l.051-.051v-.1h.051v-.154h.052v-.1h.051v-.155h.051v-.564h.052v-.051h.051v-.153h.051v-.36h.052v-.1h.1V18.27h.051v-.1h.051v-.1h.051v-.051h.1v-.051h.051v-.1h.051v-.1h.051v-.051h.051v.051h.052v-.051h.1v.257h0v.2h-.051v.1h-.052v.052h.1v.051h.051v.2h.052v.154h-.052v.153h.052v.206h-.052v.1h.052v-.051h.051v-.051h.051v-.206h.052v-.153h.1l.052.051h.1v.051h.051v.1h.154v.051l-.052.052v.051h0v-.051h.052v.051h.051v-.052h-.051v-.051h.051v-.1h.051v-.051h.051v-.1h.051V18.68h.052v-.051h.052v.1h.051v0h.051v0h.052v.051h0v.05h.051v.051h.051v-.153h.052V18.68h.1v-.051h.051v0h.052v.051H166.5v.1h-.051v.051h.051v.051h-.051v.1h0v.155h.051v-.052h.052v-.051H166.5v-.051h.1v-.051h0v-.153h.051v.1h0v.052h0v.1h.052v.1h-.052v.205h.052v.1h.051V19.5h.2v.051h.052V19.5h.1v-.1h-.2v-.051h0V19.3h.05v0h.1v.052h.2V19.4h.051v.051h.1V19.3h.051v.051h.051V19.3h.052v.051h0v.1h0V19.5h.052v.051h.1v0h.052v0h.051V19.5h.051v-.1h.052v-.1h-.052v-.051h.1v-.051h0v-.051h-.052v-.1h.052v.051h.05v-.051h.051v-.052h.052v-.051h.052v.051h.1v0h.052v0h.051v-.051h.051v-.052h.052v.052h.051v-.052h.1v.052h.052v-.052h.051v.052h.051v0h.052v.154h.1v.051h.052v.052h.2v-.1h-.052v-.1h-.05v-.051h.2v.051h.1v-.154h-.1v-.05h-.1v-.051h-.052V18.68h-.1v-.051h.051v0h.153v0h.051v-.1h-.051v-.051h0v-.051h.051v-.052h-.051v-.051h-.052V18.27h-.051v.1h-.051v-.1h-.051v.051h-.051v.051h-.052v-.051h-.051v.051h-.051v-.1h.051v-.154h-.051v-.052h-.1v.052H168.7v.205h-.051v.051h0v-.154H168.6v-.051h.052v-.1h-.1v.1H168.5v.051h.052v.051H168.5v.308h-.051v.051h-.052v-.051h.052v-.205h-.052v-.1h-.051v-.051h-.1v.051h-.051v.154h-.052v0h-.052v.051h-.051v.052h.051v.051h-.1v.051h-.1v.1h-.051v-.052h-.051v-.051h-.052v.051h-.051v.153h-.051v.051h-.052v.1h-.154v.051h-.052v.051h-.051v-.051h-.051v.051h-.052v0h-.154v.051l-.052-.051v-.051h-.051v-.051h-.051v-.154h.051v-.051h0V18.73h-.051v-.051h-.051v-.206h0v-.051h.051v-.154h.1v-.205h.051v-.051h.052v-.051h.051v.1h.052v-.051h0v-.155h-.052v0h.052v-.1h-.052V17.7h-.051v-.1h.154v-.051h-.051V17.5h-.052v-.308h.052v-.205h.051v-.051h.051v.051h.052v.051h.051v.1h.052v.051h.2v.051h-.051V17.3h.051v.051h.052V17.4h.051v.051h.1V17.6h-.052v.051h.052V17.7h-.052v.1h.1v.052h.1v-.052h.052v.052h.051v-.052h.1v.052h.052v.051h.051v-.051h.051v-.052h.052v-.051h.051v-.205h-.154V17.5h-.051v-.052h-.052V17.4h-.051v-.051h.1V17.3h.051v-.1h-.051v.051l-.052-.051h-.051v0h-.052v-.1l-.051.051h-.052v0l-.05.052h-.052v0h0v-.154h0v-.052h-.051v-.051h-.154v-.1h-.051v-.1h-.052V16.68h-.1v-.051h-.1v-.052h-.1v-.051h.051v-.1h.052v-.051h.051v-.051h.051v-.051h.1V16.22h.051v.1h.052v.051h.1v-.051h.052v-.051h.051v-.1h.052v-.051h.05v.1h.052v.1h.052v-.051h.051V16.22h.051v-.1h0v-.155h.052v-.154h0v0h-.154v-.051h.051v-.051h.051v-.154h.052v-.1h.051v-.1h.051V15.4h.052v-.052H168.4v-.154h0v-.051h0v-.051h-.051v-.1h.051v-.1h0v-.1h.052v-.1h.051v-.1h.052v-.1h.051v0Zm3.28,0v.1h.052v.051h.051v.1h.052v.154h-.052v.051h.052v.051h.051v-.051h.1v.051h-.051v.052h-.052v.05h-.359v.051h-.052v.051h-.051v0h-.1v-.1h.154v-.051h.052v-.052h.051v-.1h.051v-.154h-.051v-.154h.051v-.051h.052v-.051Zm-2.409.051h.051v.051h-.1v.052h.051v.1h-.051v.052h.051v.051h-.051v-.1h-.052v-.1h.052v-.1Zm.718.205v.052h.1v.1h.1v0h.1v0h0v.051h-.052v.1h-.052v0h-.154v-.052h-.05v.052h-.051v-.052h-.052v-.154h.052v-.1h.052Zm-2.051.1h.051v.051h.051v.051h-.051v.051h-.051v.1h-.052v.1h-.051v.051h.1v.205h-.051v.308h-.1v.052h-.051v.051h-.155V15.6h0v-.154h0V15.4h.051v-.052h0v-.1h.052v-.1h.052v-.1h.051v-.051h.051v-.051h.051v-.051h-.1v-.1h.1v.051h.052Zm.615-.051h0Zm.666.051h.052v.051h-.052Zm-.512.307h0Zm1.282,1.691v-.154h.05v.1h-.05v.051Zm0,.206v.1h-.051v-.051h.051v-.051Zm-3.179,1.076v0Zm-.1.256v0Zm1.947.1v.154h-.051v-.1h.051v-.051Zm-2.307.205h0Zm-.051,0h0Zm-.257.1h0Zm1.589.2h0Zm.1,0v.1h-.052v0h-.051v-.051h-.051v-.051h.051v0Zm.563.154v0Zm-.717.051v0h0Zm2.87.1v.052h0Zm-3.741.052h0Zm5.382.256v.051h.051V19.7h0v-.051h-.1V19.6h.051v0Zm-4.255.41h.052v.051h-.052Zm1.231.256h0Zm-.461,3.333v0Zm.922.768h0Zm.052.051v0Zm-.1.564v0Zm.563.462v0Zm.308,0h0ZM166.193,41.49l-.052.1h-.051v.051l-.1.051v.1l.052.051v.36h.1l.052-.052.051.052h.051v-.052h.052v-.2h.051l.051-.051v-.052h0L166.4,41.8l-.051-.1-.052-.051-.051-.1V41.49Zm.2-.974.1.1h.206v-.051l.051-.052h.1v.1l.052.1v.154l.1.052v.154l.052.05.051.052.1-.153h.154l.052.051h.308l.051.05.051.052v.1l-.051.052v.2l-.051.052v.2l-.052.1-.051.051h-.1l-.051.1h-.051l-.052.051h-.051l-.155.051v.052l-.2.051c-.131.146-.122-.094-.461.306h-.051v.1l-.1.051-.051.051v.052l-.2-.052-.051-.1h-.256l-.052.051.052.051h-.1v.052l-.051-.052-.051.052h-.052v-.1l-.1-.051-.155-.1-.051-.052h-.052l-.1.052-.052-.052V42.36l-.051-.2.1-.051.1-.1.154-.051.206-.256h.154l.051-.051v-.051l.052-.206v-.051l-.154-.154h-.052v-.1l.052-.051-.052-.051-.1-.052.051-.051-.1-.051h.052v-.052h.051v-.1l.051-.052.1-.051h.051v-.051l.2-.1.052-.051.1-.051.051.051.1.051v.1h.154Z"/><path d="M160.964,49.385l-.1.308v.256l.205-.051h.257l-.1.2c-.267.688-.738.816-.154,1.589l.2.1-.2-.051-.257-.1-.205-.051-.154-.051-.512-.2-.154-.051h-.154l-.205-.1v.461l.051.051.052.1.1.051.052.1.051.051.1.051.051.1v.051l.052.051c.186.257.383.508.563.769l.052.051v.051l.1.051c.267.551.645,1.095.973,1.641l.052.153.308.051.41.052.2-.1.41-.255.513-.257h.051l.052-.052.051-.051h.05l.205-.1.154-.1.052-.051.052.1c.774,1.125.473.928.256,2v.051a3.219,3.219,0,0,0,.206,1.435v.051l-.1.513-.565-.1-.051.154-.154.359v.153l.1.206v.154l.052.1.051.257.1.257.052.256.1.461h.052l.564,2.256.769.41h.871l1.025.871-.359.923-1.025.667v.768l.205.924-.257.2-.051.256v.051l.513.257-.206.308-.359.256.565.256v.257l.819.513.718,3.126h.512l.2.359-.615.564-.153.154h-.052l-1.487.051h-.1l-1.384-.2-.871-.564-.512.41-.308.205-.974.051-.564-.717-.052-.051h-.051l-.154.1-.153.256-.052.256.154.615-.205.462-.2.051h-.052l-.2.308.308,1.179v.051l-.1.154h-.462l.462,1.281.052.1v.666l-.974.1-.41.051.41.872v.051l.769,1.691.513,1.231-.154.308-.155.717-.666.667.615,1.179-.257.1-.358.1h-.052l-.256.051-.565.257-.512-.051.052-.36-.411-.2h-.1l-.409.051-.308.154-.565.2-.717.307-.871.616.052-.462.051-.615-1.9,1.384h-.2V86.45l-.359-.052-.565-.1-.2,1.333-3.588,2.2-1.742-.973-.873-.512h.052V88.3c.238-.216-.065-.021.308-.36l.1-.2c0-.176.2-.646.2-.871l.052-.2v-.1l.1-.2a6.652,6.652,0,0,0,.563-.82l.1-.205.051-.154c.414-.323.205-.517.563-.667l.052-.051.154-.154.154-.1v-.051l.051-.1.155-.308c.241-.641.6-.622.871-1.281l.051-.051v-.052L150,82.3V81.99l-.052-.051V80.606l.052-.051V80.35l-.052-.1v-.154l-.051-.051-.1-.2v-.052c-1.172-1.064-.53-.359-.614-1.23l-.052-.2v-.2l-.051-.257a2.094,2.094,0,0,0,0-1.282l-.051-.2-.052-.2-.154-.2-.1-.2-.051-.052h-.052l-.1-.1-.1-.155V75.12l-.051-.1-.051-.1-.052-.052-.154-.2-.051-.051v-.051l.256-.257.2-.1.206-.051.615-.308.153-.1a2.845,2.845,0,0,0,1.179-.666l.205-.1.206-.051.154-.154a13.379,13.379,0,0,0,2.409-.974h.2v.051h.1v-.051l.051.051h.052l.051.051h.051l.1.051h.1l.257-.1h.154l.052.051.153.257.308.46h.205c.141.112.32.146.462.257h.051v-.051h.1v-.051h.051l.051-.052h.155l.051-.051.052.051v0l.051-.051h.051v-.051h.052v-.052h.051l.051-.051h.1v-.051h.1V72.4h.051v-.051h.154V72.3h.051v-.051h.154V72.2h.052v-.051h.1V72.1h.205l.051-.052h.206V72h.154l.051-.051h.2l.1-.051h.1l.051-.051h.051l.052-.052h.051l.1-.051h.563l.052-.051h.41l.1-.052h.154v-.2l-.052-.051v-.2l-.051-.051.051-.052v-.1l-.051-.051a.8.8,0,0,1-.154-.359l-.051-.051-.051-.1v-.051l-.1-.1v-.1l-.358-.359v-.051c-.319-.293-.01-.082-.257-.307v-.1l-.052-.051-.051-.051v-.052l-.051-.051v-.1l.051-.051.051-.052V68.87l.052-.051.052-.051.051-.051-.051-.153-.1-.462-.051-.206h-.1l-.051.051h-.051l-.1.052.052-.052V67.9l.051-.1v-.051h-.1l-.051.051h-.564l-.051.051h-.462l-.052.051h-.308c-.317-.018-.092.07-.409.051h-.051l-.052.052h-.154l-.051.051H156.4l-.051.051H156.3l-.052.052H156.2l-.052.051H156.1v.051H156l-.052-.051h-.051v-.051h-.1V68.1h-.1V68.05h-.1V68h-.1v0h-.052v-.052h-.051V67.9h-.052v-.051h-.051v-.051h-.052l-.051-.051h-.051l-.1-.1h-.051v-.051h-.051v-.051h-.052v-.051h-.051l-.051-.051h-.154v.051h-.257v-.051H154.2V67.18h.051v-.154h.052v-.154h.051v-.1h.2v-.051h.052l.051-.051h.051v-.052h.052v-.051h.1v-.051h.052v-.051h.051v-.051h.051V66.36h.051v-.052h.052v-.1h.051v-.1h.051V66h.052v-.1h.051v-.1h.052v-.1h.051v-.1h.052l.051-.051c.46-.425.547-.038.512-.82v-.1l.052-.1V63.131h-.153l-.051-.1v-.2c-.181-.818-.125-.291-.462-.974l-.051-.1-.1-.051c-.065-.19-.479-.772-.461-.922l-.051-.1-.052-.1-.051-.1-.052-.1v-.1l-.051-.1V59.7l.051-.1v-.462l.1-.1.052-.052.1-.1c.271-.188.445-.478.717-.666l.154-.155-.1-.051-.052-.1-.051-.051-.1-.1-.051-.051-.155-.154.155-.153.1-.051.052-.1.205-.1.051-.1.1-.051.051-.051.1-.1.052-.051.1-.051V56.57l-.051-.1v-.2l-.051-.1v-.1l-.052-.1v-.1l-.05-.1.05-.1v-.1l-.05-.1v-.2l.05-.1v-.2l.052-.1v-.411l.051-.1v-.1l-.051-.1v-.1l-.052-.051-.05-.1-.1-.1-.052-.051v-.153h-.1V51.8l-.052-.1v-.922l.1-.154c.163-.212.3-.461.461-.666l.051-.051.051-.051.052-.1V49.7l.051-.051.051-.051v-.051l.052-.052.052-.051h1.333l.051-.052.1-.051.2-.205.154-.154.051-.052c.151-.157.147-.062.359-.306l.052-.052.052-.051h.051l.051-.051.205.051.153.051.206.052.205.1.257.052.1.1.2.206.1.1.1.1.1.051.257.051"/><path d="M207.763,80.195h-.1v.1h-.051v.051h-.051V80.4h.1v-.1l.052.05V80.3l-.052-.051h.052v.1h-.052V80.4h.1v.051h.154V80.5h.154v.052h.153v.051h.154v.051h.051v0h.1v.051h.154v.051h.1v.051h.154v.052h.1v-.052h.051v.1h.051v.051h.052v-.1h.051v.1h.05v.051h.1v.051h.1v.052h.052v.051h.1v.051h.051v.052h.1v.1h.051v.052h.052v.051h.051v.051h.051v.05h.1v.052h.051v.051h.052v.051h.051v.051h.051v.051h.1v.051h.05v.052h.052v.051h.1v.051h.051v.052h.1v.051h.051v.051h.1v.051h.1v-.051h.155v.051h-.051v.051h.051v-.051h.051v.051h.051v.154h.052V82.5h.154v.051h.05V82.6h.155v.052h.154v0h.154v.051h.052v.051h.1v0h.052v.05h.154v.052h.257v.051h1.178v.051h.359v-.051h.257v0h0v-.052h.051v.051h0v-.051l.051.051h.154v-.051h.256v-.052h.205v-.05h.1V82.7h.154v-.051h.1V82.6h.1V82.55h.1V82.5h.1v-.052h.1V82.4h.051v-.051h.051v-.051h0v-.051h0v-.051h.1V82.14h-.052v-.051h.1v-.051h.052v-.1h.1v.051h.052v-.051h.051v-.052h.051v.052h.052v.051h.052v.051h0v.052h.051v.1h.1v.051h.307v-.051h.41V82.14h.052v.051h.1V82.14h.052v0h.154v-.051h.1v.051h0v.051h.051v.051h.052v.051h.051l-.1-.051-.051.051.051.052V82.4l-.051-.1-.051.052.051.051-.051.051.051-.051h-.1v.051h.052V82.5h.051v-.051h.051v0h.1V82.4h.05v.051h.052V82.4h.052v-.051h0V82.4h.051v.051h.051V82.4h.052v-.051h.051v.1h.051v.1h.1V82.6h.051V82.55h.052v.1h.051V82.7h0v.051h.051v.05h0v.052h-.051v.051h-.051v.051h-.052v.051h.1v.1h.051v0h0v.1h.051v.052h-.051v.051h.051v.051h0v.052h.052v0h0v.1h.1v.1h0v.051h.052v.051h.1v0h.051v0h.051v.051h.051v.051h.1v.052h0v.051h.051v-.051h.052v0h.051V83.83h.051v.052h-.051v0h.051v0h.052v.051h-.052v.051h.052v.05h.1v0h0v.052h-.1v.051h.051v.052h.1v0h.1v.051h-.1v.051h0v.051h.051v-.051h.1V84.24h0v-.051h.052v-.052h.051v-.153h.051v.05h-.051v.052h.051v.1h.052v.051h.051v.051h.1v0h-.052v.051h.052v.051h.05v0h-.05v.1h0v-.052h.05V84.5h.051v-.052h0v-.051h.052v.051h0V84.5h.051v.1h.052v.052h.1v0h.052V84.6h.154v0h.052v0H221v0h.051v-.051h0V84.6h.052v.1h-.052v.051h.052V84.8h-.052v.1H221v.052h.051v-.052h.052v-.051h0v-.206h.051V84.6H221.1v-.051h.051V84.6h0v-.051h.154V84.6h.2v.051h0V84.7h0v.051h-.051v.1h-.05v.051h.1v.051h.052v0h.051v.051h-.051v.051h-.1v.052h.051v.051h.052v0h.1v.051h0v.051h.051v-.153h0v-.1h-.051v-.051h-.051v-.052h.1v0h.052v-.051h.052v.051h0v.052h.051v.051h.1v0h.1v-.051h.051v-.052h.051v-.051h.051v.051h.052v.052h-.052v.051h-.051v.051h.051v0h0v.051h.052v-.051h.052v.051h.1v.1h-.051v-.052h-.051v0h-.052v.052h.052v.05h.051v.1h.051v.1h.052v-.051h.05v.051h.052v.051h0v.051h0v.1h.051v-.051h.051v.051h0v.1h.052v.1h0v.1h.1v.051h-.052v.051h0v.051h0v.052h.052v.051h-.052v.154h.052v.2h0v.1l.051.051v.359l.051.051v.154H223v.052h.051v.051h.052v.051h0v.051h.051v-.051h.051v.051h.052v.2h.051v.1h.052v.052h.051v.1h.051v.052h.052v.051h.1v.1h.1v.051h.1v.052h.052v.051h.1v.051h.1v.052h.1v.051h.154v.051h.052V88.6h.051v.1h.052v.1h.051v.051h.051V88.9h.052v.051h.1v.051h.051v.05h.052v.052H225v.051h.052v.051h.051v.052h.051v.1h.052v.051h.051v.051h.051v.052h.052v.051h.052v.051h.256v.051h.1v.051h.1v.051h.052v.052h.1v.051h-.051v0h-.052v.2h.052v.052h.051v.409h.051v.308h.052v.1h.051v.1h0v.051h.051v.1h0v.051h-.051v.051h.051v-.1h.052l.051-.052v.052h-.051v.154h.051v.1h.051v.1h.052v.051h.052v.051h.051v.051h.051v.051h.1v.052h.051v.051h.154v.051h.1v.052h.051v.051h.051v.051h.052v.051h.051v.051h.1v.051h.051v.052h.052v.051h.051v.051h.1v.051h0v.051h0v.1h-.052v.051h.052V92.59h.1v-.051h-.051v-.052h.051v.052h.052v.154h.051v.051h.051v.2h-.051l.051.051h-.051v.359h-.051v.154h.051v.206h.051v.154h.052v.153h.052v.1h.051v.051h.051v.1h.052v.1h.05v.1h.051v.1h.052v.1h.051v.051h.052v.051h.051v.1h.052v.051h.051V95h.051v.051h.052V95.1h.051v.051h.1V95.2h.1v.051h.052v.051h.1v.051h.051v.051h.1v.051h.05v.052h.1v.051h-.052v-.051h0v.1h-.051v0h.1v.1h.051v.257h.052v.1l.051.051v.206h.052v.1h.051v.051h.051v.1h.1v.051h0v.051h.051v.051h.051v.051h.052v.052h.1v.051h.051v.051h.052V97h.051v.051h.051V97.1h.052v.052h.051V97.2h.05v.051h.052V97.3h.052v.051h.1v.051h.052v.051h.1v.1h.052v.051h.1v.051h.1v.05h.154v.052h.1v.051h.1v.1h.1v.051h.051v.051h.1v.052h.051v.051h.154v.051h.1v.052h.154v.051h.1v.051h.154v.1h.051v.051h.052v.052h.052v.051h.05v.051h.052v.1h.051v.052h.052v.051h.051v.1h.051V99.1h.052v.1h.051v.154h.052v.154h.051v.1h.052v.1h.051v.1h.051v.154h.052v.1h.051v.051h-.1v.153h.052v.1l-1.692,1.282-2.153-.615-1.076-.256-.358-.564-.257-.512-.36-.41-.614-.666-.82-.873-.256-.306-2.051-1.282-.051-.308-.257-1.948-.769.051-1.691.051-.155-.563h-.154l-.409.1h-.1l.052.1v.1l.052.051-.616.1-.307-.153-.051-.052-.77-1.024-.256-.308-1.23.256-.513.461-.769-.615-.359-.718-.769.513v.051l-.513.154-.358-.307-.257-.462.411-.1-.308-.358-.308-.051-.154-.052-.256-.922.153-.2-.768-.667.205-.82-.717-.616-.667-.614-.154-.616.2-.2h-.051l-.257-.359-.051-.051H210.4l-.2-.052h-.308l-.257.052-.051-.052-.154-.051-.307-.051L209.069,85h-.411l-1.793-.051-.052-.36.052-.307.052-.155.154-.614.05-.154.051-.154-.2-.308v-.1l.052-.255.051-.051-.256-.1-.513-.051.051-.667c.016-.717.2-.634.154-1.333v-.051h.411v0h.255v0h.1v.051h.308v0h.051v-.051h.051v-.1h.1m8.663.768v0h.051v.1h-.1V81h.052Zm-5.023,1.384v-.051h-.052v-.051h-.051V82.18h-.052v-.052h-.1v-.051h0v.051h.1v.052h.052v.051h.051v.051h.052Zm7.175-.051h.051v.051h.052v.1h0v.052h.052v.051h-.052v-.051h-.052v-.052h0v-.051H218.6v-.1Zm-2.614,0h0Zm0,0h0Zm2.665.2v.051h0Zm.1.051v0Zm0,.307h.051V82.9h-.051Zm1.128,1.128h.051v.051h-.1v-.051Zm-.154.051h0Zm.154.1h-.1v0Zm.512.308h0Zm1.23.2v0h.1v.051h.154v.1h-.051v0h-.1v.051h-.051v-.051h-.052v0h-.051v-.154Zm.462.154v0Zm-.051,0v.051h.051V84.9h-.051V85h-.051v-.051h-.052V84.9h.051v0h.052v-.1Zm-.256.1h0Zm-.206,0h0Zm.052.154V85.1h.051v.051h-.051V85.1h0V85.05h0Zm.1.154h0Zm3.435,4.1v0Zm.819.41h.051v0h-.051Zm-.1,0h0Zm.154.051h0Zm6.971,9.791v0Z"/><path d="M66.452,174.172h-.307Q56.23,160.938,46.317,147.7C37.39,135.79,28.323,123.98,19.57,111.94,10.218,99.076,6.917,84.6,9.4,68.91A56.028,56.028,0,0,1,27.223,35.838a56.71,56.71,0,0,1,27.724-14.17c2.282-.466,4.6-.692,6.9-1.009h8.9c1.721.232,3.452.407,5.161.706a56.361,56.361,0,0,1,35.407,20.871C121.2,54.612,125.23,68.82,123.6,84.572A54.893,54.893,0,0,1,113,112.016c-9.175,12.4-18.48,24.7-27.729,37.04Zm-38.392-96A38.238,38.238,0,1,0,66.31,39.988,38.14,38.14,0,0,0,28.06,78.176Z"/></svg>