<svg id="Layer_1" data-name="Layer 1" xmlns="http://www.w3.org/2000/svg" viewBox="0 0 256 265"><path d="M107.7,191.66c-8.66-7.47-13-16.71-12.33-28a31.5,31.5,0,0,1,10.49-21.84,32.5,32.5,0,0,1,44.45.17,31.61,31.61,0,0,1,10.36,25.28c-.41,9.83-4.74,17.86-12.39,24.35a49,49,0,0,1,20.07,17.56c.9,1.42,1.4,1.83,2.67.32a29.23,29.23,0,0,1,8.34-6.87c1.79-1,2-1.55.49-3.15a26,26,0,0,1-3-31.68c6-9.43,14.82-13.71,25.87-12.41,10.26,1.2,17.58,7,21.35,16.57,3.91,10,2.07,19.28-4.94,27.4-1.29,1.49-1.52,2,.37,3.23,11.26,7.06,17.33,17.36,18.4,30.58.46,5.58-1.77,7.9-7.33,7.91-12.07,0-24.13,0-36.2,0-4.9,0-7.84-4.27-5.76-8.26,1.21-2.32,3.26-3.17,5.8-3.16q14.47,0,29,0c2.71,0,2.77,0,1.82-2.66-3.91-10.85-11.63-17.36-23.05-18.53-11.23-1.15-20,3.63-26.06,13.16a5.57,5.57,0,0,0-.88,4.52,44.83,44.83,0,0,1,.93,7.4c.28,5.35-1.88,7.54-7.22,7.55h-62c-6.68,0-13.36,0-20,0-5,0-7.23-2.26-7-7.29a58.19,58.19,0,0,1,.95-7.89,5.06,5.06,0,0,0-.64-3.87c-6.06-9.79-14.88-14.73-26.31-13.57s-19.22,7.8-23.19,18.74c-.78,2.16-.1,2.51,2,2.49,9.73-.09,19.46-.08,29.2,0,4.63,0,7.48,4.1,5.68,8a5.41,5.41,0,0,1-5.15,3.37c-12.87.05-25.74.08-38.61,0-3.56,0-5.85-2.64-5.69-6.41.57-13.75,6.63-24.47,18.22-31.9,2-1.29,1.93-1.89.44-3.53a26.32,26.32,0,0,1-3.45-30.3,26.51,26.51,0,0,1,49.37,8A25.59,25.59,0,0,1,76,199.68c-1.34,1.46-1.17,1.95.44,2.84a34.26,34.26,0,0,1,8.89,7.33c.56.62,1,1.35,1.77.15a48.55,48.55,0,0,1,9-10.65A53.22,53.22,0,0,1,107.7,191.66Zm20.26,38h10.61c7.89,0,15.77,0,23.65,0,1.75,0,2.35-.4,1.7-2.18s-1-3.73-1.71-5.51A36.83,36.83,0,0,0,125,198.7c-15.7,1.07-29.15,12.86-32.95,28.73-.47,2,0,2.29,1.86,2.28C105.27,229.64,116.61,229.67,128,229.67Zm21.34-63.79A21.31,21.31,0,1,0,128,187.2,21.29,21.29,0,0,0,149.3,165.88ZM41.44,181.8a15.13,15.13,0,1,0,15-15.34A15.09,15.09,0,0,0,41.44,181.8Zm173.12-.13a15.13,15.13,0,1,0-15.12,15.18A15.2,15.2,0,0,0,214.56,181.67Z"/><path d="M172.48,88.4c0-17.78,0-35.55,0-53.33,0-2-.55-2.51-2.54-2.5q-41.86.09-83.72,0c-2.18,0-2.79.52-2.79,2.75q.11,52.72,0,105.45c0,4.91-2,7.64-5.7,7.66s-5.73-2.74-5.73-7.63c0-16.41,0-32.81,0-49.22,0-2.06-.26-2.61-2.45-1.84q-19,6.69-38,13.1c-1.8.6-2.25,1.45-2.24,3.25.07,15.44,0,30.88,0,46.33a16.73,16.73,0,0,1-.09,2.65,5.67,5.67,0,0,1-11.26-.1,17.6,17.6,0,0,1-.07-2.41q0-25.7,0-51.4c0-4.49,1.1-6,5.29-7.46,6.61-2.27,13.19-4.61,19.83-6.78a2.37,2.37,0,0,0,1.94-2.72C45,77,45.12,69.87,45,62.71A6.52,6.52,0,0,1,49.44,56c6.89-2.88,13.71-5.92,20.62-8.75A2.87,2.87,0,0,0,72.12,44c-.09-5.39-.05-10.78,0-16.16,0-4.44,2.25-6.68,6.7-6.68h98.44c4.45,0,6.65,2.23,6.67,6.7,0,5.47.07,10.94,0,16.4a2.63,2.63,0,0,0,1.89,2.87C192.5,50,199.17,53,205.94,55.7c3.53,1.42,5.13,3.69,5,7.54-.16,6.67.09,13.35-.11,20-.07,2.39.78,3.31,2.93,4,6.35,2,12.63,4.26,18.93,6.43,4.08,1.4,5.23,3,5.23,7.28q0,26.17,0,52.36c0,5.24-4.32,8.23-8.46,5.9-2.3-1.29-3-3.39-3-5.9q0-19.78,0-39.57c0-2.73-.07-5.47,0-8.2a2.23,2.23,0,0,0-1.8-2.58q-19.38-6.59-38.69-13.36c-2-.7-2.2-.07-2.19,1.72.05,16.49,0,33,0,49.46,0,4.89-2.07,7.64-5.73,7.63s-5.7-2.76-5.7-7.66Q172.47,114.57,172.48,88.4ZM72.09,68.08c0-2.49-.06-5,0-7.46,0-1.51-.35-1.82-1.77-1.18-4.16,1.87-8.36,3.65-12.58,5.4a1.83,1.83,0,0,0-1.28,2c0,4.57.05,9.14,0,13.71,0,1.44.5,1.59,1.73,1.15,4.07-1.45,8.16-2.86,12.27-4.19a2.08,2.08,0,0,0,1.63-2.46C72,72.73,72.09,70.4,72.09,68.08ZM183.91,68c0,2.49,0,5,0,7.48a1.71,1.71,0,0,0,1.36,1.92q6.28,2.08,12.52,4.3c1.22.44,1.77.36,1.75-1.11-.05-4.59,0-9.17,0-13.76a1.71,1.71,0,0,0-1.1-1.89q-6.54-2.76-13-5.61c-1.32-.57-1.48.09-1.46,1.19C183.94,63,183.91,65.46,183.91,68Z"/><path d="M106.68,52.08c0,1.85.06,3.7,0,5.54a5.69,5.69,0,1,1-11.37.06q-.15-5.67,0-11.33a5.69,5.69,0,1,1,11.38-.05C106.75,48.22,106.68,50.15,106.68,52.08Z"/><path d="M133.7,52.23c0,1.84.08,3.69,0,5.54a5.76,5.76,0,0,1-5.69,5.7,5.7,5.7,0,0,1-5.68-5.7c-.11-3.85-.11-7.71,0-11.56a5.69,5.69,0,1,1,11.37,0C133.78,48.21,133.7,50.22,133.7,52.23Z"/><path d="M160.73,51.91c0,1.93.07,3.86,0,5.78a5.69,5.69,0,1,1-11.38-.08c-.09-3.77-.1-7.55,0-11.33a5.69,5.69,0,1,1,11.38.09C160.8,48.21,160.74,50.06,160.73,51.91Z"/><path d="M95.26,82.73c0-1.85-.06-3.7,0-5.54a5.69,5.69,0,1,1,11.38,0c.09,3.77.1,7.55,0,11.33a5.69,5.69,0,1,1-11.37-.06C95.2,86.59,95.26,84.66,95.26,82.73Z"/><path d="M122.29,82.73c0-1.85-.06-3.7,0-5.54a5.69,5.69,0,1,1,11.38,0q.13,5.66,0,11.33a5.69,5.69,0,1,1-11.38-.06C122.23,86.59,122.29,84.66,122.29,82.73Z"/><path d="M160.73,82.92c0,1.93.08,3.86,0,5.78a5.69,5.69,0,1,1-11.37-.09c-.1-3.85-.11-7.71,0-11.56a5.7,5.7,0,0,1,5.72-5.66,5.78,5.78,0,0,1,5.65,5.75C160.81,79.06,160.73,81,160.73,82.92Z"/><path d="M106.68,113.91c0,1.85.07,3.7,0,5.54a5.69,5.69,0,1,1-11.38,0c-.09-3.77-.09-7.55,0-11.32a5.69,5.69,0,1,1,11.38,0C106.74,110.05,106.68,112,106.68,113.91Z"/><path d="M133.7,114c0,1.85.08,3.7,0,5.54a5.77,5.77,0,0,1-5.68,5.72,5.71,5.71,0,0,1-5.69-5.69q-.16-5.78,0-11.57a5.68,5.68,0,1,1,11.36,0C133.78,110,133.7,112,133.7,114Z"/><path d="M160.73,113.9c0,1.85.07,3.7,0,5.55a5.69,5.69,0,1,1-11.38,0c-.09-3.78-.1-7.56,0-11.33a5.69,5.69,0,1,1,11.38,0C160.8,110.05,160.73,112,160.73,113.9Z"/><path d="M45.07,121.26c0-1.85-.07-3.7,0-5.54A5.77,5.77,0,0,1,50.76,110a5.7,5.7,0,0,1,5.69,5.69c.12,3.85.12,7.71,0,11.56a5.68,5.68,0,1,1-11.36,0C45,125.28,45.07,123.27,45.07,121.26Z"/><path d="M210.93,121.64c0,1.85.07,3.7,0,5.54a5.69,5.69,0,1,1-11.38-.07c-.09-3.77-.09-7.55,0-11.32a5.69,5.69,0,1,1,11.38.07C211,117.78,210.93,119.71,210.93,121.64Z"/></svg>