<svg id="Layer_1" data-name="Layer 1" xmlns="http://www.w3.org/2000/svg" viewBox="0 0 256 265"><path d="M51.279,187.179c3.175-10.738,6.211-21.5,13.261-30.934C72.5,145.6,82.776,137.233,95.734,130.776c-8.243-7.8-15.316-15.782-18.521-26.032-6.738-21.546,3.18-45.687,24.119-58.021,20.431-12.035,48.848-11.407,67.465,1.49,21.289,14.75,29.589,38.627,20.638,60.12a48.286,48.286,0,0,1-13.888,18.973c-3.018,2.489-2.854,3.784.777,5.812,27.327,15.262,40.3,37.618,40.28,66.238-.006,8.664.117,17.33-.038,25.992-.166,9.271-4.024,13.041-14.107,13.066-45.675.115-91.351.022-137.027.079-6.744.009-11.417-2.52-14.153-7.992ZM133.918,217.3c17.757,0,35.515-.12,53.269.082,4.57.052,6.052-1.3,5.812-5.293-.407-6.788-.081-13.614-.571-20.4-1.642-22.708-20.7-41.865-46.519-47.037-24.206-4.849-50.629,6.124-63.054,25.512-8.509,13.276-7.933,27.613-8.105,42.04-.049,4.138,1.452,5.22,5.9,5.172C98.4,217.187,116.161,217.3,133.918,217.3Zm35.27-126.974C169.028,72.975,153.1,58.88,133.788,59S98.522,73.435,98.513,90.622c-.009,17.417,16.6,32.016,35.948,31.6C154.073,121.8,169.348,107.773,169.188,90.327Z"/></svg>