<svg id="Layer_1" data-name="Layer 1" xmlns="http://www.w3.org/2000/svg" viewBox="0 0 256 265"><path d="M62.28,176c2.52-9.54,4.93-19.11,10.54-27.5a70.19,70.19,0,0,1,24.79-22.64c-6.55-6.93-12.17-14-14.72-23.13-5.35-19.16,2.53-40.61,19.17-51.58C118.3,40.4,140.89,41,155.69,52.43c16.92,13.11,23.52,34.33,16.4,53.44a43,43,0,0,1-11,16.86c-2.4,2.21-2.27,3.36.61,5.17,21.72,13.56,32,33.43,32,58.87,0,7.7.09,15.41,0,23.11-.13,8.24-3.2,11.59-11.21,11.61-36.31.1-72.62,0-108.92.07-5.36,0-9.08-2.24-11.25-7.1ZM128,202.72c14.12,0,28.24-.1,42.35.08,3.63,0,4.81-1.16,4.62-4.71-.33-6-.07-12.1-.46-18.13-1.3-20.18-16.45-37.21-37-41.81-19.24-4.31-40.25,5.45-50.12,22.68-6.77,11.8-6.31,24.55-6.45,37.37,0,3.68,1.16,4.64,4.69,4.6C99.73,202.62,113.85,202.72,128,202.72ZM156,89.86A28.11,28.11,0,0,0,127.86,62a28.42,28.42,0,0,0-28,28.11c0,15.48,13.2,28.46,28.58,28.09A28,28,0,0,0,156,89.86Z"/></svg>