<svg id="Layer_1" data-name="Layer 1" xmlns="http://www.w3.org/2000/svg" viewBox="0 0 256 265"><path d="M44.35,159.06c0-19.78,0-39.56,0-59.33,0-13.24,8.16-21.78,21.42-22,4.64-.08,7.27-1,8.63-6,1.88-6.93,8.82-11.25,16-11.22,7,0,13.53,4,15.55,11,1.51,5.15,4.21,6.4,9.11,6.19,7.69-.35,15.42-.18,23.13-.06,3.14,0,4.84-.76,5.83-4.2,2.42-8.42,8.49-12.82,16.44-12.79s14.12,4.62,16.38,12.88c.86,3.15,2.28,4.26,5.3,4.08,1.83-.11,3.68,0,5.51,0,13.23.43,21.5,8.82,21.51,22q.08,60.15,0,120.31c0,13.09-8.54,21.65-21.77,21.68q-60.6.12-121.19,0c-13.53,0-21.83-8.55-21.85-22.15Q44.3,189.27,44.35,159.06Zm82.58-28.28c-20.93,0-41.87.08-62.8-.06-4.11,0-5.93,1-5.9,5.5.17,27.29.05,54.58.12,81.87,0,7.22,1.94,9,9.28,9q59,0,117.9,0c7.9,0,9.65-1.73,9.66-9.75.06-26.92-.07-53.85.11-80.77,0-4.69-1.7-5.89-6.11-5.85C168.44,130.88,147.68,130.78,126.93,130.78Zm-.72-14.5c19.09,0,38.18,0,57.26,0,13.41,0,11.66,1.26,11.73-11.75.06-11.53-1.49-12.84-13.12-12.37-3.05.12-4.4,1-5.11,4.24-1.85,8.47-8.26,13.49-16.35,13.55-8.43.06-14.84-4.87-16.82-13.68-.74-3.29-2.24-4.12-5.22-4.09-8.62.08-17.25.11-25.88,0-3.27-.06-4.89,1.12-5.85,4.35-2.6,8.82-8.43,13.37-16.51,13.43-8.3.07-14.1-4.51-16.81-13.75-.79-2.71-1.92-3.91-4.84-4-8-.35-10.23,1.61-10.37,9.63,0,2.56.23,5.15-.06,7.68-.6,5.28,1.53,7,6.83,6.93C85.46,116.13,105.84,116.28,126.21,116.28Zm29.28-31h-.06c0,2.55-.2,5.12,0,7.65.28,2.87,2,4.75,5,4.77a4.45,4.45,0,0,0,4.69-4.45,139.15,139.15,0,0,0,0-15.82,4.64,4.64,0,0,0-4.61-4.62c-3.14-.08-4.62,2.14-5,4.83A55.58,55.58,0,0,0,155.49,85.24Zm-69.81.17h0c0,2.54,0,5.09,0,7.63.07,2.77,1.51,4.57,4.31,4.64,3,.07,4.9-1.67,5-4.65.17-5.26.16-10.54,0-15.8a4.6,4.6,0,0,0-9.19,0C85.56,80,85.68,82.68,85.68,85.41Z"/><path d="M111.41,187.52a8.85,8.85,0,1,1,.67-17.68A9.05,9.05,0,0,1,120.5,179C120.35,183.46,115.89,187.66,111.41,187.52Z"/><path d="M150.69,178.92a8.94,8.94,0,0,1-8.91,8.59c-4.52-.06-8.82-4.39-8.78-8.85a8.85,8.85,0,1,1,17.69.26Z"/><path d="M172.26,169.84a9.07,9.07,0,0,1,8.89,8.66c.12,4.46-4.09,8.85-8.63,9a8.83,8.83,0,1,1-.26-17.66Z"/><path d="M81.26,187.49a9.31,9.31,0,0,1-8.89-8.73,8.86,8.86,0,1,1,17.71.07A8.89,8.89,0,0,1,81.26,187.49Z"/><path d="M111.29,143.37a8.71,8.71,0,1,1,.38,17.4,8.7,8.7,0,0,1-.38-17.4Z"/><path d="M142.09,143.37a8.7,8.7,0,1,1-9,8.36A8.74,8.74,0,0,1,142.09,143.37Z"/><path d="M163.43,151.93a8.86,8.86,0,0,1,17.71.51,8.92,8.92,0,0,1-9.11,8.31A8.81,8.81,0,0,1,163.43,151.93Z"/><path d="M81.27,214.13c-4.41,0-8.82-4.31-8.92-8.76-.11-4.62,4.53-9.17,9.22-9a8.9,8.9,0,0,1-.3,17.8Z"/><path d="M142.1,196.35A8.88,8.88,0,0,1,142,214.1c-4.8,0-9.21-4.47-9-9.16A9.54,9.54,0,0,1,142.1,196.35Z"/><path d="M172.14,196.35c4.52,0,8.88,4.23,9,8.68.12,4.64-4.5,9.25-9.11,9.1a8.89,8.89,0,0,1,.11-17.78Z"/><path d="M120.5,205.19c0,4.43-4.23,8.76-8.76,8.9a8.87,8.87,0,1,1-.06-17.73C116.2,196.46,120.48,200.75,120.5,205.19Z"/></svg>