<svg id="Layer_1" data-name="Layer 1" xmlns="http://www.w3.org/2000/svg" viewBox="0 0 256 265"><defs><style>.cls-1{fill:#c39b34;}</style></defs><path class="cls-1" d="M127.73,238.74H12.16c-4.07,0-3.49.41-3.49-3.36q0-41.41,0-82.85c0-3.12,0-3.12,3-3.12,23.24,0,46.48,0,69.72-.06,2.26,0,3.14.54,3.49,2.84,1.65,10.69,3.56,21.34,5.22,32,.32,2,1,2.54,3,2.54q34.86-.12,69.72,0c2,0,2.68-.61,3-2.58,1.67-10.68,3.55-21.34,5.23-32,.33-2.11,1-2.81,3.29-2.8q35.46.13,70.92,0c1.49,0,2.06.28,2,1.94q-.07,42.49,0,85c0,1.85-.51,2.43-2.39,2.42q-40.25-.08-80.47,0Z"/><path class="cls-1" d="M132.24,122.63l13-17.34,1.57-2.1c1.78-2.32,3.85-2.89,5.69-1.58s1.92,3.56.21,5.87c-1.46,2-2.95,4-4.43,5.92l-16.61,22.15c-2.52,3.34-4.89,3.34-7.41,0q-10.61-14.13-21.2-28.25c-1.24-1.65-1.58-3.32-.28-5a3.49,3.49,0,0,1,4.1-1.08,4.83,4.83,0,0,1,2.27,2l13.46,17.94c.38.49.79,1,1.33,1.61a5.09,5.09,0,0,0,.34-2.85q0-43.69,0-87.38c0-.47,0-1,0-1.43,0-3.11,1.36-4.86,3.68-4.85s3.66,1.75,3.66,4.88q0,44.28,0,88.56v2.8Z"/><path class="cls-1" d="M11.85,141.73c3.72-9,7.25-17.49,10.8-26C30.08,97.89,37.54,80.06,44.9,62.19a3.16,3.16,0,0,1,3.48-2.34q32.84.1,65.68,0c2.07,0,2.74.5,2.68,2.63-.13,4.62,0,4.63-4.69,4.63-19.58,0-39.17,0-58.76,0a3.16,3.16,0,0,0-3.48,2.32c-9.67,23.38-19.44,46.71-29.1,70.08-.73,1.76-1.57,2.5-3.47,2.3C15.59,141.59,13.91,141.73,11.85,141.73Z"/><path class="cls-1" d="M244,141.56c-7.56.65-7.57.65-10.29-5.88q-13.75-33-27.45-66.07a3.46,3.46,0,0,0-3.82-2.55c-20.13.08-40.26,0-60.4.09-2.11,0-2.9-.45-2.82-2.71.16-4.54,0-4.55,4.55-4.55,20.92,0,41.85.06,62.78-.06,2.6,0,3.84.66,4.86,3.15,10.44,25.36,21,50.66,31.58,76C243.35,139.75,243.64,140.56,244,141.56Z"/></svg>