<svg id="Layer_1" data-name="Layer 1" xmlns="http://www.w3.org/2000/svg" viewBox="0 0 256 265"><defs><style>.cls-1{fill:#c39b34;}</style></defs><path class="cls-1" d="M79.34,243.75c-2-.8-4.16-1.06-6.1-2.08-7.36-3.85-11.5-9.85-11.7-18.18-.22-8.9-.07-17.81-.07-26.71q0-76.78,0-153.56c0-9.24,3.94-16,12.22-20.07a18.73,18.73,0,0,1,8.4-1.88c30.63,0,61.25-.06,91.88,0a20.52,20.52,0,0,1,20.57,20.61c.12,12.38,0,24.76,0,37.14q0,71.46,0,142.92c0,10.51-6,18.55-15.61,21.15-.75.2-1.62,0-2.25.63ZM68.42,122.08q0,40.53,0,81c0,1.81.49,2.29,2.3,2.28q57.34-.08,114.71,0c1.87,0,2.24-.59,2.24-2.33q-.06-80.07,0-160.13a18,18,0,0,0-.28-3.67c-1.43-6.75-6.93-11.06-14.14-11.06-29.76,0-59.53.15-89.29-.1C75,28,68.22,34.3,68.32,43.65,68.61,69.79,68.42,95.94,68.42,122.08Zm59.81,90.24c-19.19,0-38.37,0-57.56,0-1.8,0-2.39.44-2.29,2.27.16,2.89,0,5.79.06,8.69a13.64,13.64,0,0,0,13.62,13.53q45.94.09,91.88,0a13.64,13.64,0,0,0,13.63-13.52c.07-2.83-.11-5.66.07-8.47.13-2-.52-2.51-2.5-2.51C166.17,212.35,147.2,212.32,128.23,212.32Z"/><path class="cls-1" d="M127.93,151a44.41,44.41,0,0,1-44.24-44c0-24.51,19.71-44.61,43.86-44.63a44.33,44.33,0,0,1,44.78,44.58C172.37,131.11,152.39,150.94,127.93,151Zm-11.42-35.73c-8.18-9.75-8.56-19.71-1.15-27a18,18,0,0,1,24.28-.92,17.36,17.36,0,0,1,6.17,11.13c.9,6.66-1.43,12.19-6.5,16.79a34,34,0,0,1,17.5,15c11.51-13.21,12.36-36.08-3.16-50.73a37.32,37.32,0,0,0-53.18,1.91c-14.51,15.9-11.26,38-1.21,48.7A33.32,33.32,0,0,1,116.51,115.25ZM128.14,144a37.55,37.55,0,0,0,22.1-7.3c1.18-.85,1.4-1.55.66-2.81-5.14-8.74-12.68-13.58-22.87-13.62s-17.62,4.68-22.78,13.34c-.92,1.54-.57,2.31.81,3.29A37.79,37.79,0,0,0,128.14,144Zm0-31.91a11.06,11.06,0,1,0-11.11-11A11,11,0,0,0,128.1,112.11Z"/><path class="cls-1" d="M127.89,193.78c-9.27,0-18.54.07-27.8,0a17.36,17.36,0,0,1,.35-34.72c18.39,0,36.77-.07,55.16,0a17.37,17.37,0,1,1-.13,34.73H127.89Zm0-6.94q13.37,0,26.71,0a14.48,14.48,0,0,0,3-.22A10.41,10.41,0,0,0,155.43,166q-27.13-.08-54.28,0C94.65,166,90,170.41,90,176.47s4.67,10.35,11.22,10.37Z"/><path class="cls-1" d="M134.31,44.87c-4.63,0-9.25,0-13.88,0-2.81,0-4.3-1.25-4.28-3.46s1.51-3.47,4.31-3.47q13.77,0,27.55,0a9.43,9.43,0,0,1,1.3.06,3.38,3.38,0,0,1,3.09,3.55,3.23,3.23,0,0,1-3.33,3.28c-4.92.08-9.84,0-14.76,0Z"/><path class="cls-1" d="M107,37.94a3.56,3.56,0,0,1,3.55,3.4,3.44,3.44,0,0,1-3.41,3.48,3.34,3.34,0,0,1-3.49-3.34A3.43,3.43,0,0,1,107,37.94Z"/><path class="cls-1" d="M128,233.39a8.78,8.78,0,0,1-8.82-8.79,8.87,8.87,0,1,1,17.73-.13A8.79,8.79,0,0,1,128,233.39Zm0-10.79c-1.14.18-1.88.77-1.84,2a1.86,1.86,0,1,0,3.72-.07C129.87,223.29,129.1,222.75,128,222.6Z"/><path class="cls-1" d="M122.39,179.87a3.43,3.43,0,0,1-3.5-3.35A3.48,3.48,0,0,1,122.4,173a3.54,3.54,0,0,1,3.41,3.48A3.49,3.49,0,0,1,122.39,179.87Z"/><path class="cls-1" d="M137.13,176.35a3.44,3.44,0,0,1-3.33,3.52,3.48,3.48,0,0,1-3.59-3.49,3.54,3.54,0,0,1,3.46-3.43A3.5,3.5,0,0,1,137.13,176.35Z"/><path class="cls-1" d="M114.48,176.43a3.52,3.52,0,0,1-3.49,3.44,3.41,3.41,0,0,1-3.42-3.46A3.45,3.45,0,0,1,111,173,3.57,3.57,0,0,1,114.48,176.43Z"/><path class="cls-1" d="M145,179.87a3.52,3.52,0,0,1-3.42-3.46,3.56,3.56,0,0,1,3.65-3.46,3.46,3.46,0,0,1,3.26,3.59A3.4,3.4,0,0,1,145,179.87Z"/><path class="cls-1" d="M99.73,173a3.59,3.59,0,0,1,3.41,3.54,3.52,3.52,0,0,1-3.55,3.38,3.39,3.39,0,0,1-3.35-3.52A3.43,3.43,0,0,1,99.73,173Z"/><path class="cls-1" d="M156.11,179.87a3.54,3.54,0,0,1-3.22-3.7,3.58,3.58,0,0,1,3.73-3.21,3.45,3.45,0,0,1,3.16,3.72A3.41,3.41,0,0,1,156.11,179.87Z"/></svg>