<svg id="Layer_1" data-name="Layer 1" xmlns="http://www.w3.org/2000/svg" viewBox="0 0 256 265"><path d="M192.757,11.88c4.522,1.611,8.532,3.89,11.218,8.09,2.338,3.656,3.008,7.681,3.008,11.9q0,89.807,0,179.612c0,7.533.047,15.067-.014,22.6-.075,9.228-5.289,16.159-13.787,18.542a18.808,18.808,0,0,1-5.135.485q-51.789.007-103.577,0c-10.881-.007-18.491-7.419-18.923-18.316-.022-.549-.013-1.1-.014-1.648q0-100.752-.012-201.5c0-6.664,2.08-12.293,7.508-16.455,2.031-1.557,4.458-2.259,6.728-3.3ZM73.286,132.351q0,35.78,0,71.558c0,3.32.007,3.328,3.41,3.328q59.553,0,119.106,0c3.415,0,3.422-.007,3.422-3.317q0-71.557,0-143.115c0-3.2-.01-3.21-3.292-3.21q-59.672,0-119.342,0c-3.3,0-3.3.009-3.3,3.434Q73.284,96.69,73.286,132.351Zm63.207,82.619q-30.249,0-60.5-.01c-1.506,0-2.778-.08-2.74,2.11.105,6.119-.05,12.242.082,18.36a10.06,10.06,0,0,0,9.719,9.9c2.9.138,5.805.073,8.708.074q47.9,0,95.808-.009c7.586,0,11.629-4.078,11.651-11.612.014-5.1,0-10.2,0-15.3,0-3.511,0-3.515-3.412-3.515Q166.153,214.969,136.493,214.97ZM136.11,49.861c20.087,0,40.175-.035,60.262.048,2.3.01,2.957-.7,2.9-2.945-.141-5.489-.021-10.984-.055-16.477-.042-6.678-4.169-11.021-10.791-11.03q-52.142-.077-104.282,0c-6.652.009-10.8,4.322-10.848,10.976-.037,5.492.112,10.989-.065,16.476-.078,2.447.753,3.015,3.087,3.005C96.249,49.825,116.179,49.862,136.11,49.861Z"/><path d="M136.217,219.843a10.911,10.911,0,0,1,11,10.816,10.957,10.957,0,1,1-21.913.077A10.9,10.9,0,0,1,136.217,219.843Zm.021,14.124a3.173,3.173,0,0,0,3.185-3.3,3.171,3.171,0,0,0-6.334-.037A3.18,3.18,0,0,0,136.238,233.967Z"/><path d="M132.729,28.268c7.371,0,14.744.049,22.115-.03,2.014-.022,2.793.637,2.749,2.711-.121,5.787.411,5.052-5.046,5.063-14.037.027-28.076-.038-42.113.054-2.346.015-3.19-.653-3.094-3.063.2-5.05-.531-4.728,4.684-4.734Q122.377,28.259,132.729,28.268Z"/><path d="M172.216,32.1c0,3.921,0,3.921-3.99,3.919-3.7,0-3.7,0-3.7-3.791,0-3.969,0-3.969,4.066-3.962C172.215,28.273,172.215,28.273,172.216,32.1Z"/></svg>