<svg id="Layer_1" data-name="Layer 1" xmlns="http://www.w3.org/2000/svg" viewBox="0 0 256 265"><path d="M228.951,142.355q-25.138-.024-50.277-.048c-6.769,0-13.539.011-20.308,0-6.827-.016-10.793-3.953-10.826-10.746-.022-4.469-.05-8.939.022-13.407.022-1.387-.259-1.939-1.823-1.934q-25.927.088-51.856.011c-1.339,0-1.895.317-1.784,1.74.142,1.825-.516,4.058.323,5.388.858,1.36,3.325,1.08,5.073,1.567a55.459,55.459,0,1,1-27.081-.723c1.716-.38,2.273-.963,2.268-2.788-.071-25.764.06-51.528-.128-77.29-.045-6.093,1.746-10.463,7.7-12.6H84.2c2.072.825,4.529,1.456,5.5,3.521,1.492,3.163,3.916,3.278,6.739,3.027,1.043-.092,2.1-.015,3.152-.015q28.082,0,56.162,0c7.552,0,11.292,3.712,11.295,11.2,0,4.2.086,8.41-.04,12.61-.053,1.771.4,2.312,2.249,2.3,19.049-.071,38.1-.046,57.147-.038.85,0,1.7.082,2.548.125ZM125.345,44.538c-10.319,0-20.639.037-30.958-.036-1.709-.012-2.32.309-2.312,2.207q.117,30.367.006,60.734c-.006,1.812.472,2.271,2.269,2.265q30.761-.1,61.523-.035a9.927,9.927,0,0,1,2.74.171c1.634.479,1.992-.062,1.989-1.653q-.068-29.579-.033-59.157c0-3.447-1.052-4.492-4.462-4.494Q140.726,44.533,125.345,44.538Zm-10.6,169.38h-2.131c-6.7,0-13.411.074-20.114-.026-6.647-.1-11.026-5.308-9.914-11.592a9.636,9.636,0,0,1,9.5-7.882c6.442-.045,12.885.013,19.326-.033a3.262,3.262,0,1,0,.086-6.508c-2.824-.085-5.653,0-8.479-.045a15.863,15.863,0,0,1-3.519-.309,9.718,9.718,0,0,1,2.2-19.145q13.214-.089,26.426.014c1.671.014,2.186-.28,1.681-2.044-5.278-18.438-17.035-30.35-35.537-35.582-1.8-.51-2.206-.1-2.18,1.735.1,7.032.005,14.067.072,21.1.013,1.4-.41,1.771-1.777,1.751-5.258-.074-10.518-.085-15.776,0-1.53.026-2.021-.376-2-1.958.082-7.1,0-14.2.061-21.3.013-1.485-.43-1.792-1.834-1.433a49.337,49.337,0,0,0-18.773,9.215,47.427,47.427,0,0,0-8.379,8.534,3.018,3.018,0,0,0,2.041.311c3.55.028,7.1-.079,10.648.049a9.783,9.783,0,1,1-.163,19.566c-2.1.055-4.208-.027-6.31.031a3.119,3.119,0,0,0-3.282,3.18,3.067,3.067,0,0,0,3.236,3.216c4.929.059,9.86.012,14.79.038a20.063,20.063,0,0,1,3.138.229A9.757,9.757,0,0,1,65.7,194.392c-9.006.041-18.012.012-27.018.014-2.355,0-2.355,0-1.421,2.269a48.8,48.8,0,0,0,63.117,26.813A38.817,38.817,0,0,0,114.742,213.918Zm74.357-78.2c10.385,0,20.769-.038,31.153.038,1.678.012,2.229-.34,2.223-2.139q-.1-30.464,0-60.927c0-1.773-.508-2.155-2.208-2.149q-25.534.1-51.068,0c-1.674-.006-2.207.319-2.2,2.127.084,15.182.052,30.365.038,45.547a15.5,15.5,0,0,1-.241,3.327c-.992,4.468-4.318,7.187-9.283,7.713-2.595.275-4.025,2.092-3.292,4.212.649,1.875,2.125,2.268,3.921,2.263C168.461,135.707,178.78,135.721,189.1,135.722ZM79.1,94.467V144.52c0,4.224,0,4.133,4.172,4.26,1.82.055,2.447-.327,2.443-2.324Q85.612,94.63,85.66,42.8a10.427,10.427,0,0,0-.15-2.152A2.967,2.967,0,0,0,82.455,38.1a3.043,3.043,0,0,0-3.247,2.578,9.422,9.422,0,0,0-.106,2.156Q79.1,68.652,79.1,94.467Zm27.127,112.954c4.535,0,9.071-.033,13.605.024a2.574,2.574,0,0,0,2.433-1.234,48.52,48.52,0,0,0,8.927-29.655c-.038-1.331-.39-1.8-1.789-1.789-8.873.06-17.746.018-26.62.039-2.626.006-4.052,1.2-4.062,3.265-.011,2.091,1.416,3.28,4.012,3.3,3.09.021,6.179-.016,9.268.025a9.075,9.075,0,0,1,6.935,3.227,9.276,9.276,0,0,1,1.709,10.286,9,9,0,0,1-8.568,5.905c-6.373.12-12.751.024-19.126.06-2.6.015-4.051,1.263-4.026,3.314s1.488,3.224,4.09,3.232C97.418,207.431,101.822,207.421,106.226,207.421ZM50.9,187.843c4.859,0,9.719.023,14.578-.01,2.466-.016,3.825-1.233,3.8-3.266s-1.39-3.18-3.876-3.189c-5.057-.016-10.113.022-15.17-.013-5.834-.039-10.192-4.236-10.2-9.764-.011-5.511,4.321-9.707,10.163-9.814,1.969-.036,3.941.031,5.909-.027a3.221,3.221,0,1,0-.076-6.422c-5.187-.036-10.375,0-15.563-.033a1.742,1.742,0,0,0-1.813,1.125,49.062,49.062,0,0,0-4.469,29.877c.184,1.212.729,1.581,1.942,1.565C41.052,187.807,45.978,187.845,50.9,187.843Zm103.121-68.218c0,3.519,0,3.507,3.5,3.05a3.088,3.088,0,0,0,2.881-2.5,2.972,2.972,0,0,0-1.194-3.283,5.453,5.453,0,0,0-4.713-.476c-1.044.264-.28,1.721-.472,2.621A2.863,2.863,0,0,0,154.024,119.625Z"/><path d="M132.71,57.568c-6.371,0-12.743-.039-19.113.031-1.4.015-1.93-.252-1.913-1.8.053-4.714-.021-4.715,4.724-4.715,11.889,0,23.777.025,35.666-.03,1.5-.007,2.019.345,1.991,1.941-.079,4.577,0,4.578-4.606,4.578Z"/><path d="M101.855,57.568c-3.16,0-3.16,0-3.159-3.249s0-3.24,3.208-3.24c3.245,0,3.245,0,3.246,3.19C105.15,57.568,105.15,57.568,101.855,57.568Z"/><path d="M212.631,83.616c-3.24,0-3.24,0-3.24-3.171a12.437,12.437,0,0,0-.01-1.569c-.178-1.4.452-1.751,1.787-1.755,4.766-.013,4.652-.055,4.813,4.21.073,1.936-.506,2.621-2.37,2.292A5.824,5.824,0,0,0,212.631,83.616Z"/><path d="M212.633,96.64c-3.242,0-3.242,0-3.242-3.169a12.421,12.421,0,0,0-.01-1.568c-.18-1.405.451-1.748,1.785-1.75,4.768-.01,4.655-.052,4.814,4.2.073,1.932-.5,2.624-2.367,2.3A5.718,5.718,0,0,0,212.633,96.64Z"/><path d="M215.929,106.466c0,3.2,0,3.2-3.756,3.2-2.783,0-2.783,0-2.782-3.631,0-2.826,0-2.826,4-2.823C215.929,103.214,215.929,103.214,215.929,106.466Z"/></svg>