<svg id="Layer_1" data-name="Layer 1" xmlns="http://www.w3.org/2000/svg" viewBox="0 0 256 265"><defs><style>.cls-1{fill:#c39b34;}</style></defs><path class="cls-1" d="M39.94,243c-1.6-1-2.06-2.37-2.06-4.18q0-94.41,0-188.82c0-3,.8-3.85,3.66-4.28q26.21-4,52.42-8l57.74-8.83q21.74-3.31,43.47-6.67c3.18-.49,4.48.52,4.49,3.7,0,6,.06,11.94,0,17.91,0,1.65.47,2.07,2.06,2,3.6-.11,7.2,0,10.79,0,5.11,0,5.6.48,5.6,5.49v68.19q0,59.46,0,118.91c0,1.9-.22,3.58-2.06,4.61Zm3.9-98.64q0,45-.05,90c0,2.09.37,2.76,2.65,2.76q81.59-.11,163.16,0c2.05,0,2.62-.45,2.62-2.57q-.1-90.1,0-180.22c0-2-.39-2.61-2.54-2.61q-81.69.11-163.38,0c-1.9,0-2.51.39-2.5,2.43Q43.9,99.22,43.84,144.32ZM82.49,45.37l0,.39h96.8c4.31,0,8.63,0,12.94,0,1.2,0,1.64-.35,1.63-1.59q-.07-7.11,0-14.23c0-1.2-.26-1.66-1.59-1.45q-18.51,2.89-37,5.71l-55.15,8.44Z"/><path class="cls-1" d="M91.21,156.8c.07-20.77,16.55-37.36,37-37.25a36.88,36.88,0,0,1-.42,73.75C107.75,193.23,91.14,176.66,91.21,156.8Zm33.83,8v-.22c0-5.23,0-5.23-5.23-5.23-5.93,0-5.93,0-5,5.83.65,3.95.65,3.95,4.63,4.43C125,170.3,125,170.3,125,164.81Zm5.93-.2a34.19,34.19,0,0,1,0,3.65c-.17,1.6.54,2,2,1.77s3.13-.42,4.7-.5c2.29-.1,3.46-1.07,3.44-3.51a29,29,0,0,1,.53-4.9c.21-1.29-.13-1.88-1.53-1.78s-2.58,0-3.87,0C131,159.36,131,159.36,131,164.61ZM125,148.06c0-5.38,0-5.38-5.35-4.82-4.21.44-4.21.44-4.9,4.71-.9,5.57-.9,5.57,4.61,5.57h.22C125,153.52,125,153.52,125,148.06ZM131,148c0,1.36.05,2.72,0,4.08-.06,1.14.41,1.5,1.51,1.46,1.79-.07,3.58,0,5.37,0,3.85,0,3.85,0,3.56-3.81-.43-5.88-.44-5.88-6.31-6.58a14.66,14.66,0,0,1-1.48-.22c-1.93-.43-3,0-2.66,2.3A17.3,17.3,0,0,1,131,148Zm10-19.46A43.85,43.85,0,0,1,145,138c.13.47.21,1,.79,1.2a55.93,55.93,0,0,1,10,4.14A29.39,29.39,0,0,0,141,128.54Zm-25.9,56a46.79,46.79,0,0,1-4.14-9.77,1.51,1.51,0,0,0-1.06-1.23,51.23,51.23,0,0,1-9.93-4.13A31.8,31.8,0,0,0,115.07,184.56Zm26.07-.41c4.56-.93,13.77-9.83,14.31-14.48a41.78,41.78,0,0,1-8.92,3.78c-.65.19-1.19.41-1.4,1.16A45.4,45.4,0,0,1,141.14,184.15Zm-26.07-55.8c-6.93,3.46-11.67,8.17-14.65,14.67a67.64,67.64,0,0,1,9.4-3.7,1.34,1.34,0,0,0,1-1A50.11,50.11,0,0,1,115.07,128.35Zm43.14,31c-3.62,0-6.74,0-9.86,0-.61,0-.84.4-.89,1-.14,1.86-.33,3.71-.48,5.57,0,.45-.18,1.22.67.9C151.61,165.34,155.32,163.44,158.21,159.38Zm-60.4,0c2.87,4.07,6.59,5.94,10.55,7.46.84.32.69-.46.66-.9-.15-1.86-.34-3.71-.48-5.57-.05-.58-.28-1-.89-1C104.53,159.37,101.41,159.38,97.81,159.38Zm49.12-13.63c.2,2.45.38,4.59.53,6.72,0,.7.35,1.05,1.07,1h9.68C155.21,149.36,151.37,147.47,146.93,145.75Zm-37.86,0c-4.06,1.59-7.57,3.3-10.23,6.39-.27.31-.7.63-.49,1.1s.75.29,1.15.29c2.51,0,5,0,7.54,0,.75,0,1.44,0,1.5-1.05C108.67,150.34,108.87,148.2,109.07,145.73Zm16-19.5c-4.19,3.14-6.16,7-7.71,11.3,2.31-.19,4.37-.37,6.43-.52.81-.06,1.31-.29,1.3-1.27C125,132.76,125,129.77,125,126.23Zm5.94.06c0,3.49,0,6.43,0,9.36,0,.9.32,1.29,1.22,1.35,2.12.14,4.24.34,6.59.53C137,133.23,135.19,129.27,131,126.29ZM125,186.59c0-3.48,0-6.42,0-9.35,0-.93-.34-1.23-1.24-1.29-2.06-.14-4.11-.38-6.51-.61C118.91,179.74,120.85,183.58,125,186.59Zm5.94,0c4.14-3.11,6.15-6.89,7.7-11.3-2.42.23-4.48.46-6.54.62-.78.06-1.18.26-1.17,1.13C131,180.09,131,183.09,131,186.64Z"/><path class="cls-1" d="M128.25,63.38h68.6a14.26,14.26,0,0,1,2.36.07,2.92,2.92,0,0,1,.15,5.68,11,11,0,0,1-2.14.14H58.72c-.5,0-1,0-1.51,0a2.92,2.92,0,0,1,.06-5.84c.65,0,1.3,0,1.94,0Z"/><path class="cls-1" d="M127.76,206.37H59.15a17,17,0,0,1-2.37-.08,2.9,2.9,0,0,1,0-5.7,17.1,17.1,0,0,1,2.15-.08H197.06a12.48,12.48,0,0,1,2.37.13,2.91,2.91,0,0,1,0,5.62,14.78,14.78,0,0,1-2.58.11Z"/><path class="cls-1" d="M128,225.34H59.19c-.72,0-1.44,0-2.15,0a2.87,2.87,0,0,1,0-5.72c.71-.05,1.43,0,2.15,0H196.81a18.55,18.55,0,0,1,2.36.07,2.53,2.53,0,0,1,2.38,2.82,2.56,2.56,0,0,1-2.36,2.84,17,17,0,0,1-2.37.07Z"/><path class="cls-1" d="M149.11,95.68c0-3.3,0-6.6,0-9.9,0-2.54,1-3.51,3.52-3.54,3.37,0,6.75,0,10.12,0,2.5,0,3.56,1.06,3.58,3.54q.06,9.91,0,19.82c0,2.48-1.12,3.52-3.59,3.54-3.37,0-6.75,0-10.12,0-2.49,0-3.49-1-3.51-3.55C149.09,102.29,149.11,99,149.11,95.68Zm5.81-.14c0,1.43,0,2.86,0,4.3.07,3.91-.67,3.37,3.56,3.53,1.71.07,2-.59,2-2.11-.1-3.15,0-6.3,0-9.45,0-3.84,0-3.76-3.73-3.75-1.47,0-1.85.55-1.79,1.89C155,91.81,154.92,93.68,154.92,95.54Z"/><path class="cls-1" d="M174.62,98.56c0,2.55,0,4.81,0,7.06s-1.13,3.48-3,3.46-2.89-1.18-2.91-3.3c0-6.76,0-13.52,0-20.28a2.94,2.94,0,0,1,2.82-3.2,22.33,22.33,0,0,1,8,.2,7.64,7.64,0,0,1,6.18,6.2,7.32,7.32,0,0,1-2.9,8c-1.23.88-1.08,1.49-.43,2.53,1,1.64,2,3.32,2.94,5,1.05,1.9.67,3.59-.91,4.49s-3,.36-4.11-1.52c-1.37-2.27-2.67-4.59-4-6.88A3.45,3.45,0,0,0,174.62,98.56Zm0-8.64c.13,1.51-.56,3,1.72,2.87s3.66-.9,3.72-2.39-1.16-2.17-3.43-2.35C174.75,87.91,174.35,88.72,174.59,89.92Z"/><path class="cls-1" d="M118.33,109.15h-5c-2.38,0-3.47-.91-3.52-2.82s1.09-3,3.58-3a56.46,56.46,0,0,1,5.82,0c2.19.21,1.81-1.19,1.83-2.46s.2-2.43-1.77-2.28a59.24,59.24,0,0,1-6.25,0c-2.14-.06-3.39-1.17-3.4-3.34,0-3.45,0-6.9.11-10.35a2.61,2.61,0,0,1,2.84-2.64q5.72-.08,11.43,0c1.84,0,2.74,1.14,2.72,2.93A2.59,2.59,0,0,1,124,88.06c-2.3,0-4.61.09-6.9,0s-1.41,1.52-1.48,2.56-.44,2.23,1.42,2.13c2.15-.12,4.31,0,6.47,0s3.46,1.06,3.5,3.24c.06,3.45.08,6.9-.07,10.34-.08,1.84-1.3,2.81-3.18,2.81Z"/><path class="cls-1" d="M98.52,109.15H93.78c-2.42,0-3.69-1.05-3.67-2.94s1.23-2.84,3.74-2.87c2,0,4,0,6,0,2.22,0,1.3-1.6,1.42-2.61s.3-2.18-1.49-2.09a49.72,49.72,0,0,1-6.46-.06c-2.53-.2-3.3-1-3.36-3.56-.08-3.23,0-6.47,0-9.7a2.83,2.83,0,0,1,3.13-3.07c3.66,0,7.33,0,11,0,1.92,0,3.1,1.22,3,2.93a2.76,2.76,0,0,1-3,2.89c-2.23,0-4.46,0-6.69,0S96.15,89.86,96,90.91s-.11,2,1.48,1.86c2.14-.14,4.31-.06,6.46,0s3.32,1,3.35,3.14c0,3.45.08,6.9,0,10.35a2.81,2.81,0,0,1-3.1,2.88C102.26,109.17,100.39,109.15,98.52,109.15Z"/><path class="cls-1" d="M64.37,106.23c.34-1,.63-2,1-3C68,97,70.57,90.75,73.12,84.51c.59-1.42,1.32-2.56,3-2.58s2.51,1.08,3.09,2.52c2.7,6.72,5.45,13.41,8.16,20.13a6.42,6.42,0,0,1,.51,2.06,2.63,2.63,0,0,1-1.81,2.65,2.5,2.5,0,0,1-3-.65,7.49,7.49,0,0,1-2-3.76c-.44-1.94-1.53-2.22-3.35-2.31-3.64-.19-6.84-.13-7.52,4.49a2.88,2.88,0,0,1-.78,1.26,2.65,2.65,0,0,1-3.23,1A2.92,2.92,0,0,1,64.37,106.23Zm10.37-9.66c1,.05,2.42.62,2.72-.25s-.6-2.16-1.27-3.36A10.49,10.49,0,0,0,74.74,96.57Z"/><path class="cls-1" d="M129.37,95.56c0-3.23,0-6.46,0-9.69,0-2.39.76-3.24,3.09-3.6a23.2,23.2,0,0,1,7.93.24,8.16,8.16,0,0,1-.3,15.87c-.36.07-.72.09-1.07.18-1.17.29-2.84-.47-3.44.47s-.25,2.48-.29,3.76c0,.86,0,1.72,0,2.58,0,2.38-1.09,3.73-2.92,3.77s-3-1.31-3-3.68C129.34,102.16,129.37,98.86,129.37,95.56Zm5.93-5.16c.09,1.08-.57,2.53,1.61,2.39,2.47-.16,3.72-.79,3.75-2.33S139.45,88.23,137,88C134.87,87.87,135.33,89.25,135.3,90.4Z"/><path class="cls-1" d="M50.67,95.5c0-3.3,0-6.61,0-9.91,0-2,1-3,2.9-3.3a23.72,23.72,0,0,1,8.15.24,8.16,8.16,0,0,1-.42,15.86,7.93,7.93,0,0,0-.85.14c-1.24.34-2.92-.47-3.68.53s-.21,2.77-.28,4.19c0,.93,0,1.87,0,2.8-.11,2-1.2,3.1-2.87,3.09a2.85,2.85,0,0,1-2.88-3.08C50.63,102.54,50.67,99,50.67,95.5Zm5.8-5.27c0,1.34-.41,2.73,1.78,2.56,2.44-.2,3.8-.86,3.69-2.37-.17-2.37-2.14-2.09-3.71-2.35C56.27,87.74,56.39,89.06,56.47,90.23Z"/><path class="cls-1" d="M192.77,97.59c0-2.59-.08-5.18,0-7.77.06-1.48-.16-2.32-1.94-2a7.3,7.3,0,0,1-2.57-.25,2.48,2.48,0,0,1-2.19-2.75A2.57,2.57,0,0,1,188.57,82c4.75-.13,9.5-.12,14.24,0,1.6,0,2.41,1.23,2.43,2.78a2.61,2.61,0,0,1-2.32,2.89c-.14,0-.28,0-.43.06-3.81.43-3.81.43-3.81,4.37q0,6.9,0,13.8c0,1.66-.51,3-2.27,3.48-1.91.53-3.57-.86-3.61-3.14C192.72,103.35,192.77,100.47,192.77,97.59Z"/></svg>