<svg id="Layer_1" data-name="Layer 1" xmlns="http://www.w3.org/2000/svg" viewBox="0 0 256 265"><path d="M40.471,225.381a3.91,3.91,0,0,1-1.855-3.771q.035-85.214.023-170.429c0-2.709.724-3.468,3.305-3.861q23.658-3.6,47.311-7.234,26.06-3.987,52.119-7.969,19.617-3,39.231-6.025c2.875-.445,4.045.467,4.052,3.339.015,5.388.061,10.778-.032,16.165-.025,1.492.425,1.873,1.862,1.827,3.243-.1,6.492-.033,9.738-.033,4.609,0,5.052.435,5.052,4.959V113.9q0,53.661.018,107.321c0,1.72-.2,3.235-1.854,4.162Zm3.52-89.027q0,40.617-.042,81.233c0,1.881.337,2.491,2.389,2.488q73.637-.1,147.271-.01c1.845,0,2.36-.405,2.358-2.319q-.086-81.33,0-162.66c0-1.826-.358-2.362-2.292-2.36q-73.732.091-147.466.012c-1.713,0-2.264.347-2.26,2.189Q44.046,95.64,43.991,136.354ZM78.875,47.043l.025.347h87.365c3.894,0,7.787-.03,11.68.019,1.081.014,1.485-.313,1.472-1.431q-.072-6.423,0-12.847c.01-1.081-.235-1.5-1.433-1.307q-16.711,2.619-33.439,5.153Q119.654,40.79,94.762,44.6,86.818,45.814,78.875,47.043Z"/><path d="M86.746,147.617a33.209,33.209,0,1,1,33.015,32.942C101.677,180.5,86.685,165.539,86.746,147.617Zm30.534,7.226v-.194c0-4.727,0-4.727-4.72-4.727-5.345,0-5.345,0-4.475,5.263.59,3.566.59,3.566,4.177,4C117.28,159.8,117.28,159.8,117.28,154.843Zm5.353-.183a31.746,31.746,0,0,1-.023,3.3c-.151,1.451.482,1.789,1.777,1.6,1.406-.205,2.822-.38,4.239-.445,2.067-.1,3.124-.975,3.1-3.172a26.6,26.6,0,0,1,.484-4.424c.188-1.168-.12-1.7-1.385-1.608-1.158.08-2.326.016-3.49.016C122.632,149.922,122.632,149.922,122.633,154.66Zm-5.353-14.936c0-4.849,0-4.849-4.822-4.346-3.8.4-3.8.4-4.422,4.245-.816,5.033-.816,5.033,4.159,5.033h.194C117.28,144.656,117.28,144.656,117.28,139.724Zm5.354-.054c0,1.228.049,2.459-.015,3.684-.054,1.032.369,1.354,1.36,1.317,1.614-.06,3.231-.015,4.847-.015,3.474,0,3.474,0,3.218-3.436-.4-5.311-.4-5.31-5.694-5.941-.449-.054-.9-.1-1.343-.2-1.739-.389-2.719.015-2.4,2.07A16.63,16.63,0,0,1,122.634,139.67Zm9.025-17.562a39.022,39.022,0,0,1,3.675,8.524c.123.418.195.936.715,1.082a50.166,50.166,0,0,1,9.018,3.739A26.557,26.557,0,0,0,131.659,122.108Zm-23.373,50.561a42.235,42.235,0,0,1-3.737-8.819,1.366,1.366,0,0,0-.96-1.1,46.32,46.32,0,0,1-8.962-3.733A28.73,28.73,0,0,0,108.286,172.669Zm23.532-.364c4.112-.841,12.426-8.879,12.916-13.071a37.9,37.9,0,0,1-8.057,3.413c-.582.172-1.07.363-1.261,1.04A41.415,41.415,0,0,1,131.818,172.305Zm-23.536-50.368c-6.249,3.121-10.531,7.378-13.215,13.244a60.344,60.344,0,0,1,8.481-3.343,1.206,1.206,0,0,0,.919-.891A45.489,45.489,0,0,1,108.282,121.937Zm38.937,28.009c-3.265,0-6.079-.007-8.893.006-.555,0-.76.364-.8.889-.135,1.675-.305,3.347-.435,5.022-.032.405-.165,1.1.6.81C141.269,155.321,144.613,153.606,147.219,149.946Zm-54.509,0c2.584,3.671,5.947,5.358,9.515,6.727.762.292.628-.407.6-.811-.13-1.674-.3-3.346-.435-5.02-.042-.526-.246-.888-.8-.89C98.773,149.939,95.96,149.946,92.71,149.946Zm44.335-12.3c.176,2.214.341,4.141.477,6.07.045.629.315.94.964.938,2.752-.009,5.505,0,8.74,0C144.512,140.9,141.044,139.192,137.045,137.642Zm-34.178-.017c-3.657,1.436-6.833,2.978-9.233,5.765-.238.277-.633.569-.443.992.2.444.681.262,1.04.265,2.268.017,4.537,0,6.806.009.678,0,1.3.009,1.356-.944C102.512,141.782,102.69,139.856,102.867,137.625Zm14.409-17.6c-3.782,2.83-5.563,6.286-6.963,10.2,2.085-.173,3.944-.335,5.8-.476.732-.055,1.187-.262,1.174-1.147C117.249,125.914,117.276,123.222,117.276,120.025Zm5.359.053c0,3.152.022,5.8-.013,8.446-.011.812.284,1.166,1.094,1.221,1.917.13,3.83.307,5.953.482C128.1,126.339,126.445,122.771,122.635,120.078Zm-5.358,54.427c0-3.142-.023-5.794.014-8.445.012-.834-.3-1.109-1.116-1.162-1.861-.122-3.715-.341-5.878-.549C111.752,168.32,113.505,171.783,117.277,174.505Zm5.361.047c3.739-2.807,5.55-6.225,6.951-10.2-2.186.211-4.046.417-5.91.556-.7.052-1.061.238-1.053,1.02C122.656,168.633,122.638,171.341,122.638,174.552Z"/><path d="M120.177,63.294q30.96,0,61.919,0a13.092,13.092,0,0,1,2.136.064,2.63,2.63,0,0,1,.131,5.124,10.064,10.064,0,0,1-1.935.13q-62.5.008-125,0c-.454,0-.911.009-1.362-.033a2.641,2.641,0,0,1,.056-5.275c.582-.035,1.168-.015,1.752-.015Z"/><path d="M119.742,192.36q-30.964,0-61.928,0a15.871,15.871,0,0,1-2.139-.069,2.622,2.622,0,0,1,.035-5.148,16.127,16.127,0,0,1,1.943-.07q62.319,0,124.637,0a11.669,11.669,0,0,1,2.134.11,2.633,2.633,0,0,1-.034,5.079,13.382,13.382,0,0,1-2.33.1Q150.9,192.362,119.742,192.36Z"/><path d="M119.96,209.477H57.852c-.649,0-1.3.014-1.946-.035a2.593,2.593,0,0,1-.01-5.159c.646-.047,1.3-.037,1.946-.037q62.108,0,124.216,0a18.345,18.345,0,0,1,2.138.058,2.6,2.6,0,0,1,.01,5.116,16.549,16.549,0,0,1-2.138.056Q151.014,209.478,119.96,209.477Z"/><path d="M139.011,92.454c0-2.981-.021-5.963.006-8.944.021-2.292.876-3.161,3.177-3.19q4.569-.055,9.138,0c2.257.03,3.212.956,3.225,3.2q.053,8.943,0,17.888c-.013,2.234-1,3.175-3.232,3.2q-4.569.041-9.138,0c-2.245-.019-3.148-.931-3.169-3.2C138.99,98.417,139.011,95.436,139.011,92.454Zm5.245-.132c0,1.293-.019,2.587,0,3.879.063,3.532-.6,3.047,3.211,3.193,1.546.059,1.822-.539,1.777-1.908-.093-2.841-.028-5.688-.028-8.533,0-3.459,0-3.392-3.37-3.385-1.329,0-1.667.5-1.612,1.712C144.313,88.958,144.257,90.641,144.256,92.322Z"/><path d="M162.036,95.046c0,2.3.019,4.343,0,6.38-.024,2-1.014,3.137-2.663,3.122-1.592-.015-2.606-1.066-2.619-2.982-.042-6.1-.019-12.2-.013-18.307a2.661,2.661,0,0,1,2.549-2.885,20.228,20.228,0,0,1,7.169.181,6.881,6.881,0,0,1,5.578,5.6,6.6,6.6,0,0,1-2.618,7.239c-1.106.792-.977,1.346-.384,2.283.935,1.478,1.808,3,2.652,4.533.944,1.716.608,3.238-.824,4.051-1.371.779-2.687.324-3.708-1.369-1.238-2.054-2.41-4.15-3.637-6.212A3.143,3.143,0,0,0,162.036,95.046Zm-.029-7.793c.12,1.359-.5,2.736,1.551,2.585s3.3-.8,3.359-2.15-1.046-1.961-3.092-2.121C162.147,85.436,161.792,86.171,162.007,87.253Z"/><path d="M111.224,104.608c-1.493,0-2.985.013-4.478,0-2.153-.022-3.137-.819-3.179-2.546-.044-1.789.986-2.664,3.23-2.694a49.468,49.468,0,0,1,5.253.027c1.972.185,1.628-1.077,1.651-2.219s.182-2.2-1.6-2.062a53.859,53.859,0,0,1-5.639-.027c-1.926-.057-3.054-1.058-3.07-3.018-.025-3.111-.013-6.226.107-9.334a2.356,2.356,0,0,1,2.562-2.387q5.157-.066,10.315,0a2.309,2.309,0,0,1,2.457,2.639,2.34,2.34,0,0,1-2.525,2.585c-2.075.043-4.154.083-6.228.013-1.984-.066-1.27,1.37-1.334,2.305-.061.891-.4,2.018,1.286,1.925,1.94-.107,3.892-.027,5.838,0,1.92.025,3.118.959,3.156,2.927.06,3.111.072,6.228-.063,9.335a2.539,2.539,0,0,1-2.871,2.531Q113.657,104.611,111.224,104.608Z"/><path d="M93.349,104.607c-1.428,0-2.855.011-4.282,0-2.179-.018-3.331-.949-3.31-2.656s1.109-2.563,3.373-2.586c1.816-.019,3.634-.04,5.45,0,2,.046,1.165-1.444,1.274-2.357.113-.943.27-1.971-1.341-1.888a45.036,45.036,0,0,1-5.832-.056c-2.283-.18-2.981-.934-3.034-3.21-.068-2.917-.027-5.838.025-8.756A2.556,2.556,0,0,1,88.5,80.33c3.308-.031,6.618-.049,9.925.009a2.451,2.451,0,0,1,2.7,2.642,2.493,2.493,0,0,1-2.758,2.61c-2.012,0-4.023.018-6.034.009-2.117-.01-1.121,1.595-1.286,2.543s-.1,1.766,1.335,1.678c1.938-.12,3.891-.053,5.836,0,1.8.053,2.993.918,3.022,2.835.049,3.112.075,6.229-.026,9.339a2.537,2.537,0,0,1-2.8,2.6C96.723,104.626,95.036,104.605,93.349,104.607Z"/><path d="M62.527,101.969c.308-.915.566-1.85.933-2.741,2.313-5.623,4.665-11.23,6.967-16.857.526-1.288,1.186-2.316,2.743-2.329s2.26.974,2.783,2.273c2.44,6.06,4.919,12.105,7.363,18.164a5.809,5.809,0,0,1,.467,1.861,2.387,2.387,0,0,1-1.638,2.4,2.258,2.258,0,0,1-2.657-.586,6.794,6.794,0,0,1-1.8-3.393c-.4-1.751-1.382-2-3.024-2.088-3.282-.169-6.17-.12-6.783,4.048a2.7,2.7,0,0,1-.71,1.143,2.386,2.386,0,0,1-2.909.919A2.622,2.622,0,0,1,62.527,101.969Zm9.354-8.716c.909.047,2.184.56,2.462-.222.323-.905-.542-1.951-1.153-3.04A9.544,9.544,0,0,0,71.881,93.253Z"/><path d="M121.19,92.341c0-2.915-.022-5.83.007-8.745.022-2.16.686-2.922,2.79-3.247a21.093,21.093,0,0,1,7.157.21,7.364,7.364,0,0,1-.271,14.328c-.318.062-.645.081-.958.16-1.056.267-2.567-.423-3.108.424s-.226,2.24-.262,3.394c-.024.776.006,1.555-.007,2.332-.039,2.151-.984,3.364-2.637,3.4s-2.682-1.175-2.7-3.313C121.168,98.3,121.19,95.321,121.19,92.341Zm5.35-4.66c.09.979-.506,2.284,1.459,2.156,2.226-.144,3.357-.709,3.38-2.1s-1.086-2.007-3.326-2.182C126.156,85.4,126.574,86.643,126.54,87.681Z"/><path d="M50.159,92.287c0-2.982.036-5.964-.017-8.945a2.656,2.656,0,0,1,2.618-2.981,21.567,21.567,0,0,1,7.352.217,7.365,7.365,0,0,1-.377,14.315c-.255.048-.518.061-.767.13-1.115.309-2.639-.423-3.321.474-.752.989-.189,2.5-.256,3.789-.044.84.021,1.686-.026,2.526-.1,1.761-1.081,2.794-2.591,2.787a2.574,2.574,0,0,1-2.6-2.785C50.124,98.639,50.161,95.463,50.159,92.287Zm5.234-4.754c0,1.207-.372,2.463,1.611,2.3,2.2-.176,3.429-.772,3.328-2.14-.157-2.136-1.935-1.881-3.349-2.117C55.216,85.287,55.323,86.475,55.393,87.533Z"/><path d="M178.414,94.175c0-2.337-.069-4.677.025-7.01.055-1.343-.143-2.1-1.751-1.841a6.814,6.814,0,0,1-2.312-.226A2.248,2.248,0,0,1,172.4,82.61a2.325,2.325,0,0,1,2.233-2.511c4.281-.109,8.568-.1,12.849-.01a2.249,2.249,0,0,1,2.2,2.507,2.359,2.359,0,0,1-2.1,2.608c-.128.023-.257.038-.386.052-3.445.386-3.445.386-3.445,3.941q0,6.233,0,12.464c0,1.494-.465,2.694-2.054,3.135-1.726.478-3.217-.775-3.261-2.832C178.374,99.369,178.416,96.771,178.414,94.175Z"/></svg>