<svg id="Layer_1" data-name="Layer 1" xmlns="http://www.w3.org/2000/svg" viewBox="0 0 256 265"><path d="M132.64,13.38c.07,0,.14.11.21.1,5.32-.39,7,2.91,7.43,7.4,0,.07.07.14.07.22,0,4.84,2.82,6.76,7.27,7.31a2.7,2.7,0,0,0,2.77-.91c1.7-1.91,3.46-3.78,5.24-5.61s3.45-2.17,5.85-1a92,92,0,0,1,12.05,7c2.3,1.58,2.81,2.87,2,5.54-.71,2.46-1.41,4.92-2.24,7.33a2.46,2.46,0,0,0,.73,2.87c4.23,4.34,4.21,4.37,9.95,2.6,6.86-2.1,6.81-2.08,10.81,4A103.54,103.54,0,0,1,200,59.51a4.19,4.19,0,0,1-.94,5.47c-1.92,1.8-3.81,3.64-5.78,5.39-.92.81-1.41,1.62-.84,2.81a.63.63,0,0,1,.07.22c.24,4.58,2.72,6.4,7.21,7.15,6.38,1.07,7.33.71,7.54,8.84.09,3.58-.14,7.13-.23,10.69a4,4,0,0,1-3.4,4.12c-2.57.59-5.11,1.26-7.69,1.79a3.19,3.19,0,0,0-2.47,2.27c-1.87,4.19-1.07,7.35,2.83,9.76a10.68,10.68,0,0,1,1.37,1.25c3.58,3.34,3.78,4.11,1.47,8.37a2.46,2.46,0,0,0,.57,3.51c4.46,4.3,8.76,8.78,13.22,13.09a7.66,7.66,0,0,1,2.49,6c-.08,9.38,0,18.76-.06,28.15,0,1.56.36,2.24,2,2.69a23.56,23.56,0,0,1,12.83,37.26c-1,1.31-1.09,1.76.71,2.1,9.5,1.78,15.91,9.49,16.18,19.37.06,2.25,0,4.5,0,6.74,0,3.66-1.42,5.07-5.09,5.07H195c-4.73,0-9.46,0-14.19,0-3.77,0-5.21-1.4-5.21-5.2,0-5.25-.43-10.56,2.16-15.46a19.36,19.36,0,0,1,14.16-10.57c.51-.1,1-.31,1.71-.53a27.52,27.52,0,0,1-5.31-10.1c-3.26-11.74,4.2-25.25,16-28.35,2.57-.67,3.17-1.75,3.13-4.23-.16-8.3-.1-16.59,0-24.89a4.8,4.8,0,0,0-1.63-3.85c-3.51-3.4-7-6.87-10.36-10.36-1-1-1.55-1.45-2.52.12-1.62,2.63-2.94,3-5.9,2.14-1.11-.32-2.22-.68-3.33-1-5.74-1.77-6.54-1.48-10.19,3.2a2.23,2.23,0,0,0-.16,2.37c.77,2.52,1.53,5,2.3,7.55a4.16,4.16,0,0,1-1.78,5.06A95.06,95.06,0,0,1,161,164.91,4,4,0,0,1,156,164c-1.93-2-3.86-4-5.72-6.12a2,2,0,0,0-2.43-.72.87.87,0,0,1-.22.05c-4.5.37-7.19,2.51-7.27,7.31a11.86,11.86,0,0,1-.58,2.48c-1,4.05-1.6,4.66-5.79,4.89-1.41.08-2.12.39-2,2,.13,1.93-.37,4,.16,5.78.65,2.13,3.24,1.59,4.92,2.3a23.74,23.74,0,0,1,9.57,36.68c-.29.36-.51.76-.88,1.32a24.91,24.91,0,0,1,7.59,2.43c6.75,3.88,10.12,9.8,10.43,17.5.1,2.33.07,4.66,0,7-.09,3.21-1.58,4.72-4.76,4.72q-31.05,0-62.1,0c-2.26,0-4.21-.84-4.41-3.23-.48-5.86-.89-11.79,1.89-17.3a19.08,19.08,0,0,1,14.31-10.7c.45-.09.88-.25,1.57-.45a30.09,30.09,0,0,1-5.18-9.81c-3.44-12.18,4-25.55,16.23-28.81,2.08-.55,3.15-1.36,2.72-3.59a7.16,7.16,0,0,1,0-1.39c0-3.88,0-3.92-3.72-4.5a4.4,4.4,0,0,1-3.84-3.79c-.6-2.57-1.27-5.12-1.77-7.7-.23-1.17-.88-1.5-1.9-1.95-4.12-1.79-7-1.13-10.07,2.62-4.57,5.67-4.87,5.38-11.4,2.08a90,90,0,0,1-8.93-5.43c-2.28-1.5-2.72-2.87-1.93-5.58.72-2.45,1.44-4.9,2.24-7.32a2.64,2.64,0,0,0-.65-2.69c-2.69-3.77-5.88-5.05-10.16-2.66a12.86,12.86,0,0,1-2.66.82c-3.32,1-4.39.69-6.27-2.17-.81-1.22-1.28-1.14-2.21-.18Q55.2,143.5,49.54,149a3.15,3.15,0,0,0-1,2.47q0,13.61,0,27.21a1.92,1.92,0,0,0,1.71,2.22c10.52,3,16.83,10.28,18,20.9A22.51,22.51,0,0,1,64,217.63c-.48.69-1,1.36-1.68,2.29a26,26,0,0,1,7.58,2.43c6.85,3.91,10.22,9.9,10.47,17.7.08,2.33.09,4.66,0,7-.13,3.11-1.6,4.55-4.68,4.55-20.7,0-41.4,0-62.1,0a5.2,5.2,0,0,1-4.69-2.82V237.17c.14-.43.32-.85.42-1.3a19.9,19.9,0,0,1,10.48-13.76,28.18,28.18,0,0,1,7.11-2.19c-.33-.51-.48-.78-.67-1a23.64,23.64,0,0,1,12.82-38c1.62-.39,1.58-1.33,1.58-2.54,0-9.46,0-18.92,0-28.38a7.23,7.23,0,0,1,2.29-5.58c4.45-4.33,8.74-8.81,13.22-13.11,1.32-1.27,1.62-2.19.67-3.88-2.22-4-2-4.91,1.36-8a9.72,9.72,0,0,1,1.55-1.4c4.15-2.45,4.52-5.83,2.78-10a2.79,2.79,0,0,0-2.17-2c-2.57-.56-5.12-1.21-7.69-1.78a4.22,4.22,0,0,1-3.66-4.41c-.07-3.56-.42-7.11-.17-10.69.48-7.11.33-7.45,7.49-8.63,4.48-.74,7-2.54,7.21-7.13a1.76,1.76,0,0,1,.15-.44,2,2,0,0,0-.74-2.43c-2-1.81-4-3.7-6-5.56a4.18,4.18,0,0,1-1-5.47c1.66-3.15,3.2-6.35,5.17-9.34,4-6,3.95-6.06,10.81-4C77.7,48,77.67,48,81.91,43.6a2.48,2.48,0,0,0,.73-2.87c-.84-2.41-1.53-4.87-2.24-7.32-.77-2.69-.28-3.95,2-5.54a92.11,92.11,0,0,1,12-7c2.4-1.16,4-.91,5.86,1s3.63,3.82,5.39,5.78a2.37,2.37,0,0,0,2.39.77c4.69-.47,7.34-2.6,7.59-7.59.22-4.53,2.11-7.76,7.41-7.38.07,0,.14-.06.21-.1ZM77.88,129.3A4.24,4.24,0,0,1,82,130.67a89.94,89.94,0,0,0,8,8.05,4,4,0,0,1,1.26,4.62c-.33.95-.58,1.93-.87,2.89-2,6.49-2,6.45,4,9.63,1.15.6,1.84.63,2.73-.42,1.65-1.95,3.48-3.75,5.21-5.63a4.11,4.11,0,0,1,4.62-1.3,90.73,90.73,0,0,0,11,3,4.11,4.11,0,0,1,3.43,3.34c.26,1,.53,2.1.78,3.16,1.52,6.41,1.52,6.36,8.1,6.23,1.56,0,2.14-.54,2.39-2.05.38-2.29,1.12-4.51,1.55-6.79a4.66,4.66,0,0,1,4.16-4,61,61,0,0,0,9.86-2.63,4.52,4.52,0,0,1,5.42,1.4c.61.7,1.28,1.35,1.91,2,4.65,4.93,4.63,4.9,10.33,1.13a1.83,1.83,0,0,0,.91-2.47c-.81-2.42-1.46-4.89-2.26-7.31a4.19,4.19,0,0,1,1.34-4.82,81.51,81.51,0,0,0,7.88-7.89,4.28,4.28,0,0,1,4.85-1.29c.88.28,1.78.53,2.66.8,6.79,2.07,6.76,2.06,9.86-4.3a1.52,1.52,0,0,0-.37-2.17c-1.85-1.65-3.57-3.44-5.45-5.07a4.76,4.76,0,0,1-1.5-5.81,48.94,48.94,0,0,0,2.54-9.4A4.92,4.92,0,0,1,191,99c.76-.12,1.51-.33,2.27-.5,6.55-1.49,6.49-1.48,6.09-8.26a2,2,0,0,0-2-2.24c-2.43-.47-4.83-1.08-7.24-1.64a4.29,4.29,0,0,1-3.53-3.56,69.25,69.25,0,0,0-2.81-10.53,4.39,4.39,0,0,1,1.41-5.21c.7-.62,1.35-1.28,2-1.91,5-4.7,5-4.68,1.11-10.51a1.64,1.64,0,0,0-2.26-.81c-2.34.8-4.72,1.49-7.09,2.21-1.92.58-3.69.46-5.1-1.16a85,85,0,0,0-8-8.06,4,4,0,0,1-1.23-4.62c.33-1,.58-1.93.87-2.89,2-6.53,2-6.49-4.07-9.63a1.89,1.89,0,0,0-2.75.53c-1.58,1.81-3.33,3.47-4.91,5.28a4.62,4.62,0,0,1-5.44,1.42,53.07,53.07,0,0,0-9.4-2.53,5.07,5.07,0,0,1-4.74-4.61c-.13-.76-.35-1.5-.53-2.26-1.56-6.67-1.56-6.63-8.41-6.17a1.82,1.82,0,0,0-2,1.74c-.5,2.5-1.2,5-1.73,7.47a4.34,4.34,0,0,1-3.72,3.64A74.82,74.82,0,0,0,107.54,37a4.49,4.49,0,0,1-5.26-1.37c-.6-.7-1.26-1.36-1.9-2-4.66-5-4.63-4.92-10.35-1.22A1.92,1.92,0,0,0,89.14,35c.8,2.34,1.4,4.75,2.18,7.1A4.17,4.17,0,0,1,90,46.91a81.51,81.51,0,0,0-7.88,7.89,4.26,4.26,0,0,1-4.61,1.38c-1-.26-2.08-.61-3.12-.93-6.32-1.91-6.26-1.87-9.43,3.92a2.06,2.06,0,0,0,.58,3.08c1.83,1.56,3.52,3.27,5.29,4.9a4.34,4.34,0,0,1,1.35,5,70.69,70.69,0,0,0-2.83,10.52A4.38,4.38,0,0,1,65.7,86.4c-1.06.23-2.11.47-3.17.72-6.44,1.56-6.41,1.56-5.91,8.37a1.84,1.84,0,0,0,1.67,2c2.57.54,5.12,1.19,7.69,1.77a4.09,4.09,0,0,1,3.36,3.43,85,85,0,0,0,2.93,11,4,4,0,0,1-1.14,4.44c-.76.78-1.57,1.5-2.36,2.24-4.93,4.64-4.9,4.62-1.28,10.31.69,1.09,1.26,1.47,2.59,1C72.84,130.7,75.69,130,77.88,129.3ZM128,243.67q12.9,0,25.79,0c.94,0,2,.34,2.07-1.34.64-10-6.22-14.77-13.24-14.57-9.59.27-19.21.32-28.8,0-7.84-.27-14.08,4.95-13.7,13.89.07,1.62.46,2.09,2.09,2.08C110.81,243.63,119.4,243.67,128,243.67Zm-83.51,0h26c.89,0,1.76.23,1.93-1.25,1-8.33-4.45-14.56-12.86-14.6-9.75,0-19.52.23-29.26-.08-8.15-.26-14,5.52-13.57,13.78.09,1.7.43,2.21,2.19,2.19C27.46,243.62,36,243.67,44.49,243.67Zm166.77,0q13,0,26,0c.86,0,1.8.32,1.92-1.22.81-10.41-6.49-14.88-13.08-14.7-9.67.28-19.36.32-29,0-7.37-.24-13.91,4.57-13.58,13.76.07,1.69.42,2.24,2.2,2.22C194.23,243.62,202.75,243.67,211.26,243.67ZM128,188.13a15.86,15.86,0,1,0,15.85,15.75A15.88,15.88,0,0,0,128,188.13ZM28.81,203.84a15.84,15.84,0,1,0,15.87-15.71A15.93,15.93,0,0,0,28.81,203.84Zm198.36.4a15.84,15.84,0,1,0-31.68-.45,16,16,0,0,0,15.65,16.05C219.62,220.12,227,212.94,227.17,204.24Z"/><path d="M128,144.4a51.58,51.58,0,1,1,51.64-51.65A51.82,51.82,0,0,1,128,144.4Zm34.21-24.94c12.87-15.11,13.65-41.59-4.21-58.28-18.7-17.47-47.06-15.83-63.46,3.67-15.52,18.46-11.31,43-.65,54.47,3.19-8.39,9.07-14.07,17.69-17.29-4.85-5-7.43-10.68-7.33-17.46a22.53,22.53,0,0,1,7.83-17.24c9.73-8.56,22.41-8.48,32.05.12a22.33,22.33,0,0,1,7.49,14.31c.93,7.77-1.47,14.5-7.16,20.26C153,105.23,158.92,110.9,162.18,119.46ZM128,108.77c-3,0-6-.12-9.06,0a19.77,19.77,0,0,0-18.29,16.33,2.18,2.18,0,0,0,.88,2.37c14.59,11.84,38.34,11.84,52.93,0a2.09,2.09,0,0,0,.88-2.37c-1.67-7.75-6.14-13-13.73-15.51C137.13,108.12,132.53,109,128,108.77Zm15.84-24A15.84,15.84,0,1,0,128,100.74,15.88,15.88,0,0,0,143.83,84.81Z"/></svg>