<svg id="Layer_1" data-name="Layer 1" xmlns="http://www.w3.org/2000/svg" viewBox="0 0 256 265"><defs><style>.cls-1{fill:#c39b34;}</style></defs><path class="cls-1" d="M123.73,239.22h0v0h0Zm1-1h0Zm1.85-2v.05h0v.05h0v-.1Zm0,0v0Zm.69-.69v0Zm0,0v0Zm0,0h0Zm.56-.69h0Zm.09-.05v0h0Zm0,0v0Zm.05-1.53v0Zm.32-.46v0ZM145.2,210l6.2,9.72h-.05v0h-.14v0H151v0h-.28v0h-.28v0h-.14v-.05h-.13v0h-.14v-.05h-.19v0h0v-.05h-.05v0h-.37v0h-.32v0h-.51v-.05h-.79v0h-.33v0h-.13v.05h-.05v0h-.09v.09h-.14v0h-.14v0h0v0h0v0h0v0h-.19v0h-.32v.05h0v0h-.41v0h-.23v0h0v-.05h-.28v0h-.37v0h-.55v0h0v0h-.37v0h-.05v0h-.27v0h-.24v0h0v0h-.19v.05h0v0h-.14v.05h-.14v0h-.09v0h0v0h-.05v.1h0v0h-.05v0h0V220h0v0h-.09v.05h-.14v0h-.05v0H142v.05H142v-.05h0v0h0v0h-.05v.05h-.23v.05h-.14v-.05h-.13v0h-.24v0H141v-.05h-.09v0h0v0h0v0h-.1v0h-.09v0h-.05v0h-.13v0h-.05v0h-.51v0h-.93v-.05h-.13v.05h-.1v-.05h0v.05h-.24v0H138v0h-.28v.05h-.09v-.05h-.05v.05h-.41v.05h-.47v0h-.32v0h-.32v.05h-.24v0h-.23v.05h-.18v.05h-.23v0H135v0h-.18v0h-.23v0h-.19v.05h-.14v0H134v.05h-.14v0h-.14v0h-.14v0h-.09v.05h-.14v0h-.14v.05h-.09v0h-.09v.05h-.14v0h-.1v0h-.09v0h-.09v.05h-.09v0h-.1v.05h0v0h-.1v0h-.09v.05h-.09v.05h-.09l-.05,0H132v.05h-.14v0h-.13v0h-.1V222h0v.18h0v0h0v0h-.05v0h.05v.09h-.05v.14h0v.1h0v0h-.05v.14h0v0h.05V223h-.05v.19h0v0h0v.05h-.09v.05h0v0H131v0h-.09v.09h0v.05h-.05v.09h0v0h-.05v0h0v.14h0v.51h.09v.05h.05v0h-.09v.1h0v0h0v.1h0v0h-.05v0h0v.05h0V225h-.09v0h-.09v0h-.14v.05h-.05v0h0v0h-.05v.05h0v0h0v.05h-.09v0h0v0h-.05v0l0,.05h-.14v.05h-.1v0h-.09v.05h0v0h-.14v.13h-.1v.05h0v.09H129v0h-.1v.19h-.09v0h-.09v0h0v0h0v0h0v.05h-.09v0h-.1v.05h-.09v0h0v0h-.1v0h0v.05h0v.09H128v.09h0v.23H128v.05h-.09v.09h0v.05h0v0h0v.05h-.05v0h0v0h0v.1h-.05v0h0v.14h0v0h-.05v.09h0V228h0v.14h-.05v.09h0v.23h0v.19h0v0h0v0h0v.05h0v.14h0v0h.05v.65h0v.09h0v.09h.05v.1h0v0h0v0h.05V230h0v0H128v.05h.14v0h.14v0h.05v0h0v0h0v0h.05v.09h0v.14h0v0h.05v.09h0v.09h.05v.09h0v.05h0v0h0v0h0V231h0v.09h.05v.14h0v0h.05v.05h0v0h0v0h-.05v.05h0v.09h0v.1h0v0h0v0h0v.05h0v0h0v0h-.05v.05h0v0h0v0h0v0h0v.05h0v.23h0v0h0v0h0v.05h-.05v.05h-.13v.14h0v0h-.05v.19h.05v0h0v0h-.05v.1h0v0h0v.05h-.05v0h-.05v0h0v0h0v0h0v0h0v.05h-.05v0h0v.05h0v.09h0v0h0v.09h-.19v.05h0v0h-.05v0h0v.09h0v.1h-.05V234h0v.14h0v0h.05v0h0v0h0v.05h0v0h0v.05h.05v0h0v.09h0v0h.05v0h0v0H128v.14H128v.09h-.09l.05.05h-.05v0h0V235h0v.14h-.05v.05h0v0h-.09v.05h0v0h0v0h-.05v.05h.05v0h-.05v0h-.09v0h0v.05h-.05v0h0v0h0v0h0v0h0v.05h0v0h-.1v0H127v0h0v0h0v.05h0V236h-.09v.14h0v.1h0v0h0v.09h-.1v.09h0v.23h0v.19h0v0h0v.05h-.1v0h-.13v0H126v0h-.23v0h-.09v.05h-.1v0h0v.1h0v0h0v.14h-.05v0h0v.05h0v0h0v.05h0v0h-.05v.05h0v.09h-.09v.05h-.05v0h0v.05h0v.05h0v0h0v0H125V238h0v.05h0v.09h-.05v0h0v0h0v0h0v.05h0v0h0v.09h0v.05h0v0h-.09v0h0v0h0v.05h0v0h-.09v.05h0v-.05h0v.05h0v0h0v.05h.09v0h0v0h0V239h-.1v0h-.14V239h0V239h0v.14h0v0h-.09v0h0v.09h-.05v0h-.09v0h-.05v0h.05v.05h-.05v0h0v0h0v0h-.09v0h0v0h0v0h0v.05h0v0h0v0h0v.09h-.14v0H123v.14h0v.1h0v0h-.09V240h0v0h0v0h0v0h0v-.14h0v0h0v-.09h0v-.05h-.09v0h-.09v-.05h-.42v.05h0v.09h0v.09h0v0h0v.05h0v0h0v.14h0v0h0v0h-.24v.05h0v.05h0v0h0v0h0v0h0v0h0v.05h0v0h-.05v-.05h-.09v0h-.05v0h-.09v.23H121v0h-.09v0h0v.05h0v0h0v-.05h0v0h0v-.1h-.1v0h0v-.05h0v0h0v-.05h0v.05h0v.27h0v.05h0v0h0v0h0v0h0v0h0v0h0v0h-.14v0h-.09v0h0v0h0v0H120v0h0v0h0v-.09h-.05v.05h0v0h0v-.05h0v.14h-.05v0h0v0h-.09v0h0v-.05h0v.09h0v0h0v-.05h0v.05h0v-.05h-.09v.05h-.09v-.05h0v.05h0v0h0v-.05h0v.05h0v0h-.09v0h-.09v0h-.09v0h0V241h-.23v.14h0v0h0v.05h0v.05h0v-.05h0v.05h0v-.05h-.09v.05h0v0h0v.09H118v0h0v0h0v-.09h-.09v-.05h0v.05h0v-.05h0v-.05h0v0h0v0h0v0h0v0h0v0h-.1v.09h0v0h0v0h0v0h-.1v0h0v0h0v0h0v0h-.1v-.09H117v0l-.05,0v0h0V241h0v0h-.14v0h-.14v0h0v0h0v0h0v-.14h0v-.05h0v0h0v.05h-.09v-.14h0v0h0v0h0v0h-.14v0h0v0h-.09v0h-.05v0h0v-.14h0v0h-.05v0h0v0h0v0h-.05v-.09h0v-.09h0v-.1h.05v-.09h.09v0h0V240h0v-.09h0v-.09h-.05v-.1h0v0h-.09v-.05h0v0h0v-.05h-.14l0,0h-.1v0h-.23v0h-.18v-.05h-.23v0H114v-.05h0v.05h-.14v-.05h0v0h0v0h-.19v.05h-.09v-.05h-.09v0h-.19v0h-.09v0h-.28v0h-.14v0h-.14v0H112v0l0,0v0h-.05v0h0v0h-.28v0h0v0h0v0l0,0v0h0v0h-.84v0h0v0h-.1v-.09h-.09v0h0v0h0v0h0v0h-.09v0h0v0h0v0h0v0h-.14v0h0v0h-1.66v0h0v0h-.51v0h0v0h0v0h0v0h0v.09h0v0h0v0h0c-.41,0-.09.07-.55,0h0v.05h-.32v0h0c-.41,0-.1.07-.56.05h0v0h-.37v0H105v0h-.37l0,.05h-.23v0H104l0,.05h-.28l0,0h-.28v.05h-.27v0h-.37v0h-.28v.05h-.37V240h-.23v0h-.14l0,.05h-.09l0,0h-.09l0,0h0v.05h-.09v0h-.05v.05h0v.05h0v0h-.05v0h0v.05h0v.09h0v0h-.05v0h0v.09h0v.09h0V241h-.09v0h0v0h0v0h0v0h0v0h.14v0h0v0h0v-.05h0v0h.18l0-.05h.09v0l0,.05h0l-.23.09,0,0h-.09v0h0v.14h0v-.05l0,.05h0v-.05h0v0h0l.05,0h0v0l0,0h.05l.09,0,0,0,0,0,0,0h0v-.05h0l-.09.05,0,0-.09.09h0v0h0v.05h-.05v.05h-.14v.09h-.37v0h0v0h-.13v.05h0v.14h0v0h0v0h-.14v.05h0v0h0v0h0v-.05H100v.05h-.19v0h0V242h0v0h0v0h-.05v0h0v0h-.14l0,0v0H99v0H98.8l0,0h-.19v0H98.2v0H98v.05h0v0h-.19v.05h0v0h-.19v0h-.09v0h0v0h-.09v0h0v0h0v0H97v0h-.28l0,0h-.23l0,0h-.27v.05h-.19v0h0v.05h0v0h0v0h0v0h-.14l0,.05v0h0v0h0v.05h0v.05h0v0h0v.05h0v0h0v0h-.09V243h0v.09h0v0h-.09v0H95v0h-.09v.09h-.05v.05h-.09v0h0v0h-.05v0h.05v0h-.05v0h0v0h-.14v.1h0v0h-.09v.05h0v0h-.18v.09h0v0h0v.05h0v0h0v.09h0v.1h0v.09h0v.09h0v.14h0v.05h-.1v0h-.27v.05h-.14v0h0l0,0h0v0H93v.05h-.18v0h-.14v.09h-.23V245h-.23v0h-.1v0H92v0h0v.05h0v0h0v0h-.09v0h-.14v-.05h0v0h0v0h0v0h0v0h-.1v0H91.3v0h0v0h-.09v0h0v0h0v0h0v0h0v0h-.1v0h0v0h0v0H90.7v0h-.19v0h0v0h-.28v0h0v0h-.09v0h0v0h0v0h0v0h-.14v0h0v0h0v0h-.05v0h-.09v0h0v0h0v0h-.09v0h-.1v.05h0V245H89v.05h0v0h0v.05h0v0h0v0h-.19v0h-.28v.05H88.2v0h0v0H88v0h0v0h-.24v0h-.09v.05h0v0h0v-.05h-.18v.05h-.05v0h0v0H86.9v0h-.23v.05h-.18v0h0v0h0v.05h-.18v0H86v.05h-.1v-.05h-.14v.05h-.13v.05h-.14v0h-.33v0h-.09V246h0v0h0v.05h-.1v.05h0v-.05h0v.05h0v-.05h0v.05h-.23v0h-.19v0h-.18l0,0h-.09v0h-.28v.05h-.18v0h0v.05h-.05v0h-.09v0H83.2v0h0v0h0v0h0v0h-.14v0h-.09v.05h-.09v0h0v.05H82.6v0h-.1v0h-.18v.05h-.14V247h-.09v0H82v.05h0v0h0l0,0h-.1v.05h-.09v-.05c-1.91-4.43-3.73-8.9-5.69-13.33l-.37-.88-.28,0-.14,0H75.1l-.19-.05-.6-.09h-.09l0-.09,0-.09h0l.14-.05v-.05l0,0,.18-.23,0-.1.14-.14,0-.13.14-.14v0l.09-.14-.23-.51c-5-11.86-10.06-23.71-15-35.59l-.47-1.06.24-.09Q91,183.84,122.58,173.49l.46-.14,8.93,15v0l3.84,8.71.42.92,2.36,5.32,1.9,4.35,1.66.83,3,1.53Zm-4.49,10.14h0Zm-10,3.65v0Zm16.19,2.69h0Zm0,0v.05h0v-.05Zm-18.93.7h0Zm0,0h0Zm-.14.14h0Zm-.28.41v0Zm17.45.1V228H145v0h0v.38h.05v.23h.05v.09h.09v0h.09v0h.09v.05h.14v0h0v.05h.05v-.05h0v0h.19v.05h0V229h-.05V229h0v0h0v.09h-.05V229h0v.05h-.09V229h0v.05h-.14v0h-.09v0h-.05v0h0v0h0v.05h-.09v0h-.05v0H145v.05h0v0h-.1v.05h0v-.05h-.09v.05h-.05v-.05h0v.05h-.05v-.05h0v.05h0v0h-.05v0h0v0h-.05v-.05h0v.05h-.05v0h0v0h0v0h-.18v0H144v-.05h-.09v0h0v.05h-.05v0h0v-.05h-.09v0h-.05v0h0v0h0v0h0v-.05h0v.05h0v-.05h-.05v0h-.05v.05h0v-.05h0v0h-.05v0h0v0h0v0h-.05v-.09h-.09v0h0v0h0v0h0V229h0v0h0V229h0v0l-.05,0H143v0H143v0h-.09v0h.05v0h0v-.05H143v0h0v-.05h.14v-.05h.05v0h0v0h.1v0h0v-.05h0v.05h.09v-.05h.19v0h0v-.05h0v0h.09v0H144v0h.19v-.05h0v0h.13v0h.1v0h.09v-.05h0v0h0v-.05h.05v0h0v0h.05v0h.05v0Zm-17.54.13v0Zm23.32.7v0Zm.05,0v.05h0v-.05h0Zm-10.18.1h.09v0h.1v0h.09V229h0v0h.05v.05H141v0h.09v0h0v0h0v0h0v0h.05v0h.05v0h0v0h0v0h0v.1h0v0h-.05v.05h-.05v0h0v0h0v0H141v0h-.05v0h-.05v0h.05v0h-.05v0h0v-.09h0v0h0v0h0v0h-.05v0h0v0h0v0h.09v-.09h0v-.05h-.05v0h-.09v.05h0v0h-.09v0h0v0h0v0h-.05v0h0v-.05h-.09v.05h0v0h0v-.09h0v.05h0v-.05h0v0h0v0h.09v0h0v0h0v-.05h0v0h0v0h.09v0h.05V229h0v0h0V229h.09v-.09Zm10.46,0h.05v0h0v0h0v0h0V229h0v.05h.05v0h0v0h-.1v0h0v0h-.13v0H151v-.09h-.14v0h-.18v.09h-.05v0h.05v-.09h.09V229h0v0h0v-.1Zm-10.74.14v.05h0V229h0v0Zm10.37.33v0Zm-15.27,0h0v0h0v.1h0v0h-.09v0h0v0h0v0h0v.09h0v.05h0v0h0v.05h-.05v-.05h-.05v.05h-.09v-.05h0v0h0v-.05h0v-.09h0v0h0v0h0v0h0v-.05h0v0h.05v0h.05v0h0v0Zm9.35.09v0h0Zm-9.31.09v0h0v0Zm-6.94,2.83h0Zm0,.27h0Zm-.7,1.71h0Zm.28.33v0Zm0,.09v0Zm0,.05v0Zm-1.2,1.39v0Zm-.42.69v0Zm-1,.56v0Zm0,0v0Zm-1,1.39h0Zm-2.91,1.44v0Zm-.7,0h0Zm0,0v0Zm.41.05v0Zm-.37,0h0Zm-.27.05v0Zm-.33.28h0Zm0,0h0Zm-3.33.32h0v0h0v0h0v0h0v0Zm1.16.23h0v.05h0Z"/><path class="cls-1" d="M157.28,140.79l-1.07,3.75-.41,1.34L167.69,150l7.17,1.39,10.83,2.12.74-5.78.93-1,.09,0,4.16-1.44-1-4,.47-.09,1.11-.19,8.51,8.15v.51l-.09,2.13h2v.18h0V152h.05v.14h.14v.09h-.05v.05h-.05v.23h0v0h-.05v.05h0v0h0v0h-.05v0h0v0h-.05v0h-.05v.09h0V153h0v0h0v0h0v0h-.05v0h0v.05h-.05v.05h0v0h0v.05h0v.09h-.05v.05h0v.09h-.05v.05h0v.14h0v.09h0V154h0v.14h-.05v.41h-.05v.05h0v0h0v0h0v.23l0,0v.14h-.09v0h0v.05h0v0h-.05v0h0v.1l-.05,0h.18v0h0v0h.05v.33h-.05v0h.05V156h0v.46h.05v.23h-.05v.05h0v0h-.19v.05h-.23v0h-.14v0h0v.05h0v0h0V157h0v.09h-.1v0h0v.05l-.05,0v.05h0v0h0v.05h0v0h-.05v.09h0v0h-.05v0h-.14v.05h0v0H200v.05H200v0h-.09v0h-.09v0h-.05l0,0h-.05V158h0l0,.05h0v0h-.09v0h-.05v.05h0v0h-.09v.05h0v0h0v.05h-.05v0h0v0H199v0h0v0h0v0h-.09v.05h-.05v0h0v.1h-.05v.09h0v0h-.05V159h0V159h0v0l-.05.05v0h-.05v0h0v.05h0v.09h0v.09h0v0h0v.05h0v0h0v.05h0v.23h0V160h-.05v.14h0v.09h-.05v.09h0v.05l0,0v.1h0v.14h0v.09h0v.05h0v0h0v.23h-.05v0h0v.05h-.05v.09h0v.09h0v0h0v0h-.05v.05h0v.09h-.05v.14h0v.14h0v.23h0v.28h0v.09l0,.05v.09h0v.09h0v.1h0v-.05h0v.09h0v.05h0V163h-.05v.19h-.05v.14h0v0h0v.09h0v.42h0v.09h0V164H197V164H197v.13h0v0h-.05v.05h-.09l0,0v.1h0v0h-.09v.09h-.28v0h-.09v.09h-.05v.05h-.18v.09h0v0h0v0h0v.05H196V165h-.09v.09h-.05v0h0v.09h-.05v0h0v.05h-.05v.05h0v0h0v0h0v0h-.05v0h0v.09H195v0h-.1v0h-.09v0h-.32v-.1h-.05v0h-.05v0h-.09v0h0v0h-.1v0h0v-.05h-.1v-.05h0v0h-.1l0-.05h-.09v0h-.05v0h-.09V165h-.1l0,0h-.74l0,0h-.18v.05h-.14l0,0h0v0h-.1l0,.05h-.1v0h-.14v0h-.13v-.05h-.1v0h-.09V165h0v0h-.09v-.05h-.09v-.05h-.14v0h-.09v0H191v-.05h-.09v0h-.1v-.05h-.32v0h-.05v-.05h0v0h-.1v0h0v-.1h0v-.13h0v-.1h0v0h0v0h0v.05h0v-.05h0v0h0V164h0v-.19h0v-.05h0v.05h0v-.05h.05v0h0v-.19h.05v0h0v0h.05v-.05h0v-.27h0v-.24h.23v-.09h0v-.09h0v-.05h0v0H191v-.14h.05v-.1h0v-.09h0v-.09h0v-.32h0v-.1h.05v-.09h0v-.09h.05v-.05h0v0h.09l.05,0v-.05h.09v-.05h.09v-.09h0v-.09h0v-.09h0V161h.05v-.09h0v-.05h0v-.14h0v0h0v-.1h-.19v.1h-.05v0l0-.05h0v-.18h0v-.05h-.05v0h-.09v-.05h-.09v-.05h-.09v0h-.14v0h-.14v0h-.19v0h0v-.14h0v0h-.05v0h0v-.09h-.05v0h-.14v0h-.14v0h-.09v0h0v0h-.14v.09h0v.05H190v0h0V160h0v0h-.19v0h-.14v.05h0v0h-.05v.09h-.05v.05h0v0h0l0,.05h0l-.05,0h0l-.05,0h0v.05h-.14v0h-.09v.05h0v0h-.1v0h-.09v0h-.05v.05h-.09v0h-.14l0,.05h-.1v0h0V161H188v0h-.09l0,0h-.05v0h0v0h0v.05h0v.05h-.05v.09h0v.18h-.05v.05h.05v.09h0v.14h0v.14h-.05V162h0v.1h0v.09h0v0h0v.1h0v.09h0v.05h0v0h0v.23h0v.14h0v.19h0v.09h0v0h0v0h0v0h-.09v0h-.05v0h-.09v.1h-.05v0h-.18v.05h-.19v0h-.14v0h-.09v.05h-.14v0h-.09v.05h-.14v.05H186v0h-.1v0h-.09V164h0l-.05,0h-.05v.05h-.09v0h-.05v.05h-.09v0h-.05v0h0v0h0v0h-.09v0h-.05v.05h0v.09h-.05v0h0v.09h0v0h0v.14h-.05v.33h0v0h0v.24h.05v.09l0,0v0h0v.05h.1v0h.18v.05h0v0h.09v0h.09v.09h0V166h-.05v.09h-.05v.14h0v.05h0v0h0v.14h0v0h-.05v.05h0v0H185v.05h-.09v0h-.09v.05h-.09v0h-.05l0,0h0v0h-.1v.05h-.09v0h-.09V167h-.05v0h-.09v.05h-.05v0h-.09v0H184v.05h-.05v.05h-.09v0h0v0h-.09v0h0v0h-.1v.05h0v0h-.05v.05h0v0h0v.05h-.05v0h0v0h-.05v0h-.05v.05h0v0h0V168H183v0h0v.05h-.05v0h-.05v.14h0v0h0v.09h0v0h0v.09h0v.05h-.05v0h0v0h-.05v0h0v0h-.05v0h0v.05h0V169h0v0h-.05v.19h0v.23h-.05v.09h0v.19h0v.09h0V170h0v.09h0v.37h.05v.05h0v0h.05v.05h.09v-.05h0v.05h0v.28h0v.41h0v.19h0v.18h0v.23h-.05v.1h0v.13h-.05v.19h.05v.05h0v.14h0v.13h-.05v.24h0v.09h0v.14h0v.18h0v.09h0v.56h0V174h-.05v.05H182v0h0v.09h-.05v0h0v.1h0v.09h-.05v.09h-.05v.19h0V175h-.05v.19h0v.09h0v.05h-.05v.09h0v.09h-.05v.1h0v.09h0v.09h0v.09l-.05.05V176h.05v.05h0v.09l0,0v.14h-.05v0l0,.05v.09h-.05v.14h0v.09h0v.09h0v.1h0v.09h0v.14h0v0h-.05v0h0v.05h-.05v.09h0v0h0v.13h0v.14h0v.1h0V178h-.05V178h0v.05h-.05v0h0v0h0v.05h0v0h0v.05h-.05v.05h-.05v0h0v0h0v.09h-.05l0,.05v0H180v.05h0v0h-.05v0l0,0,0,.05v0h0V179h-.05v0l0,.05v0h-.05v.09h0v.05l0,0v.05l0,0v.09l0,0v.14h0v.7h0v.14h0v0h0v-.05h0l.1-.09h.27l.05,0h-.14v0h0c-.19,0-.1,0-.24.09h0v.05h0v.14h0v.09h0v.09h0v.05h.09v0h.19l0,0H180v-.23H180v.13H180v.05H180v.05h0v0h.05v0h.09v0h0V181h0v0h0v0h0v.05h0v0h.05V181h0v0h.1V181h0v-.14h0v-.32h.09v-.14h0v0h0v0c0,.41-.07.1,0,.56V181h0v.09h0v0h-.05v.42h0v0h-.05v.09h0v.09h0v.28h0v.09h0v.23h0v.1h-.05v.09h.05v.05h-.05v.09h0v.14H180V183h-.05v.19h0v.09l0,.05v.14l-.05,0v.56h.05v0h0v.24h0v0H180v.05h.09v0h.05v.1l0,0v0h.1v.05h0v.14h0v0h.05v.19h0v.14h0v.09h.09v.05h0v.09h.05v0h0v.14h.05v.1h0v0h.09v.09l.05,0h0v.19h0v.09H181v.09h0v.19h.05v.13h0v.05h0v.23h0V187h0v.32h0v.42h0v.14H181v.09h0V188h-.05v.19h0v.14h-.05v.09h0v.28h0V189h0l0,0v.19h0l0,0h0v.14h0v.84h0v0h0v.23h0v.1h.05v0h0v.05l.05.05v.14l0,0h0v.23h.05v.14h0v.19h0v.09h.05v.09h.05v.1h0v0h.05v.09h0V192h0V192h.19V192h.23V192h0v.09H182v0h0v0h0v.14h0v.28h0v.18h0V193h-.05v1.11H182v.09h0v.1h0v0h.1v0h0v0h.09v.28h.05v0h0v0h0v.05h0v.14h0v.23h0v.09h0v.09h.05v.1h.05v0h0v.05h.05v.09h.14v0h.14v.09h0v.05h-.1v0h0v.05h-.05v0h0v0h-.1V196h-.09v0h-.05v.05h0v0h-.14v0h-.05v0h0v.14h0v0h-.1v0h0v0h0v0h-.14v0h-.28v0h0v0h-.37v0h-.05v0h-.23v0h-.19v0h0v.05h0v0h-.05v.05h0v0h-.1v.09h-.09v0h-.09V197h-.14V197h-.05v0h-.13v.05h-.1v-.05h0v.05h-.24v0h-.09v0h0v0h0v0h-.09v0h-.42v0h-.18v0h-.14v0h-2v0h-.14v0h-.79v0h-.09v0h-.05v0h0v0h0v0h-.09v0h-.84v0h-.69l-.05.05v0h-.41l-.05.05h-.42v0h-.32v0h-.37v.05h-.32v0h-.28v.05h-.28v0H171v.05h-.19v0h-.18v0h-.19v0h-.18v.05h-.14v0H170v.05h-.14v0h-.18V198h-.24v0h-.18v0h-.18v0H169v.05h-.14v0h-.19v.05h-.14v0h-.18v0h-.19v0H168v.05h-.18v0h-.23v.05h-.23v0h-.19v0H167v.05h-.18v0h-.19v.05h-.23v.05h-.14v0h-.18v0H166V199h-.14v0h-.09v.05h-.1l0,0h-.1v.05h-.09v0h-.14v0h-.14v0H165v.05h-.14v0h-.09v.05h-.14v0h-.09v0h-.1v0h-.09v0h0l-.05,0h-.05v.05h-.14v0H164v.05h-.14v0h-.09v0h-.09v.05h-.14V200h-.14v0h-.14v.05h-.14v0H163v0h-.09l0,.05h-.09v0h-.09v.05h-.09v.05h-.1v0h-.13v0h-.1v.05h0l0,0h-.05v.05H162v0h0v.05h-.09v0h-.09v0h-.05v0h-.09v.05h-.09v0h-.05V201h-.09v0h0v0h0v0h0v0h-.09v.05h-.05v.05h0v0H161v.05h0v0h-.1v0h0v.05h-.05v.05h-.09v0h0v.05h0v0h-.05v0h-.09v.05h-.05v0h0v.05h0v0h-.05V202h0V202h-.05v0h0v.05h0v0h0v.09H160v0h0v.1h-.05v0h0v.05h0v0h0v.09h-.05v0h0v.05h-.05v.05h0v0h-.05v.05h0v0h0v0h0V203h-.05v.05h0v0h-.05v0l0,0v0h-.05v.05h0v0h0v.05H159v.09H159v0h0v.05h0v0h-.05v.05h0v0h-.05v.1h-.05v0h0v0h0V204h0V204h0v.09h-.05v0h0v0h-.05v.05h0v.09h0v0h0v.05h-.05v0h0v.05h-.05v0h0v.05H158v0h-.09v0h0v0h0v.09h-.05v.05h0V205h-.05v0h0v.09h0v.09h-.05v.1h0v.14h-.05v.13h-.05v.14h0v.1h0v.09h-.05V206h0v.09h-.05v.14h0v.19l0,0v.1l.05,0v.56h0v.51h.05v.46h-.05v.09l0,.05v.05h-.05v.09h0v.09h-.05v.09h0v.14h0v.09h0v0h-.05V209h0v.1h-.05v.13h0v.51h0v0h0v.05h0v.32h0v.05h0v.37h0v.18h0V211h0v.24h0v.23h-.05v0h0v.1h-.05v0h0v.09h0v.24h-.05V212h-.05v.05h0v.09h-.05v.09h0v.09h0v.05H156v0h0v.1h-.05v.09h-.05v.05l0,0v.05h0v.09h-.05v0h0V213l-.05.05v.18l0,.05v.14h0v0l0,0h0v.14h0v.09h0v.14h0v.05h0v0l0,0v0h0V214h-.05v0h.05v.18h-.05v.05h.05v.09h0v.14h0V215h0v.19h0v.09h-.09v0h-.14v0h-.18v0H155v.05h0v0h-.05v.05h0v.09h0v.09h-.05v.05h0v.09h-.05v0h-.05V216h-.09v0h-.14v.05h-.09v0h0v0h0v.05h-.1v0H154v0H154v0h0v.05h0v0h-.05v.05h-.05v0h-.09v0h-.09v0h-.05v0h-.09v0h-.09v.1h-.1v0h0v.05h-.05v0h0v0h0V217h0V217H153v.05h0v.55h0v.05h-.05v0h0v0h-.05v0h0v.05h0v0h0v0h-.05V218h0v0h-.05v.1h0v0h-.1v.05h-.09v.05h-.09v.09h-.05v0h0v0h0v.05H152v0h-.18v.05h-.1v.05h-.09v0h0v0h0v.05h0v0h0v.05h0v0h-.05v.18h0v.05h0v.14h-.05v0h.05v.09h0v.1h.05v.14h-.05v.14l-6.2-9.72-3-1.53-1.66-.83-1.9-4.35L136.22,198l-.42-.92-3.84-8.7v0l-8.93-15,.1-.28,0-.09.33-1,.18-.61c.28-.92.57-1.77.88-2.68l.18-.56.1-.37.09-.27c.66-2,1.31-4,1.94-6l.19-.56.14-.46.18-.56c1.7-5.29,3.45-10.57,5.14-15.87l.14-.37v0l10-1.38,10.46-1.53,3.24-.46,1.15-.14-.23.64m44.24,15v0Zm.09.23v0Zm-.05.14v0Zm-.74,1.25v.23h0v.14h0v0h-.09v0h-.09v-.05h0v0h0v-.05h.05v-.14h0v0h0v0h0v-.05h.05v.05Zm-11.33,3h0v.05h.19v.23h.05v.14h0V161h0v0h-.1v0h0v0h-.05v0h-.05v-.05h0v0h-.05v-.23h0v-.05h.05Zm2.13.24v.09h0V161h-.05v.18h.05v.09h-.05v.1h0V161h0V161h0v-.14h.05v-.14h0v0Zm-2.27.18v0h-.05v0h.05v0h0v0Zm2.27.09v0Zm0,0v0Zm-.05,0h.05v.09h-.05Zm.19,0h0Zm0,0h0v.14h0v.14h0v-.33h0v0Zm-.14.23v0Zm0,0v0Zm.18,0h0Zm-.23.18v0Zm-.28.19v.05h.05v0h-.05v-.09h0Zm-1.62.55v.1h0v-.05h0Zm0,.14v0ZM181.8,178h0v0h0Zm1.2,17.59v0h0v0h-.09v0H183v0ZM153.94,216.3v0h0Z"/><path class="cls-1" d="M211,109H211v.14h.05v0h0v.09h0v.09h.05v.23h0v.09h0v0h.05v.09h.05v.1h0v0h0v0h0v0h0v.05h.05v0h0v0h.1v.05h0v-.05h-.05v0h0v0h.05v.05h0v0h.14v.09h-.05v.09h.05v.14h0v.09h.05v.09h0v.1H212V111h0v.09h0v.09h0v.1h.05v.14h0v.09h.05v.09h0v.05h0v0h0v0h.05v0h0v.1h.1v0h0v0h.14v0h.05v0H213v0h.14v0h0v0h.19v0h.05v0h0v.14h.05v.14h0v.09h.05v.14h0v.1h0v0h.05v.05h.05v.09h0v.05h.05v0h0v0h.27v0h0v0h0v0h.05v0h-.05v.14h.05v.18h0v0h.05v.09h.09v.09h.09v.05h0v0h.09v0h.05l0,0h0v0l0,0v.09h0v0h.09v-.09l.05.05h0l-.05,0v0h.1V114h0v0h0v0h.05v0h0v0h0v0h.09v.09h0v0h.05v0h.05v0h0v0h0v0h.05v0h-.05v0h0v0h0v0h0v0h0v0h0v0h.05v0h0v0h.05v0h.09v0h0v0h0v.1h.1v0h0v.05H216v0h0v0h0V115h0v0h.09v0h.05v.05h0v0h.1v0h0v.05h.05v0h.05v0h0v.09h-.05v0h.05v-.1h0v0h.1v0h.09v0h.09v0h0v0h0v0h.1v0h.09v0h0v0h.05v0h.23v0h0v0h-.14v.09h.09v0h.05v0h-.05v0h.05v0h0v0h.09v0h.05v.1h-.05v.09h-.09v0h0v0h-.05v0h-.14v0h-.05v0h0v0h-.05v0h.05v-.09h0v0h.05v-.09h0v0h-.1v0h0v0h-.05v0h0v0H217v.05h0v0h0v.1H217v0h0v0h-.09v0h.18v0h0v0h0v.09l0,0h0v-.09h.09v0h.19v0h.05v.09h-.05v0h.05v-.09h0v0h-.05v-.05h.18v0h.05v0h0v-.1h0v-.09h0V116h.14v0h0v0h.05v0h.83v0h.05v.05h.46l.05,0h.64v0h.19v.05h.09v0h.09v0h.1v0h.14v0h.09v0h.09v0h0v0h0v0h0v0h.05v0H221v0h0v0h.09v0h.19v0h.23v0h0v.14h-.05v0h0v0h0v.1h-.13v0h.09v.09h-.05v0h0v0h0v0h-.05v0h0v.19h0v0h.05v.05h.09v0h.05v0h0v0h.14v0h0v-.09h0v0h0v0h0v0h0v.09h-.09v0h.05v0h0v0h0v0h.09v0h.09v0h.1v0h.09v0h.09v0h.05v0h0v0h.09v0h0v0h0l0,0h-.14v0H222v-.05h0v0h-.05v-.09h0v-.09h0v0h-.05v0h0v0h-.05v0h0v0h0v0h-.05v0h-.05v0h.1v0h0v-.09h.09v0h0v-.09h0v0h.18v0h.19v0h0v0h0v0h0v0h.05v0h-.05v0h0v0h0v0h.1v0h0V117h0v0h.09V117h0v0h0v0h.23v0h0v0h0v0h0v0h0v0h-.37v0h.05v0h-.09v0h0v-.09h-.05v0h.14v0h.14v0h.14v0h.32v0h0v0h0v0h0v.18h0V117h0v.19h.05v.14h0v.09h.05v.05h.09v0h0v0h.05v.05h0v0h0v.14h.05v.09h0v0h0v.09h0v.19h0v.18h0v.1h.05v.23h.05v0h0V119h0v0h.05v.1h-.05v0h0v0h-.1v.09h0v0h0v.23h0v.14h0v.09h-.05v.42h.05v.09h0v0h0v.23h0v.14h0v.14h-.05v.32h.05v.05h0v0h0v0h0v.28h0v0h0v.23h0V122h0v.14h0v.14h0v.19l-.05,0h0v.14h0v.14h-.05v.46h0v0h0v.14h0v0h0v0h-.09v.05h0v0h0v0H223v.05H223v0h0v0h0v0h-.05v0h0v0h-.05v0h-.05v0h0v0h0v0h-.05v0h0v.09h-.05v.14h.09v0h0v.05h-.05v.09h-.05v.1h0v0h0v0h-.05v0h0v.1h-.05v0h-.09v0h0v0h0v0h0v0h-.05v0h0v.09h-.05v0h0v.1h-.05v0h0v.09h0v.1h0v0h-.05v.1h-.05v0h0v.05h-.05v0h0v.1h0v.09h-.05v.14h-.05v0h0v0h-.05v0h0v0h0v0H221v0h0v0h-.05v0h0v0h0v.05h0v.09h-.05v.1h0V127h-.05v0h0v.19h-.05v.14h0v.28h0v0h.05v0h0v.09h-.05v.19h0v.18h0v.14h0v.09h-.05v.05h0v.09h-.05v0h.05l-.05,0h0v.19h0V129h0v.09h0v.05h0v.09H220v.14H220v.09H220v.05h.05v0h0v.09h0v.19h0v.09h0V130H220v.09H220v0h0v0h-.1v0h0v.05h-.05v0h-.09v.05h0v0h0v0h0l-.05,0h0v0h-.05v0h0v.05h0v0h0v.1h-.05v0h0v0h-.05v0h0V131H219v.09h0v.05h0v.09h0v.05h-.05v.09h0v0h-.05v0h0v.09h0v0h0v.09h0v.14h0v0h-.09v0h0v.09h.05V132h0v-.14h0v0h0V132h0v.14h0v.05h0v0h-.05v.05h-.05v.05h0v0h0v0h-.05v.05h-.09v0l-.05.05v0h0v.05h0v0H218v0h0v0h-.05v.05h0V133h-.05v0h0v.05h0v0h0v0h-.05v.05h0v0h-.05v.05h0v.05h-.05v0h0v0l0,.05v0h0v.05h-.05v0h0v.05h-.05v.09h0v0h0v.05h-.05v.09H217v0h0v.1h-.05v.09h0v.14h0v.09l-.05.05v.14h0v.27h0v.05h.05v.23h-.05v.14h0v.09h-.05v.1h-.05v.09h0v0h0v.1h-.05v0h0v.1h-.05v0h0v.1h-.05v.09h0v.09h0v.14h0v.14h0v0h0v.13h0v.1h0v.09h-.05v0h0v.09H216V137h0v.09h0v0h0v.09h-.05v.05l0,0v.05h-.05v0h0v0h-.05v0h0v.09h0v.09h-.05v.1h-.05V138h0v.13h-.05v.1h0v0h0v.14h-.05v.09h0v0h-.05v.05h0v.09h0v.09h0v0H215v0h0v0h-.05V139h0V139h-.05v0h0v.1h0v.14h0v.18h0v.05h0v0h-.05v.05h0v0h-.05v0h0v.1h0v0h0v.1h0v0h-.05v0l-.05,0v0h0v.05h-.05v0h0v.09h0v.05H214v0H214v.09h0v.19h0v.18h0v0H214v0h.05v0l0,.05h0v.13H214v.05H214v.09h0v0h-.09v.05h0v0h-.09v.05h-.05l0,0h-.09v.05h-.09v0h-.05l0,0h-.05v.05h-.14v.05H213v0h-.1v0h-.09v0h-.09v0h-.09V142h-.1v0h-.09v.05h-.09v0h-.14v0h-.09v0h-.1v0h-.13v0h-.14v.05h-.1v0h-.13v.05h-.1v0h-.14v.05h-.09v0h-.09l0,0H211v.05h-.09v.05h-.09v0h-.1v.05h0v0h0v0h-.09V143h-.05v0h0v.05h0v0h0v0h0v0h-.1v0h0v0h0v.05h-.05v0H210v.05h-.05v0h0v.05h0v0l0,0h0v.05h-.05v.05h0v0h-.1v.05h0v0h-.1v0h0V144h-.05l0,0h-.05v.05h0v.05h0v0h0v0H209l0,0H209v0h0v.05h0v0h-.09v.05h-.05v0h-.05v0h0v0h-.1v0h0v0h-.05v.05h-.05v0h0v.05h0l0,0h0v0h-.05v.05h0v0H208V145h0v.05h0v0h-.05v0h0v0h-.05v0h0v.05h-.05v0h-.09v.05h-.05v0h-.05v0h0v0h-.05v0h0v0h0v.05h-.05v0h-.05v.09h0v.05h-.05v0h0v0h0V146H207v.05h0v0h-.05v0h0v0h0v0h0v.09h0v.1h0v0h-.05v0h0v.05h-.05v0h0v.09h0v.05h0v0h-.05v0h0v.09h-.05v.1h0v0h0v.05h0v.09h0v.05H206v0h-.09v.05h-.05v0h0v0h0v0h-.05v.05h0v0h-.05v.05h-.09v0h0v.05h-.05v0h-.09v0h0v0h0v0h0v.05h0V148h0v0h-.05v.05h0v0H205v0h0v.05h0v.09h0v.05h-.05v.09h0v.05h-.05v0h0v.05h-.05v0h0v.05h0v.09h-.05v0h-.05v.05h0v0h0V149h-.05v.09h0v0h-.05v0h-.05v.05h0v.09h0v.05h0v0h0v0h-.05v.05h0v0h-.05v.05h0v.09h0v0h0v.09h0v.09h0v.05h-.05V150h0v0h-.05v.09h0v.09h0v.05h0v.09h-.05v.09h0v.05h-.05v.09h0v0h0v.09h-.05v.05h0v.09H203v0h-.05V151h0v.05h0v0h-.05v.09h0v.1h-.05v.09h-.05v.32h-2.08l.09-2.13c.13-3.43.34-6.89.47-10.32l-.79-5.73,2.13,1.34,2.59,1.66,1.16-1.15.65-4,0-.09-.74-2.69,1.11-.88,1.07-.87L206.9,124l-.09-1.43-.09-2-1.35-2,.7-.55,2-1.34,1.3.41.09.61.88.27.14-.51v0l.19-.56,0-1.53-1.11-1.24-.09-.14-1.16-1.86-.69-.5-.1-1,0-1.06,1.94.55,1.53-1.15m1.25,2.4v0Zm.55.51v0Zm8.61,4.68h0Zm1,.32v0Zm-.83,0h0v.14h0Zm.37.51v0Zm-17.17,40.4v0H205v0h0l.05.05h0v0h0v.37h0v.19h0v.14H205v.23h0v.23h-.05v.23h0v.23h0v.19H205v.14h0V160h.05v.14h0v0h0v.05h.05v.05h.09v0h.09v0h0v0h.05v0h.18v.09h0v.24h0v.09h0V161h0v0h0v.23h0v.09h.05v0h0v.14h.05v.09h.09v.05h.19v0h0v.05h0v.09h0v0h-.05v0h0v0h0v0h0v0h0v.05h0v0h-.05v.1h-.14v0h-.09v0h-.09v0h-.05v.05h-.14v.05h0v-.05h-.05v.05h-.09v0h-.09v.05H205v.14h0v0h-.1v.05h-.09v0h-.14v0h0v0h-.1V163h-.09v0h-.09v.05h-.05v0h-.09v.05h0v0H204v0H204v0h-.09v.05h-.09v.09h-.09v0h-.05v.1h.05v0h-.05v.05h-.09v.05h0v0h0v.05h0v0h-.05v0h0V164h-.05v.14h0v.09h0v.14h0v.19h0v.14h0v0h-.05v.05h0V165H203v.09h0v.05h0v0h0v.1h0v0h-.05v.05h.05v0h0v0h0v.14h0v.09h0v.1h-.05v.09h-.05v0h.05v.05h-.05v.14h.05v0l-.05,0h0v.1h-.05v0h0v.09h0v0h-.05v.09h0v.05h-.05v0h0v.24h.09v0h-.09V167h0v.09h.05v0h0v.09h0v.05h0v.05h0v-.05h-.05v.05h0v0h0l0,.05h-.09v0h-.05v.1h0v0H202v.05h0v.05h-.05v0h-.09v0h0v0h-.09v0h-.05v.09h0V168h-.09v.09h-.05v.1h0v.09h0v.09h-.05v.19h-.09v0h0v0H201v.05h-.09v.09h-.14v0h0v.05h-.09v0h-.09v0h-.14v0h-.1v.05h-.09v0h-.09v.05h0v.09h0v0h0v.09H200v.09H200v.05h0v0h-.23v0h-.05v0h-.09v.05h0v0h-.05v-.14h0v-.09h0v-.18h-.05v0h0v-.14h0V169h.05v-.14h-.05v-.09h0v-.05h.1v-.14h-.05v0h.05v-.05h-.05v-.05h0v-.09h0v0h0v-.13h0V168h0v-.18h0v0h-.05v0h.05v0h0v-.18h-.05v-.24h.05v0h0V167h0v-.09h.09v-.14h0v-.51h0v-.18h0v-.14h0v-.1h0v-.18h.09v0h.05v-.09l0,0v0h0v-.05h.09v-.09h.05v-.14h.09v-.09h.05v-.14H200v0H200v0h0v0h.1v-.05h0v-.05h0v0h.09v-.05h.05v0h0v-.19h0v-.09h0v-.09h.05v0h.09v-.05h0v0h.09V164h.05V164h0v-.14h.09v-.05h0v0H201v-.05H201v.05h0v0h.05v.05h0v.09h0v0h.05v0h.05v0h.27v0h.24v0h0v0h.05v-.1H202v0h0v0h.09v-.1h0v0h.05v-.05h.05v-.14h0v0h0v0h0v-.18h.05v-.05h-.05v0h.05v0h.09v-.09h.05v-.09h-.05v-.14h0v-.28h0v-.14h.05V162h0v-.28h.05v-.1h0v-.09h0v-.09h0v-.09h0v-.05h.05v-.05h0v-.09h.05v-.09h0V161h0v0h0v-.05h.05v-.09h0v-.09h.05v-.19h0v-.09h.05l0,0h0v-.14h0v0h.05v-.1h0v0h.05v-.05h0v0h0v-.1h0v0h0v0h.1v-.05h.09v0h.05v-.05h0v0h.09v0h.05v-.1h0v-.32h-.05v-.09h.05V159h0v-.09h-.1v0h.05v0h0v0h0v-.09h0v-.19h-.09v0h0v0h.09v0h0v0h0v0h.05v0h-.05v0h.05v-.14h0v-.23h0V158h-.05V158h.05v0h.14v0h0v0h.09v-.05h0v.05Zm-1.11.19v0Zm-.6,1.57v.09h-.05v.1h0v0l0,0v.05h-.05v0h0V160h0v0h-.1v.05h-.18V160h0V160h.05v0l0-.05v0h0v0h.05v0h.05v-.05h0v0h.05v-.05h0v0h.1Zm2.64.74v0h0Zm-3.8,2.5V163h.05v0h0v.05h0v.09h-.05v0h-.09v0h-.05v0h0v.05h0v-.33h0v0h0v-.19l.05-.05v-.09h.05v0h0v0h0v.09h0v.05h0v0h0v.05Zm-.55.6h0Zm0,.05h0v0Zm-.23,0h0Zm.09.09v0h0Zm0,0v0Zm.19.14h0Zm-1.9.88v0Zm-.41.88h0v0h0Zm.32,1.29v.05h-.05l.05-.05h0Zm.05,2.32v0Zm.13.55h0Z"/><polyline class="cls-1" points="195.04 101.91 195.73 102.47 196.19 102.05 197.31 101.82 197.53 102.1 198.23 103.02 198.28 103.07 198.55 103.21 199.11 103.12 199.06 103.07 199.06 102.98 199.02 102.89 199.11 102.89 199.48 102.79 199.62 102.79 199.76 103.3 201.28 103.25 201.98 103.21 202.21 104.97 202.26 105.25 204.11 106.4 204.34 106.68 205.08 107.47 205.63 108.07 205.96 108.44 206.19 108.9 206.51 109.41 207.49 109.64 207.53 110.71 207.62 111.68 208.32 112.19 209.47 114.04 209.57 114.18 210.68 115.43 210.72 116.95 210.54 117.51 210.54 117.56 210.4 118.06 209.52 117.79 209.43 117.19 208.13 116.77 206.1 118.11 205.4 118.67 206.74 120.61 206.84 122.6 206.93 124.03 208.37 126.86 207.3 127.74 206.19 128.62 206.93 131.3 206.88 131.39 206.24 135.42 205.08 136.58 202.49 134.91 200.36 133.57 201.15 139.31 201.15 139.58 201.1 139.77 201.1 140.6 200.82 146.48 200.68 149.12 192.17 140.97 191.06 141.16 190.59 141.25 191.61 145.23 187.45 146.66 187.36 146.71 186.94 144.12 186.43 140.69 186.29 139.72 186.29 139.68 187.17 138.47 186.25 135.79 186.2 135.7 184.63 135.7 184.63 135.28 184.95 134.86 185.27 134.4 184.63 133.24 183.51 131.07 182.41 128.48 182.31 128.38 180.97 127 180.83 126.86 180.28 127.09 179.72 127.27 178.79 127.5 178.56 126.81 179.44 125.01 180.46 123.85 183.84 119.92 183.84 119.27 182.82 117.97 183.79 115.57 183.79 114.59 185 113.25 185.32 112.28 185.6 111.49 185 110.98 184.86 110.84 184.81 110.84 184.86 110.84 185.55 110.47 185.83 109.97 185.46 109.55 185.64 109.32 185.27 108.86 184.76 107.88 184.67 107 186.06 107.33 186.2 107.51 186.48 107.33 186.48 106.96 187.45 106.36 188.65 106.36 188.93 106.17 189.58 105.71 189.9 105.57 190.27 105.48 190.46 105.57 191.75 105.34 192.17 104.69 192.4 104.6 192.96 104.41 193 104.41 193.09 104.37 193.14 104.37 193.69 104.23 193.69 104.18 193.74 104 193.42 103.86 193.37 103.76 193.32 103.72 192.77 103.53 192.68 102.79 192.77 102.24 192.82 101.96 193.56 101.91 194.02 101.77 194.02 101.73 194.71 101.26 195.04 101.91"/><polyline class="cls-1" points="189.67 96.08 189.72 96.13 189.95 96.08 190.22 96.08 190.41 96.13 190.55 96.13 190.59 96.17 190.83 96.5 190.87 96.5 190.69 96.68 190.83 97.24 191.43 97.79 192.07 98.35 191.89 99.09 192.58 99.69 192.44 99.88 192.68 100.71 192.82 100.76 193.09 100.8 193.37 101.13 193 101.22 193.23 101.64 193.56 101.91 192.82 101.96 192.77 102.24 192.68 102.79 192.77 103.53 193.32 103.72 193.37 103.76 193.42 103.86 193.74 104 193.69 104.18 193.69 104.23 193.14 104.37 193.09 104.37 193 104.41 192.96 104.41 192.4 104.6 192.17 104.69 191.75 105.34 190.46 105.57 190.27 105.48 189.9 105.57 189.58 105.71 188.93 106.17 188.65 106.36 187.45 106.36 186.48 106.96 186.48 107.33 186.2 107.51 186.06 107.33 184.67 107 184.76 107.88 185.27 108.86 185.64 109.32 185.46 109.55 185.83 109.97 185.55 110.47 184.86 110.84 184.81 110.84 184.86 110.84 185 110.98 185.6 111.49 185.32 112.28 185 113.25 183.79 114.59 183.79 115.57 182.82 117.97 183.84 119.27 183.84 119.92 180.46 123.85 179.44 125.01 178.56 126.81 178.79 127.5 179.72 127.27 180.28 127.09 180.83 126.86 180.97 127 182.31 128.38 182.4 128.48 183.51 131.07 184.63 133.24 185.27 134.4 184.95 134.86 184.63 135.28 184.63 135.7 186.2 135.7 186.24 135.79 187.17 138.47 186.29 139.68 186.29 139.72 186.43 140.69 186.94 144.12 187.35 146.71 186.43 147.73 185.69 153.51 174.86 151.39 167.69 150 155.8 145.88 156.21 144.54 157.28 140.79 157.51 140.14 157.51 139.77 159.08 124.03 159.08 123.76 159.13 123.62 160.42 122.14 160.47 121.95 160.51 120.98 160.75 117.88 160.75 117.83 160.7 117.79 160.1 117 160.19 116.49 160.38 115.57 160.51 115.01 161.49 114.08 161.86 113.76 162.74 112.97 164.77 112.79 165.14 112.79 165.14 112 162.83 109.87 162.5 109.55 163.43 108.9 163.8 107.88 163.89 106.59 163.94 106.49 163.94 106.12 163.38 105.8 163.8 105.06 163.8 105.01 163.89 104.87 164.22 104.23 164.13 104.13 163.71 103.58 163.71 103.12 164.36 103.44 164.36 103.35 164.31 102.75 166.72 102.1 166.72 101.13 167.74 100.43 168.15 100.43 168.94 101.03 170.51 101.03 170.56 101.59 171.9 102.51 173.06 102.98 174.03 103.16 174.26 103.39 174.68 103.49 175.37 103.16 175.46 102.98 175.51 102.79 176.25 102.84 176.57 102.93 177.31 103.07 177.59 103.39 177.78 103.25 178.01 103.35 178.98 103.44 179.16 103.39 179.95 103.21 179.91 103.86 180.23 104.18 180.69 104.18 181.39 103.58 181.99 102.1 182.08 101.59 182.87 101.13 183.05 100.39 182.73 100.15 182.82 99.88 183.19 99.51 183.42 99.46 183.93 98.9 183.93 98.67 184.12 98.58 184.21 98.3 184.12 97.89 184.25 97.05 185.27 96.73 186.52 97.15 186.89 96.22 186.85 95.39 186.89 95.39 187.22 95.34 187.22 95.11 188.84 95.16 189.21 95.16 189.25 95.99 189.53 96.03 189.67 96.08"/><path class="cls-1" d="M188.05,87.57v0H188v0h.05m-.28,0v0h0v0h0v0h-.23v0h-.05v0h.09v0h.09v0h0v0h.05v0h-.05v0Zm.14,0h0Zm0,0h0v0Zm-.18,0v0Zm-.28,0h0v0Zm.33,0h0Zm-.42,0v0Zm.51,0v0Zm-.46,0v0Zm.09,0v0Zm0,0v0h-.14v0h.05v0h0v0Zm-.42,0h0v0h0v0h.05v0h-.23v0H187v0Zm.14,0v0h0v0h0v0Zm.09,0h0Zm1.85.37v0h0v0Zm.1-.05v0l-.05.05v-.05Zm-4.21.05h.09v0H185v0h0v0h0Zm.32,0h0Zm0,0h0Zm-9.25.37v0h0v0h.09v.05h.09v0h.14v0h.09v0h.1v0h.13v0h0v0h0v0h0v0h.05v0h0v0h.1v0H177v0h.09v0h.09v0h.14v0h.14v0h.19v0h.23v0h.14v.05h.14v0h.09v0h.18v.05h.19v0h.23v0h.28v.05h.32v0H180v0h.56v0h.23v0h.14V89.6H181v0h.09v0h.1v-.05h.09v0h.09v0l0,.05h0v.14h0v0h.09v.1h0v.09h0v0h.05V90h0v0h.05v0h0v0h0v0h0v0h.09v0h.05v0H182v0h0v0h.09v0h.09v0h.05v0h.09v.05h0v0h.09v0h.09v.05h.1v0h.09v0h.09v0H183v0h.18v0h.33v0H185v0h.33v0h.55v0h1.07v0c0,.63-.13.56-.14,1.2l0,.61.46,0,.24.09,0,.05-.05.23v.09l.19.28-.05.14,0,.14-.14.56-.05.13-.05.28.05.33v.23l-.32,0h-.05l.05.84-.37.92-1.25-.41-1,.32-.14.83.09.42-.09.28-.19.09v.23l-.51.56-.23,0-.37.37-.09.28.32.23-.18.74-.79.47-.09.5-.6,1.49-.7.6h-.46l-.32-.33,0-.64-.78.18-.19,0-1-.1-.23-.09-.19.14-.27-.32-.74-.14-.33-.1-.74,0,0,.18-.1.19-.69.32-.42-.09-.23-.23-1-.19-1.16-.46-1.34-.92-.05-.56h-1.57l-.79-.6v-.7l-.37,0-1.2-.23.37-.88-.65-.88-1-.88.28-.37.93-.37.51-.51-1.11-.88,1-.56,2.64-1.43,1.67-.83,1.94-.23h.09l.33.27.14,0,.74-1,.92-.93.19-.28.09-.18,0,0h0v-.09l0,0,.05,0v-.09l0,0,.05,0v-.1l-.05,0h0v0h-.05v0l.14-.24v-.36h0v-.1H176v.1Zm4.95.6h0Zm.23,0h.05v0h-.05Zm0,0v0Zm.18,0v0h.19v0h-.05v0h-.09v0h0v0h-.14v0Zm-.05,0v0Zm-.18,0h0v0h0v0h0Z"/><path class="cls-1" d="M152.51,63v.18h.05v.14h0v.23h.05v.14h0v.14h0V64h0v.14h.05v.1h0v.09h.05v.14h0v.14H153v.09h0v.18h0V65h0v.14h.05v.09h0v.05h.05v.14h0v.09h0v.14h.05v.14h0v.09h.05V66h.05v.09h0v0h0v0h.05v0l0,0v0l.05,0v.09h.05v.09h0v.09h0v.05h0v.09h0v.1h.05V67h0v.14h.05v.19h0v.09h0v.14h0v.18h.05V68h0V68h.05v0h0v.23h0v.14h.05v.09h0v.14h0v.09h.05v.14h.05V69h0v.09h.05v.09h0v0h0v.09H155v.14h0v.09h.05v.09h.05v.1h0v.09h0v.09h.05v0h0V70h.05v.09h0v.09h0v.1h0v.09h0v.09h0v.09h.05v.1l0,0v.1h.05v.09h0V71h0v.09h0v0l.05,0v0h0v.09H156v.1h0v0h.05v.1h0v0l0,.05v0h.05v.1h.05v0h0v0h.05V72h0v0h0v.09h.05v0h.05v.09h0v.09h0v0h0v0h0v.1h.05v0h0v.09h.05v0h0v.05h0v0h0v.1h0v0h0v0h.05v0l.09,0v0h-.05v0h0v0h.05v0l.09-.1h0l.09,0v0l-.09,0-.09.1h0v0h0v0h.05v0l0,0v0h.05v0h0l-.05,0,0,0-.05,0v0h0v0h0V73h0v0l-.09.09,0,0v0h.05v0h0v0l0,0,0,0v0h.05v0l0,0v0l.05,0v0h0v0h.1v0h0v-.09h0v0l0,0v-.09l0,0v0h0v0l0,0v0l0,0v.23h-.09v.18h0v.14h0v0l.1,0,0,0,0-.05v0l.05,0-.05,0v0h0v.05h0l-.05,0v0h0v0h.05v0h0v0h-.05v.09h.05v0h0v0h0v0h0v0h0v0h0v0h0v.1h0v0h0v0h.05v0h0v0H158v0h0v0h.05v0h0v0h0v0h0v0h.05v0h0v0h.05v0h0v0h0v.05h0v0h0v0h0v.05h.05v0h0v0h.05v0h0v0h0v0h0v0H159v0h.09v0h0v0h.1v0h0v0h.14v0h0v0h.05v.09h0v.1h.05v.09h0v0h.05V76h0v0l0,.05v0h0v0h0v.05h.05l0,0h.05v0h-.05v0h.05v.09h0v0h0v.09h0v0l0,0v0h0v0l.05,0v0h0v0h.05v.1h0v0h0V77h.05v.09h0v.05l.05,0v0h.05v.05l0,0v0l0,.05v0l.05,0h0v.09h.05v0h.05v.09h0v0h0v.09h0v0h0V78h.05v.09h0v0h.05v.1h0v0h0v.1h0v0h.05v.09h0v.1h.05v0h0v.1h0v0l0,0v0h0v0h.05V79h.05v0h0v0h.05v.09h0v0h0v0H162v.09h0v0h.05v.09h.05v0h0v.09h0v0h.05v0h0v.1h.05v0h0v0h0v0h0v0h.05v0h0v.09h.05v.09h0v.09h.05v.05h0v.09h0v.09h0v0h.05v.09h0v.1H163v0h0V81h0v0h0v.09h0v0h.05v0h.09v0h0v.09h0v0h.05v.05h0v.09h0v.05h.05v0h.05v0h0v.05h0v.09h0v0h0v0h.05v0h0v0h.05v0h0v0h0v0h0v0h.05v0h0v0h.05v0h0v0h.05v.05h0v0h0v0h0v.05h.05v0h0v0h.05v.05h0v0h0v0h.09v.05h.05v0h.05v0h0v.05h0v0h.05v0H165v0h0v0h.05v0h0v0h0v0h.1v0h0v0h.05v0h.09v0h0v0h0v0h.1v0h.14v.05h0v0h0v0h0v.05H166v0h.05v0h0v.05h0v0h.05v0h0v0h.1v0h0v0h0v0h0v0h.1v0h0v0h.1v0h0v0h0v0h.05v0h0v0h.05v0h0v0H167v0l0,0v0h0v0h0v.05h.05v0h.09v0h0V85h0v0h.05v0h0v0h.05v0h.05v0h.09v0l.05,0v0l-.05,0h.05v0h0v0h.05v0h.09v0h0v0h0v0h.1v0h0v0h.09v0h.1v0h0v.05h.1v0h.09v0h.09v.05h.05l0,0h.1v0h.09v0H169v0h.09v0h.1v0h.09v0h.09v0h.09v0h.14v0h.1v0h.09v0h.14v0h.14v0h.09v0h.14v0h.14v0h.09v0h.14v0h.14v0h.09v.05h.14v0h.14v0h.09V87h.19v0h.18v0h.14v.05H172l.05,0h.09v0h.14v0h.1v0h.13v0h.14v0h.14v0h.14v0H173v0h.19v0h.23v0h.14v0h.14v0h.13v0h.24v0h0v.09h.09v0h0v0h.1v0h.14V88h.18v0h.19v0H175v.05h.13v0h.1v0h.09v.05h.14v0h.09v0h.14v.05h.14v-.05h.05v0h0v0l-.05.05v0h.05l0,0,0,0h0v0l.05,0h-.05v0H176v.37l-.14.23v0h.05v0h0l.05.05v.09l-.05.05,0-.05v.09l-.05,0,0,0v.1h0l0,0-.09.19-.09.18-.1.09-.92.93-.74,1-.14,0-.33-.28h-.09l-1.94.23-1.67.83-2.64,1.44-1,.55-.65-.37-.37.51-.56.14-.23,0-.46-.28-.19-.28,0-.74-.51-.18-.83-.28.09-.19.23-.51,0-.09-.1-.14-.23.09-.28-.18v0l-.27.6-.14,0-.23.1.09-.56,0-.6v-.19l-.92,1.16L158,90.65l-1.25.23-.55-1.3-.42-.88v0l-.51-.33-.41-.32-.05-.05-.09-.51-.1-.46v0l-.27-.18-.23-.19-.42-.14H153l-.33-.27.05,0,0,0,.32-.32-.23-.19-.09-.09h0l-.46-.37.14-.14.55-.51-.18-.32h-.47l-.64-2.82-.74-.47V80.6l-.51-.23.32-.23.19-.28-.47-.23v0l.05-.23.23-.18-.18-.84v-.69l.92-.6.33-.84-.93-.78H150l-.69-.37-.51-2h0l-.1-.42,0-.23-.1-.23,0-.23-.05-.09v-.14l-.09-.19v-.14l.14-.32,0-.14.51.09.1-.46v-.05a2.82,2.82,0,0,1-.19-1.29v0c.19-1,.47-.79-.23-1.8l-.05-.09.23-.14,0-.24A3.61,3.61,0,0,1,149,66v-.33l0,0h.14l.37-.1h.19l.09,0,.28,0,.14-.09.09-.09h0l0-.1.09,0v-.23h.51a4.38,4.38,0,0,0,.42-.28v0h.05c.19-.19.28-.54.41-.65l.05-.09-.05-.09h0l-.05-.05,0,0,0-.1v0l0,0-.05-.09,0-.05v0l-.05,0v-.05l0,0v0l-.05-.09,0,0h.47l.09,0v-.05h.23l.09,0h.09l.1,0v.18h0"/><path class="cls-1" d="M146.54,84.42l.51.65.88,0,.14-.09.14-.09.46-.37.79.51,1.25.18h.09l1.34,0h.05l.46.37h0l.09.1.23.18-.32.33,0,0-.05.05.33.28h.74l.41.13.23.19.28.19v0l.1.46.09.51,0,0,.42.32.51.33v0l.42.88.55,1.3,1.25-.23,2.31,2.17.93-1.15v.18l0,.6-.1.56.24-.09.13,0,.28-.6v-.05l.28.19.23-.1.09.14.05.1-.23.5-.09.19.83.28.51.18,0,.74.19.28.46.28.23,0,.56-.14.36-.51.65.37,1.11.88-.51.51-.92.37-.28.37,1,.88.65.88-.37.88,1.2.23.37,0v.69h-.42l-1,.7v1l-2.41.65.05.6v.09l-.65-.32v.46l.41.55.1.1-.33.65-.09.13v0l-.42.74.56.33v.36l-.05.1-.09,1.29-.37,1-.93.65.33.32,2.31,2.13v.79h-.37l-2,.18-.88.79-.37.33-1,.92-.14.56-.19.92-.09.51.6.79.05,0v0l-.23,3.1-.05,1-.05.19-1.29,1.48,0,.14V124l-1.57,15.73v.37l-1.16.14-3.24.46-10.46,1.53-10,1.39.14-.42.14-.37.14-.42c.71-2.22,1.41-4.5,2.18-6.71l.18-.55.14-.46.14-.51c.3-.78.49-1.59.79-2.36l.18-.51c.93-3.42,1.17-1.36-.56-4.63l-.23-.37c-2.49-4.22-4.95-8.45-7.45-12.68l-.23-.37-.09-.19.09,0v0c.05-.71.44-1.83.23-2.4l.1-.19-.1-.18-.09-.19V110l.09-.19,0-.18.05-.19v-.23l-.05-.19-.14-.13a5.58,5.58,0,0,1,0-1.53l0-.23-.09-.14.09-.19v-.18l0-.19v-.18l0-.19,0-.14.14-.14,0-.09.1-.09v-.19l-.1-.18V105l.05-.13,0-.14c-.12-.7.44-1.16.78-1.72l.14-.13.14-.19.09-.14c.72-1.37,1.5-2.73,2.18-4.12l.09-.14v-.09h0l0-.09.1-.19v0h0l.09.09h.05v.05h0l0,0,.79.47,1.57.88,3.24-2,.19-1.2.51.09.32,0v.46h.19l1.71-1.25,0,.56,0,.42.78-.56.65-.28.51-.18.28-.14.37,0h.09l.19.09.18.1-.05.32.47,0,.51-.23.23-.05h0l.33-.09.23-.09-.56-1.07.61-.6.13-.65.14-.28-.46-1.11L145,90.3v0l-.37-.79.37,0,.88-.1v-.6l-.05-.09-.42-1.16h.42l.09-.14v0l-.28-1.07.19-.27h.05l.18,0,.19-.42-.14-.55,0-.23.14-.24.14-.09h.05l0,0"/><path class="cls-1" d="M155.38,28.84v.09h-.09v0h0v-.09h0m.28.18h.09v.05h-.05V29Zm.23.42v0Zm-.83,1.67v.09H155v-.05h0v0Zm-2.36.37v.09h0v.18h-.05v.1h0v.09h0v0h.05v0h0v0h.05v-.19h0v0h0v0h0v.14h0V32h0v0h0v.09h.14v0h0v-.14H153v-.05h0V32h0v0h0v0h0v.14h0v0h0v0h.09v-.05h0V32h.05v-.09h.05v-.09h0v0h0v.09h.05V32h0v0h-.05v0h-.09v.09l0,0v0h0v.1h0v0h0v.09h-.05v0h.05v.05h.09v-.05h.05v0h0v0h.05V32.4h.05v0h0v0h0v-.05h0v.09h0v0h.05v0h0v0h.05v0h-.05v0h0v.09h0v.1h0v.09h0v0h.05v.1H154v0h0v0h.05v0h0v0h.05v-.09h0v0h.1v.19h0V33h0v-.05h.09V33h.05v0h0v-.1h.14v0h.05v0h.18V33h0v0H155v-.05h.09v0h0v0h0v0h0v-.05h0v0H155v0h-.05v-.09H155v0h-.1v0h-.14v-.1h-.09v0h0v-.05h0v.05h.09v0h.1v0h0v0h.19v0H155v0h.09v-.14h0v-.05h0v0h0v.05h.05v0h.09v0h0v.18h0v.05h0l0,0h0v.14h0v0h0v0h0v.13h0V33h.14v0h0v0h.05v-.05h0V33h.05v.14h-.05v0h0v0h-.05v0h0v0h-.05v0h0v0h-.09v0h-.05v0h0V33.1h0V33h-.23v0h-.14v0h-.23v0h0v0h-.1v.05h0v0h-.1v.09h0v.05h-.05v.09h0v0h0v0h0v-.05h0v0h0v0H154v0H154v0h-.14v.09h-.05v0h0v0h0v-.05h-.09v.19h0v0h0v.09h0v0h0v.1h-.18v-.1h-.05v0h-.09v0h-.09v.1h-.05v-.05h-.09v0h0v0h0v.05h0v.18h0v0h0v0h0v0h.05V34h0v0h.05v0h0v0h0v.05h-.19v.09h0v0H153v.09h.1v0h0v0h0v0h.05v0h0v0h.09v0h-.13v.05h-.05v0h.05v0h0v.05h.05v0h0v0h.1v-.05h.09v0h0v0h.05v.28h0V35h.14V34.9h0V35h.05v.14h0V35h.05v.05H154v0h0v0h.05v0h0V35h.09v0h0V34.9h0v0h.1v0h0v-.09h-.05v-.09h.05v-.05h0v0h0v.18h0v.05h.19v0h0v0h.05v-.05h0V35h0v0h.05v0h.09V34.9h0V35h-.14v0h-.09v0h-.05v.09h0v0h0v.23h0v.09h.05v.09h.09v.1h0v0h.05v.1h-.05v0h.05v.05h-.05v-.05h-.14V36h-.09v-.13h0v0h0v-.05h-.14v0h.05v0h0v0h.05v0h0v-.14h-.05v-.09h-.05v0h-.23v0h0v.09h-.05v.05h0v0h0v0H154v0h0v0h0v0h0v0h0v.05h0v.09h0v0h0v0h-.14v0h0v0h.09v.05h0v0h0v0h.09v.09h-.09v0h0v.09h0v0h.05v.14h0v.09h-.05v0h0v0h0v0h.09v0H154v.09h.09v-.09h0v-.09h.05v0h0v0h.05v.14h0v0h.05v0h0v0h.09v0h-.05v0h0v0h.05v0h.05v.05h0v0h0v.19h.09v0h.05v0h0v0h.05V37h0v.1h.05v0h0v.05h0v0h-.05v0h-.05v-.05h0v.05h-.05v0h-.09v-.1h0v0h0v0h-.14v0h-.14v0h-.09v0h-.05V37h0v.1H154v0h0V37h-.09v0h0v0h-.05V37h0v0h-.05v.09h-.14v-.05h-.05V37h0v0h-.05v-.05h0v0h0V36.8h0v-.09h-.1v0h0v0h0v-.05h0v0h.1v0h-.05v0h0v0h-.09v-.1h0v-.09h.1v0h0v0h0v0h0v-.05h0v-.09h0V36h0v0h-.14v0h-.05v0h-.05v.05h0v.09h-.1v0H153v.09h-.09v.09h.05v.05h-.05v0h0v.1h.05v0h0v.14h0v0h-.05v0h0v.09h0v.09h0v0h-.05v0h0v0h0v-.1h.05v0h0v-.19h0v0h0v-.09h-.05v0h0v-.05h.09v0h0v0h0V36h.09v0h0v0h.23v0h-.05v0h.05v0h-.05v-.05h0v-.09H153v-.05h-.09v0h0v0h0v0h-.14v0h-.05v0h0v.09h0v0h0v-.05h0v.05h0v.14h-.09v0h-.05V36h0v.1h0v0h.14v.05h0v0h-.14v0h0v.05h0v0h0v0H152v0H152v0h-.09v0h-.14v0h-.05v0h0v0h0v.09h0v.05h0v0h.05v0h.05v.14h-.05v.09h.05V37h-.05v0h0v0h.09v0h.05v0h0v-.05h0v0H152V36.8h0v.05l0,0v0H152v.19h0v0h0v0h-.09v.09h.09v0h0v0h-.1v.05h0v.14h0v.09h-.05v0h.09v0h0v0h-.05V38h.14v-.05H152v0h0v0H152v-.13h0v0h0v0h.05v0h0v-.05h0v0h0v0h0V37.4h0v0h.05v0h.09v0h.09v-.14h0v-.05h0v.05h0v.09h.05v.14h-.05v.05h0v0h0v.09h0v0h-.09v.1h0v.09h0v.09h-.05V38h0v0h0v.09h.05v0h.09v0h0v.05h0v0h.05v0h0v0h.1v0h0v-.05h0V38h0v-.05h0v0h0v0h0v0h0v0H153v0H153v0h0v.18h0V38h0v0h0v0h.05v-.09h0v0h0v0h.09v.09h.05V38h-.05v.09h.05v.05h-.05v0h0v0h0v.09h.05v0h0v0h.14v0h.09v-.05h0v0h.09v-.09h0v.14h0v0h.09v0H154V38h0v0h0v.05h.14v0h.09v0h.05v.05h.14v-.05h0v0h.09v.1h.05v0h-.09v0h-.09v0h0v.05h-.05v0h-.09v0h-.05v0h-.09v0h-.18v.14h-.05v.1h0v0h0v.05h0v0h.05v0h-.1V39h0v0h0v.09h0v0h-.09v0h0v0l0,0h-.09v0h0v0h-.14v0h0v.05h0v-.05h-.05v0h0v0h0v0h0v0h0v0h-.05v.09h0v0h0v0h-.05v0h0v0H153v.05h-.05v-.05h-.09v.1h0v0h0v.05h.09v0h0v0h0v.05h0v.09h-.14v.05h0v0h0v0h.09v0h0v-.09H153v-.1H153v0h0v0h.05v0h.09v0h0v.1h.09v0h.05v0h.14v-.05h.05v0h.09v.14h-.09v.14h0v0h0V40h0l-.05,0h.05v0h0l0,.05h.09v0h-.05v.1h.05v0h0v.1h0l0,0h0v-.09h-.05v0h0v0h-.05v0h0v.19h0v0h0v0h-.05v0h0v0h-.05v0h.05v.05h0v0h-.09v0h-.09v.1h-.05v.09h.14v.05h.05v0h0v0h.05v0h.09v0h.1v0h0v0h.05v0h-.05v.1h.05v0h-.05v.05h0v.09h0v.14h.05v0h.09v0h.14v0h.09v-.1H154v0h.14v0h.09v0h-.05v0h0v0h0v0H154v0h-.14v0h.05v.18h0v0h0v0h-.05v0h-.09v-.09h-.23v.05h-.05v.09h0v0h0v-.14h-.1v0h0v0h-.09v0h0v0h-.05v0H153v0h-.05v0H153v.1h-.05v0h0v0h0v0H153v0h-.05V42H153v0h-.05v.23h0v.1h.14v0l.05-.05v.05h0v0h.09v.1h-.05v.09h0v.09h0v0h-.05v.09h.05v.09h-.05V43h0v0h0v0H153v.1h-.05v0h-.09v.05h0v-.05h-.19v0h-.09v0h-.1v.05h0v0h0v0h0v.05h.14v0h.09v0h.09v0h.05v.14h-.05v0h-.09v.05h-.14v-.05h-.09v0h-.05v0h0v0h-.05v.05h.05v0h0v.09h.05v-.05h0v.05h.1v0h0v.23h-.09v0h0v.14h0v0h0v0h-.1v0h0v0h-.05v0h0v.09h0v.1h0v.09h0v.09h0v.09h-.09v-.13H152v-.19H152v.14h-.09v.05h0v.18h0v.09H152V45l-.05,0v.05h-.09v-.05h-.05v.1h.05v0h0v.05h-.05v.09h0v.09h-.05v0h0v.09h-.05v0h0v0h0v0h-.1v.05h0v0h-.05v0h0v.05h0v0h0v0h-.05v-.14h.05v0h0v0h0v-.1h0V45.5h.05v0h0v-.09h.05v0h-.05v0h0v0h-.05v0h0v0h0v0h0v0h0v.14h0v0h-.05v0h0v.05h-.09v0h0v0h0v0H151v.05h0v0h0v0h0v0h-.05v.1h0v0h-.05v.1h-.09v.09h-.05v0h0v.19h-.05v.09h.05v0h0v0h.05v0h.09v.05h0v0h-.09V47h.05v.09h0v.14h0v0h-.05v0h-.09v.1h-.05v.23h0v.23h0v0h0v0h0v.41h0v.1h-.09l-.05,0v.09h-.09v.1l.05,0v.1h.09v0l-.18.09c-.45,0-.81-.39-1.25-.37l-.37.05-.1-.46V48l0-.13,0-.28-.05-.14-.13-.51,0-.19.05-.13.09-.47v-.14l-.14-.55,0-.09v-.14h0v-.7l-.09-.09-.19-.23v-.37l.19-.28,0-.05v-.09l.23-.23v-.14l-.09-.23.19-.28.09,0,.09-.1.05-.41v-.1l-.14,0v-.23l0-.1,0-.09,0,0v-.19h.09l.14-.09.05,0,.14-.23.09-.18,0-.24-.09-.18-.05-.09v-.51l-.18-.14v-.05l0-.09V39.3l-.09-.14v0l-.05-.09,0-.05,0-.09v-.05l0-.09-.05-.09,0-.09,0-.05-.1.05h-.13l0,.09v.09l-.05,0-.09,0-.09,0,0,0-.05.05v0h-.13l-.14-.1h-.1l0,.05-.28,0h-.05v-.1h0v0h0v-.09h.05v-.18h.05v-.05h0v0h0v0H147v-.05h0v-.18h.05v-.1h0v0h0v0h0v0h0v-.14h0v-.1h.09v0h.05v-.09h.09v-.1h0v-.14h0v-.13h.05v0h.05v-.09h0V37h.05v0h0v-.09h0v-.1H148v0H148v0H148v0H148v0h0v0H148v.05h.18V36.8h0v0h.05v0h0v-.1h.05v0h0l0,0v-.09h0v-.14h0V36.2h0v-.14h.05v-.51h0v0h.05v-.14h0V35h0V35h.1V34.9h0v-.09H149v-.09h0v0h.1v-.05h0v-.09h.05v-.09h0v0h.05v0h.05v0h.09v.23h0v.19h0v.09h0V35h.09v0h.05v.19h0v.14h0v.14h0v.18h0v.1h0v-.05h.05v0h0v-.18h0v-.14h.1l0,0h.09v0H150v.09h.14v0l0,.05v0h0v0h0v0h.05v0h-.05v-.05h.05v-.09h0v-.05h.05v-.09h0v0h.05v0h0v.09h0v0h.05v0h.05v0h0v0h0v.05h.05v-.14h0v0h.09v0h.05v0h0v0h0v.09h-.05v0h.05v.05h-.05v.09h0v.14h.05v0h0v0h0v-.05h.09v0h0v-.14h0v.1h0v0h0v.1h0v.09h0v.18h0V36H151v0h.18v.05h0V36h.09v-.09h-.18v-.05h0v0h0v0h.09v0h.19v.05h0v0h.09v-.14h.05v0h0v0h.05v0h0V36h0v0h0v.05h.1v0h0v0H152V36h.05v-.09h0v-.09h0v0h.09v0h0v-.05h0V35.6h0v0h0v0h0v-.05h.05v0h0v0h.1v0h0v0h0v0h.05v0h0v0h.05v0h.09v0h0v0h0v0h0v0h.05v.14H153v0h0v0h.18v-.09h-.05v-.09h0v0h.18v0h.1v-.14h-.1v0h-.09v0h-.05v0h-.09v0h0v0h.14v0h0v-.1h0v0h0V35h0v0h0v0h-.05V34.9h-.05V35h0V34.9h0V35h-.05v0h0v0H153v0h0V34.9h0v-.14h0v0h-.1v0h0V35h0v0h0v-.14h-.05v0h.05v-.09h-.09v.09h-.05v0h.05v0h-.05v.28h0v0h0v0h0V35h0V34.9h0v0h-.09v0h-.05V35h0v0h-.05v.05h0v0h0v0h-.09v0h-.09v.1H152v0H152v-.05h0v.05h0v.14h-.05v.05h0v.09h-.14v0h0v0h0v0h0v0h-.05v0h-.14v0l0,0v0h0v0h-.05v-.14h.05v0h0v0h-.05v0h0v-.18h0V35h0V34.9h.1v-.19h0v0h0v-.05h.05v.1h0v0h0v-.14h0v0h0v-.09h0v0h-.05V34.3h.14v0h-.05v0h0v-.28h0v-.19h.05v0h0v0h.05v0h0v.09h0v0h.19v0h-.05v0h.05v0h0v0h0v0h.1v.14H152v0h.05v0H152v.09h.09v.05h.09v-.05h0v.05h.05v-.05h.09v.05h0v0h0v0h0v-.05h0v0h0v-.19h-.14v0h0v-.05h0v0h-.05v0h.1v0h0v-.09h0v0l0,0h-.05v0h0v-.09l-.05,0h0v0l0,0h0v0h0v-.14h0v0H152v0h-.13v-.1h0v-.09h-.05v0h-.09v0h-.09v-.05h-.09v0h0v-.1h0v0h.05v0h0v0h.09v-.05h.05v.09h0v0H152v0h.05v0h0V33h0v0h0v.09h0v.09h.05v0h0v-.05h.05V33h0v-.14h0v-.14h0v0h-.14v0h0v0h.05v-.14h0v-.09h0v-.1h0v.05h.05v-.05h-.05v-.14h0v0h0v0h0v-.09h0v-.09h0v-.1h.05v-.09h0v-.09h.05v-.09h0v0Zm3,0v.09h0v0h.05v.1h.05v.14h-.05v0h.05v.05h0v-.05h.1v.05h-.05v0h0v0h-.32v0h-.05v0h0v0h-.1V32h.14V32h.05v0h0v-.09h0v-.14h0v-.14h0v-.05h0v0Zm-2.18,0h.05v.05h-.09v0h0v.1h0v0h0v.05h0v-.09h-.05v-.1h.05v-.09Zm.65.19v0h.09v.1h.09v0h.1v0h0v0h0V32h-.05v0h-.14v0h0v0h0v0h0V31.8h0v-.09Zm-1.85.09h0v.05h.05v0h-.05v.05h0V32h-.05v.09h0v.05h.09v.18h-.05v.28h-.09v0h0v0H152v-.23h0v-.14h0v0H152v-.05h0v-.09h.05v-.09h0V32h0v0h.05v-.05h0v0h-.09v-.1h.09v.05Zm.55-.05h0Zm.61.05h0v.05h0Zm-.47.28h0Zm1.16,1.52v-.14h.05v.1h-.05v0Zm0,.19v.09h0v0h0v-.05Zm-2.87,1v0Zm-.09.23v0Zm1.76.09v.14h-.05v-.09h.05v0Zm-2.09.19h0Zm0,0h0Zm-.23.09h0Zm1.43.19h0Zm.09,0v.09h0v0H152v0H152v0H152v0Zm.51.14v0Zm-.65,0v0h0Zm2.6.1v0h0Zm-3.38,0h0Zm4.86.23v0h0v.05h0v-.05H156v0H156v0Zm-3.84.37h0v.05h0Zm1.11.23h0Zm-.42,3v0Zm.83.7h0Zm0,0v0Zm-.09.51v0Zm.51.42v0Zm.27,0h0Zm-3.93,14.48-.05.1h0v0l-.1,0v.09l0,0v.32h.09l.05,0,0,0h0v0h0v-.19h.05l0-.05v0h0l0,0-.05-.09,0,0,0-.09v0Zm.19-.87.09.09H151v0l.05,0h.09v.09l0,.09v.14l.09,0v.13l.05,0,0,.05.1-.14h.14l0,0h.28l.05,0,0,.05v.09l0,0v.18l-.05.05v.18l0,.1,0,0h-.1l0,.09h-.05l0,.05h-.05l-.14,0v0l-.19.05c-.11.13-.11-.09-.41.28h-.05v.09l-.09,0,0,.05v0l-.18,0-.05-.09h-.23l-.05,0,.05.05h-.09v0L150,57l0,0h-.05V57l-.09,0-.14-.09-.05-.05h0l-.09.05-.05-.05v-.14l0-.18.09,0,.09-.09.14,0,.19-.23h.14l0,0v0l.05-.19v0l-.14-.14h0v-.1l0,0,0-.05-.09,0,0,0-.09-.05h0v0h0v-.1l0,0,.1,0h0v0l.19-.1,0,0,.1-.05,0,.05.1,0V55Z"/><path class="cls-1" d="M145.8,63l-.09.28v.23l.18,0h.23l-.09.18c-.24.62-.66.74-.14,1.43l.19.1-.19,0-.23-.09-.18,0-.14,0-.47-.19-.13,0h-.14l-.19-.09V65l.05,0,0,.09.1,0,0,.1.05,0,.09.05.05.09v.05l0,0c.17.24.35.46.51.7l.05,0v0l.09,0c.24.49.59,1,.88,1.48l0,.14.28,0,.37,0,.18-.09.37-.23.46-.24h0l.05,0,0,0h.05l.18-.09.14-.09,0,0,.05.09c.7,1,.42.84.23,1.81v0a3,3,0,0,0,.18,1.3v.05L149,71l-.51-.09-.05.13-.13.33v.14l.09.18v.14l0,.09.05.24.09.23,0,.23.09.42h.05l.51,2,.69.37h.79l.93.79-.33.83-.92.6v.7l.18.83-.23.19-.05.23v0l.47.24-.19.27-.32.23.51.24v.23l.74.46.64,2.82h.47l.18.33-.55.51-.14.13h-.05l-1.34,0h-.09L149.46,85l-.79-.51-.46.37-.28.18-.88,0-.51-.65,0,0h0l-.14.09-.14.23,0,.23.14.56-.18.41-.19,0h0l-.19.28.28,1.06v0l-.09.14h-.42l.42,1.15,0,.1v.6l-.88.09-.37,0,.37.78v0l.7,1.53.46,1.11-.14.27-.14.65-.6.6.56,1.07-.24.09-.32.09h0l-.23.05-.51.23L144,96l.05-.33-.37-.18h-.1l-.37,0-.27.14-.51.19-.65.27-.79.56.05-.42,0-.55-1.72,1.25h-.18v-.47l-.33,0-.5-.1-.19,1.21-3.24,2-1.57-.88-.79-.46h0v0c.21-.19-.06,0,.27-.32l.1-.19c0-.16.18-.58.18-.78l0-.19v-.09l.09-.19a5.4,5.4,0,0,0,.51-.74l.09-.18.05-.14c.37-.29.18-.47.51-.6l0,0,.14-.14.14-.09v0l0-.09L135,94c.22-.58.54-.56.79-1.16l0,0v0l.05,0v-.27l-.05-.05v-1.2l.05-.05V91l-.05-.1v-.13l0,0-.1-.19v0c-1.06-1-.48-.33-.55-1.11l0-.19V89l0-.23a2,2,0,0,0,0-1.16l0-.19L135,87.2l-.14-.19-.09-.18-.05,0h0l-.1-.09-.09-.14v-.32l0-.1,0-.09-.05-.05-.14-.18,0,0v0l.23-.23.18-.1.19,0,.55-.28.14-.09a2.7,2.7,0,0,0,1.07-.6l.18-.1.19,0,.14-.14a12,12,0,0,0,2.17-.88h.19v0h.09v0l0,0h.05l0,0h0l.1,0h.09l.23-.1h.14l.05,0,.14.23.27.42h.19c.13.1.29.13.42.23h0v0h.09v0h0l.05,0h.14l0,0,0,0v0l0,0h0v0h.05v0h0l.05,0h.09v-.05h.1v0h0v0h.14v0h0v0h.14v0h0v0h.09v0h.19l0,0h.18v0h.14l0,0h.18l.09,0h.1l0,0h.05l.05,0h0l.1,0h.5l.05,0h.37l.09,0h.14V82.9l0-.05v-.19l-.05,0,.05-.05v-.09l-.05,0a.71.71,0,0,1-.14-.32l-.05,0,0-.09v0l-.09-.09v-.09l-.33-.32v0c-.29-.27,0-.07-.23-.28V81L144,81l0,0v0l-.05,0v-.09l.05,0,0-.05v0l.05,0,0-.05,0,0,0-.13-.1-.42,0-.19h-.09l0,0h-.05l-.09,0,.05,0v0l0-.09v0h-.09l-.05,0h-.5l0,0h-.42l0,0h-.28c-.29,0-.08.07-.37,0h0l0,0h-.14l-.05,0h0l0,0h0l-.05,0h0l-.05,0h0v0h-.1l0,0h-.05v0h-.09v0H141v0h-.1v0h-.09v0h0v0h0v0h0v0h-.05v0h0l-.05,0h0l-.1-.1h0v0h0v-.05h-.05v0h0l-.05,0h-.14v0h-.23v0h-.14v-.23h.05v-.14h0v-.14h.05v-.09H140v0h0l.05,0h0v0h0v0h.09v0h.05v0h0v0h0v0h0v0h.05v-.09h0v-.09h.05V78h0V77.9h.05v-.09h0v-.09h0v-.1h0l.05,0c.41-.39.49,0,.46-.74v-.1l0-.09V75.4h-.14l-.05-.09v-.19c-.16-.73-.11-.26-.42-.88l0-.09-.09,0c-.06-.18-.44-.7-.42-.84l-.05-.09,0-.09,0-.09-.05-.1v-.09l0-.09V72.3l0-.09v-.42l.1-.09,0,0,.1-.09c.24-.17.4-.43.64-.6l.14-.14-.09,0-.05-.09,0-.05-.1-.09,0,0-.14-.14.14-.14.09,0,.05-.09.18-.09,0-.1.09,0,.05,0,.09-.09,0,0,.09,0v-.14l-.05-.09V69.2l0-.09V69l0-.1v-.09l-.05-.09.05-.09v-.1l-.05-.09v-.18l.05-.1V68l0-.09v-.37l0-.1v-.09l0-.09v-.1l0,0-.05-.09-.09-.1-.05,0v-.14h-.09V65.17l0-.09v-.83l.09-.14c.15-.19.27-.42.41-.6l.05,0,0,0,0-.1v0l0-.05.05,0v0l0,0,.05,0h1.2l.05,0,.09,0,.19-.18.14-.14,0-.05c.14-.14.13,0,.33-.27l0-.05.05,0h0l.05,0,.19,0,.13,0,.19.05.19.09.23.05.09.09.18.18.1.1.09.09.09,0,.23,0"/><path class="cls-1" d="M188.05,90.81H188v.09h-.05v0h0v0h.1V90.9l0,0v0l0-.05h0V91h0v0h.09V91h.14v0h.14v0h.14v.05h.14v0h0v0h.09v0h.14v0h.1v0h.14v0h.09v0h0v.09h.05v0h0v-.09h0v.09h.05v0h.09v0h.09v0h0v0h.09v0h.05v0h.09v.09h0v0H190v0h0V92h.05v0h.09v0h0v.05h0v0h0v0h.05v.05h.09v0h0v0h.05v0h.09v0h.05v0h.09v0h.05v0h.09v0H191v0h.14v0h0v0h0v0h0v0h.05v.14h0v0h.14v0h0v0h.14v0h.14v0h.13v0h.05v.05H192v0h.05v0h.14v0h.23v.05h1.07v0h.32v0h.23v0h0v-.05h.05v.05h0v-.05l0,.05h.14v-.05h.23v0h.19v0h.09v-.05H195v0H195v0h.1v0h.09v0h.09v0h.09v0h.05v0h0v0h0v0h0v0h.09v0h0v0h.09v0h.05v-.09h.09v0h.05v0h0v0h0v0H196v0H196v0h0v0h0v.09h.09v0h.28v0h.37v0h0v0h.09v0H197v0h.14v0h.09v0h0v0h.05v0h0v0h.05l-.09,0-.05,0,.05,0v0l-.05-.09-.05,0,.05,0-.05,0,.05,0h-.09v0h0v0h.05v0h.05v0h.09v0h0v0h0v0h.05v0h0v0h0v0h.05v0h0v0h0v.09h0v.09h.09v0h.05v0h0V93H198v0h0v.05h0v0h0v0h0v.05h-.05v0h0v0H198v.09h0v0h0v.09h0v0h0v0h0v0h0v0h0v0h0v.09h.09v.09h0v0h.05v0h.09v0h0v0h0v0h.05v0h.09v0h0v0h.05v0h0v0h0v0h.05v0h-.05v0h.05v0h.05v0h-.05v0h.05v0h.09v0h0v0h-.09v.05h0v0h.09v0h.1v0h-.1v0h0v0h0v0h.09v0h0v0h.05v0h0v-.14h0v0h0v0h0v.09h0v0h0v0h.1v0h-.05v0h.05v0h0v0h0v.09h0v0h0v0h.05v0h0v0h0v0h0v0h0v.09h0v0h.09v0h.05v0h.14v0h0v0H200v0h.05v0h0v0h0v.1h0v0h0v0h0v.09H200v0h.05v0h0v0h0v-.18h0v0h0v0h0v0h0v0h.14v0h.18v0h0v0h0v0h0V95h0v0h.09v0h0v0h0v0h0v0h-.09v0h0v0h0v0h.09v0h0v0h.05v-.13h0v-.1h-.05v0h0v0h.1v0h0v0h.05v0h0v0h0v0h.09v0H201v0H201v0h0v0h.05v0h0v0h0v0h-.05v0h.05v0h0v0h0v0h0v0h.1v.1h-.05v0h-.05v0h0v0h0v0h.05v.1h.05v.09h0v0h0v0h0v0h0v0h0v.09h0v0h.05v0h0v.1h0v.09h0V96h.1v0h0v0h0v0h0v0h0v0h0v.14h0v.19h0v.09l0,0v.33l0,0v.14h.05v0h0v0h.05v0h0v0h0v0H202v0h0v.18h0v.1h0v0h.05v.1h0v0h.05v.05h.09V98h.09v0h.1v0h0v0h.1v0h.09v0h.09v0H203v0h.05v0h0v.09h.05v.1h0v0h.05v0h0v0h.09v.05h.05v0h0v0h.14v.05h0v0h0v0h.05v.09h.05v0h0v.05h0v0h.05v0h0v0h.23v0h.1v0h.09v0h0v0h.09v0h0v0h0v.18h0v0h0v.37h0v.28h0v.09h.05v.09h0v0h0v.09h0v0h0v0h0v-.09h.05l0,0v0h0v.14h0V101h0v.09h0v.05H205v0h0v0h.05v.05h.09v0h.05v0h.14v.05h.09v0h0v0h0v0h.05v0h0v0h.1v0h0v0h0v0h.05v0h.09v0h0v0h0v.1h-.05v0h.05v0H206v0H206v0H206v0h0v.14h0v0h0v.18h0l0,.05h0v.32h0v.14h0V103h0v.14h.05v.13h0v.1h.05v0h0v.09h0v.1h.05v.09h0v.09h.05v.1h.05v0h0v0h0v.09h.05v0h0v0h.05v0h.05v0h0v0H207v0h.1v0h0v0h.1v0h0v0h.09v0h0v0h.09v.05h0v-.05h0v.1h-.05v0h.09v.09h.05v.23h0v.09l0,0v.18h.05v.1h.05v0h0v.1h.09v0h0v0h0v0H208v.05h0v0h.1v0h0v.05h0v0h.05v0h0v0h.05v0h0v0h.05v0h0v0h0v0h.1v0h0v0h.09v.09h.05v0h.09v0h.1v0h.14v0h.09v0h.09v.1h.09v0h0v.05h.09v0h.05v0h.14V107h.09v0H210v0h.09v.05h.14v.09h.05v0h0v0h.05v0h0v0h0v.1h.05v0h.05v0h0v.09h.05v.14h0V108h0v.14h.05v.14h0v.09h.05v.1h0v.09h0v.14h0v.09H211v0h-.1v.13h0v.1l-1.53,1.15-1.94-.55-1-.23-.33-.51-.23-.46-.32-.37-.56-.6-.74-.79-.23-.28-1.85-1.16-.05-.27L202,103.2l-.69,0-1.53.05-.14-.51h-.14l-.37.09H199l.05.1v.09l0,0-.55.1-.28-.14-.05,0-.69-.92-.23-.28-1.11.23-.47.42-.69-.56-.32-.65-.7.47v0l-.46.14-.32-.28-.24-.41.37-.1-.27-.32-.28-.05-.14,0-.23-.84.14-.18-.7-.6.19-.74-.65-.56-.6-.55-.14-.56.18-.18h0l-.23-.33-.05,0h-.14l-.18-.05H190l-.23.05-.05-.05-.14,0-.28,0,0-.84h-.37l-1.62,0-.05-.33.05-.27,0-.14.14-.56,0-.14.05-.14-.19-.27v-.1l0-.23.05,0-.24-.1-.46,0,.05-.6c0-.65.18-.58.14-1.21v0h.37v0h.23v0h.09v0h.28v0h0v0h0v-.1h.09m7.82.7v0h.05v.09h-.09v0h0Zm-4.53,1.25v0h-.05v0h0v0h-.05v0h-.09v0h0v0h.09v0h.05v0h0v0h.05Zm6.48,0h0v0h.05v.09h0v0h0v0h0v0h-.05v0h0v0h0v-.09Zm-2.36,0h0Zm0,0h0Zm2.4.19v0h0Zm.1,0v0Zm0,.28h0v0h0Zm1,1h0v0H199v0Zm-.13,0h0Zm.13.1h-.09v0Zm.47.27h0Zm1.11.19v0h.09v.05h.14V95h-.05v0h-.09v0h0v0h0v0h0v-.14ZM201,95v0Zm0,0v0h0v0h0v.09h-.05v0h0v0h0v0h.05V95Zm-.23.09h0Zm-.19,0h0Zm0,.14v0h0v0h0v0h0v0h0Zm.09.14h0Zm3.1,3.7v0Zm.74.37h.05v0h-.05Zm-.09,0h0Zm.14,0h0Zm6.29,8.84v0Z"/><path class="cls-1" d="M60.48,175.65H60.2l-17.9-23.9C34.24,141,26.05,130.34,18.15,119.47,9.71,107.85,6.73,94.78,9,80.62A50.62,50.62,0,0,1,25.06,50.76,51.14,51.14,0,0,1,50.09,38c2.06-.42,4.15-.62,6.23-.91h8c1.55.21,3.11.37,4.65.64a50.87,50.87,0,0,1,32,18.84,50.78,50.78,0,0,1,11.09,38.22,49.55,49.55,0,0,1-9.57,24.77c-8.29,11.2-16.69,22.3-25,33.44ZM25.82,89A34.52,34.52,0,1,0,60.35,54.51,34.43,34.43,0,0,0,25.82,89Z"/></svg>