<svg id="Layer_1" data-name="Layer 1" xmlns="http://www.w3.org/2000/svg" viewBox="0 0 256 265"><path d="M155.89,28.88c1,.83,2,1.6,2.89,2.49Q178.63,51.19,198.47,71a7.49,7.49,0,0,1,2.43,5.81c-.07,20.26,0,40.52,0,60.78a4.76,4.76,0,0,0,.2,2.32c.68-.45.73-1.2,1-1.81q7.44-18.11,14.85-36.24c2.5-6.11,6.67-7.86,12.79-5.37,4.07,1.66,8.15,3.31,12.22,5,5.68,2.35,7.47,6.68,5.13,12.41q-8.49,20.79-17,41.57a9.16,9.16,0,0,1-1.07,2.06,3,3,0,0,1-3.8,1,2.91,2.91,0,0,1-1.83-3.28,9.07,9.07,0,0,1,.65-2c2.78-6.84,5.54-13.69,8.38-20.5.52-1.24.44-1.8-.91-2.33q-7.44-2.9-14.78-6c-1.27-.54-1.81-.37-2.35,1q-13.17,32.33-26.44,64.62c-.46,1.11-.3,1.55.85,2,4.82,1.89,9.62,3.83,14.37,5.89,1.67.73,2.43.66,3.18-1.25,3.86-9.77,7.9-19.46,11.88-29.18a14.52,14.52,0,0,1,.67-1.57c1-1.81,2.59-2.48,4.23-1.76a3.16,3.16,0,0,1,1.67,4.28c-1,2.59-2.07,5.13-3.11,7.69-3.3,8.09-6.68,16.13-9.86,24.26-1.23,3.13-2.73,6-5.55,7.85-4.52,3-5.79,7-5.45,12.27.46,7.29.12,14.63.11,22,0,4-.9,4.93-4.84,4.93H35c-4,0-4.94-.92-4.94-4.84q0-85.3,0-170.61c0-3.26,1-4.84,3.15-4.91s3.3,1.57,3.3,4.95q0,83.06,0,166.12c0,3.19-.36,2.83,2.85,2.83H191.65c2.69,0,2.7,0,2.7-2.77,0-5.47,0-10.95,0-16.42a3.39,3.39,0,0,0-.32-2.23c-2.13,1.94-4.22,3.82-6.27,5.74-1.25,1.16-2.52,2.17-4.35,1.41s-2-2.23-2-3.88q-.71-14.16-1.49-28.31a9.83,9.83,0,0,1,1-4.32q6.42-15.66,12.84-31.32a9,9,0,0,0,.7-3.5q0-37.44,0-74.86c0-1.82-.38-2.4-2.32-2.39-11.87.1-23.75,0-35.62,0-3.81,0-4.77-1-4.78-4.79,0-11.87,0-23.75,0-35.62,0-1.69-.31-2.3-2.18-2.3q-55.44.09-110.89,0c-1.63,0-2.2.37-2.17,2.11.11,6.25.05,12.51,0,18.76,0,2.66-1.2,4.2-3.19,4.21s-3.25-1.54-3.26-4.17c0-7.53,0-15.07,0-22.6,0-2,.38-3.63,2.16-4.73Zm33.26,42.66L158.33,40.76a2,2,0,0,0-.12.57c0,9.59,0,19.19-.05,28.78,0,1.58.9,1.44,1.92,1.44h29.07Zm36.24,30.28a2.38,2.38,0,0,0-2.21,1.86c-1.67,4.13-3.33,8.28-5.09,12.37-.51,1.17-.42,1.73.84,2.22q7.6,3,15.14,6.2c1.17.49,1.58.18,2-.89,1.62-4.08,3.32-8.13,5-12.2,1-2.33.7-3-1.59-3.91q-6.28-2.59-12.59-5.15C226.34,102.11,225.8,102,225.39,101.82ZM201.15,204c-4.63-1.89-9-3.62-13.26-5.43-1.16-.49-1.33-.1-1.26.94.26,4.38.47,8.77.74,13.16a9.43,9.43,0,0,0,.42,3.64Z"/><path d="M68,178.05c-3.91,0-7.81,0-11.72,0-3.22,0-4.36-1.17-4.37-4.4q0-11.71,0-23.44c0-3.19,1.18-4.34,4.43-4.35,7.38,0,14.77,0,22.15,0a3.28,3.28,0,0,0,3.21-1.52,17,17,0,0,1,2.27-2.81,3.18,3.18,0,0,1,4.42-.34,3,3,0,0,1,.56,4.22,55.25,55.25,0,0,1-3.75,4.9A4.74,4.74,0,0,0,84,153.61c.06,6.53,0,13.07,0,19.6,0,3.82-1,4.83-4.78,4.84Zm7.34-25.66c-5.63,0-10.59,0-15.55,0-1,0-1.41.33-1.41,1.35q0,8.21,0,16.39c0,1,.38,1.39,1.38,1.39,5.53,0,11.06,0,16.6,0,.48,0,1.11,0,1.11-.66,0-3.34,0-6.69,0-10.63-1.71,2.15-2.93,3.79-4.27,5.34-1.57,1.83-3.32,2.06-5,.52-2.14-2-4.19-4-6.16-6.17a3.06,3.06,0,0,1-.08-4.42,3.11,3.11,0,0,1,4.57-.11c1,.81,1.83,1.77,2.74,2.67.48.48.91.93,1.53.12C72.15,156.37,73.55,154.62,75.31,152.39Z"/><path d="M68,135.45c-3.9,0-7.81,0-11.72,0-3.23,0-4.38-1.15-4.39-4.37q0-11.73,0-23.44c0-3.21,1.14-4.33,4.41-4.34,7.31,0,14.63-.05,21.95,0,1.56,0,2.72-.29,3.55-1.71a15.32,15.32,0,0,1,2-2.5,3.29,3.29,0,0,1,4.58-.52,3.22,3.22,0,0,1,.49,4.42,43.36,43.36,0,0,1-3.4,4.37A5.79,5.79,0,0,0,84,111.63c.07,6.18,0,12.36,0,18.54,0,4.41-.86,5.28-5.19,5.28Zm7.3-25.63c-5.64,0-10.73,0-15.81,0-1,0-1.12.6-1.12,1.39,0,5.47,0,10.94,0,16.42,0,1,.43,1.36,1.41,1.35,5.47,0,10.94,0,16.41,0,.57,0,1.28,0,1.29-.75,0-3.34,0-6.68,0-10.62-1.72,2.17-3,3.83-4.3,5.38-1.61,1.86-3.4,2-5.17.33-2-1.84-3.88-3.76-5.74-5.71-1.46-1.54-1.53-3.48-.29-4.77s3.23-1.29,4.92.26a25.48,25.48,0,0,1,2.26,2.27c.78.93,1.29.73,1.95-.16C72.31,113.53,73.62,111.94,75.29,109.82Z"/><path d="M67.87,220.6c-3.91,0-7.82,0-11.73,0-3.13,0-4.24-1.15-4.25-4.26q0-11.84,0-23.67c0-3,1.2-4.19,4.13-4.2q11.94,0,23.88,0c2.94,0,4.12,1.19,4.13,4.19q.06,11.83,0,23.66c0,3.18-1.07,4.25-4.22,4.28C75.83,220.64,71.85,220.6,67.87,220.6Zm.16-6.53c2.55,0,5.1-.06,7.65,0,1.32,0,1.88-.27,1.86-1.74-.09-5.24-.07-10.49,0-15.74,0-1.27-.36-1.73-1.68-1.72-5.25.06-10.5,0-15.74,0-1.24,0-1.79.3-1.77,1.65.06,5.32,0,10.64,0,16,0,1.22.41,1.6,1.6,1.57C62.64,214,65.33,214.07,68,214.07Z"/><path d="M137.84,200H105a14,14,0,0,1-2.34-.08A3,3,0,0,1,100,197a2.94,2.94,0,0,1,2.22-3.23,8.13,8.13,0,0,1,2.32-.21h66.52a9.37,9.37,0,0,1,2.32.18,3.16,3.16,0,0,1-.39,6.19,15.12,15.12,0,0,1-2.13.07Z"/><path d="M138,157.38H105.14a20.26,20.26,0,0,1-2.34-.08,3.15,3.15,0,0,1-.47-6.16,8.48,8.48,0,0,1,2.31-.23h66.53a5.87,5.87,0,0,1,2.72.38,3,3,0,0,1,1.84,3.28,2.9,2.9,0,0,1-2.58,2.71,15.22,15.22,0,0,1-2.34.11Z"/><path d="M137.76,114.8H104.93c-3.4,0-5-1.07-4.92-3.31s1.6-3.19,4.85-3.19h66.73c2.66.06,4.19,1.24,4.21,3.24s-1.48,3.24-4.14,3.25Q154.71,114.82,137.76,114.8Z"/><path d="M132.86,215.6q-14,0-27.91,0a10.46,10.46,0,0,1-2.74-.29,2.83,2.83,0,0,1-2.18-3,2.88,2.88,0,0,1,2.48-3,11.33,11.33,0,0,1,2.33-.18h56.25c2.89,0,4.31,1.15,4.28,3.29s-1.5,3.21-4.39,3.21Q146.93,215.62,132.86,215.6Z"/><path d="M131.13,123.93h26.61c1.14,0,2.31-.08,3.24.75a3.06,3.06,0,0,1,1.11,3,3,3,0,0,1-2.13,2.43,8.94,8.94,0,0,1-2.31.24H104.41c-.35,0-.71,0-1.06,0-2.12-.18-3.42-1.5-3.34-3.38a3.15,3.15,0,0,1,3.43-3c5.82,0,11.64,0,17.46,0Z"/><path d="M118,64.28h18.3a15.34,15.34,0,0,1,1.92,0,3.25,3.25,0,0,1,3,3.3A3.08,3.08,0,0,1,138,70.69c-3.83.09-7.66,0-11.5,0H99.91c-.57,0-1.14,0-1.71,0-2.19-.09-3.56-1.26-3.64-3.09S96,64.32,98.19,64.3C104.79,64.25,111.39,64.28,118,64.28Z"/><path d="M113.72,166.52c3.19,0,6.39,0,9.58,0,2.39,0,3.77,1.2,3.85,3.09s-1.43,3.35-3.84,3.37q-9.8.06-19.59,0c-2.32,0-3.71-1.32-3.71-3.24s1.35-3.17,3.7-3.2C107.05,166.48,110.38,166.52,113.72,166.52Z"/></svg>