<svg id="Layer_1" data-name="Layer 1" xmlns="http://www.w3.org/2000/svg" viewBox="0 0 256 265"><defs><style>.cls-1{fill:#c39b34;}</style></defs><path class="cls-1" d="M37.8,134.85V48.43a14.13,14.13,0,0,1,11-14,13.54,13.54,0,0,1,3.11-.35l124.7,0a52.94,52.94,0,0,1,8.16.19,14.07,14.07,0,0,1,11.79,13.75c0,8.29,0,16.57,0,24.86a3.65,3.65,0,1,1-7.27,0c0-7.94,0-15.89,0-23.84,0-4.93-2.76-7.68-7.7-7.68H56.43c-1.42,0-2.84,0-4.25,0a6.83,6.83,0,0,0-7.08,7.17q0,38.06,0,76.12,0,40.19,0,80.37,0,8,0,15.9c0,4.54,2.85,7.38,7.42,7.38q21.39,0,42.77,0h86.3a7.86,7.86,0,0,0,4.21-.92,7,7,0,0,0,3.49-6.56q0-18.87,0-37.73a14,14,0,0,1,0-1.45,3.63,3.63,0,0,1,7.22.23c0,.3,0,.6,0,.89v38.4a14.1,14.1,0,0,1-14.47,14.41H53.25a16.72,16.72,0,0,1-6.58-1,14.09,14.09,0,0,1-8.86-13.09q0-42,0-84.07v-2.58Z"/><path class="cls-1" d="M135,211.25H123.67a11,11,0,0,1-9.61-5.17c-.83-1.24-1.61-2.51-2.46-3.74a3.84,3.84,0,0,0-5.92-.8c-5.88,4.87-13.08,3.82-17.4-2.5C85.5,195,82.65,191,79.85,186.91a3.64,3.64,0,0,1,3.78-5.72A3.93,3.93,0,0,1,86,183q4.23,6.1,8.5,12.21c1.77,2.54,4.08,2.82,6.46.8a11.2,11.2,0,0,1,16.73,2.31c.81,1.21,1.61,2.43,2.38,3.66a4.22,4.22,0,0,0,3.85,2.06c6.27,0,12.53,0,18.8,0,1.53,0,1.55,0,1.63-1.58a50.66,50.66,0,0,0-4.71-23c-1.19-2.53-.26-4.68,2.43-5.52a28.91,28.91,0,0,0,12.11-7.36,1.88,1.88,0,0,0,.64-1.66,7.37,7.37,0,0,1,1-4.19Q171.9,131.55,188,102.41c4.74-8.59,9.43-17.19,14.22-25.75,2.85-5.12,7.22-8.14,13.12-8.48a14.26,14.26,0,0,1,13.59,7.06,14.66,14.66,0,0,1,.42,15.64q-11.51,21-23.12,41.92-11.65,21.09-23.3,42.2a8.36,8.36,0,0,1-3.58,3.72,1.38,1.38,0,0,0-.71,1.06,28.54,28.54,0,0,0,.14,14.28c.75,2.87-.54,4.68-3.48,5.1-9.47,1.34-18.09,4.67-25.34,11.08a4.07,4.07,0,0,1-2.87,1C143,211.23,139,211.25,135,211.25ZM194,107.05c-.46,0-.51.39-.66.66q-15.48,28-31,56.08c-.42.76-.33,1.16.45,1.59q6,3.26,11.93,6.6c.85.48,1.3.32,1.77-.53q15.42-28,30.91-56c.38-.69.21-.92-.4-1.26-4.15-2.26-8.29-4.56-12.43-6.85C194.44,107.25,194.24,107.15,194,107.05Zm-36.33,89.44a3.38,3.38,0,0,0,.48-.08,57,57,0,0,1,12-3.8c.79-.15.7-.57.63-1.11a36.14,36.14,0,0,1,.44-12.23.94.94,0,0,0-.55-1.24q-5.4-2.92-10.76-5.93a.84.84,0,0,0-1.23.15,33.83,33.83,0,0,1-10.31,7c-.64.28-.69.57-.45,1.18a52.62,52.62,0,0,1,2.55,8.79c.25,1.2.46,2.4.74,3.84.7-1.27,1.27-2.31,1.85-3.35,1.17-2.09,3.3-2.81,5.18-1.75s2.35,3.18,1.23,5.25Zm58-121a8.56,8.56,0,0,0-7,4.56c-1.14,1.93-2.15,3.92-3.27,5.87-.3.53-.28.78.3,1.1q6.38,3.48,12.72,7c.49.28.74.26,1-.27,1.22-2.27,2.55-4.48,3.71-6.77A8,8,0,0,0,215.72,75.45Zm-.3,25.52c0-.42-.32-.47-.56-.6-4.23-2.35-8.47-4.68-12.69-7-.48-.26-.73-.3-1,.25-1.12,2.11-2.27,4.19-3.45,6.26-.35.6-.13.81.38,1.09q6.31,3.45,12.6,7c.63.36.85.2,1.16-.38,1.06-2,2.18-4,3.28-6Z"/><path class="cls-1" d="M91.13,109.08a26.11,26.11,0,0,1-2.34-9.54c0-.71-.54-.58-1-.59H72.71c-3.43,0-6.87,0-10.3,0-2.81,0-4.55-2.28-3.77-4.77a3.68,3.68,0,0,1,3.8-2.53c8.58,0,17.16,0,25.74,0A1.55,1.55,0,0,0,90,90.33,24.74,24.74,0,0,1,94.9,81.5H92.72l-30.11,0A4.58,4.58,0,0,1,60.34,81a3.65,3.65,0,0,1,1.45-6.82,10.1,10.1,0,0,1,1.23,0h41a7.18,7.18,0,0,0,2.29-.37,25.42,25.42,0,0,1,16.37,0,6.78,6.78,0,0,0,2.19.35h47.34a3.66,3.66,0,1,1,0,7.32c-2,0-4,0-6,0H134.31c-.1.51.28.71.49,1a24.71,24.71,0,0,1,4.19,8.1,1.23,1.23,0,0,0,1.44,1.08q15.78,0,31.56,0a3.62,3.62,0,0,1,3.74,4.68A3.4,3.4,0,0,1,173,98.83a9.25,9.25,0,0,1-1.67.12q-15,0-30,0c-.89,0-1.21.19-1.25,1.14a24.21,24.21,0,0,1-1.8,7.81c-.14.34-.27.68-.47,1.2h28.81a3.61,3.61,0,0,1,3.47,5.17,3.51,3.51,0,0,1-3.43,2.08c-3.24,0-6.49,0-9.74,0q-11.52,0-23,0a2.65,2.65,0,0,0-2,.74,25.57,25.57,0,0,1-34.78.07,2.77,2.77,0,0,0-2.07-.81q-16.29,0-32.57,0c-2.77,0-4.52-2.11-3.84-4.59a3.6,3.6,0,0,1,3.79-2.65H91.13Zm23.29,7.55A18.42,18.42,0,1,0,96,98.14,18.46,18.46,0,0,0,114.42,116.63Z"/><path class="cls-1" d="M117.2,64.07H62.47c-2.87,0-4.7-2.38-3.78-4.91a3.73,3.73,0,0,1,3.8-2.39H171.61a5.07,5.07,0,0,1,2.08.31,3.61,3.61,0,0,1,2.13,4,3.56,3.56,0,0,1-3.67,3c-6.93,0-13.87,0-20.81,0Z"/><path class="cls-1" d="M109.06,134.59H62.61c-2,0-3.35-.82-3.92-2.37a3.66,3.66,0,0,1,3.1-4.92,8.77,8.77,0,0,1,.89,0q46.39,0,92.78,0c2.78,0,4.63,2,4.06,4.46a3.61,3.61,0,0,1-3.57,2.83c-2.39,0-4.77,0-7.16,0Z"/><path class="cls-1" d="M104.76,144.72h42a6.28,6.28,0,0,1,1.78.15,3.58,3.58,0,0,1,2.63,3.59,3.51,3.51,0,0,1-2.81,3.44,7.32,7.32,0,0,1-1.55.13H62.84c-.3,0-.6,0-.9,0a3.65,3.65,0,0,1,.18-7.29c2.87,0,5.75,0,8.62,0Z"/><path class="cls-1" d="M99.05,162.16h36.7a3.64,3.64,0,1,1,.06,7.27H62.4a3.65,3.65,0,1,1,.05-7.27Z"/><path class="cls-1" d="M125.86,92.19a3.51,3.51,0,0,1-.66,2q-4.9,7.62-9.82,15.23a3.62,3.62,0,0,1-6,.54c-2.4-2.55-4.78-5.14-7.13-7.73a3.64,3.64,0,1,1,5.33-5c1.19,1.24,2.37,2.49,3.49,3.79.52.59.73.46,1.11-.13q3.42-5.39,6.89-10.72a3.64,3.64,0,0,1,6.77,2Z"/></svg>