<svg id="Scala" xmlns="http://www.w3.org/2000/svg" width="145.71" height="146" viewBox="0 0 145.71 146">
  <path id="Path_38234" data-name="Path 38234" d="M170.71,46.9v70.55a18,18,0,0,1-17.9,17.91H100.29V111.71a12,12,0,0,0-12-12H64.36V46.9A18,18,0,0,1,82.26,29h70.55a18,18,0,0,1,17.9,17.9Z" transform="translate(-27 -27)" fill="none" stroke="#666" stroke-miterlimit="10" stroke-width="4" stroke-dasharray="20 10"/>
  <rect id="Rectangle_17631" data-name="Rectangle 17631" width="71.29" height="71.29" rx="12" transform="translate(2 72.71)" fill="none" stroke="#707070" stroke-miterlimit="10" stroke-width="4"/>
  <line id="Line_161" data-name="Line 161" x1="42.59" y2="42.59" transform="translate(79.64 23.77)" fill="none" stroke="#666" stroke-miterlimit="10" stroke-width="4"/>
  <path id="Path_38235" data-name="Path 38235" d="M130,50" transform="translate(-27 -27)" fill="none" stroke="#666" stroke-miterlimit="10" stroke-width="4"/>
  <path id="Path_38236" data-name="Path 38236" d="M150,50" transform="translate(-27 -27)" fill="none" stroke="#666" stroke-miterlimit="10" stroke-width="4"/>
  <path id="Path_38237" data-name="Path 38237" d="M104.53,23l18.47.32-.32,18.48" fill="none" stroke="#666" stroke-miterlimit="10" stroke-width="4"/>
</svg>
