<svg width="120" height="120" viewBox="0 0 120 120" fill="none" xmlns="http://www.w3.org/2000/svg">
<path d="M101.56 102.202C111.388 91.8968 117.422 77.9419 117.422 62.5777C117.422 30.8641 91.7133 5.15532 59.9997 5.15532C28.2862 5.15532 2.57739 30.8641 2.57739 62.5777C2.57739 76.4048 11.4587 93.6888 19.6 103.6L101.56 102.202Z" fill="url(#paint0_linear_2618_52891)" fill-opacity="0.4"/>
<path d="M60 120C76.4606 120 91.3014 113.072 101.771 101.975V12.2484C101.771 5.49469 96.2765 0 89.5228 0H32.4093C25.6556 0 20.1609 5.49469 20.1609 12.2484V103.928C30.4865 113.879 44.5277 120 60 120Z" fill="#008FC9"/>
<path d="M50.9803 4.29211C49.3481 2.82562 49.5262 0.939844 49.7528 0H32.4093C25.6556 0 20.1609 5.49469 20.1609 12.2484V102.606L33.8824 113.722C37.2021 115.421 40.7057 116.811 44.3608 117.844C44.3608 79.9106 44.3608 24.1615 44.3608 21.4268C44.3608 18.4144 46.1835 16.9315 47.1911 16.3418C47.5439 16.1353 47.7112 15.7263 47.6203 15.3279C47.1982 13.482 48.3808 12.4716 49.0996 12.0415C49.3858 11.8704 49.536 11.5533 49.5246 11.22C49.4838 10.0491 50.31 9.34195 50.8443 9.00891C51.1162 8.83945 51.2845 8.54719 51.2845 8.2268V4.97109C51.2845 4.71211 51.1729 4.46508 50.9803 4.29211Z" fill="#008FC9"/>
<path d="M89.5229 7.62047H80.9392C79.3388 7.62047 78.0418 8.91773 78.0418 10.5178C78.0418 12.3806 76.5177 13.9048 74.6549 13.9048H47.2777C45.4149 13.9048 43.8908 12.3806 43.8908 10.5178C43.8908 8.91773 42.5935 7.62047 40.9934 7.62047H32.4095C29.8536 7.62047 27.7815 9.69234 27.7815 12.2482V110.115C36.9685 116.353 48.0582 120 60.0001 120C72.7923 120 84.6059 115.815 94.1509 108.742C94.1509 74.3691 94.1509 14.7178 94.1509 12.2484C94.1509 9.69234 92.079 7.62047 89.5229 7.62047Z" fill="white"/>
<path d="M47.6204 15.3277C47.4957 14.7818 47.5133 14.3109 47.6157 13.9045H47.2777C45.4149 13.9045 43.8908 12.3804 43.8908 10.5176C43.8908 8.9175 42.5935 7.62024 40.9934 7.62024H32.4095C29.8536 7.62024 27.7815 9.69211 27.7815 12.248V108.779L33.8987 113.734C37.213 115.429 40.7127 116.813 44.3609 117.843C44.3609 79.9095 44.3609 24.1608 44.3609 21.4261C44.3609 18.4137 46.1837 16.9308 47.1913 16.3411C47.544 16.1351 47.7116 15.7261 47.6204 15.3277Z" fill="white"/>
<path d="M89.5228 5.5036H80.9391C78.1744 5.5036 75.9249 7.7529 75.9249 10.5178C75.9249 11.2064 75.3432 11.7879 74.6548 11.7879H47.2777C46.5891 11.7879 46.0076 11.2064 46.0076 10.5178C46.0076 7.75313 43.7583 5.5036 40.9934 5.5036H32.4094C28.6903 5.5036 25.6648 8.52938 25.6648 12.2484V108.608C27.0298 109.628 28.4435 110.586 29.8983 111.483V12.2484C29.8983 10.8638 31.0247 9.73712 32.4094 9.73712H40.9934C41.4237 9.73712 41.7739 10.087 41.7739 10.5176C41.7739 13.5523 44.2428 16.0212 47.2775 16.0212H74.6546C77.6893 16.0212 80.1582 13.552 80.1582 10.5176C80.1582 10.087 80.5083 9.73712 80.9386 9.73712H89.5226C90.9073 9.73712 92.0337 10.8635 92.0337 12.2484V110.24C93.4946 109.256 94.9062 108.206 96.2672 107.096V12.2484C96.2677 8.52938 93.2421 5.5036 89.5228 5.5036Z" fill="#95D0C5"/>
<path d="M47.2777 11.7879C46.5891 11.7879 46.0076 11.2064 46.0076 10.5178C46.0076 7.75313 43.7583 5.5036 40.9934 5.5036H32.4094C28.6903 5.5036 25.6648 8.52938 25.6648 12.2484V107.064L29.8983 110.494V12.2484C29.8983 10.8638 31.0247 9.73712 32.4094 9.73712H40.9934C41.4237 9.73712 41.7739 10.087 41.7739 10.5176C41.7739 13.5523 44.2428 16.0212 47.2775 16.0212H47.513C47.6339 15.8182 47.6759 15.5712 47.6203 15.3277C47.1982 13.4817 48.3809 12.4713 49.0997 12.0413C49.2078 11.9766 49.2896 11.8868 49.3575 11.7877L47.2777 11.7879Z" fill="#95D0C5"/>
<path d="M51.9431 8.77734H50.7199C49.5508 8.77734 48.603 7.82977 48.603 6.66047C48.603 5.49141 49.5508 4.54359 50.7199 4.54359H51.9431C53.1122 4.54359 54.06 5.49117 54.06 6.66047C54.06 7.82977 53.1122 8.77734 51.9431 8.77734Z" fill="#065F84"/>
<path d="M70.9197 8.77734H59.1679C57.9988 8.77734 57.051 7.82977 57.051 6.66047C57.051 5.49141 57.9988 4.54359 59.1679 4.54359H70.9197C72.0888 4.54359 73.0366 5.49117 73.0366 6.66047C73.0363 7.82977 72.0888 8.77734 70.9197 8.77734Z" fill="#065F84"/>
<path d="M66.6494 59.4211C65.4803 59.4211 64.5325 58.4735 64.5325 57.3042V53.1195C64.5325 51.1526 62.9324 49.5525 60.966 49.5525C58.9994 49.5525 57.3993 51.1526 57.3993 53.1195V57.3042C57.3993 58.4733 56.4515 59.4211 55.2824 59.4211C54.1133 59.4211 53.1655 58.4735 53.1655 57.3042V53.1195C53.1655 48.8184 56.6647 45.319 60.9658 45.319C65.2668 45.319 68.766 48.8182 68.766 53.1195V57.3042C68.7662 58.4735 67.8184 59.4211 66.6494 59.4211Z" fill="white"/>
<path d="M57.3993 53.1194C57.3993 52.4069 57.6116 51.7439 57.9728 51.1863C55.0663 51.2902 54.839 48.7877 54.8223 48.3218C53.7857 49.6462 53.1655 51.3112 53.1655 53.1197V57.3044C53.1655 58.4187 54.0269 59.3297 55.1197 59.4131C55.2622 59.4108 55.4024 59.4077 55.539 59.4042C56.5867 59.2772 57.399 58.3866 57.399 57.3044V53.1194H57.3993Z" fill="white"/>
<path d="M62.4124 61.9649C62.0055 62.0423 61.5875 62.0819 61.1698 62.0826L60.8507 62.0834C59.0967 62.0867 57.4509 61.4214 56.2169 60.2098C55.0054 59.021 54.3365 57.4438 54.3325 55.7689L54.3159 48.7395C54.3088 45.7144 56.5151 43.0979 59.5624 42.5185C59.9694 42.4411 60.3873 42.4014 60.8051 42.4005L61.1238 42.4C64.7101 42.3933 67.6342 45.226 67.6423 48.7141L67.6588 55.7436C67.6658 58.7691 65.4593 61.3854 62.4124 61.9649ZM59.9702 44.2559C57.8321 44.6625 56.284 46.5466 56.2893 48.7359L56.3058 55.7652C56.3086 56.9959 56.7935 58.1482 57.671 59.0096C58.5257 59.8488 59.6539 60.3096 60.8469 60.3074L61.1659 60.3068C61.448 60.3062 61.7302 60.2794 62.0043 60.2273C64.1428 59.8207 65.6909 57.9367 65.6857 55.7474L65.6693 48.718C65.6632 46.2089 63.6261 44.1713 61.1279 44.1759L60.8092 44.1763C60.527 44.1771 60.2447 44.2037 59.9702 44.2559Z" fill="#595959"/>
<path fill-rule="evenodd" clip-rule="evenodd" d="M69.2225 63.0097C69.2238 63.5406 68.7214 63.9721 68.1004 63.9734L53.9551 64.0001C53.3341 64.0013 52.8297 63.5719 52.8285 63.0408L52.8001 50.9439C52.799 50.4128 53.3012 49.9814 53.9221 49.9803L68.0677 49.9533C68.6888 49.9521 69.1931 50.3816 69.1943 50.9128L69.2225 63.0097Z" fill="#B8CBFE"/>
<path fill-rule="evenodd" clip-rule="evenodd" d="M63.2687 55.3196C63.2657 54.172 62.2301 53.2437 60.9554 53.2464C59.6808 53.2487 58.6493 54.1809 58.6521 55.3281C58.6536 56.0518 59.0665 56.6874 59.6906 57.0583L59.0235 61.3782L62.926 61.3708L62.2382 57.0531C62.8606 56.68 63.2703 56.0428 63.2687 55.3196Z" fill="#595959"/>
<path d="M48.8369 80.0508L48.9121 78.3008L47.4629 79.2168L46.998 78.4922L48.584 77.6514L46.998 76.8174L47.4629 76.0928L48.9121 77.0088L48.8369 75.2588H49.7734L49.6982 77.002L51.1406 76.0928L51.6055 76.8174L50.0195 77.6514L51.6055 78.4922L51.1406 79.2168L49.6982 78.3076L49.7734 80.0508H48.8369ZM55.4404 80.0508L55.5156 78.3008L54.0664 79.2168L53.6016 78.4922L55.1875 77.6514L53.6016 76.8174L54.0664 76.0928L55.5156 77.0088L55.4404 75.2588H56.377L56.3018 77.002L57.7441 76.0928L58.209 76.8174L56.623 77.6514L58.209 78.4922L57.7441 79.2168L56.3018 78.3076L56.377 80.0508H55.4404ZM62.0439 80.0508L62.1191 78.3008L60.6699 79.2168L60.2051 78.4922L61.791 77.6514L60.2051 76.8174L60.6699 76.0928L62.1191 77.0088L62.0439 75.2588H62.9805L62.9053 77.002L64.3477 76.0928L64.8125 76.8174L63.2266 77.6514L64.8125 78.4922L64.3477 79.2168L62.9053 78.3076L62.9805 80.0508H62.0439ZM68.6475 80.0508L68.7227 78.3008L67.2734 79.2168L66.8086 78.4922L68.3945 77.6514L66.8086 76.8174L67.2734 76.0928L68.7227 77.0088L68.6475 75.2588H69.584L69.5088 77.002L70.9512 76.0928L71.416 76.8174L69.8301 77.6514L71.416 78.4922L70.9512 79.2168L69.5088 78.3076L69.584 80.0508H68.6475Z" fill="#595959"/>
<defs>
<linearGradient id="paint0_linear_2618_52891" x1="59.9997" y1="5.15532" x2="59.9997" y2="103.6" gradientUnits="userSpaceOnUse">
<stop stop-color="#460083"/>
<stop offset="0.526042" stop-color="#008FC9"/>
<stop offset="1" stop-color="#95D0C5"/>
</linearGradient>
</defs>
</svg>
