<svg xmlns="http://www.w3.org/2000/svg" xmlns:xlink="http://www.w3.org/1999/xlink" width="683" height="136" viewBox="0 0 683 136">
  <defs>
    <clipPath id="clip-synergy-logo-white">
      <rect width="683" height="136"/>
    </clipPath>
  </defs>
  <g id="synergy-logo-white" clip-path="url(#clip-synergy-logo-white)">
    <g id="txt" transform="translate(-124 -88)">
      <g id="synergy" transform="translate(131.16 80.672)">
        <path id="Path_3838" data-name="Path 3838" d="M12.616,84.334a12.261,12.261,0,0,1-6.308-1.706,12.535,12.535,0,0,1-4.6-4.555A12.093,12.093,0,0,1,0,71.734V67.664H10.481v3.78a2.278,2.278,0,0,0,.738,1.686,2.283,2.283,0,0,0,1.689.737H56.965a2.161,2.161,0,0,0,1.65-.737,2.373,2.373,0,0,0,.679-1.686V57.1a2.171,2.171,0,0,0-.679-1.686,2.318,2.318,0,0,0-1.65-.64H12.616a12.053,12.053,0,0,1-6.308-1.745,12.994,12.994,0,0,1-4.6-4.614A12.094,12.094,0,0,1,0,42.076V27.15a12.2,12.2,0,0,1,1.708-6.358,12.734,12.734,0,0,1,4.6-4.555,12.369,12.369,0,0,1,6.308-1.686h44.64a12.369,12.369,0,0,1,6.308,1.686,12.89,12.89,0,0,1,4.619,4.555,12.3,12.3,0,0,1,1.689,6.358v4.071H59.294v-3.78a2.44,2.44,0,0,0-.679-1.706,2.188,2.188,0,0,0-1.65-.717H12.907a2.312,2.312,0,0,0-1.689.717,2.34,2.34,0,0,0-.738,1.706V41.785a2.088,2.088,0,0,0,.738,1.686,2.457,2.457,0,0,0,1.689.64H57.256a12.053,12.053,0,0,1,6.308,1.745,13.207,13.207,0,0,1,4.619,4.594,12.3,12.3,0,0,1,1.689,6.358V71.734a12.2,12.2,0,0,1-1.689,6.339,12.686,12.686,0,0,1-4.619,4.555,12.261,12.261,0,0,1-6.308,1.706Zm95.589,0h0V58.165L75.986,14.55H88.31l25.134,31.694L138.482,14.55H150.9L118.685,58.165V84.334Zm49.784,0V14.55h12.519l46.775,55.634V14.55H227.86V84.334H215.341L168.469,28.6V84.334Zm80.935,0V14.55h64.049V25.018H249.5V44.111h42.991V54.773H249.5V73.867h53.471V84.334Zm131.4,0L348.486,58.262h13.683L382.548,82.4v1.938H370.321m-57.256,0V14.647h57.159a12.228,12.228,0,0,1,6.4,1.745,13.207,13.207,0,0,1,4.619,4.594,12.123,12.123,0,0,1,1.689,6.261V46.825a12.2,12.2,0,0,1-1.689,6.339,12.687,12.687,0,0,1-4.619,4.555,12.439,12.439,0,0,1-6.4,1.706l-46.678.1V84.334H313.065m12.907-35.474h43.961a2.366,2.366,0,0,0,1.747-.678,2.242,2.242,0,0,0,.679-1.648v-19a2.44,2.44,0,0,0-.679-1.706,2.3,2.3,0,0,0-1.747-.717H325.972a2.312,2.312,0,0,0-1.689.717,2.34,2.34,0,0,0-.738,1.706v19a2.156,2.156,0,0,0,.738,1.648A2.379,2.379,0,0,0,325.972,48.861Zm79.77,35.474a12.132,12.132,0,0,1-6.347-1.706,12.626,12.626,0,0,1-4.561-4.555,12.094,12.094,0,0,1-1.708-6.339V27.15a12.2,12.2,0,0,1,1.708-6.358,12.83,12.83,0,0,1,4.561-4.555,12.239,12.239,0,0,1,6.347-1.686h44.543a12.55,12.55,0,0,1,6.4,1.686,12.89,12.89,0,0,1,4.619,4.555A12.3,12.3,0,0,1,463,27.15v4.168H452.42V27.441a2.44,2.44,0,0,0-.679-1.706,2.3,2.3,0,0,0-1.747-.717H406.033a2.312,2.312,0,0,0-1.689.717,2.34,2.34,0,0,0-.738,1.706v44a2.523,2.523,0,0,0,2.426,2.423h43.961a2.269,2.269,0,0,0,1.747-.737,2.372,2.372,0,0,0,.679-1.686V56.614h-16.5V46.05H463V71.734a12.2,12.2,0,0,1-1.689,6.339,12.686,12.686,0,0,1-4.619,4.555,12.439,12.439,0,0,1-6.4,1.706Zm95.783,0h0V58.165L469.306,14.55h12.325l25.134,31.694L531.8,14.55h12.422L512.005,58.165V84.334Z" transform="translate(0 0)" fill="#fff"/>
      </g>
      <line id="Line_1" data-name="Line 1" x2="551" transform="translate(126.5 180.5)" fill="none" stroke="#6242ab" stroke-width="9"/>
      <g id="text" transform="translate(615 201.868)">
        <path id="Path_3840" data-name="Path 3840" d="M0,19.506H2.111a.849.849,0,0,1,.832.565l2.925,9.9q.121.547.223,1.057t.181,1.027q.121-.516.271-1.027t.32-1.057l3.221-9.963a.828.828,0,0,1,.265-.377.731.731,0,0,1,.476-.152H11.99a.776.776,0,0,1,.495.152.812.812,0,0,1,.271.377l3.154,9.963q.163.535.289,1.051t.247,1.015q.078-.5.2-1.051t.253-1.015l2.991-9.9a.763.763,0,0,1,.283-.4.783.783,0,0,1,.495-.164H22.7L17.75,34.895H15.621q-.392,0-.543-.516L11.7,23.941a6.109,6.109,0,0,1-.2-.7q-.072-.358-.151-.7-.072.346-.151.717a5.29,5.29,0,0,1-.193.711L7.587,34.378a.634.634,0,0,1-.621.516H4.946ZM25.09,34.895V12.52h2.684v9.058A8.312,8.312,0,0,1,29.945,19.9a5.826,5.826,0,0,1,2.744-.626,5.509,5.509,0,0,1,2.207.413,4.281,4.281,0,0,1,1.6,1.185,5.184,5.184,0,0,1,.977,1.847A8.077,8.077,0,0,1,37.8,25.1v9.793H35.12V25.1a4.157,4.157,0,0,0-.8-2.716,2.951,2.951,0,0,0-2.419-.96A4.505,4.505,0,0,0,29.68,22a7.211,7.211,0,0,0-1.906,1.561v11.33ZM47.9,19.269a6.826,6.826,0,0,1,2.539.462,5.662,5.662,0,0,1,2,1.337,6.064,6.064,0,0,1,1.321,2.157,8.447,8.447,0,0,1,.47,2.922A1.81,1.81,0,0,1,54.1,27a.566.566,0,0,1-.513.213H43.425a8.583,8.583,0,0,0,.392,2.539,5.217,5.217,0,0,0,1,1.8,4.024,4.024,0,0,0,1.508,1.075,5.126,5.126,0,0,0,1.96.358,5.71,5.71,0,0,0,1.743-.237,8.11,8.11,0,0,0,1.261-.5q.525-.279.881-.51a1.165,1.165,0,0,1,.609-.237.591.591,0,0,1,.513.255l.754.99A5.082,5.082,0,0,1,52.852,33.8a7.851,7.851,0,0,1-1.49.735,8.911,8.911,0,0,1-1.634.431,9.838,9.838,0,0,1-1.677.146,7.678,7.678,0,0,1-2.913-.541,6.372,6.372,0,0,1-2.31-1.58,7.257,7.257,0,0,1-1.514-2.57,10.575,10.575,0,0,1-.543-3.53,9,9,0,0,1,.489-3,7.071,7.071,0,0,1,1.411-2.424,6.51,6.51,0,0,1,2.244-1.61,7.345,7.345,0,0,1,2.985-.583m.066,1.987a4.111,4.111,0,0,0-3.064,1.13,5.359,5.359,0,0,0-1.387,3.135h8.3a5.565,5.565,0,0,0-.253-1.719,3.8,3.8,0,0,0-.754-1.355,3.489,3.489,0,0,0-1.212-.881A4.088,4.088,0,0,0,47.966,21.256Zm9.692,13.639V19.506H59.2a.828.828,0,0,1,.6.17,1.059,1.059,0,0,1,.229.577l.181,2.4a7.054,7.054,0,0,1,1.936-2.515,4.254,4.254,0,0,1,2.708-.905A4.186,4.186,0,0,1,66,19.379a3.893,3.893,0,0,1,.947.407L66.6,21.8a.459.459,0,0,1-.47.383,2.281,2.281,0,0,1-.645-.146,4.052,4.052,0,0,0-1.224-.146,3.457,3.457,0,0,0-2.346.82A6.166,6.166,0,0,0,60.342,25.1v9.793Zm18.2-15.625a6.809,6.809,0,0,1,2.533.462,5.662,5.662,0,0,1,2,1.337,6.064,6.064,0,0,1,1.321,2.157,8.35,8.35,0,0,1,.476,2.922,1.741,1.741,0,0,1-.139.851.557.557,0,0,1-.513.213H71.38a8.583,8.583,0,0,0,.392,2.539,5.217,5.217,0,0,0,1,1.8,4.024,4.024,0,0,0,1.508,1.075,5.126,5.126,0,0,0,1.96.358,5.674,5.674,0,0,0,1.743-.237,8.109,8.109,0,0,0,1.261-.5q.525-.279.881-.51a1.165,1.165,0,0,1,.609-.237.591.591,0,0,1,.513.255l.754.99A5.082,5.082,0,0,1,80.806,33.8a7.621,7.621,0,0,1-1.49.735,8.911,8.911,0,0,1-1.634.431,9.8,9.8,0,0,1-1.671.146,7.694,7.694,0,0,1-2.919-.541,6.372,6.372,0,0,1-2.31-1.58,7.258,7.258,0,0,1-1.514-2.57,10.575,10.575,0,0,1-.543-3.53,9,9,0,0,1,.489-3,7.2,7.2,0,0,1,1.411-2.424,6.5,6.5,0,0,1,2.25-1.61,7.345,7.345,0,0,1,2.985-.583m.06,1.987a4.111,4.111,0,0,0-3.064,1.13,5.359,5.359,0,0,0-1.387,3.135h8.311a5.445,5.445,0,0,0-.259-1.719,3.8,3.8,0,0,0-.754-1.355,3.416,3.416,0,0,0-1.212-.881A4.088,4.088,0,0,0,75.921,21.256Zm19.4,13.639H92.4V13.128h2.925Zm5.368,0V19.506h1.6a.686.686,0,0,1,.724.565l.211,1.671a8.67,8.67,0,0,1,2.226-1.792,5.773,5.773,0,0,1,2.841-.68,5.509,5.509,0,0,1,2.207.413,4.281,4.281,0,0,1,1.6,1.185,5.184,5.184,0,0,1,.977,1.847,8.077,8.077,0,0,1,.332,2.388v9.793h-2.684V25.1a4.157,4.157,0,0,0-.8-2.716,2.951,2.951,0,0,0-2.419-.96,4.505,4.505,0,0,0-2.226.577,7.211,7.211,0,0,0-1.906,1.561v11.33Zm16.767,0V19.506h1.6a.686.686,0,0,1,.724.565l.211,1.671a8.67,8.67,0,0,1,2.226-1.792,5.773,5.773,0,0,1,2.841-.68,5.509,5.509,0,0,1,2.207.413,4.281,4.281,0,0,1,1.6,1.185,5.184,5.184,0,0,1,.977,1.847,8.076,8.076,0,0,1,.332,2.388v9.793h-2.684V25.1a4.157,4.157,0,0,0-.8-2.716,2.951,2.951,0,0,0-2.419-.96,4.505,4.505,0,0,0-2.226.577,7.211,7.211,0,0,0-1.906,1.561v11.33Zm22.949-15.625a7.807,7.807,0,0,1,3.022.559,6.388,6.388,0,0,1,2.292,1.6,6.984,6.984,0,0,1,1.448,2.5,10.855,10.855,0,0,1,0,6.555,6.992,6.992,0,0,1-1.448,2.491,6.261,6.261,0,0,1-2.292,1.586,8.534,8.534,0,0,1-6.043,0,6.318,6.318,0,0,1-2.3-1.586,7.087,7.087,0,0,1-1.466-2.491,10.733,10.733,0,0,1,0-6.555,7.078,7.078,0,0,1,1.466-2.5,6.447,6.447,0,0,1,2.3-1.6,7.836,7.836,0,0,1,3.022-.559m0,13.73a3.905,3.905,0,0,0,3.377-1.531A7.1,7.1,0,0,0,144.9,27.21a7.163,7.163,0,0,0-1.116-4.283,3.905,3.905,0,0,0-3.377-1.531,4.721,4.721,0,0,0-1.99.389,3.809,3.809,0,0,0-1.411,1.142,5.213,5.213,0,0,0-.844,1.829,10.968,10.968,0,0,0,0,4.9,5.086,5.086,0,0,0,.844,1.81,3.754,3.754,0,0,0,1.411,1.136A4.658,4.658,0,0,0,140.407,33Zm8.263-13.493h2.2a.819.819,0,0,1,.531.17.921.921,0,0,1,.3.395l3.872,9.9a7.557,7.557,0,0,1,.332,1.094q.121.547.229,1.081.121-.535.253-1.081a9.563,9.563,0,0,1,.35-1.094l3.92-9.9a.9.9,0,0,1,.289-.4.785.785,0,0,1,.507-.164h2.1l-6.23,15.388H154.9Zm28.588,15.388H176.07a1.413,1.413,0,0,1-.633-.121.68.68,0,0,1-.32-.516l-.3-1.428q-.6.547-1.176.978a6.841,6.841,0,0,1-1.206.729,6.164,6.164,0,0,1-1.351.45,7.62,7.62,0,0,1-1.586.152,5.449,5.449,0,0,1-1.671-.249,3.753,3.753,0,0,1-1.345-.753,3.66,3.66,0,0,1-.917-1.27,4.475,4.475,0,0,1-.338-1.816,3.365,3.365,0,0,1,.5-1.75,4.373,4.373,0,0,1,1.6-1.5,10.538,10.538,0,0,1,2.9-1.069,22.271,22.271,0,0,1,4.391-.474v-1.2a4.139,4.139,0,0,0-.766-2.71,2.753,2.753,0,0,0-2.25-.917,4.771,4.771,0,0,0-1.653.249,6.388,6.388,0,0,0-1.164.559q-.489.31-.844.565a1.2,1.2,0,0,1-.7.249.8.8,0,0,1-.476-.146,1.052,1.052,0,0,1-.32-.358l-.483-.863a8.706,8.706,0,0,1,2.726-1.841,8.4,8.4,0,0,1,3.245-.608,5.739,5.739,0,0,1,2.274.425,4.763,4.763,0,0,1,1.677,1.191,5.089,5.089,0,0,1,1.025,1.835,7.786,7.786,0,0,1,.344,2.369v9.842m-6.966-1.652a5.364,5.364,0,0,0,1.3-.146,5.056,5.056,0,0,0,1.11-.413,6.137,6.137,0,0,0,1-.644,9.174,9.174,0,0,0,.929-.863V27.969a21.873,21.873,0,0,0-3.154.3,8.938,8.938,0,0,0-2.111.614,2.98,2.98,0,0,0-1.182.893,1.952,1.952,0,0,0-.368,1.16A2.576,2.576,0,0,0,168,31.979a1.958,1.958,0,0,0,1.315,1.13A3.434,3.434,0,0,0,170.292,33.242Zm15.669,1.9a3.689,3.689,0,0,1-2.786-1.015,4.094,4.094,0,0,1-.971-2.934V21.772h-1.84a.583.583,0,0,1-.4-.146.562.562,0,0,1-.169-.45V20.1l2.5-.316.621-4.757a.566.566,0,0,1,.193-.371.623.623,0,0,1,.422-.146h1.357v4.994h8.619v1.92h-8.619v9.581a1.976,1.976,0,0,0,.47,1.446,1.625,1.625,0,0,0,1.206.468,2.077,2.077,0,0,0,.73-.115,2.89,2.89,0,0,0,.537-.249q.223-.14.38-.249a.517.517,0,0,1,.283-.115.455.455,0,0,1,.374.261l.784,1.288a5.087,5.087,0,0,1-1.671,1.027A5.683,5.683,0,0,1,185.961,35.138Zm9.6-15.631V34.895h-2.684V19.506h2.684m.6-4.824a1.734,1.734,0,0,1-.157.735,2.108,2.108,0,0,1-.422.608,1.976,1.976,0,0,1-.609.419,1.843,1.843,0,0,1-.742.152,1.759,1.759,0,0,1-.73-.152,2.038,2.038,0,0,1-1.019-1.027,1.794,1.794,0,0,1-.151-.735,1.9,1.9,0,0,1,.151-.753,1.954,1.954,0,0,1,.416-.626,2.055,2.055,0,0,1,.6-.413,1.759,1.759,0,0,1,.73-.152,1.843,1.843,0,0,1,.742.152,1.967,1.967,0,0,1,1.031,1.039A1.832,1.832,0,0,1,196.166,14.683Zm10.313,4.587a7.807,7.807,0,0,1,3.022.559,6.389,6.389,0,0,1,2.292,1.6,6.984,6.984,0,0,1,1.447,2.5,10.855,10.855,0,0,1,0,6.555,6.992,6.992,0,0,1-1.447,2.491,6.262,6.262,0,0,1-2.292,1.586,8.534,8.534,0,0,1-6.043,0,6.318,6.318,0,0,1-2.3-1.586,7.088,7.088,0,0,1-1.466-2.491,10.733,10.733,0,0,1,0-6.555,7.079,7.079,0,0,1,1.466-2.5,6.447,6.447,0,0,1,2.3-1.6,7.836,7.836,0,0,1,3.022-.559m0,13.73a3.905,3.905,0,0,0,3.378-1.531,7.1,7.1,0,0,0,1.116-4.259,7.163,7.163,0,0,0-1.116-4.283,3.905,3.905,0,0,0-3.378-1.531,4.721,4.721,0,0,0-1.99.389,3.81,3.81,0,0,0-1.411,1.142,5.213,5.213,0,0,0-.844,1.829,10.969,10.969,0,0,0,0,4.9,5.086,5.086,0,0,0,.844,1.81,3.755,3.755,0,0,0,1.411,1.136A4.658,4.658,0,0,0,206.479,33Zm10.585,1.9V19.506h1.6a.686.686,0,0,1,.724.565l.211,1.671a8.67,8.67,0,0,1,2.226-1.792,5.773,5.773,0,0,1,2.841-.68,5.508,5.508,0,0,1,2.207.413,4.281,4.281,0,0,1,1.6,1.185,5.185,5.185,0,0,1,.977,1.847,8.076,8.076,0,0,1,.332,2.388v9.793h-2.684V25.1a4.157,4.157,0,0,0-.8-2.716,2.951,2.951,0,0,0-2.419-.96,4.505,4.505,0,0,0-2.226.577,7.21,7.21,0,0,0-1.906,1.561v11.33Zm22.587,0V19.506h1.6a.686.686,0,0,1,.724.565l.2,1.58a7.755,7.755,0,0,1,1.888-1.713,4.438,4.438,0,0,1,2.437-.668,3.6,3.6,0,0,1,2.509.863,4.89,4.89,0,0,1,1.381,2.339,4.882,4.882,0,0,1,.838-1.446,4.707,4.707,0,0,1,1.17-1,4.891,4.891,0,0,1,1.375-.577,6.174,6.174,0,0,1,1.49-.182,5.66,5.66,0,0,1,2.147.383,4.269,4.269,0,0,1,1.6,1.136,4.973,4.973,0,0,1,1,1.829,8.108,8.108,0,0,1,.35,2.485v9.793h-2.684V25.1a4.18,4.18,0,0,0-.784-2.746,2.815,2.815,0,0,0-2.28-.929,3.465,3.465,0,0,0-1.261.231,3.06,3.06,0,0,0-1.043.693,3.256,3.256,0,0,0-.718,1.148,4.466,4.466,0,0,0-.265,1.6v9.793h-2.684V25.1a4.347,4.347,0,0,0-.736-2.764,2.622,2.622,0,0,0-2.159-.911,3.4,3.4,0,0,0-1.846.535,6.122,6.122,0,0,0-1.562,1.47V34.895Zm30.808-15.625a6.809,6.809,0,0,1,2.533.462,5.662,5.662,0,0,1,2,1.337,6.064,6.064,0,0,1,1.321,2.157,8.351,8.351,0,0,1,.476,2.922,1.74,1.74,0,0,1-.139.851.557.557,0,0,1-.513.213H265.977a8.581,8.581,0,0,0,.392,2.539,5.217,5.217,0,0,0,1,1.8,4.025,4.025,0,0,0,1.508,1.075,5.126,5.126,0,0,0,1.96.358,5.674,5.674,0,0,0,1.743-.237,8.106,8.106,0,0,0,1.26-.5q.525-.279.881-.51a1.164,1.164,0,0,1,.609-.237.591.591,0,0,1,.513.255l.754.99A5.083,5.083,0,0,1,275.4,33.8a7.621,7.621,0,0,1-1.49.735,8.91,8.91,0,0,1-1.634.431,9.8,9.8,0,0,1-1.671.146,7.694,7.694,0,0,1-2.919-.541,6.372,6.372,0,0,1-2.31-1.58,7.258,7.258,0,0,1-1.514-2.57,10.574,10.574,0,0,1-.543-3.53,9,9,0,0,1,.489-3,7.2,7.2,0,0,1,1.411-2.424,6.5,6.5,0,0,1,2.25-1.61,7.345,7.345,0,0,1,2.985-.583m.06,1.987a4.111,4.111,0,0,0-3.064,1.13,5.359,5.359,0,0,0-1.387,3.135h8.311a5.445,5.445,0,0,0-.259-1.719,3.8,3.8,0,0,0-.754-1.355,3.416,3.416,0,0,0-1.212-.881A4.088,4.088,0,0,0,270.519,21.256Zm15.742-1.987a6.809,6.809,0,0,1,2.533.462,5.661,5.661,0,0,1,2,1.337,6.063,6.063,0,0,1,1.321,2.157,8.35,8.35,0,0,1,.476,2.922,1.739,1.739,0,0,1-.139.851.557.557,0,0,1-.513.213H281.779a8.583,8.583,0,0,0,.392,2.539,5.216,5.216,0,0,0,1,1.8,4.024,4.024,0,0,0,1.508,1.075,5.126,5.126,0,0,0,1.96.358,5.674,5.674,0,0,0,1.743-.237,8.112,8.112,0,0,0,1.261-.5q.525-.279.881-.51a1.164,1.164,0,0,1,.609-.237.591.591,0,0,1,.513.255l.754.99a5.082,5.082,0,0,1-1.188,1.057,7.622,7.622,0,0,1-1.49.735,8.91,8.91,0,0,1-1.634.431,9.8,9.8,0,0,1-1.671.146,7.694,7.694,0,0,1-2.919-.541,6.371,6.371,0,0,1-2.31-1.58,7.258,7.258,0,0,1-1.514-2.57,10.576,10.576,0,0,1-.543-3.53,9,9,0,0,1,.489-3,7.2,7.2,0,0,1,1.411-2.424,6.5,6.5,0,0,1,2.25-1.61,7.345,7.345,0,0,1,2.985-.583m.06,1.987a4.111,4.111,0,0,0-3.064,1.13,5.36,5.36,0,0,0-1.387,3.135h8.311a5.445,5.445,0,0,0-.259-1.719,3.8,3.8,0,0,0-.754-1.355,3.416,3.416,0,0,0-1.212-.881A4.088,4.088,0,0,0,286.32,21.256Zm14.324,13.882a3.689,3.689,0,0,1-2.786-1.015,4.094,4.094,0,0,1-.971-2.934V21.772h-1.84a.583.583,0,0,1-.4-.146.562.562,0,0,1-.169-.45V20.1l2.5-.316.621-4.757a.566.566,0,0,1,.193-.371.623.623,0,0,1,.422-.146h1.357v5.3h4.373v1.962h-4.373v9.234a1.977,1.977,0,0,0,.47,1.446,1.626,1.626,0,0,0,1.206.468,2.077,2.077,0,0,0,.73-.115,2.891,2.891,0,0,0,.537-.249q.223-.14.38-.249a.517.517,0,0,1,.283-.115.455.455,0,0,1,.374.261l.784,1.288a5.087,5.087,0,0,1-1.671,1.027A5.684,5.684,0,0,1,300.645,35.138Zm15.362-13.092a.6.6,0,0,1-.561.334,1.071,1.071,0,0,1-.513-.164q-.283-.17-.7-.377a5.986,5.986,0,0,0-.983-.377,4.68,4.68,0,0,0-1.357-.176,3.957,3.957,0,0,0-1.224.176,2.876,2.876,0,0,0-.929.474,2.043,2.043,0,0,0-.585.711,1.893,1.893,0,0,0-.205.875,1.461,1.461,0,0,0,.338.984,3.062,3.062,0,0,0,.9.686,8.039,8.039,0,0,0,1.267.5q.712.225,1.453.474t1.46.553a5.351,5.351,0,0,1,1.267.759,3.463,3.463,0,0,1,.893,1.118,3.4,3.4,0,0,1,.344,1.586,5.035,5.035,0,0,1-.38,1.968,4.2,4.2,0,0,1-1.116,1.561,5.436,5.436,0,0,1-1.809,1.045,7.423,7.423,0,0,1-2.473.377,7.684,7.684,0,0,1-2.9-.522,7.469,7.469,0,0,1-2.2-1.343l.633-1.033a.875.875,0,0,1,.289-.3.768.768,0,0,1,.434-.109,1.006,1.006,0,0,1,.573.213q.3.213.73.474a5.913,5.913,0,0,0,1.043.468,4.685,4.685,0,0,0,1.526.213,4.133,4.133,0,0,0,1.375-.207,2.8,2.8,0,0,0,.977-.553,2.126,2.126,0,0,0,.585-.8,2.536,2.536,0,0,0,.187-.972,1.631,1.631,0,0,0-.338-1.057,2.847,2.847,0,0,0-.9-.717,7.659,7.659,0,0,0-1.273-.516q-.718-.219-1.466-.462t-1.46-.553a5.344,5.344,0,0,1-1.279-.784,3.5,3.5,0,0,1-.893-1.16,3.8,3.8,0,0,1-.338-1.677,4.147,4.147,0,0,1,1.417-3.123,5.07,5.07,0,0,1,1.7-.978,6.78,6.78,0,0,1,2.3-.365,7.324,7.324,0,0,1,2.708.474,6.442,6.442,0,0,1,2.075,1.312Zm14.053,12.849h-2.925V13.128h2.925Zm5.368,0V19.506h1.6a.686.686,0,0,1,.724.565l.211,1.671a8.671,8.671,0,0,1,2.225-1.792,5.774,5.774,0,0,1,2.841-.68,5.508,5.508,0,0,1,2.207.413,4.282,4.282,0,0,1,1.6,1.185,5.112,5.112,0,0,1,.971,1.847,7.942,7.942,0,0,1,.338,2.388v9.793h-2.69V25.1a4.179,4.179,0,0,0-.79-2.716,2.951,2.951,0,0,0-2.419-.96,4.505,4.505,0,0,0-2.226.577,7.211,7.211,0,0,0-1.906,1.561v11.33Zm21.4.243a3.688,3.688,0,0,1-2.786-1.015,4.1,4.1,0,0,1-.971-2.934V21.772h-1.84a.606.606,0,0,1-.41-.146.574.574,0,0,1-.163-.45V20.1l2.5-.316.615-4.757a.591.591,0,0,1,.2-.371.609.609,0,0,1,.422-.146h1.357v5.3h4.373v1.962h-4.373v9.234a1.976,1.976,0,0,0,.47,1.446,1.626,1.626,0,0,0,1.206.468,2.109,2.109,0,0,0,.73-.115,2.711,2.711,0,0,0,.531-.249q.229-.14.386-.249a.513.513,0,0,1,.277-.115.469.469,0,0,1,.38.261l.784,1.288a5.074,5.074,0,0,1-1.677,1.027A5.635,5.635,0,0,1,356.825,35.138Zm12.66-15.868a6.779,6.779,0,0,1,2.533.462,5.651,5.651,0,0,1,2.008,1.337,6.065,6.065,0,0,1,1.321,2.157,8.448,8.448,0,0,1,.47,2.922,1.811,1.811,0,0,1-.133.851.566.566,0,0,1-.513.213H365.01a8.581,8.581,0,0,0,.392,2.539,5.217,5.217,0,0,0,1,1.8,4.025,4.025,0,0,0,1.508,1.075,5.126,5.126,0,0,0,1.96.358,5.711,5.711,0,0,0,1.743-.237,7.869,7.869,0,0,0,1.254-.5q.531-.279.887-.51a1.141,1.141,0,0,1,.609-.237.591.591,0,0,1,.513.255l.754.99a5.2,5.2,0,0,1-1.194,1.057,7.683,7.683,0,0,1-1.484.735,8.91,8.91,0,0,1-1.634.431,9.838,9.838,0,0,1-1.677.146,7.678,7.678,0,0,1-2.913-.541,6.3,6.3,0,0,1-2.31-1.58,7.256,7.256,0,0,1-1.514-2.57,10.573,10.573,0,0,1-.543-3.53,9,9,0,0,1,.489-3,7.071,7.071,0,0,1,1.411-2.424,6.435,6.435,0,0,1,2.244-1.61,7.345,7.345,0,0,1,2.985-.583m.06,1.987a4.1,4.1,0,0,0-3.058,1.13,5.359,5.359,0,0,0-1.387,3.135h8.3a5.564,5.564,0,0,0-.253-1.719,3.926,3.926,0,0,0-.754-1.355,3.489,3.489,0,0,0-1.212-.881A4.1,4.1,0,0,0,369.545,21.256Zm12.684-8.736V34.895h-2.684V12.52Zm7.72,0V34.895h-2.684V12.52Zm7.72,6.986V34.895h-2.684V19.506h2.684m.6-4.824a1.734,1.734,0,0,1-.157.735,2.279,2.279,0,0,1-.422.608,1.957,1.957,0,0,1-.615.419,1.8,1.8,0,0,1-.736.152,1.759,1.759,0,0,1-.73-.152,1.9,1.9,0,0,1-.6-.419,2.015,2.015,0,0,1-.416-.608,1.794,1.794,0,0,1-.151-.735,1.9,1.9,0,0,1,.151-.753,1.946,1.946,0,0,1,1.019-1.039,1.759,1.759,0,0,1,.73-.152,1.8,1.8,0,0,1,.736.152,2.01,2.01,0,0,1,.615.413,2.191,2.191,0,0,1,.422.626A1.832,1.832,0,0,1,398.272,14.683Zm9.27,4.569a7.613,7.613,0,0,1,1.864.219,5.75,5.75,0,0,1,1.574.644h4.149v1.008q0,.5-.633.638L412.759,22a4.688,4.688,0,0,1,.513,2.2,4.768,4.768,0,0,1-.428,2.041,4.58,4.58,0,0,1-1.188,1.573,5.464,5.464,0,0,1-1.809,1,7.317,7.317,0,0,1-2.3.346,7.783,7.783,0,0,1-2.02-.255,2.5,2.5,0,0,0-.73.656,1.172,1.172,0,0,0-.247.68.92.92,0,0,0,.434.826,3.215,3.215,0,0,0,1.164.407,14.041,14.041,0,0,0,1.64.152q.923.024,1.882.1a17.836,17.836,0,0,1,1.876.231,5.721,5.721,0,0,1,1.641.553,3.061,3.061,0,0,1,1.164,1.045,3.127,3.127,0,0,1,.434,1.731,4.043,4.043,0,0,1-.489,1.914,5.078,5.078,0,0,1-1.411,1.646A7.164,7.164,0,0,1,410.636,40a9.571,9.571,0,0,1-3,.437,11.5,11.5,0,0,1-2.931-.334,6.743,6.743,0,0,1-2.087-.9,3.8,3.8,0,0,1-1.242-1.3,3.087,3.087,0,0,1-.416-1.543,2.782,2.782,0,0,1,.718-1.932,4.819,4.819,0,0,1,1.966-1.27,2.652,2.652,0,0,1-1.031-.814,2.184,2.184,0,0,1-.386-1.361,2.15,2.15,0,0,1,.121-.686,2.7,2.7,0,0,1,.368-.7,3.93,3.93,0,0,1,.609-.674,4.038,4.038,0,0,1,.844-.559,4.758,4.758,0,0,1-1.767-1.695,4.619,4.619,0,0,1-.645-2.467,4.711,4.711,0,0,1,.434-2.041,4.563,4.563,0,0,1,1.194-1.567,5.481,5.481,0,0,1,1.833-.99,7.353,7.353,0,0,1,2.328-.352m4.765,16.482a1.332,1.332,0,0,0-.314-.929,2.121,2.121,0,0,0-.862-.541,6.272,6.272,0,0,0-1.248-.279q-.712-.091-1.5-.128t-1.6-.085a14,14,0,0,1-1.55-.164,4.284,4.284,0,0,0-1.393,1,2.021,2.021,0,0,0-.537,1.409,1.868,1.868,0,0,0,.265.966,2.243,2.243,0,0,0,.8.772,4.643,4.643,0,0,0,1.369.516,9.62,9.62,0,0,0,3.878-.006,4.828,4.828,0,0,0,1.46-.559,2.778,2.778,0,0,0,.911-.869,2.033,2.033,0,0,0,.314-1.106m-4.765-8.353a4.159,4.159,0,0,0,1.441-.231,2.85,2.85,0,0,0,1.049-.638,2.582,2.582,0,0,0,.633-.978,3.584,3.584,0,0,0,.211-1.251,3,3,0,0,0-.85-2.248,3.409,3.409,0,0,0-2.485-.838,3.361,3.361,0,0,0-2.461.838,2.99,2.99,0,0,0-.856,2.248,3.409,3.409,0,0,0,.223,1.251,2.643,2.643,0,0,0,.639.978,2.865,2.865,0,0,0,1.037.638A4.051,4.051,0,0,0,407.542,27.38Zm16.315-8.11a6.779,6.779,0,0,1,2.533.462,5.649,5.649,0,0,1,2.008,1.337,6.064,6.064,0,0,1,1.321,2.157,8.448,8.448,0,0,1,.47,2.922,1.81,1.81,0,0,1-.133.851.566.566,0,0,1-.513.213H419.381a8.58,8.58,0,0,0,.392,2.539,5.216,5.216,0,0,0,1,1.8,4.024,4.024,0,0,0,1.508,1.075,5.126,5.126,0,0,0,1.96.358,5.71,5.71,0,0,0,1.743-.237,7.868,7.868,0,0,0,1.255-.5q.531-.279.887-.51a1.141,1.141,0,0,1,.609-.237.591.591,0,0,1,.513.255l.754.99A5.2,5.2,0,0,1,428.8,33.8a7.682,7.682,0,0,1-1.484.735,8.911,8.911,0,0,1-1.634.431,9.837,9.837,0,0,1-1.677.146,7.678,7.678,0,0,1-2.913-.541,6.3,6.3,0,0,1-2.31-1.58,7.258,7.258,0,0,1-1.514-2.57,10.575,10.575,0,0,1-.543-3.53,9,9,0,0,1,.489-3,7.071,7.071,0,0,1,1.411-2.424,6.434,6.434,0,0,1,2.244-1.61,7.345,7.345,0,0,1,2.985-.583m.06,1.987a4.1,4.1,0,0,0-3.058,1.13,5.36,5.36,0,0,0-1.387,3.135h8.305a5.563,5.563,0,0,0-.253-1.719,3.927,3.927,0,0,0-.754-1.355,3.489,3.489,0,0,0-1.212-.881A4.1,4.1,0,0,0,423.917,21.256Zm9.7,13.639V19.506h1.6a.686.686,0,0,1,.724.565l.211,1.671a8.668,8.668,0,0,1,2.226-1.792,5.751,5.751,0,0,1,2.841-.68,5.536,5.536,0,0,1,2.207.413,4.281,4.281,0,0,1,1.6,1.185,5.238,5.238,0,0,1,.971,1.847,8.074,8.074,0,0,1,.332,2.388v9.793h-2.684V25.1a4.179,4.179,0,0,0-.79-2.716,2.951,2.951,0,0,0-2.419-.96A4.483,4.483,0,0,0,438.2,22a7.209,7.209,0,0,0-1.906,1.561v11.33ZM460.8,22.24a1.178,1.178,0,0,1-.241.261.562.562,0,0,1-.344.091.845.845,0,0,1-.488-.188,7.813,7.813,0,0,0-.676-.419,5.9,5.9,0,0,0-.983-.419,4.709,4.709,0,0,0-1.429-.188,4.6,4.6,0,0,0-1.972.4,3.858,3.858,0,0,0-1.441,1.166,5.311,5.311,0,0,0-.875,1.835,9.147,9.147,0,0,0-.3,2.412,8.778,8.778,0,0,0,.32,2.485,5.337,5.337,0,0,0,.887,1.823,3.731,3.731,0,0,0,1.4,1.124,4.256,4.256,0,0,0,1.846.389,4.493,4.493,0,0,0,2.666-.759q.422-.292.694-.522a.83.83,0,0,1,.543-.237.564.564,0,0,1,.513.255l.754.99a5.762,5.762,0,0,1-2.485,1.8,8.768,8.768,0,0,1-3.154.571,6.666,6.666,0,0,1-2.66-.529,6.107,6.107,0,0,1-2.135-1.543,7.286,7.286,0,0,1-1.423-2.485,10.968,10.968,0,0,1-.042-6.531,7.127,7.127,0,0,1,1.387-2.515,6.242,6.242,0,0,1,2.25-1.646,7.6,7.6,0,0,1,3.076-.589,7.228,7.228,0,0,1,2.835.522,6.773,6.773,0,0,1,2.189,1.482Zm9.71-2.971a6.78,6.78,0,0,1,2.533.462,5.65,5.65,0,0,1,2.008,1.337,6.064,6.064,0,0,1,1.321,2.157,8.448,8.448,0,0,1,.47,2.922,1.81,1.81,0,0,1-.133.851.566.566,0,0,1-.513.213H466.033a8.581,8.581,0,0,0,.392,2.539,5.218,5.218,0,0,0,1,1.8,4.024,4.024,0,0,0,1.508,1.075,5.126,5.126,0,0,0,1.96.358,5.71,5.71,0,0,0,1.743-.237,7.867,7.867,0,0,0,1.254-.5q.531-.279.887-.51a1.141,1.141,0,0,1,.609-.237.591.591,0,0,1,.513.255l.754.99a5.2,5.2,0,0,1-1.194,1.057,7.685,7.685,0,0,1-1.484.735,8.91,8.91,0,0,1-1.634.431,9.838,9.838,0,0,1-1.677.146,7.678,7.678,0,0,1-2.913-.541,6.3,6.3,0,0,1-2.31-1.58,7.256,7.256,0,0,1-1.514-2.57,10.573,10.573,0,0,1-.543-3.53,9,9,0,0,1,.489-3,7.069,7.069,0,0,1,1.411-2.424,6.434,6.434,0,0,1,2.244-1.61,7.345,7.345,0,0,1,2.985-.583m.06,1.987a4.1,4.1,0,0,0-3.058,1.13,5.36,5.36,0,0,0-1.387,3.135h8.305a5.567,5.567,0,0,0-.253-1.719,3.927,3.927,0,0,0-.754-1.355,3.489,3.489,0,0,0-1.212-.881A4.1,4.1,0,0,0,470.568,21.256Z" transform="translate(-451 -24)" fill="#fdffe8"/>
      </g>
    </g>
    <g id="Group_1390" data-name="Group 1390" transform="translate(22 -164)">
      <rect id="Rectangle_445" data-name="Rectangle 445" width="108" height="18" rx="4" transform="translate(541 168)" fill="#b44c9c"/>
      <rect id="Rectangle_446" data-name="Rectangle 446" width="108" height="18" rx="4" transform="translate(541 202)" fill="#20A4C8"/>
      <rect id="Rectangle_447" data-name="Rectangle 447" width="108" height="18" rx="4" transform="translate(541 235)" fill="#6242ab"/>
    </g>
  </g>
</svg>
