<svg xmlns="http://www.w3.org/2000/svg" width="143.995" height="145.675" viewBox="0 0 143.995 145.675">
  <g id="Automation2" transform="translate(-0.005 0.04)">
    <path id="Path_38241" data-name="Path 38241" d="M126.35,129.35V110.88l-10.86-.68a37.55,37.55,0,0,0-3.69-8.91l7.08-8.24L105.83,80l-8.16,7.19a37.889,37.889,0,0,0-8.92-3.7l-.82-10.83H69.47L68.78,83.5a38,38,0,0,0-8.91,3.7l-8.24-7.08L38.57,93.18l7.2,8.16a38,38,0,0,0-3.69,8.91l-10.84.82v18.47l10.87.68a37.77,37.77,0,0,0,3.7,8.88l-7.11,8.27,13.06,13.06L60,153.21a37.72,37.72,0,0,0,8.88,3.68l.82,10.88H88.12l.68-10.89a37.75,37.75,0,0,0,8.88-3.69L106,160.3l13-13.06-7.2-8.18a37.62,37.62,0,0,0,3.68-8.89Z" transform="translate(-29 -24.37)" fill="none" stroke="#666" stroke-miterlimit="10" stroke-width="4.47"/>
    <circle id="Ellipse_1356" data-name="Ellipse 1356" cx="23.82" cy="23.82" r="23.82" transform="translate(25.98 72)" fill="none" stroke="#707070" stroke-miterlimit="10" stroke-width="4"/>
    <path id="Path_38242" data-name="Path 38242" d="M171,62.46V50.71l-6.91-.44a24.209,24.209,0,0,0-2.35-5.67l4.51-5.25L157.93,31l-5.19,4.57a23.8,23.8,0,0,0-5.67-2.35l-.53-6.89H134.79l-.44,6.9a24.42,24.42,0,0,0-5.67,2.36l-5.25-4.51-8.31,8.31,4.58,5.2a23.77,23.77,0,0,0-2.34,5.67l-6.91.52v11.8l6.92.44a24.269,24.269,0,0,0,2.36,5.65l-4.53,5.27,8.32,8.31,5.21-4.6A23.79,23.79,0,0,0,134.38,80l.53,6.93h11.75L147.1,80a24.24,24.24,0,0,0,5.65-2.35L158,82.17l8.31-8.32-4.59-5.2A23.89,23.89,0,0,0,164.09,63Z" transform="translate(-29 -24.37)" fill="none" stroke="#666" stroke-miterlimit="10" stroke-width="4"/>
    <circle id="Ellipse_1357" data-name="Ellipse 1357" cx="15.16" cy="15.16" r="15.16" transform="translate(96.57 17.1)" fill="none" stroke="#707070" stroke-miterlimit="10" stroke-width="4"/>
  </g>
</svg>
