<svg xmlns="http://www.w3.org/2000/svg" width="148.847" height="148.851" viewBox="0 0 148.847 148.851">
  <g id="ProcessEfficiency" transform="translate(0.038)">
    <path id="Path_38243" data-name="Path 38243" d="M155.59,106.41V93.59L139,91.6a39.6,39.6,0,0,0-5.48-13.22l10.34-13.16-9.06-9.06L121.62,66.5A39.6,39.6,0,0,0,108.4,61l-2-16.61H93.59L91.6,61a39.6,39.6,0,0,0-13.22,5.5L65.22,56.16l-9.06,9.06L66.5,78.38A39.6,39.6,0,0,0,61,91.6l-16.61,2v12.82l16.61,2a39.6,39.6,0,0,0,5.48,13.22L56.16,134.78l9.06,9.06L78.38,133.5A39.6,39.6,0,0,0,91.6,139l2,16.61h12.82l2-16.61a39.6,39.6,0,0,0,13.22-5.48l13.16,10.34,9.06-9.06L133.5,121.62A39.6,39.6,0,0,0,139,108.4Z" transform="translate(-25.64 -25.64)" fill="none" stroke="#666" stroke-miterlimit="10" stroke-width="4"/>
    <circle id="Ellipse_1358" data-name="Ellipse 1358" cx="26.84" cy="26.84" r="26.84" transform="translate(47.52 47.52)" fill="none" stroke="#707070" stroke-miterlimit="10" stroke-width="4"/>
    <path id="Path_38244" data-name="Path 38244" d="M62.48,62.48l11.5,12.26,16.1-16.1" fill="none" stroke="#707070" stroke-miterlimit="10" stroke-width="4"/>
    <path id="Path_38245" data-name="Path 38245" d="M100,27.64A72.36,72.36,0,1,1,49.24,48.43" transform="translate(-25.64 -25.64)" fill="none" stroke="#666" stroke-miterlimit="10" stroke-width="4"/>
    <path id="Path_38246" data-name="Path 38246" d="M31.18,15.1,19.47,18.23l8.57,8.57Z" fill="none" stroke="#707070" stroke-miterlimit="10" stroke-width="4"/>
  </g>
</svg>
