<svg xmlns="http://www.w3.org/2000/svg" width="109.919" height="89.016" viewBox="0 0 109.919 89.016">
  <g id="Annual_report" transform="translate(-201.898 -220.466)">
    <path id="Path_66271" data-name="Path 66271" d="M264.46,244.023h0a4.656,4.656,0,0,1-4.656-4.656h0a4.655,4.655,0,0,1,4.656-4.656h0a4.656,4.656,0,0,1,4.656,4.656h0A4.657,4.657,0,0,1,264.46,244.023Z" fill="#ddd" opacity="0.9"/>
    <path id="Path_66272" data-name="Path 66272" d="M274.888,307.982H225.951V221.966h62.256v72.7" fill="none" stroke="#000" stroke-miterlimit="10" stroke-width="3"/>
    <path id="Path_66273" data-name="Path 66273" d="M268.945,302.039v-13.32h13.32" fill="none" stroke="#000" stroke-miterlimit="10" stroke-width="3"/>
    <line id="Line_305" data-name="Line 305" x2="19.558" transform="translate(240.246 260.259)" fill="none" stroke="#fc0" stroke-miterlimit="10" stroke-width="3"/>
    <line id="Line_306" data-name="Line 306" x2="12.022" transform="translate(240.246 239.367)" fill="none" stroke="#000" stroke-miterlimit="10" stroke-width="3"/>
    <line id="Line_307" data-name="Line 307" x2="19.558" transform="translate(240.246 271.953)" fill="none" stroke="#fc0" stroke-miterlimit="10" stroke-width="3"/>
    <line id="Line_308" data-name="Line 308" x2="19.558" transform="translate(240.246 283.647)" fill="none" stroke="#fc0" stroke-miterlimit="10" stroke-width="3"/>
    <path id="Path_66274" data-name="Path 66274" d="M265.252,256.44l4.276,4.276,5.771-5.77" fill="none" stroke="#2bb8e4" stroke-miterlimit="10" stroke-width="3"/>
    <path id="Path_66275" data-name="Path 66275" d="M265.252,270.563l4.276,4.276,5.771-5.77" fill="none" stroke="#2bb8e4" stroke-miterlimit="10" stroke-width="3"/>
    <path id="Path_66276" data-name="Path 66276" d="M211.783,305.3h9.885V225.239L201.9,250.367h9.885Z" fill="#2bb8e4"/>
    <path id="Path_66277" data-name="Path 66277" d="M301.933,225.239h-9.885V305.3l19.77-25.128h-9.885Z" fill="#fc0"/>
  </g>
</svg>
