<svg xmlns="http://www.w3.org/2000/svg" width="90.687" height="85.683" viewBox="0 0 90.687 85.683">
  <g id="Services_report" transform="translate(-53.458 -103.424)">
    <path id="Path_66252" data-name="Path 66252" d="M107.815,187.606H54.958V104.924h65.661V174.8" fill="none" stroke="#000" stroke-miterlimit="10" stroke-width="3"/>
    <path id="Path_66253" data-name="Path 66253" d="M101.15,181.894v-12.8h12.8" fill="none" stroke="#000" stroke-miterlimit="10" stroke-width="3"/>
    <path id="Path_66254" data-name="Path 66254" d="M66.606,125.319l3.081,3.081,7.087-7.087" fill="none" stroke="#2bb8e4" stroke-miterlimit="10" stroke-width="3"/>
    <path id="Path_66255" data-name="Path 66255" d="M66.606,136.346l3.081,3.081,7.087-7.087" fill="none" stroke="#2bb8e4" stroke-miterlimit="10" stroke-width="3"/>
    <path id="Path_66256" data-name="Path 66256" d="M66.606,147.373l3.081,3.081,7.087-7.087" fill="none" stroke="#2bb8e4" stroke-miterlimit="10" stroke-width="3"/>
    <path id="Path_66257" data-name="Path 66257" d="M66.606,158.4l3.081,3.081,7.087-7.087" fill="none" stroke="#2bb8e4" stroke-miterlimit="10" stroke-width="3"/>
    <line id="Line_283" data-name="Line 283" x2="8.962" transform="translate(81.092 126.617)" fill="none" stroke="#000" stroke-miterlimit="10" stroke-width="3"/>
    <line id="Line_284" data-name="Line 284" x2="14.387" transform="translate(95.95 126.617)" fill="none" stroke="#000" stroke-miterlimit="10" stroke-width="3"/>
    <line id="Line_285" data-name="Line 285" x2="17.651" transform="translate(81.092 136.606)" fill="none" stroke="#000" stroke-miterlimit="10" stroke-width="3"/>
    <line id="Line_286" data-name="Line 286" x2="7.193" transform="translate(103.144 136.606)" fill="none" stroke="#000" stroke-miterlimit="10" stroke-width="3"/>
    <line id="Line_287" data-name="Line 287" x2="6.115" transform="translate(81.092 146.91)" fill="none" stroke="#000" stroke-miterlimit="10" stroke-width="3"/>
    <line id="Line_288" data-name="Line 288" x2="9.437" transform="translate(89.917 146.91)" fill="none" stroke="#000" stroke-miterlimit="10" stroke-width="3"/>
    <line id="Line_289" data-name="Line 289" x2="6.242" transform="translate(104.095 146.91)" fill="none" stroke="#000" stroke-miterlimit="10" stroke-width="3"/>
    <line id="Line_290" data-name="Line 290" x1="8.962" transform="translate(101.375 157.937)" fill="none" stroke="#000" stroke-miterlimit="10" stroke-width="3"/>
    <line id="Line_291" data-name="Line 291" x1="14.387" transform="translate(81.092 157.937)" fill="none" stroke="#000" stroke-miterlimit="10" stroke-width="3"/>
    <rect id="Rectangle_18451" data-name="Rectangle 18451" width="25.856" height="9.23" transform="translate(66.98 169.643)" fill="#ddd" opacity="0.9"/>
    <path id="Path_66258" data-name="Path 66258" d="M133.506,163.2V116.587h9.139V163.2" fill="none" stroke="#000" stroke-miterlimit="10" stroke-width="3"/>
    <line id="Line_292" data-name="Line 292" y2="30.303" transform="translate(138.075 132.9)" fill="none" stroke="#fc0" stroke-miterlimit="10" stroke-width="3"/>
    <path id="Path_66259" data-name="Path 66259" d="M142.645,172.554l-4.569,10.207-4.57-10.207v-3.615h9.139Z" fill="#fc0"/>
    <rect id="Rectangle_18452" data-name="Rectangle 18452" width="9.873" height="6.582" transform="translate(132.772 104.924)" fill="#2bb8e4"/>
  </g>
</svg>
